  0
SECTION
  2
HEADER
  9
$ACADVER
  1
AC1014
  9
$HANDSEED
  5
FFFF
  9
$INSUNITS
 70
     0
  9
$MEASUREMENT
 70
     1
  0
ENDSEC
  0
SECTION
  2
TABLES
  0
TABLE
  2
VPORT
  5
8
330
0
100
AcDbSymbolTable
 70
     4
  0
VPORT
  5
2E
330
8
100
AcDbSymbolTableRecord
100
AcDbViewportTableRecord
  2
*ACTIVE
 70
     0
 10
0.0
 20
0.0
 11
1.0
 21
1.0
 12
210.0
 22
148.5
 13
0.0
 23
0.0
 14
10.0
 24
10.0
 15
10.0
 25
10.0
 16
0.0
 26
0.0
 36
1.0
 17
0.0
 27
0.0
 37
0.0
 40
341.0
 41
1.24
 42
50.0
 43
0.0
 44
0.0
 50
0.0
 51
0.0
 71
     0
 72
   100
 73
     1
 74
     3
 75
     0
 76
     0
 77
     0
 78
     0
  0
ENDTAB
  0
TABLE
  2
LTYPE
  5
5
330
0
100
AcDbSymbolTable
 70
     1
  0
LTYPE
  5
14
330
5
100
AcDbSymbolTableRecord
100
AcDbLinetypeTableRecord
  2
BYBLOCK
 70
     0
  3

 72
    65
 73
     0
 40
0.0
  0
LTYPE
  5
15
330
5
100
AcDbSymbolTableRecord
100
AcDbLinetypeTableRecord
  2
BYLAYER
 70
     0
  3

 72
    65
 73
     0
 40
0.0
  0
LTYPE
  5
16
330
5
100
AcDbSymbolTableRecord
100
AcDbLinetypeTableRecord
  2
CONTINUOUS
 70
     0
  3
Solid line
 72
    65
 73
     0
 40
0.0
  0
ENDTAB
  0
TABLE
  2
LAYER
  5
2
100
AcDbSymbolTable
 70
2
  0
LAYER
  5
50
100
AcDbSymbolTableRecord
100
AcDbLayerTableRecord
  2
0
 70
0
  6
CONTINUOUS
  0
LAYER
  5
51
100
AcDbSymbolTableRecord
100
AcDbLayerTableRecord
  2
case
 70
0
  6
CONTINUOUS
  0
ENDTAB
  0
TABLE
  2
STYLE
  5
3
330
0
100
AcDbSymbolTable
 70
     1
  0
STYLE
  5
11
330
3
100
AcDbSymbolTableRecord
100
AcDbTextStyleTableRecord
  2
STANDARD
 70
     0
 40
0.0
 41
1.0
 50
0.0
 71
     0
 42
2.5
  3
txt
  4

  0
ENDTAB
  0
TABLE
  2
VIEW
  5
6
330
0
100
AcDbSymbolTable
 70
     0
  0
ENDTAB
  0
TABLE
  2
UCS
  5
7
330
0
100
AcDbSymbolTable
 70
     0
  0
ENDTAB
  0
TABLE
  2
APPID
  5
9
330
0
100
AcDbSymbolTable
 70
     2
  0
APPID
  5
12
330
9
100
AcDbSymbolTableRecord
100
AcDbRegAppTableRecord
  2
ACAD
 70
     0
  0
ENDTAB
  0
TABLE
  2
DIMSTYLE
  5
A
330
0
100
AcDbSymbolTable
 70
     1
  0
DIMSTYLE
105
27
330
A
100
AcDbSymbolTableRecord
100
AcDbDimStyleTableRecord
  2
ISO-25
 70
     0
  3

  4

  5

  6

  7

 40
1.0
 41
2.5
 42
0.625
 43
3.75
 44
1.25
 45
0.0
 46
0.0
 47
0.0
 48
0.0
140
2.5
141
2.5
142
0.0
143
0.03937007874016
144
1.0
145
0.0
146
1.0
147
0.625
 71
     0
 72
     0
 73
     0
 74
     0
 75
     0
 76
     0
 77
     1
 78
     8
170
     0
171
     3
172
     1
173
     0
174
     0
175
     0
176
     0
177
     0
178
     0
270
     2
271
     2
272
     2
273
     2
274
     3
340
11
275
     0
280
     0
281
     0
282
     0
283
     0
284
     8
285
     0
286
     0
287
     3
288
     0
  0
ENDTAB
  0
TABLE
  2
BLOCK_RECORD
  5
1
330
0
100
AcDbSymbolTable
 70
     1
  0
BLOCK_RECORD
  5
1F
330
1
100
AcDbSymbolTableRecord
100
AcDbBlockTableRecord
  2
*MODEL_SPACE
  0
BLOCK_RECORD
  5
1B
330
1
100
AcDbSymbolTableRecord
100
AcDbBlockTableRecord
  2
*PAPER_SPACE
  0
ENDTAB
  0
ENDSEC
  0
SECTION
  2
BLOCKS
  0
BLOCK
  5
20
330
1F
100
AcDbEntity
  8
0
100
AcDbBlockBegin
  2
*MODEL_SPACE
 70
     0
 10
0.0
 20
0.0
 30
0.0
  3
*MODEL_SPACE
  1

  0
ENDBLK
  5
21
330
1F
100
AcDbEntity
  8
0
100
AcDbBlockEnd
  0
BLOCK
  5
1C
330
1B
100
AcDbEntity
 67
     1
  8
0
100
AcDbBlockBegin
  2
*PAPER_SPACE
  1

  0
ENDBLK
  5
1D
330
1B
100
AcDbEntity
 67
     1
  8
0
100
AcDbBlockEnd
  0
ENDSEC
  0
SECTION
  2
ENTITIES
  0
LWPOLYLINE
  5
100
100
AcDbEntity
  8
case
 62
7
100
AcDbPolyline
 90
780
 70
1
 10
615.550770
 20
483.623040
 30
0.0
 10
615.678769
 20
483.489707
 30
0.0
 10
615.806769
 20
483.357708
 30
0.0
 10
615.936102
 20
483.221708
 30
0.0
 10
616.060102
 20
483.085708
 30
0.0
 10
616.185435
 20
482.945709
 30
0.0
 10
616.306768
 20
482.805709
 30
0.0
 10
616.426767
 20
482.667043
 30
0.0
 10
616.548100
 20
482.523043
 30
0.0
 10
616.661433
 20
482.379043
 30
0.0
 10
616.778766
 20
482.235044
 30
0.0
 10
616.892100
 20
482.088377
 30
0.0
 10
617.001433
 20
481.936378
 30
0.0
 10
617.110766
 20
481.789712
 30
0.0
 10
617.221432
 20
481.639045
 30
0.0
 10
617.326765
 20
481.487046
 30
0.0
 10
617.429432
 20
481.332379
 30
0.0
 10
617.530765
 20
481.177713
 30
0.0
 10
617.633431
 20
481.021713
 30
0.0
 10
617.730764
 20
480.863047
 30
0.0
 10
617.825431
 20
480.704381
 30
0.0
 10
617.920097
 20
480.545715
 30
0.0
 10
618.014763
 20
480.383048
 30
0.0
 10
618.105430
 20
480.221715
 30
0.0
 10
618.192096
 20
480.059049
 30
0.0
 10
618.278763
 20
479.896383
 30
0.0
 10
618.362763
 20
479.729717
 30
0.0
 10
618.445429
 20
479.563050
 30
0.0
 10
618.525429
 20
479.397718
 30
0.0
 10
618.604095
 20
479.227051
 30
0.0
 10
618.680095
 20
479.060385
 30
0.0
 10
618.754762
 20
478.891052
 30
0.0
 10
618.826761
 20
478.716386
 30
0.0
 10
618.898761
 20
478.547053
 30
0.0
 10
618.962761
 20
478.372387
 30
0.0
 10
619.030761
 20
478.199054
 30
0.0
 10
619.096094
 20
478.025721
 30
0.0
 10
619.156094
 20
477.851055
 30
0.0
 10
619.216094
 20
477.673722
 30
0.0
 10
619.273427
 20
477.500389
 30
0.0
 10
619.325427
 20
477.321723
 30
0.0
 10
619.378760
 20
477.144390
 30
0.0
 10
619.432093
 20
476.963057
 30
0.0
 10
619.477426
 20
476.785724
 30
0.0
 10
619.526760
 20
476.608391
 30
0.0
 10
619.568093
 20
476.427058
 30
0.0
 10
619.609426
 20
476.244392
 30
0.0
 10
619.650759
 20
476.063059
 30
0.0
 10
619.689426
 20
475.881726
 30
0.0
 10
619.722759
 20
475.700393
 30
0.0
 10
619.757426
 20
475.515061
 30
0.0
 10
619.786759
 20
475.333728
 30
0.0
 10
619.813426
 20
475.152395
 30
0.0
 10
619.840092
 20
474.967062
 30
0.0
 10
619.862759
 20
474.781729
 30
0.0
 10
619.885425
 20
474.600396
 30
0.0
 10
619.904092
 20
474.416397
 30
0.0
 10
619.922759
 20
474.231064
 30
0.0
 10
619.938759
 20
474.045731
 30
0.0
 10
619.949425
 20
473.860398
 30
0.0
 10
619.961425
 20
473.675065
 30
0.0
 10
619.968092
 20
473.489732
 30
0.0
 10
619.972092
 20
473.304399
 30
0.0
 10
619.976092
 20
473.119067
 30
0.0
 10
619.980092
 20
472.933734
 30
0.0
 10
619.980092
 20
224.669021
 30
0.0
 10
619.976092
 20
224.483688
 30
0.0
 10
619.972092
 20
224.298355
 30
0.0
 10
619.968092
 20
224.113022
 30
0.0
 10
619.961425
 20
223.927690
 30
0.0
 10
619.949425
 20
223.742357
 30
0.0
 10
619.938759
 20
223.558357
 30
0.0
 10
619.922759
 20
223.373024
 30
0.0
 10
619.904092
 20
223.187691
 30
0.0
 10
619.885425
 20
223.002358
 30
0.0
 10
619.862759
 20
222.821026
 30
0.0
 10
619.840092
 20
222.635693
 30
0.0
 10
619.813426
 20
222.450360
 30
0.0
 10
619.786759
 20
222.269027
 30
0.0
 10
619.757426
 20
222.087694
 30
0.0
 10
619.722759
 20
221.902361
 30
0.0
 10
619.689426
 20
221.721028
 30
0.0
 10
619.650759
 20
221.539695
 30
0.0
 10
619.609426
 20
221.358363
 30
0.0
 10
619.568093
 20
221.177030
 30
0.0
 10
619.526760
 20
220.995697
 30
0.0
 10
619.477426
 20
220.817031
 30
0.0
 10
619.432093
 20
220.639698
 30
0.0
 10
619.378760
 20
220.458365
 30
0.0
 10
619.325427
 20
220.281032
 30
0.0
 10
619.273427
 20
220.103699
 30
0.0
 10
619.216094
 20
219.929033
 30
0.0
 10
619.156094
 20
219.751700
 30
0.0
 10
619.096094
 20
219.578367
 30
0.0
 10
619.030761
 20
219.403701
 30
0.0
 10
618.962761
 20
219.230368
 30
0.0
 10
618.898761
 20
219.057035
 30
0.0
 10
618.826761
 20
218.886369
 30
0.0
 10
618.754762
 20
218.713036
 30
0.0
 10
618.680095
 20
218.542370
 30
0.0
 10
618.604095
 20
218.375703
 30
0.0
 10
618.525429
 20
218.206370
 30
0.0
 10
618.445429
 20
218.039704
 30
0.0
 10
618.362763
 20
217.873038
 30
0.0
 10
618.278763
 20
217.707705
 30
0.0
 10
618.192096
 20
217.545039
 30
0.0
 10
618.105430
 20
217.382373
 30
0.0
 10
618.014763
 20
217.219706
 30
0.0
 10
617.920097
 20
217.057040
 30
0.0
 10
617.825431
 20
216.898374
 30
0.0
 10
617.730764
 20
216.739707
 30
0.0
 10
617.633431
 20
216.581041
 30
0.0
 10
617.530765
 20
216.426375
 30
0.0
 10
617.429432
 20
216.270375
 30
0.0
 10
617.326765
 20
216.115709
 30
0.0
 10
617.221432
 20
215.965043
 30
0.0
 10
617.110766
 20
215.813043
 30
0.0
 10
617.001433
 20
215.666377
 30
0.0
 10
616.892100
 20
215.514377
 30
0.0
 10
616.778766
 20
215.367711
 30
0.0
 10
616.661433
 20
215.223711
 30
0.0
 10
616.548100
 20
215.079712
 30
0.0
 10
616.426767
 20
214.937045
 30
0.0
 10
616.306768
 20
214.797046
 30
0.0
 10
616.185435
 20
214.657046
 30
0.0
 10
616.060102
 20
214.517046
 30
0.0
 10
615.936102
 20
214.381047
 30
0.0
 10
615.806769
 20
214.245047
 30
0.0
 10
615.678769
 20
214.113047
 30
0.0
 10
615.550770
 20
213.981048
 30
0.0
 10
406.137960
 20
4.568238
 30
0.0
 10
406.005960
 20
4.440238
 30
0.0
 10
405.873960
 20
4.312239
 30
0.0
 10
405.737961
 20
4.182906
 30
0.0
 10
405.601961
 20
4.058906
 30
0.0
 10
405.461961
 20
3.933573
 30
0.0
 10
405.321962
 20
3.812240
 30
0.0
 10
405.181962
 20
3.692240
 30
0.0
 10
405.039296
 20
3.570907
 30
0.0
 10
404.895296
 20
3.457574
 30
0.0
 10
404.751297
 20
3.340241
 30
0.0
 10
404.604630
 20
3.226908
 30
0.0
 10
404.452631
 20
3.117575
 30
0.0
 10
404.305964
 20
3.008242
 30
0.0
 10
404.153965
 20
2.897575
 30
0.0
 10
404.003298
 20
2.792242
 30
0.0
 10
403.848632
 20
2.690909
 30
0.0
 10
403.692633
 20
2.588243
 30
0.0
 10
403.537966
 20
2.485576
 30
0.0
 10
403.379300
 20
2.388243
 30
0.0
 10
403.220634
 20
2.293577
 30
0.0
 10
403.061967
 20
2.198911
 30
0.0
 10
402.899301
 20
2.104244
 30
0.0
 10
402.736635
 20
2.013578
 30
0.0
 10
402.573969
 20
1.926911
 30
0.0
 10
402.412636
 20
1.840245
 30
0.0
 10
402.245969
 20
1.756245
 30
0.0
 10
402.079303
 20
1.673578
 30
0.0
 10
401.912637
 20
1.594912
 30
0.0
 10
401.743304
 20
1.514912
 30
0.0
 10
401.576638
 20
1.438912
 30
0.0
 10
401.405972
 20
1.364246
 30
0.0
 10
401.232639
 20
1.292246
 30
0.0
 10
401.063306
 20
1.220246
 30
0.0
 10
400.888640
 20
1.156246
 30
0.0
 10
400.715307
 20
1.088247
 30
0.0
 10
400.540640
 20
1.022913
 30
0.0
 10
400.367308
 20
0.962914
 30
0.0
 10
400.189975
 20
0.902914
 30
0.0
 10
400.015308
 20
0.845581
 30
0.0
 10
399.837976
 20
0.793581
 30
0.0
 10
399.660643
 20
0.740247
 30
0.0
 10
399.479310
 20
0.686914
 30
0.0
 10
399.301977
 20
0.641581
 30
0.0
 10
399.123311
 20
0.592248
 30
0.0
 10
398.941978
 20
0.550915
 30
0.0
 10
398.760645
 20
0.509581
 30
0.0
 10
398.579312
 20
0.468248
 30
0.0
 10
398.397979
 20
0.429582
 30
0.0
 10
398.216646
 20
0.396248
 30
0.0
 10
398.031313
 20
0.361582
 30
0.0
 10
397.849980
 20
0.332249
 30
0.0
 10
397.668648
 20
0.305582
 30
0.0
 10
397.483315
 20
0.278915
 30
0.0
 10
397.297982
 20
0.256249
 30
0.0
 10
397.116649
 20
0.233582
 30
0.0
 10
396.931316
 20
0.214915
 30
0.0
 10
396.745983
 20
0.196249
 30
0.0
 10
396.560650
 20
0.180249
 30
0.0
 10
396.376651
 20
0.169582
 30
0.0
 10
396.191318
 20
0.157582
 30
0.0
 10
396.005985
 20
0.150916
 30
0.0
 10
395.820652
 20
0.146916
 30
0.0
 10
395.635319
 20
0.142916
 30
0.0
 10
395.449986
 20
0.138916
 30
0.0
 10
392.853993
 20
0.138916
 30
0.0
 10
392.668660
 20
0.142916
 30
0.0
 10
392.483327
 20
0.146916
 30
0.0
 10
392.297994
 20
0.150916
 30
0.0
 10
392.112661
 20
0.157582
 30
0.0
 10
391.927329
 20
0.169582
 30
0.0
 10
391.741996
 20
0.180249
 30
0.0
 10
391.556663
 20
0.196249
 30
0.0
 10
391.372663
 20
0.214915
 30
0.0
 10
391.187330
 20
0.233582
 30
0.0
 10
391.005998
 20
0.256249
 30
0.0
 10
390.820665
 20
0.278915
 30
0.0
 10
390.635332
 20
0.305582
 30
0.0
 10
390.453999
 20
0.332249
 30
0.0
 10
390.272666
 20
0.361582
 30
0.0
 10
390.087333
 20
0.396248
 30
0.0
 10
389.906000
 20
0.429582
 30
0.0
 10
389.724667
 20
0.468248
 30
0.0
 10
389.543335
 20
0.509581
 30
0.0
 10
389.360668
 20
0.550915
 30
0.0
 10
389.179335
 20
0.592248
 30
0.0
 10
389.002003
 20
0.641581
 30
0.0
 10
388.824670
 20
0.686914
 30
0.0
 10
388.643337
 20
0.740247
 30
0.0
 10
388.466004
 20
0.793581
 30
0.0
 10
388.287338
 20
0.845581
 30
0.0
 10
388.114005
 20
0.902914
 30
0.0
 10
387.936672
 20
0.962914
 30
0.0
 10
387.762006
 20
1.022913
 30
0.0
 10
387.588673
 20
1.088247
 30
0.0
 10
387.415340
 20
1.156246
 30
0.0
 10
387.240674
 20
1.220246
 30
0.0
 10
387.071341
 20
1.292246
 30
0.0
 10
386.896675
 20
1.364246
 30
0.0
 10
386.727342
 20
1.438912
 30
0.0
 10
386.560675
 20
1.514912
 30
0.0
 10
386.390009
 20
1.594912
 30
0.0
 10
386.224676
 20
1.673578
 30
0.0
 10
386.058010
 20
1.756245
 30
0.0
 10
385.891344
 20
1.840245
 30
0.0
 10
385.728677
 20
1.926911
 30
0.0
 10
385.566011
 20
2.013578
 30
0.0
 10
385.404678
 20
2.104244
 30
0.0
 10
385.242012
 20
2.198911
 30
0.0
 10
385.083346
 20
2.293577
 30
0.0
 10
384.924679
 20
2.388243
 30
0.0
 10
384.766013
 20
2.485576
 30
0.0
 10
384.610014
 20
2.588243
 30
0.0
 10
384.455347
 20
2.690909
 30
0.0
 10
384.300681
 20
2.792242
 30
0.0
 10
384.150015
 20
2.897575
 30
0.0
 10
383.998015
 20
3.008242
 30
0.0
 10
383.851349
 20
3.117575
 30
0.0
 10
383.699349
 20
3.226908
 30
0.0
 10
383.552683
 20
3.340241
 30
0.0
 10
383.408683
 20
3.457574
 30
0.0
 10
383.264684
 20
3.570907
 30
0.0
 10
383.120684
 20
3.692240
 30
0.0
 10
382.982018
 20
3.812240
 30
0.0
 10
382.842018
 20
3.933573
 30
0.0
 10
382.702018
 20
4.058906
 30
0.0
 10
382.566019
 20
4.182906
 30
0.0
 10
382.430019
 20
4.312239
 30
0.0
 10
382.298019
 20
4.440238
 30
0.0
 10
382.164686
 20
4.568238
 30
0.0
 10
181.257189
 20
205.854401
 30
0.0
 10
181.125189
 20
205.982401
 30
0.0
 10
180.993189
 20
206.111734
 30
0.0
 10
180.857190
 20
206.239734
 30
0.0
 10
180.721190
 20
206.365067
 30
0.0
 10
180.581190
 20
206.489066
 30
0.0
 10
180.441191
 20
206.610399
 30
0.0
 10
180.301191
 20
206.731733
 30
0.0
 10
180.157191
 20
206.851732
 30
0.0
 10
180.013192
 20
206.965065
 30
0.0
 10
179.870525
 20
207.082398
 30
0.0
 10
179.722526
 20
207.195731
 30
0.0
 10
179.571859
 20
207.306398
 30
0.0
 10
179.423860
 20
207.415731
 30
0.0
 10
179.273194
 20
207.525064
 30
0.0
 10
179.121194
 20
207.630397
 30
0.0
 10
178.966528
 20
207.733063
 30
0.0
 10
178.811861
 20
207.834396
 30
0.0
 10
178.657195
 20
207.937063
 30
0.0
 10
178.498529
 20
208.035729
 30
0.0
 10
178.339863
 20
208.130396
 30
0.0
 10
178.181196
 20
208.223729
 30
0.0
 10
178.018530
 20
208.318395
 30
0.0
 10
177.855864
 20
208.409062
 30
0.0
 10
177.693198
 20
208.497061
 30
0.0
 10
177.530531
 20
208.583728
 30
0.0
 10
177.363865
 20
208.666394
 30
0.0
 10
177.198532
 20
208.749061
 30
0.0
 10
177.031866
 20
208.829061
 30
0.0
 10
176.861200
 20
208.907727
 30
0.0
 10
176.695867
 20
208.983727
 30
0.0
 10
176.525200
 20
209.059727
 30
0.0
 10
176.351868
 20
209.131727
 30
0.0
 10
176.181201
 20
209.203726
 30
0.0
 10
176.007868
 20
209.267726
 30
0.0
 10
175.833202
 20
209.335726
 30
0.0
 10
175.659869
 20
209.399726
 30
0.0
 10
175.486536
 20
209.459726
 30
0.0
 10
175.307870
 20
209.521059
 30
0.0
 10
175.134537
 20
209.577059
 30
0.0
 10
174.957204
 20
209.630392
 30
0.0
 10
174.778538
 20
209.683725
 30
0.0
 10
174.597205
 20
209.735725
 30
0.0
 10
174.419872
 20
209.781058
 30
0.0
 10
174.242539
 20
209.830391
 30
0.0
 10
174.061207
 20
209.871725
 30
0.0
 10
173.879874
 20
209.914391
 30
0.0
 10
173.698541
 20
209.955724
 30
0.0
 10
173.517208
 20
209.993058
 30
0.0
 10
173.335875
 20
210.027724
 30
0.0
 10
173.150542
 20
210.061058
 30
0.0
 10
172.969209
 20
210.091724
 30
0.0
 10
172.787876
 20
210.118391
 30
0.0
 10
172.602544
 20
210.143724
 30
0.0
 10
172.417211
 20
210.166391
 30
0.0
 10
172.235878
 20
210.189057
 30
0.0
 10
172.050545
 20
210.209057
 30
0.0
 10
171.865212
 20
210.227724
 30
0.0
 10
171.679879
 20
210.242390
 30
0.0
 10
171.494546
 20
210.254390
 30
0.0
 10
171.309213
 20
210.265057
 30
0.0
 10
171.123881
 20
210.273057
 30
0.0
 10
170.938548
 20
210.277057
 30
0.0
 10
170.754548
 20
210.279724
 30
0.0
 10
170.569215
 20
210.279724
 30
0.0
 10
25.294912
 20
210.279724
 30
0.0
 10
25.110912
 20
210.283724
 30
0.0
 10
24.925579
 20
210.287724
 30
0.0
 10
24.740247
 20
210.291724
 30
0.0
 10
24.554914
 20
210.299724
 30
0.0
 10
24.369581
 20
210.310390
 30
0.0
 10
24.184248
 20
210.322390
 30
0.0
 10
23.998915
 20
210.337057
 30
0.0
 10
23.813582
 20
210.355723
 30
0.0
 10
23.628249
 20
210.374390
 30
0.0
 10
23.446916
 20
210.397057
 30
0.0
 10
23.261584
 20
210.419723
 30
0.0
 10
23.076251
 20
210.446390
 30
0.0
 10
22.894918
 20
210.473056
 30
0.0
 10
22.713585
 20
210.503723
 30
0.0
 10
22.528252
 20
210.537056
 30
0.0
 10
22.346919
 20
210.571723
 30
0.0
 10
22.165586
 20
210.609056
 30
0.0
 10
21.984253
 20
210.650389
 30
0.0
 10
21.802921
 20
210.691723
 30
0.0
 10
21.621588
 20
210.734389
 30
0.0
 10
21.444255
 20
210.782389
 30
0.0
 10
21.266922
 20
210.827722
 30
0.0
 10
21.085589
 20
210.881055
 30
0.0
 10
20.906923
 20
210.934389
 30
0.0
 10
20.729590
 20
210.987722
 30
0.0
 10
20.556257
 20
211.043722
 30
0.0
 10
20.378924
 20
211.103722
 30
0.0
 10
20.204258
 20
211.165055
 30
0.0
 10
20.030925
 20
211.229055
 30
0.0
 10
19.856259
 20
211.297054
 30
0.0
 10
19.682926
 20
211.361054
 30
0.0
 10
19.512260
 20
211.433054
 30
0.0
 10
19.338927
 20
211.505054
 30
0.0
 10
19.168261
 20
211.581054
 30
0.0
 10
19.002928
 20
211.655720
 30
0.0
 10
18.832261
 20
211.735720
 30
0.0
 10
18.665595
 20
211.814386
 30
0.0
 10
18.500262
 20
211.898386
 30
0.0
 10
18.333596
 20
211.981053
 30
0.0
 10
18.170930
 20
212.067719
 30
0.0
 10
18.008263
 20
212.154386
 30
0.0
 10
17.845597
 20
212.245052
 30
0.0
 10
17.682931
 20
212.339718
 30
0.0
 10
17.524265
 20
212.434385
 30
0.0
 10
17.365598
 20
212.529051
 30
0.0
 10
17.206932
 20
212.627718
 30
0.0
 10
17.052266
 20
212.729051
 30
0.0
 10
16.897600
 20
212.831717
 30
0.0
 10
16.742933
 20
212.933050
 30
0.0
 10
16.590934
 20
213.039717
 30
0.0
 10
16.440267
 20
213.149050
 30
0.0
 10
16.292268
 20
213.258383
 30
0.0
 10
16.141601
 20
213.367716
 30
0.0
 10
15.993602
 20
213.481049
 30
0.0
 10
15.850935
 20
213.598382
 30
0.0
 10
15.706936
 20
213.711715
 30
0.0
 10
15.562936
 20
213.833048
 30
0.0
 10
15.422937
 20
213.954381
 30
0.0
 10
15.282937
 20
214.074381
 30
0.0
 10
15.144271
 20
214.199714
 30
0.0
 10
15.006938
 20
214.325047
 30
0.0
 10
14.870938
 20
214.453047
 30
0.0
 10
14.738938
 20
214.581046
 30
0.0
 10
14.606939
 20
214.710379
 30
0.0
 10
4.564297
 20
224.751687
 30
0.0
 10
4.436297
 20
224.885020
 30
0.0
 10
4.308298
 20
225.017020
 30
0.0
 10
4.178965
 20
225.153020
 30
0.0
 10
4.054965
 20
225.289019
 30
0.0
 10
3.929632
 20
225.429019
 30
0.0
 10
3.808299
 20
225.569019
 30
0.0
 10
3.688299
 20
225.707685
 30
0.0
 10
3.566966
 20
225.851685
 30
0.0
 10
3.453633
 20
225.995684
 30
0.0
 10
3.336300
 20
226.139684
 30
0.0
 10
3.222967
 20
226.286350
 30
0.0
 10
3.113634
 20
226.438350
 30
0.0
 10
3.004301
 20
226.585016
 30
0.0
 10
2.893635
 20
226.737016
 30
0.0
 10
2.788301
 20
226.887682
 30
0.0
 10
2.686968
 20
227.042348
 30
0.0
 10
2.584302
 20
227.197015
 30
0.0
 10
2.481636
 20
227.353014
 30
0.0
 10
2.384302
 20
227.511681
 30
0.0
 10
2.289636
 20
227.670347
 30
0.0
 10
2.194970
 20
227.829013
 30
0.0
 10
2.100303
 20
227.991679
 30
0.0
 10
2.009637
 20
228.154346
 30
0.0
 10
1.922970
 20
228.315679
 30
0.0
 10
1.836304
 20
228.478345
 30
0.0
 10
1.752304
 20
228.645011
 30
0.0
 10
1.669638
 20
228.811677
 30
0.0
 10
1.590971
 20
228.977010
 30
0.0
 10
1.510971
 20
229.147676
 30
0.0
 10
1.434972
 20
229.314343
 30
0.0
 10
1.360305
 20
229.483676
 30
0.0
 10
1.288305
 20
229.658342
 30
0.0
 10
1.216305
 20
229.827675
 30
0.0
 10
1.152306
 20
230.002341
 30
0.0
 10
1.084306
 20
230.175674
 30
0.0
 10
1.018973
 20
230.349007
 30
0.0
 10
0.958973
 20
230.523673
 30
0.0
 10
0.898973
 20
230.701006
 30
0.0
 10
0.841640
 20
230.874339
 30
0.0
 10
0.789640
 20
231.053005
 30
0.0
 10
0.736307
 20
231.230338
 30
0.0
 10
0.682973
 20
231.411671
 30
0.0
 10
0.637640
 20
231.589004
 30
0.0
 10
0.588307
 20
231.766337
 30
0.0
 10
0.546974
 20
231.947669
 30
0.0
 10
0.505641
 20
232.130336
 30
0.0
 10
0.464307
 20
232.311669
 30
0.0
 10
0.425641
 20
232.493001
 30
0.0
 10
0.392307
 20
232.674334
 30
0.0
 10
0.357641
 20
232.859667
 30
0.0
 10
0.328308
 20
233.041000
 30
0.0
 10
0.301641
 20
233.222333
 30
0.0
 10
0.274974
 20
233.407666
 30
0.0
 10
0.252308
 20
233.592999
 30
0.0
 10
0.229641
 20
233.774332
 30
0.0
 10
0.210975
 20
233.959664
 30
0.0
 10
0.192308
 20
234.143664
 30
0.0
 10
0.176308
 20
234.328997
 30
0.0
 10
0.165641
 20
234.514330
 30
0.0
 10
0.153641
 20
234.699663
 30
0.0
 10
0.146975
 20
234.884995
 30
0.0
 10
0.142975
 20
235.070328
 30
0.0
 10
0.138975
 20
235.255661
 30
0.0
 10
0.138975
 20
235.440994
 30
0.0
 10
0.138975
 20
499.391001
 30
0.0
 10
0.138975
 20
499.576334
 30
0.0
 10
0.142975
 20
499.761667
 30
0.0
 10
0.146975
 20
499.946999
 30
0.0
 10
0.153641
 20
500.130999
 30
0.0
 10
0.165641
 20
500.316332
 30
0.0
 10
0.176308
 20
500.501665
 30
0.0
 10
0.192308
 20
500.686998
 30
0.0
 10
0.210975
 20
500.872330
 30
0.0
 10
0.229641
 20
501.057663
 30
0.0
 10
0.252308
 20
501.238996
 30
0.0
 10
0.274974
 20
501.424329
 30
0.0
 10
0.301641
 20
501.609662
 30
0.0
 10
0.328308
 20
501.790995
 30
0.0
 10
0.357641
 20
501.972328
 30
0.0
 10
0.392307
 20
502.157661
 30
0.0
 10
0.425641
 20
502.338993
 30
0.0
 10
0.464307
 20
502.520326
 30
0.0
 10
0.505641
 20
502.701659
 30
0.0
 10
0.546974
 20
502.882992
 30
0.0
 10
0.588307
 20
503.064325
 30
0.0
 10
0.637640
 20
503.241658
 30
0.0
 10
0.682973
 20
503.420324
 30
0.0
 10
0.736307
 20
503.601657
 30
0.0
 10
0.789640
 20
503.778990
 30
0.0
 10
0.841640
 20
503.956323
 30
0.0
 10
0.898973
 20
504.129656
 30
0.0
 10
0.958973
 20
504.308322
 30
0.0
 10
1.018973
 20
504.481655
 30
0.0
 10
1.084306
 20
504.656321
 30
0.0
 10
1.152306
 20
504.829654
 30
0.0
 10
1.216305
 20
505.002987
 30
0.0
 10
1.288305
 20
505.173653
 30
0.0
 10
1.360305
 20
505.346986
 30
0.0
 10
1.434972
 20
505.517652
 30
0.0
 10
1.510971
 20
505.684318
 30
0.0
 10
1.590971
 20
505.853651
 30
0.0
 10
1.669638
 20
506.020318
 30
0.0
 10
1.752304
 20
506.186984
 30
0.0
 10
1.836304
 20
506.352317
 30
0.0
 10
1.922970
 20
506.514983
 30
0.0
 10
2.009637
 20
506.677649
 30
0.0
 10
2.100303
 20
506.840316
 30
0.0
 10
2.194970
 20
507.002982
 30
0.0
 10
2.289636
 20
507.161648
 30
0.0
 10
2.384302
 20
507.320314
 30
0.0
 10
2.481636
 20
507.478981
 30
0.0
 10
2.584302
 20
507.633647
 30
0.0
 10
2.686968
 20
507.788313
 30
0.0
 10
2.788301
 20
507.944313
 30
0.0
 10
2.893635
 20
508.094979
 30
0.0
 10
3.004301
 20
508.245645
 30
0.0
 10
3.113634
 20
508.393645
 30
0.0
 10
3.222967
 20
508.544311
 30
0.0
 10
3.336300
 20
508.692311
 30
0.0
 10
3.453633
 20
508.836311
 30
0.0
 10
3.566966
 20
508.978977
 30
0.0
 10
3.688299
 20
509.122977
 30
0.0
 10
3.808299
 20
509.262976
 30
0.0
 10
3.929632
 20
509.402976
 30
0.0
 10
4.054965
 20
509.542975
 30
0.0
 10
4.178965
 20
509.678975
 30
0.0
 10
4.308298
 20
509.814975
 30
0.0
 10
4.436297
 20
509.946974
 30
0.0
 10
4.564297
 20
510.078974
 30
0.0
 10
15.857602
 20
521.372279
 30
0.0
 10
15.952269
 20
521.466946
 30
0.0
 10
16.050935
 20
521.561612
 30
0.0
 10
16.149601
 20
521.656279
 30
0.0
 10
16.250934
 20
521.750945
 30
0.0
 10
16.349601
 20
521.841611
 30
0.0
 10
16.450934
 20
521.936278
 30
0.0
 10
16.553600
 20
522.026944
 30
0.0
 10
16.654933
 20
522.113611
 30
0.0
 10
16.761600
 20
522.204277
 30
0.0
 10
16.862933
 20
522.290944
 30
0.0
 10
16.969599
 20
522.377610
 30
0.0
 10
17.074932
 20
522.464277
 30
0.0
 10
17.180265
 20
522.548276
 30
0.0
 10
17.290932
 20
522.634943
 30
0.0
 10
17.400265
 20
522.717609
 30
0.0
 10
17.505598
 20
522.797609
 30
0.0
 10
17.614931
 20
522.880275
 30
0.0
 10
17.728264
 20
522.960275
 30
0.0
 10
17.838931
 20
523.038942
 30
0.0
 10
17.952264
 20
523.118942
 30
0.0
 10
18.065597
 20
523.193608
 30
0.0
 10
18.178930
 20
523.269608
 30
0.0
 10
18.292263
 20
523.345608
 30
0.0
 10
18.405596
 20
523.421607
 30
0.0
 10
18.522929
 20
523.492274
 30
0.0
 10
18.636262
 20
523.564274
 30
0.0
 10
18.753595
 20
523.636274
 30
0.0
 10
18.870928
 20
523.704273
 30
0.0
 10
18.986928
 20
523.772273
 30
0.0
 10
19.108261
 20
523.840273
 30
0.0
 10
19.225594
 20
523.908273
 30
0.0
 10
19.346927
 20
523.972273
 30
0.0
 10
19.466926
 20
524.037606
 30
0.0
 10
19.588259
 20
524.101606
 30
0.0
 10
19.709592
 20
524.165606
 30
0.0
 10
19.830926
 20
524.225605
 30
0.0
 10
19.954925
 20
524.286939
 30
0.0
 10
20.076258
 20
524.342938
 30
0.0
 10
20.200258
 20
524.404272
 30
0.0
 10
20.325591
 20
524.460272
 30
0.0
 10
20.449591
 20
524.513605
 30
0.0
 10
20.574924
 20
524.569605
 30
0.0
 10
20.698923
 20
524.622938
 30
0.0
 10
20.824256
 20
524.676271
 30
0.0
 10
20.952256
 20
524.724271
 30
0.0
 10
21.081589
 20
524.777604
 30
0.0
 10
21.205589
 20
524.822937
 30
0.0
 10
21.334922
 20
524.872270
 30
0.0
 10
21.462921
 20
524.917604
 30
0.0
 10
21.590921
 20
524.962937
 30
0.0
 10
21.720254
 20
525.008270
 30
0.0
 10
21.852254
 20
525.049603
 30
0.0
 10
21.980253
 20
525.090937
 30
0.0
 10
22.109586
 20
525.133603
 30
0.0
 10
22.241586
 20
525.174936
 30
0.0
 10
22.373586
 20
525.212270
 30
0.0
 10
22.502919
 20
525.249603
 30
0.0
 10
22.634919
 20
525.284269
 30
0.0
 10
22.766918
 20
525.318936
 30
0.0
 10
22.898918
 20
525.352269
 30
0.0
 10
23.030918
 20
525.386936
 30
0.0
 10
23.166917
 20
525.416269
 30
0.0
 10
23.300250
 20
525.446936
 30
0.0
 10
23.432250
 20
525.473602
 30
0.0
 10
232.926393
 20
569.580159
 30
0.0
 10
232.975726
 20
569.588159
 30
0.0
 10
233.021059
 20
569.598825
 30
0.0
 10
233.070392
 20
569.610825
 30
0.0
 10
233.119726
 20
569.617492
 30
0.0
 10
233.169059
 20
569.629492
 30
0.0
 10
233.214392
 20
569.637492
 30
0.0
 10
233.263725
 20
569.644159
 30
0.0
 10
233.313058
 20
569.656159
 30
0.0
 10
233.358392
 20
569.662825
 30
0.0
 10
233.406392
 20
569.670825
 30
0.0
 10
233.455725
 20
569.682825
 30
0.0
 10
233.505058
 20
569.689492
 30
0.0
 10
233.554391
 20
569.697492
 30
0.0
 10
233.599724
 20
569.705492
 30
0.0
 10
233.649058
 20
569.712158
 30
0.0
 10
233.698391
 20
569.720158
 30
0.0
 10
233.747724
 20
569.728158
 30
0.0
 10
233.795724
 20
569.734825
 30
0.0
 10
233.841057
 20
569.742825
 30
0.0
 10
233.890390
 20
569.750825
 30
0.0
 10
233.939724
 20
569.757492
 30
0.0
 10
233.989057
 20
569.761492
 30
0.0
 10
234.038390
 20
569.769492
 30
0.0
 10
234.087723
 20
569.776158
 30
0.0
 10
234.137056
 20
569.784158
 30
0.0
 10
234.182390
 20
569.788158
 30
0.0
 10
234.230390
 20
569.796158
 30
0.0
 10
234.279723
 20
569.798825
 30
0.0
 10
234.329056
 20
569.806825
 30
0.0
 10
234.378389
 20
569.810825
 30
0.0
 10
234.427722
 20
569.818825
 30
0.0
 10
234.477056
 20
569.821491
 30
0.0
 10
234.526389
 20
569.825491
 30
0.0
 10
234.574389
 20
569.833491
 30
0.0
 10
234.619722
 20
569.837491
 30
0.0
 10
234.669055
 20
569.841491
 30
0.0
 10
234.718388
 20
569.844158
 30
0.0
 10
234.767722
 20
569.848158
 30
0.0
 10
234.817055
 20
569.852158
 30
0.0
 10
234.866388
 20
569.856158
 30
0.0
 10
234.915721
 20
569.860158
 30
0.0
 10
234.963721
 20
569.864158
 30
0.0
 10
235.013054
 20
569.866825
 30
0.0
 10
235.062387
 20
569.870825
 30
0.0
 10
235.111721
 20
569.874825
 30
0.0
 10
235.161054
 20
569.878825
 30
0.0
 10
235.210387
 20
569.878825
 30
0.0
 10
235.258387
 20
569.882825
 30
0.0
 10
235.307720
 20
569.886825
 30
0.0
 10
235.353053
 20
569.886825
 30
0.0
 10
235.402387
 20
569.889491
 30
0.0
 10
235.451720
 20
569.889491
 30
0.0
 10
235.501053
 20
569.893491
 30
0.0
 10
235.550386
 20
569.893491
 30
0.0
 10
235.599719
 20
569.897491
 30
0.0
 10
235.647719
 20
569.897491
 30
0.0
 10
235.697053
 20
569.897491
 30
0.0
 10
235.746386
 20
569.901491
 30
0.0
 10
235.795719
 20
569.901491
 30
0.0
 10
235.845052
 20
569.901491
 30
0.0
 10
235.894385
 20
569.901491
 30
0.0
 10
235.943719
 20
569.901491
 30
0.0
 10
235.991718
 20
569.901491
 30
0.0
 10
236.041052
 20
569.901491
 30
0.0
 10
337.547465
 20
569.901491
 30
0.0
 10
337.604798
 20
569.901491
 30
0.0
 10
337.660798
 20
569.901491
 30
0.0
 10
337.718131
 20
569.901491
 30
0.0
 10
337.774131
 20
569.901491
 30
0.0
 10
337.827464
 20
569.901491
 30
0.0
 10
337.884797
 20
569.901491
 30
0.0
 10
337.940797
 20
569.897491
 30
0.0
 10
337.998130
 20
569.897491
 30
0.0
 10
338.054130
 20
569.893491
 30
0.0
 10
338.107463
 20
569.893491
 30
0.0
 10
338.163463
 20
569.889491
 30
0.0
 10
338.220796
 20
569.889491
 30
0.0
 10
338.276796
 20
569.886825
 30
0.0
 10
338.334129
 20
569.882825
 30
0.0
 10
338.387462
 20
569.878825
 30
0.0
 10
338.443462
 20
569.874825
 30
0.0
 10
338.500796
 20
569.874825
 30
0.0
 10
338.556795
 20
569.870825
 30
0.0
 10
338.610129
 20
569.866825
 30
0.0
 10
338.666128
 20
569.864158
 30
0.0
 10
338.723462
 20
569.856158
 30
0.0
 10
338.779461
 20
569.852158
 30
0.0
 10
338.836795
 20
569.848158
 30
0.0
 10
338.890128
 20
569.844158
 30
0.0
 10
338.946128
 20
569.837491
 30
0.0
 10
339.003461
 20
569.833491
 30
0.0
 10
339.059461
 20
569.829491
 30
0.0
 10
339.112794
 20
569.821491
 30
0.0
 10
339.168794
 20
569.814825
 30
0.0
 10
339.226127
 20
569.810825
 30
0.0
 10
339.279460
 20
569.802825
 30
0.0
 10
339.335460
 20
569.796158
 30
0.0
 10
339.392793
 20
569.792158
 30
0.0
 10
339.448793
 20
569.784158
 30
0.0
 10
339.502126
 20
569.776158
 30
0.0
 10
339.558126
 20
569.769492
 30
0.0
 10
339.615459
 20
569.761492
 30
0.0
 10
339.668793
 20
569.753492
 30
0.0
 10
339.724792
 20
569.746825
 30
0.0
 10
339.782126
 20
569.738825
 30
0.0
 10
339.834126
 20
569.728158
 30
0.0
 10
339.891459
 20
569.720158
 30
0.0
 10
339.947459
 20
569.712158
 30
0.0
 10
340.000792
 20
569.705492
 30
0.0
 10
340.058125
 20
569.693492
 30
0.0
 10
340.110125
 20
569.685492
 30
0.0
 10
340.167458
 20
569.674825
 30
0.0
 10
340.223458
 20
569.662825
 30
0.0
 10
340.276791
 20
569.656159
 30
0.0
 10
340.332791
 20
569.644159
 30
0.0
 10
340.386124
 20
569.633492
 30
0.0
 10
340.443457
 20
569.625492
 30
0.0
 10
340.495457
 20
569.614825
 30
0.0
 10
340.552790
 20
569.602825
 30
0.0
 10
340.606124
 20
569.592159
 30
0.0
 10
340.662123
 20
569.580159
 30
0.0
 10
340.715457
 20
569.569492
 30
0.0
 10
340.771456
 20
569.557492
 30
0.0
 10
340.824790
 20
569.542825
 30
0.0
 10
340.880790
 20
569.530826
 30
0.0
 10
340.934123
 20
569.520159
 30
0.0
 10
340.991456
 20
569.508159
 30
0.0
 10
341.043456
 20
569.493492
 30
0.0
 10
341.096789
 20
569.481492
 30
0.0
 10
585.609511
 20
510.430973
 30
0.0
 10
585.733511
 20
510.396307
 30
0.0
 10
585.858844
 20
510.366973
 30
0.0
 10
585.982843
 20
510.332307
 30
0.0
 10
586.108176
 20
510.298974
 30
0.0
 10
586.232176
 20
510.264307
 30
0.0
 10
586.357509
 20
510.226974
 30
0.0
 10
586.481509
 20
510.188307
 30
0.0
 10
586.606842
 20
510.150974
 30
0.0
 10
586.732175
 20
510.113641
 30
0.0
 10
586.852175
 20
510.072307
 30
0.0
 10
586.977508
 20
510.029641
 30
0.0
 10
587.097507
 20
509.988308
 30
0.0
 10
587.218840
 20
509.942974
 30
0.0
 10
587.340173
 20
509.897641
 30
0.0
 10
587.461506
 20
509.852308
 30
0.0
 10
587.581506
 20
509.806975
 30
0.0
 10
587.702839
 20
509.757642
 30
0.0
 10
587.824172
 20
509.708308
 30
0.0
 10
587.944172
 20
509.660309
 30
0.0
 10
588.061505
 20
509.610975
 30
0.0
 10
588.182838
 20
509.557642
 30
0.0
 10
588.300171
 20
509.504309
 30
0.0
 10
588.417504
 20
509.448309
 30
0.0
 10
588.534837
 20
509.394976
 30
0.0
 10
588.652170
 20
509.338976
 30
0.0
 10
588.768170
 20
509.281643
 30
0.0
 10
588.881503
 20
509.225643
 30
0.0
 10
588.998836
 20
509.164310
 30
0.0
 10
589.112169
 20
509.104310
 30
0.0
 10
589.225502
 20
509.044310
 30
0.0
 10
589.342835
 20
508.982977
 30
0.0
 10
589.456168
 20
508.918977
 30
0.0
 10
589.565501
 20
508.854977
 30
0.0
 10
589.680168
 20
508.790977
 30
0.0
 10
589.793501
 20
508.725644
 30
0.0
 10
589.902834
 20
508.657644
 30
0.0
 10
590.012167
 20
508.589645
 30
0.0
 10
590.121500
 20
508.521645
 30
0.0
 10
590.230833
 20
508.453645
 30
0.0
 10
590.341499
 20
508.381645
 30
0.0
 10
590.450832
 20
508.310979
 30
0.0
 10
590.556165
 20
508.238979
 30
0.0
 10
590.662832
 20
508.162979
 30
0.0
 10
590.768165
 20
508.090979
 30
0.0
 10
590.873498
 20
508.016313
 30
0.0
 10
590.980164
 20
507.940313
 30
0.0
 10
591.085497
 20
507.860313
 30
0.0
 10
591.188164
 20
507.785647
 30
0.0
 10
591.289497
 20
507.705647
 30
0.0
 10
591.392163
 20
507.626980
 30
0.0
 10
591.493496
 20
507.546980
 30
0.0
 10
591.596163
 20
507.464314
 30
0.0
 10
591.693496
 20
507.384314
 30
0.0
 10
591.796162
 20
507.301648
 30
0.0
 10
591.894829
 20
507.214981
 30
0.0
 10
591.992162
 20
507.130982
 30
0.0
 10
592.086828
 20
507.044315
 30
0.0
 10
592.185495
 20
506.957649
 30
0.0
 10
592.280161
 20
506.870982
 30
0.0
 10
592.377494
 20
506.782982
 30
0.0
 10
592.469494
 20
506.696316
 30
0.0
 10
592.562827
 20
506.605649
 30
0.0
 10
592.657493
 20
506.514983
 30
0.0
 10
592.748160
 20
506.424317
 30
0.0
  0
LWPOLYLINE
  5
101
100
AcDbEntity
  8
case
 62
7
100
AcDbPolyline
 90
4
 70
1
 10
464.973813
 20
135.071912
 30
0.0
 10
479.672443
 20
149.770542
 30
0.0
 10
493.835074
 20
135.605244
 30
0.0
 10
479.136444
 20
120.906614
 30
0.0
  0
LWPOLYLINE
  5
102
100
AcDbEntity
  8
case
 62
7
100
AcDbPolyline
 90
4
 70
1
 10
423.415250
 20
218.319704
 30
0.0
 10
432.768560
 20
227.674347
 30
0.0
 10
443.457866
 20
216.985040
 30
0.0
 10
434.107223
 20
207.630397
 30
0.0
  0
LWPOLYLINE
  5
103
100
AcDbEntity
  8
case
 62
7
100
AcDbPolyline
 90
4
 70
1
 10
400.832640
 20
199.210418
 30
0.0
 10
415.531270
 20
213.909048
 30
0.0
 10
429.696568
 20
199.746417
 30
0.0
 10
414.997938
 20
185.047787
 30
0.0
  0
LWPOLYLINE
  5
104
100
AcDbEntity
  8
case
 62
7
100
AcDbPolyline
 90
4
 70
1
 10
487.556423
 20
154.181197
 30
0.0
 10
496.911066
 20
163.531841
 30
0.0
 10
507.600373
 20
152.842534
 30
0.0
 10
498.245729
 20
143.489224
 30
0.0
  0
LWPOLYLINE
  5
105
100
AcDbEntity
  8
case
 62
7
100
AcDbPolyline
 90
65
 70
1
 10
181.271855
 20
219.049035
 30
0.0
 10
181.271855
 20
219.049035
 30
0.0
 10
180.871856
 20
219.071702
 30
0.0
 10
180.474524
 20
219.127702
 30
0.0
 10
180.085192
 20
219.226368
 30
0.0
 10
179.707859
 20
219.362368
 30
0.0
 10
179.345193
 20
219.533034
 30
0.0
 10
179.001194
 20
219.741033
 30
0.0
 10
178.679862
 20
219.978366
 30
0.0
 10
178.385196
 20
220.246365
 30
0.0
 10
178.115863
 20
220.542365
 30
0.0
 10
177.878530
 20
220.862364
 30
0.0
 10
177.670531
 20
221.206363
 30
0.0
 10
177.499865
 20
221.570362
 30
0.0
 10
177.363865
 20
221.947694
 30
0.0
 10
177.266532
 20
222.337027
 30
0.0
 10
177.209199
 20
222.734359
 30
0.0
 10
177.190532
 20
223.130358
 30
0.0
 10
177.209199
 20
223.531691
 30
0.0
 10
177.266532
 20
223.927690
 30
0.0
 10
177.363865
 20
224.317022
 30
0.0
 10
177.499865
 20
224.695688
 30
0.0
 10
177.670531
 20
225.058353
 30
0.0
 10
177.878530
 20
225.402352
 30
0.0
 10
178.115863
 20
225.723685
 30
0.0
 10
178.385196
 20
226.018351
 30
0.0
 10
178.679862
 20
226.286350
 30
0.0
 10
179.001194
 20
226.525016
 30
0.0
 10
179.345193
 20
226.733016
 30
0.0
 10
179.707859
 20
226.902349
 30
0.0
 10
180.085192
 20
227.038348
 30
0.0
 10
180.474524
 20
227.137015
 30
0.0
 10
180.871856
 20
227.194348
 30
0.0
 10
181.269189
 20
227.213015
 30
0.0
 10
181.669188
 20
227.194348
 30
0.0
 10
182.066520
 20
227.137015
 30
0.0
 10
182.455852
 20
227.038348
 30
0.0
 10
182.833185
 20
226.902349
 30
0.0
 10
183.195850
 20
226.733016
 30
0.0
 10
183.539850
 20
226.525016
 30
0.0
 10
183.861182
 20
226.286350
 30
0.0
 10
184.155848
 20
226.018351
 30
0.0
 10
184.423847
 20
225.723685
 30
0.0
 10
184.662513
 20
225.402352
 30
0.0
 10
184.870513
 20
225.058353
 30
0.0
 10
185.041179
 20
224.695688
 30
0.0
 10
185.177179
 20
224.317022
 30
0.0
 10
185.274512
 20
223.927690
 30
0.0
 10
185.331845
 20
223.531691
 30
0.0
 10
185.354512
 20
223.130358
 30
0.0
 10
185.331845
 20
222.734359
 30
0.0
 10
185.274512
 20
222.337027
 30
0.0
 10
185.177179
 20
221.947694
 30
0.0
 10
185.041179
 20
221.570362
 30
0.0
 10
184.870513
 20
221.206363
 30
0.0
 10
184.662513
 20
220.862364
 30
0.0
 10
184.423847
 20
220.542365
 30
0.0
 10
184.155848
 20
220.246365
 30
0.0
 10
183.861182
 20
219.978366
 30
0.0
 10
183.539850
 20
219.741033
 30
0.0
 10
183.195850
 20
219.533034
 30
0.0
 10
182.833185
 20
219.362368
 30
0.0
 10
182.455852
 20
219.226368
 30
0.0
 10
182.066520
 20
219.127702
 30
0.0
 10
181.669188
 20
219.071702
 30
0.0
  0
LWPOLYLINE
  5
106
100
AcDbEntity
  8
case
 62
7
100
AcDbPolyline
 90
65
 70
1
 10
532.766977
 20
345.284719
 30
0.0
 10
532.766977
 20
345.284719
 30
0.0
 10
532.366978
 20
345.307386
 30
0.0
 10
531.969645
 20
345.364719
 30
0.0
 10
531.580313
 20
345.462052
 30
0.0
 10
531.202980
 20
345.598052
 30
0.0
 10
530.840315
 20
345.768718
 30
0.0
 10
530.496316
 20
345.976718
 30
0.0
 10
530.174983
 20
346.214050
 30
0.0
 10
529.880317
 20
346.483383
 30
0.0
 10
529.612318
 20
346.778049
 30
0.0
 10
529.373652
 20
347.099382
 30
0.0
 10
529.165652
 20
347.443381
 30
0.0
 10
528.994986
 20
347.806046
 30
0.0
 10
528.858986
 20
348.183379
 30
0.0
 10
528.761653
 20
348.572711
 30
0.0
 10
528.704320
 20
348.970044
 30
0.0
 10
528.685653
 20
349.366043
 30
0.0
 10
528.704320
 20
349.767375
 30
0.0
 10
528.761653
 20
350.164707
 30
0.0
 10
528.858986
 20
350.554040
 30
0.0
 10
528.994986
 20
350.931372
 30
0.0
 10
529.165652
 20
351.294038
 30
0.0
 10
529.373652
 20
351.638037
 30
0.0
 10
529.612318
 20
351.959369
 30
0.0
 10
529.880317
 20
352.254035
 30
0.0
 10
530.174983
 20
352.522035
 30
0.0
 10
530.496316
 20
352.760701
 30
0.0
 10
530.840315
 20
352.968700
 30
0.0
 10
531.202980
 20
353.138033
 30
0.0
 10
531.580313
 20
353.274033
 30
0.0
 10
531.969645
 20
353.372699
 30
0.0
 10
532.366978
 20
353.430032
 30
0.0
 10
532.764310
 20
353.448699
 30
0.0
 10
533.164309
 20
353.430032
 30
0.0
 10
533.561641
 20
353.372699
 30
0.0
 10
533.950974
 20
353.274033
 30
0.0
 10
534.328306
 20
353.138033
 30
0.0
 10
534.690972
 20
352.968700
 30
0.0
 10
535.034971
 20
352.760701
 30
0.0
 10
535.356303
 20
352.522035
 30
0.0
 10
535.650969
 20
352.254035
 30
0.0
 10
535.920302
 20
351.959369
 30
0.0
 10
536.157635
 20
351.638037
 30
0.0
 10
536.365634
 20
351.294038
 30
0.0
 10
536.536300
 20
350.931372
 30
0.0
 10
536.672300
 20
350.554040
 30
0.0
 10
536.769633
 20
350.164707
 30
0.0
 10
536.826966
 20
349.767375
 30
0.0
 10
536.849633
 20
349.366043
 30
0.0
 10
536.826966
 20
348.970044
 30
0.0
 10
536.769633
 20
348.572711
 30
0.0
 10
536.672300
 20
348.183379
 30
0.0
 10
536.536300
 20
347.806046
 30
0.0
 10
536.365634
 20
347.443381
 30
0.0
 10
536.157635
 20
347.099382
 30
0.0
 10
535.920302
 20
346.778049
 30
0.0
 10
535.650969
 20
346.483383
 30
0.0
 10
535.356303
 20
346.214050
 30
0.0
 10
535.034971
 20
345.976718
 30
0.0
 10
534.690972
 20
345.768718
 30
0.0
 10
534.328306
 20
345.598052
 30
0.0
 10
533.950974
 20
345.462052
 30
0.0
 10
533.561641
 20
345.364719
 30
0.0
 10
533.164309
 20
345.307386
 30
0.0
  0
LWPOLYLINE
  5
107
100
AcDbEntity
  8
case
 62
7
100
AcDbPolyline
 90
4
 70
1
 10
385.083346
 20
391.696603
 30
0.0
 10
385.083346
 20
443.855140
 30
0.0
 10
437.240549
 20
443.855140
 30
0.0
 10
437.240549
 20
391.696603
 30
0.0
  0
LWPOLYLINE
  5
108
100
AcDbEntity
  8
case
 62
7
100
AcDbPolyline
 90
4
 70
1
 10
313.271525
 20
263.194258
 30
0.0
 10
313.271525
 20
315.351461
 30
0.0
 10
365.430062
 20
315.351461
 30
0.0
 10
365.430062
 20
263.194258
 30
0.0
  0
LWPOLYLINE
  5
109
100
AcDbEntity
  8
case
 62
7
100
AcDbPolyline
 90
4
 70
1
 10
342.707452
 20
178.234470
 30
0.0
 10
305.822211
 20
141.349229
 30
0.0
 10
268.942303
 20
178.234470
 30
0.0
 10
305.822211
 20
215.114378
 30
0.0
  0
LWPOLYLINE
  5
10a
100
AcDbEntity
  8
case
 62
7
100
AcDbPolyline
 90
4
 70
1
 10
456.893833
 20
232.957000
 30
0.0
 10
456.893833
 20
285.114203
 30
0.0
 10
509.051036
 20
285.114203
 30
0.0
 10
509.051036
 20
232.957000
 30
0.0
  0
LWPOLYLINE
  5
10b
100
AcDbEntity
  8
case
 62
7
100
AcDbPolyline
 90
4
 70
1
 10
456.893833
 20
448.389795
 30
0.0
 10
456.893833
 20
500.546998
 30
0.0
 10
509.051036
 20
500.546998
 30
0.0
 10
509.051036
 20
448.389795
 30
0.0
  0
LWPOLYLINE
  5
10c
100
AcDbEntity
  8
case
 62
7
100
AcDbPolyline
 90
4
 70
1
 10
97.840064
 20
391.696603
 30
0.0
 10
97.840064
 20
443.855140
 30
0.0
 10
149.997267
 20
443.855140
 30
0.0
 10
149.997267
 20
391.696603
 30
0.0
  0
LWPOLYLINE
  5
10d
100
AcDbEntity
  8
case
 62
7
100
AcDbPolyline
 90
4
 70
1
 10
385.083346
 20
248.075629
 30
0.0
 10
385.083346
 20
300.232832
 30
0.0
 10
437.240549
 20
300.232832
 30
0.0
 10
437.240549
 20
248.075629
 30
0.0
  0
LWPOLYLINE
  5
10e
100
AcDbEntity
  8
case
 62
7
100
AcDbPolyline
 90
65
 70
1
 10
506.972374
 20
512.150969
 30
0.0
 10
506.972374
 20
512.150969
 30
0.0
 10
506.572375
 20
512.173636
 30
0.0
 10
506.175043
 20
512.229635
 30
0.0
 10
505.785711
 20
512.328302
 30
0.0
 10
505.407045
 20
512.464302
 30
0.0
 10
505.044379
 20
512.633634
 30
0.0
 10
504.700380
 20
512.841634
 30
0.0
 10
504.379047
 20
513.080300
 30
0.0
 10
504.084382
 20
513.348299
 30
0.0
 10
503.816382
 20
513.642965
 30
0.0
 10
503.577716
 20
513.964298
 30
0.0
 10
503.371050
 20
514.308297
 30
0.0
 10
503.200384
 20
514.670963
 30
0.0
 10
503.064384
 20
515.049628
 30
0.0
 10
502.965718
 20
515.438961
 30
0.0
 10
502.909718
 20
515.834960
 30
0.0
 10
502.891051
 20
516.232292
 30
0.0
 10
502.909718
 20
516.633624
 30
0.0
 10
502.965718
 20
517.029623
 30
0.0
 10
503.064384
 20
517.418956
 30
0.0
 10
503.200384
 20
517.797622
 30
0.0
 10
503.371050
 20
518.160287
 30
0.0
 10
503.577716
 20
518.504286
 30
0.0
 10
503.816382
 20
518.825619
 30
0.0
 10
504.084382
 20
519.120285
 30
0.0
 10
504.379047
 20
519.388284
 30
0.0
 10
504.700380
 20
519.626950
 30
0.0
 10
505.044379
 20
519.833616
 30
0.0
 10
505.407045
 20
520.004283
 30
0.0
 10
505.785711
 20
520.140282
 30
0.0
 10
506.175043
 20
520.238949
 30
0.0
 10
506.572375
 20
520.294949
 30
0.0
 10
506.968374
 20
520.313615
 30
0.0
 10
507.369707
 20
520.294949
 30
0.0
 10
507.765706
 20
520.238949
 30
0.0
 10
508.155038
 20
520.140282
 30
0.0
 10
508.533704
 20
520.004283
 30
0.0
 10
508.896370
 20
519.833616
 30
0.0
 10
509.240369
 20
519.626950
 30
0.0
 10
509.561701
 20
519.388284
 30
0.0
 10
509.856367
 20
519.120285
 30
0.0
 10
510.124366
 20
518.825619
 30
0.0
 10
510.363033
 20
518.504286
 30
0.0
 10
510.571032
 20
518.160287
 30
0.0
 10
510.740365
 20
517.797622
 30
0.0
 10
510.876365
 20
517.418956
 30
0.0
 10
510.975031
 20
517.029623
 30
0.0
 10
511.031031
 20
516.633624
 30
0.0
 10
511.053697
 20
516.232292
 30
0.0
 10
511.031031
 20
515.834960
 30
0.0
 10
510.975031
 20
515.438961
 30
0.0
 10
510.876365
 20
515.049628
 30
0.0
 10
510.740365
 20
514.670963
 30
0.0
 10
510.571032
 20
514.308297
 30
0.0
 10
510.363033
 20
513.964298
 30
0.0
 10
510.124366
 20
513.642965
 30
0.0
 10
509.856367
 20
513.348299
 30
0.0
 10
509.561701
 20
513.080300
 30
0.0
 10
509.240369
 20
512.841634
 30
0.0
 10
508.896370
 20
512.633634
 30
0.0
 10
508.533704
 20
512.464302
 30
0.0
 10
508.155038
 20
512.328302
 30
0.0
 10
507.765706
 20
512.229635
 30
0.0
 10
507.369707
 20
512.173636
 30
0.0
  0
LWPOLYLINE
  5
10f
100
AcDbEntity
  8
case
 62
7
100
AcDbPolyline
 90
4
 70
1
 10
313.271525
 20
406.815232
 30
0.0
 10
313.271525
 20
458.972435
 30
0.0
 10
365.430062
 20
458.972435
 30
0.0
 10
365.430062
 20
406.815232
 30
0.0
  0
LWPOLYLINE
  5
110
100
AcDbEntity
  8
case
 62
7
100
AcDbPolyline
 90
4
 70
1
 10
26.028243
 20
232.957000
 30
0.0
 10
26.028243
 20
285.114203
 30
0.0
 10
78.185446
 20
285.114203
 30
0.0
 10
78.185446
 20
232.957000
 30
0.0
  0
LWPOLYLINE
  5
111
100
AcDbEntity
  8
case
 62
7
100
AcDbPolyline
 90
4
 70
1
 10
241.461038
 20
278.311554
 30
0.0
 10
241.461038
 20
330.468756
 30
0.0
 10
293.618241
 20
330.468756
 30
0.0
 10
293.618241
 20
278.311554
 30
0.0
  0
LWPOLYLINE
  5
112
100
AcDbEntity
  8
case
 62
7
100
AcDbPolyline
 90
65
 70
1
 10
18.658928
 20
224.813021
 30
0.0
 10
18.658928
 20
224.813021
 30
0.0
 10
18.257596
 20
224.835687
 30
0.0
 10
17.861597
 20
224.891687
 30
0.0
 10
17.472265
 20
224.990354
 30
0.0
 10
17.093599
 20
225.126353
 30
0.0
 10
16.730933
 20
225.297019
 30
0.0
 10
16.386934
 20
225.503686
 30
0.0
 10
16.065602
 20
225.742352
 30
0.0
 10
15.770936
 20
226.010351
 30
0.0
 10
15.502936
 20
226.305017
 30
0.0
 10
15.264270
 20
226.626349
 30
0.0
 10
15.056271
 20
226.970349
 30
0.0
 10
14.886938
 20
227.333014
 30
0.0
 10
14.750938
 20
227.711680
 30
0.0
 10
14.652272
 20
228.101012
 30
0.0
 10
14.596272
 20
228.497011
 30
0.0
 10
14.576272
 20
228.894344
 30
0.0
 10
14.596272
 20
229.295676
 30
0.0
 10
14.652272
 20
229.691675
 30
0.0
 10
14.750938
 20
230.081007
 30
0.0
 10
14.886938
 20
230.459673
 30
0.0
 10
15.056271
 20
230.822339
 30
0.0
 10
15.264270
 20
231.166338
 30
0.0
 10
15.502936
 20
231.487671
 30
0.0
 10
15.770936
 20
231.782337
 30
0.0
 10
16.065602
 20
232.050336
 30
0.0
 10
16.386934
 20
232.289002
 30
0.0
 10
16.730933
 20
232.497001
 30
0.0
 10
17.093599
 20
232.666334
 30
0.0
 10
17.472265
 20
232.802334
 30
0.0
 10
17.861597
 20
232.901000
 30
0.0
 10
18.257596
 20
232.957000
 30
0.0
 10
18.654928
 20
232.977000
 30
0.0
 10
19.054927
 20
232.957000
 30
0.0
 10
19.452260
 20
232.901000
 30
0.0
 10
19.841592
 20
232.802334
 30
0.0
 10
20.218925
 20
232.666334
 30
0.0
 10
20.582924
 20
232.497001
 30
0.0
 10
20.926923
 20
232.289002
 30
0.0
 10
21.246922
 20
232.050336
 30
0.0
 10
21.542921
 20
231.782337
 30
0.0
 10
21.810921
 20
231.487671
 30
0.0
 10
22.048253
 20
231.166338
 30
0.0
 10
22.256253
 20
230.822339
 30
0.0
 10
22.426919
 20
230.459673
 30
0.0
 10
22.562919
 20
230.081007
 30
0.0
 10
22.661585
 20
229.691675
 30
0.0
 10
22.717585
 20
229.295676
 30
0.0
 10
22.740252
 20
228.894344
 30
0.0
 10
22.717585
 20
228.497011
 30
0.0
 10
22.661585
 20
228.101012
 30
0.0
 10
22.562919
 20
227.711680
 30
0.0
 10
22.426919
 20
227.333014
 30
0.0
 10
22.256253
 20
226.970349
 30
0.0
 10
22.048253
 20
226.626349
 30
0.0
 10
21.810921
 20
226.305017
 30
0.0
 10
21.542921
 20
226.010351
 30
0.0
 10
21.246922
 20
225.742352
 30
0.0
 10
20.926923
 20
225.503686
 30
0.0
 10
20.582924
 20
225.297019
 30
0.0
 10
20.218925
 20
225.126353
 30
0.0
 10
19.841592
 20
224.990354
 30
0.0
 10
19.452260
 20
224.891687
 30
0.0
 10
19.054927
 20
224.835687
 30
0.0
  0
LWPOLYLINE
  5
113
100
AcDbEntity
  8
case
 62
7
100
AcDbPolyline
 90
4
 70
1
 10
26.028243
 20
304.768821
 30
0.0
 10
26.028243
 20
356.926024
 30
0.0
 10
78.185446
 20
356.926024
 30
0.0
 10
78.185446
 20
304.768821
 30
0.0
  0
LWPOLYLINE
  5
114
100
AcDbEntity
  8
case
 62
7
100
AcDbPolyline
 90
8
 70
1
 10
414.332606
 20
181.703795
 30
0.0
 10
397.495315
 20
198.541086
 30
0.0
 10
415.803269
 20
216.845041
 30
0.0
 10
419.408593
 20
213.239716
 30
0.0
 10
431.835229
 20
225.666352
 30
0.0
 10
441.457871
 20
216.043709
 30
0.0
 10
429.027236
 20
203.621074
 30
0.0
 10
432.640560
 20
200.011749
 30
0.0
  0
LWPOLYLINE
  5
115
100
AcDbEntity
  8
case
 62
7
100
AcDbPolyline
 90
4
 70
1
 10
97.840064
 20
248.075629
 30
0.0
 10
97.840064
 20
300.232832
 30
0.0
 10
149.997267
 20
300.232832
 30
0.0
 10
149.997267
 20
248.075629
 30
0.0
  0
LWPOLYLINE
  5
116
100
AcDbEntity
  8
case
 62
7
100
AcDbPolyline
 90
4
 70
1
 10
313.271525
 20
335.004745
 30
0.0
 10
313.271525
 20
387.161948
 30
0.0
 10
365.430062
 20
387.161948
 30
0.0
 10
365.430062
 20
335.004745
 30
0.0
  0
LWPOLYLINE
  5
117
100
AcDbEntity
  8
case
 62
7
100
AcDbPolyline
 90
4
 70
1
 10
26.028243
 20
448.389795
 30
0.0
 10
26.028243
 20
500.546998
 30
0.0
 10
78.185446
 20
500.546998
 30
0.0
 10
78.185446
 20
448.389795
 30
0.0
  0
LWPOLYLINE
  5
118
100
AcDbEntity
  8
case
 62
7
100
AcDbPolyline
 90
845
 70
1
 10
519.823009
 20
344.075389
 30
0.0
 10
519.823009
 20
343.890056
 30
0.0
 10
519.829676
 20
343.704723
 30
0.0
 10
519.841675
 20
343.519391
 30
0.0
 10
519.856342
 20
343.334058
 30
0.0
 10
519.879009
 20
343.152725
 30
0.0
 10
519.901675
 20
342.967392
 30
0.0
 10
519.932342
 20
342.786059
 30
0.0
 10
519.965675
 20
342.600726
 30
0.0
 10
520.004342
 20
342.419393
 30
0.0
 10
520.045675
 20
342.242060
 30
0.0
 10
520.095008
 20
342.060728
 30
0.0
 10
520.148341
 20
341.883395
 30
0.0
 10
520.200341
 20
341.706062
 30
0.0
 10
520.261674
 20
341.531396
 30
0.0
 10
520.329674
 20
341.358063
 30
0.0
 10
520.397674
 20
341.183396
 30
0.0
 10
520.469674
 20
341.014063
 30
0.0
 10
520.548340
 20
340.843397
 30
0.0
 10
520.628340
 20
340.678064
 30
0.0
 10
520.715007
 20
340.515398
 30
0.0
 10
520.801673
 20
340.352732
 30
0.0
 10
520.896340
 20
340.190066
 30
0.0
 10
520.995006
 20
340.035399
 30
0.0
 10
521.096339
 20
339.876733
 30
0.0
 10
521.199005
 20
339.724733
 30
0.0
 10
521.308338
 20
339.574067
 30
0.0
 10
521.421672
 20
339.426067
 30
0.0
 10
521.535005
 20
339.283401
 30
0.0
 10
521.656338
 20
339.139401
 30
0.0
 10
521.780337
 20
338.999402
 30
0.0
 10
521.905670
 20
338.863402
 30
0.0
 10
522.033670
 20
338.731403
 30
0.0
 10
522.165670
 20
338.602069
 30
0.0
 10
522.301669
 20
338.478070
 30
0.0
 10
522.441669
 20
338.352737
 30
0.0
 10
522.585669
 20
338.232737
 30
0.0
 10
522.729668
 20
338.119404
 30
0.0
 10
522.876335
 20
338.004738
 30
0.0
 10
523.028334
 20
337.895405
 30
0.0
 10
523.179000
 20
337.794072
 30
0.0
 10
523.337667
 20
337.691405
 30
0.0
 10
523.492333
 20
337.594072
 30
0.0
 10
523.654999
 20
337.499406
 30
0.0
 10
523.817666
 20
337.411406
 30
0.0
 10
523.980332
 20
337.324739
 30
0.0
 10
524.146998
 20
337.246073
 30
0.0
 10
524.316331
 20
337.166073
 30
0.0
 10
524.486997
 20
337.094073
 30
0.0
 10
524.660330
 20
337.026073
 30
0.0
 10
524.834996
 20
336.958074
 30
0.0
 10
525.008329
 20
336.898074
 30
0.0
 10
525.185662
 20
336.844741
 30
0.0
 10
525.362995
 20
336.792741
 30
0.0
 10
525.544328
 20
336.743407
 30
0.0
 10
525.722994
 20
336.702074
 30
0.0
 10
525.904327
 20
336.663408
 30
0.0
 10
526.089660
 20
336.630074
 30
0.0
 10
526.270993
 20
336.599408
 30
0.0
 10
526.456326
 20
336.576741
 30
0.0
 10
526.637659
 20
336.554075
 30
0.0
 10
526.822991
 20
336.539408
 30
0.0
 10
527.006991
 20
336.527408
 30
0.0
 10
527.192324
 20
336.519408
 30
0.0
 10
527.381657
 20
336.516741
 30
0.0
 10
612.421444
 20
336.516741
 30
0.0
 10
612.605444
 20
336.516741
 30
0.0
 10
612.790776
 20
336.508741
 30
0.0
 10
612.976109
 20
336.496741
 30
0.0
 10
613.161442
 20
336.482075
 30
0.0
 10
613.342775
 20
336.459408
 30
0.0
 10
613.528108
 20
336.436742
 30
0.0
 10
613.709441
 20
336.406075
 30
0.0
 10
613.894774
 20
336.372742
 30
0.0
 10
614.076107
 20
336.335408
 30
0.0
 10
614.253439
 20
336.292742
 30
0.0
 10
614.434772
 20
336.244742
 30
0.0
 10
614.613439
 20
336.191409
 30
0.0
 10
614.790771
 20
336.138076
 30
0.0
 10
614.964104
 20
336.078076
 30
0.0
 10
615.138771
 20
336.010076
 30
0.0
 10
615.312103
 20
335.942076
 30
0.0
 10
615.482770
 20
335.870076
 30
0.0
 10
615.652103
 20
335.790077
 30
0.0
 10
615.818769
 20
335.711410
 30
0.0
 10
615.981435
 20
335.624744
 30
0.0
 10
616.144101
 20
335.536744
 30
0.0
 10
616.306768
 20
335.443411
 30
0.0
 10
616.461434
 20
335.344744
 30
0.0
 10
616.620100
 20
335.242078
 30
0.0
 10
616.770767
 20
335.140745
 30
0.0
 10
616.922766
 20
335.031412
 30
0.0
 10
617.069432
 20
334.918079
 30
0.0
 10
617.213432
 20
334.804746
 30
0.0
 10
617.357432
 20
334.683413
 30
0.0
 10
617.497431
 20
334.558080
 30
0.0
 10
617.633431
 20
334.434080
 30
0.0
 10
617.765431
 20
334.304747
 30
0.0
 10
617.893430
 20
334.172747
 30
0.0
 10
618.018763
 20
334.036748
 30
0.0
 10
618.142763
 20
333.896748
 30
0.0
 10
618.264096
 20
333.754082
 30
0.0
 10
618.377429
 20
333.610082
 30
0.0
 10
618.490762
 20
333.462082
 30
0.0
 10
618.600095
 20
333.311416
 30
0.0
 10
618.702762
 20
333.159416
 30
0.0
 10
618.804095
 20
333.000750
 30
0.0
 10
618.902761
 20
332.846084
 30
0.0
 10
618.997428
 20
332.683418
 30
0.0
 10
619.084094
 20
332.520751
 30
0.0
 10
619.170761
 20
332.359418
 30
0.0
 10
619.250760
 20
332.192752
 30
0.0
 10
619.329427
 20
332.022086
 30
0.0
 10
619.401427
 20
331.852753
 30
0.0
 10
619.469426
 20
331.678087
 30
0.0
 10
619.537426
 20
331.504754
 30
0.0
 10
619.598759
 20
331.330088
 30
0.0
 10
619.650759
 20
331.152755
 30
0.0
 10
619.704093
 20
330.975422
 30
0.0
 10
619.753426
 20
330.794089
 30
0.0
 10
619.794759
 20
330.616756
 30
0.0
 10
619.832092
 20
330.435423
 30
0.0
 10
619.866759
 20
330.250090
 30
0.0
 10
619.897425
 20
330.068757
 30
0.0
 10
619.920092
 20
329.883425
 30
0.0
 10
619.942759
 20
329.702092
 30
0.0
 10
619.957425
 20
329.516759
 30
0.0
 10
619.968092
 20
329.331426
 30
0.0
 10
619.976092
 20
329.146093
 30
0.0
 10
619.980092
 20
328.956760
 30
0.0
 10
619.980092
 20
224.669021
 30
0.0
 10
619.976092
 20
224.483688
 30
0.0
 10
619.972092
 20
224.298355
 30
0.0
 10
619.968092
 20
224.113022
 30
0.0
 10
619.961425
 20
223.927690
 30
0.0
 10
619.949425
 20
223.742357
 30
0.0
 10
619.938759
 20
223.558357
 30
0.0
 10
619.922759
 20
223.373024
 30
0.0
 10
619.904092
 20
223.187691
 30
0.0
 10
619.885425
 20
223.002358
 30
0.0
 10
619.862759
 20
222.821026
 30
0.0
 10
619.840092
 20
222.635693
 30
0.0
 10
619.813426
 20
222.450360
 30
0.0
 10
619.786759
 20
222.269027
 30
0.0
 10
619.757426
 20
222.087694
 30
0.0
 10
619.722759
 20
221.902361
 30
0.0
 10
619.689426
 20
221.721028
 30
0.0
 10
619.650759
 20
221.539695
 30
0.0
 10
619.609426
 20
221.358363
 30
0.0
 10
619.568093
 20
221.177030
 30
0.0
 10
619.526760
 20
220.995697
 30
0.0
 10
619.477426
 20
220.817031
 30
0.0
 10
619.432093
 20
220.639698
 30
0.0
 10
619.378760
 20
220.458365
 30
0.0
 10
619.325427
 20
220.281032
 30
0.0
 10
619.273427
 20
220.103699
 30
0.0
 10
619.216094
 20
219.929033
 30
0.0
 10
619.156094
 20
219.751700
 30
0.0
 10
619.096094
 20
219.578367
 30
0.0
 10
619.030761
 20
219.403701
 30
0.0
 10
618.962761
 20
219.230368
 30
0.0
 10
618.898761
 20
219.057035
 30
0.0
 10
618.826761
 20
218.886369
 30
0.0
 10
618.754762
 20
218.713036
 30
0.0
 10
618.680095
 20
218.542370
 30
0.0
 10
618.604095
 20
218.375703
 30
0.0
 10
618.525429
 20
218.206370
 30
0.0
 10
618.445429
 20
218.039704
 30
0.0
 10
618.362763
 20
217.873038
 30
0.0
 10
618.278763
 20
217.707705
 30
0.0
 10
618.192096
 20
217.545039
 30
0.0
 10
618.105430
 20
217.382373
 30
0.0
 10
618.014763
 20
217.219706
 30
0.0
 10
617.920097
 20
217.057040
 30
0.0
 10
617.825431
 20
216.898374
 30
0.0
 10
617.730764
 20
216.739707
 30
0.0
 10
617.633431
 20
216.581041
 30
0.0
 10
617.530765
 20
216.426375
 30
0.0
 10
617.429432
 20
216.270375
 30
0.0
 10
617.326765
 20
216.115709
 30
0.0
 10
617.221432
 20
215.965043
 30
0.0
 10
617.110766
 20
215.813043
 30
0.0
 10
617.001433
 20
215.666377
 30
0.0
 10
616.892100
 20
215.514377
 30
0.0
 10
616.778766
 20
215.367711
 30
0.0
 10
616.661433
 20
215.223711
 30
0.0
 10
616.548100
 20
215.079712
 30
0.0
 10
616.426767
 20
214.937045
 30
0.0
 10
616.306768
 20
214.797046
 30
0.0
 10
616.185435
 20
214.657046
 30
0.0
 10
616.060102
 20
214.517046
 30
0.0
 10
615.936102
 20
214.381047
 30
0.0
 10
615.806769
 20
214.245047
 30
0.0
 10
615.678769
 20
214.113047
 30
0.0
 10
615.550770
 20
213.981048
 30
0.0
 10
406.137960
 20
4.568238
 30
0.0
 10
406.005960
 20
4.440238
 30
0.0
 10
405.873960
 20
4.312239
 30
0.0
 10
405.737961
 20
4.182906
 30
0.0
 10
405.601961
 20
4.058906
 30
0.0
 10
405.461961
 20
3.933573
 30
0.0
 10
405.321962
 20
3.812240
 30
0.0
 10
405.181962
 20
3.692240
 30
0.0
 10
405.039296
 20
3.570907
 30
0.0
 10
404.895296
 20
3.457574
 30
0.0
 10
404.751297
 20
3.340241
 30
0.0
 10
404.604630
 20
3.226908
 30
0.0
 10
404.452631
 20
3.117575
 30
0.0
 10
404.305964
 20
3.008242
 30
0.0
 10
404.153965
 20
2.897575
 30
0.0
 10
404.003298
 20
2.792242
 30
0.0
 10
403.848632
 20
2.690909
 30
0.0
 10
403.692633
 20
2.588243
 30
0.0
 10
403.537966
 20
2.485576
 30
0.0
 10
403.379300
 20
2.388243
 30
0.0
 10
403.220634
 20
2.293577
 30
0.0
 10
403.061967
 20
2.198911
 30
0.0
 10
402.899301
 20
2.104244
 30
0.0
 10
402.736635
 20
2.013578
 30
0.0
 10
402.573969
 20
1.926911
 30
0.0
 10
402.412636
 20
1.840245
 30
0.0
 10
402.245969
 20
1.756245
 30
0.0
 10
402.079303
 20
1.673578
 30
0.0
 10
401.912637
 20
1.594912
 30
0.0
 10
401.743304
 20
1.514912
 30
0.0
 10
401.576638
 20
1.438912
 30
0.0
 10
401.405972
 20
1.364246
 30
0.0
 10
401.232639
 20
1.292246
 30
0.0
 10
401.063306
 20
1.220246
 30
0.0
 10
400.888640
 20
1.156246
 30
0.0
 10
400.715307
 20
1.088247
 30
0.0
 10
400.540640
 20
1.022913
 30
0.0
 10
400.367308
 20
0.962914
 30
0.0
 10
400.189975
 20
0.902914
 30
0.0
 10
400.015308
 20
0.845581
 30
0.0
 10
399.837976
 20
0.793581
 30
0.0
 10
399.660643
 20
0.740247
 30
0.0
 10
399.479310
 20
0.686914
 30
0.0
 10
399.301977
 20
0.641581
 30
0.0
 10
399.123311
 20
0.592248
 30
0.0
 10
398.941978
 20
0.550915
 30
0.0
 10
398.760645
 20
0.509581
 30
0.0
 10
398.579312
 20
0.468248
 30
0.0
 10
398.397979
 20
0.429582
 30
0.0
 10
398.216646
 20
0.396248
 30
0.0
 10
398.031313
 20
0.361582
 30
0.0
 10
397.849980
 20
0.332249
 30
0.0
 10
397.668648
 20
0.305582
 30
0.0
 10
397.483315
 20
0.278915
 30
0.0
 10
397.297982
 20
0.256249
 30
0.0
 10
397.116649
 20
0.233582
 30
0.0
 10
396.931316
 20
0.214915
 30
0.0
 10
396.745983
 20
0.196249
 30
0.0
 10
396.560650
 20
0.180249
 30
0.0
 10
396.376651
 20
0.169582
 30
0.0
 10
396.191318
 20
0.157582
 30
0.0
 10
396.005985
 20
0.150916
 30
0.0
 10
395.820652
 20
0.146916
 30
0.0
 10
395.635319
 20
0.142916
 30
0.0
 10
395.449986
 20
0.138916
 30
0.0
 10
392.853993
 20
0.138916
 30
0.0
 10
392.668660
 20
0.142916
 30
0.0
 10
392.483327
 20
0.146916
 30
0.0
 10
392.297994
 20
0.150916
 30
0.0
 10
392.112661
 20
0.157582
 30
0.0
 10
391.927329
 20
0.169582
 30
0.0
 10
391.741996
 20
0.180249
 30
0.0
 10
391.556663
 20
0.196249
 30
0.0
 10
391.372663
 20
0.214915
 30
0.0
 10
391.187330
 20
0.233582
 30
0.0
 10
391.005998
 20
0.256249
 30
0.0
 10
390.820665
 20
0.278915
 30
0.0
 10
390.635332
 20
0.305582
 30
0.0
 10
390.453999
 20
0.332249
 30
0.0
 10
390.272666
 20
0.361582
 30
0.0
 10
390.087333
 20
0.396248
 30
0.0
 10
389.906000
 20
0.429582
 30
0.0
 10
389.724667
 20
0.468248
 30
0.0
 10
389.543335
 20
0.509581
 30
0.0
 10
389.360668
 20
0.550915
 30
0.0
 10
389.179335
 20
0.592248
 30
0.0
 10
389.002003
 20
0.641581
 30
0.0
 10
388.824670
 20
0.686914
 30
0.0
 10
388.643337
 20
0.740247
 30
0.0
 10
388.466004
 20
0.793581
 30
0.0
 10
388.287338
 20
0.845581
 30
0.0
 10
388.114005
 20
0.902914
 30
0.0
 10
387.936672
 20
0.962914
 30
0.0
 10
387.762006
 20
1.022913
 30
0.0
 10
387.588673
 20
1.088247
 30
0.0
 10
387.415340
 20
1.156246
 30
0.0
 10
387.240674
 20
1.220246
 30
0.0
 10
387.071341
 20
1.292246
 30
0.0
 10
386.896675
 20
1.364246
 30
0.0
 10
386.727342
 20
1.438912
 30
0.0
 10
386.560675
 20
1.514912
 30
0.0
 10
386.390009
 20
1.594912
 30
0.0
 10
386.224676
 20
1.673578
 30
0.0
 10
386.058010
 20
1.756245
 30
0.0
 10
385.891344
 20
1.840245
 30
0.0
 10
385.728677
 20
1.926911
 30
0.0
 10
385.566011
 20
2.013578
 30
0.0
 10
385.404678
 20
2.104244
 30
0.0
 10
385.242012
 20
2.198911
 30
0.0
 10
385.083346
 20
2.293577
 30
0.0
 10
384.924679
 20
2.388243
 30
0.0
 10
384.766013
 20
2.485576
 30
0.0
 10
384.610014
 20
2.588243
 30
0.0
 10
384.455347
 20
2.690909
 30
0.0
 10
384.300681
 20
2.792242
 30
0.0
 10
384.150015
 20
2.897575
 30
0.0
 10
383.998015
 20
3.008242
 30
0.0
 10
383.851349
 20
3.117575
 30
0.0
 10
383.699349
 20
3.226908
 30
0.0
 10
383.552683
 20
3.340241
 30
0.0
 10
383.408683
 20
3.457574
 30
0.0
 10
383.264684
 20
3.570907
 30
0.0
 10
383.120684
 20
3.692240
 30
0.0
 10
382.982018
 20
3.812240
 30
0.0
 10
382.842018
 20
3.933573
 30
0.0
 10
382.702018
 20
4.058906
 30
0.0
 10
382.566019
 20
4.182906
 30
0.0
 10
382.430019
 20
4.312239
 30
0.0
 10
382.298019
 20
4.440238
 30
0.0
 10
382.164686
 20
4.568238
 30
0.0
 10
181.257189
 20
205.854401
 30
0.0
 10
181.125189
 20
205.982401
 30
0.0
 10
180.993189
 20
206.111734
 30
0.0
 10
180.857190
 20
206.239734
 30
0.0
 10
180.721190
 20
206.365067
 30
0.0
 10
180.581190
 20
206.489066
 30
0.0
 10
180.441191
 20
206.610399
 30
0.0
 10
180.301191
 20
206.731733
 30
0.0
 10
180.157191
 20
206.851732
 30
0.0
 10
180.013192
 20
206.965065
 30
0.0
 10
179.870525
 20
207.082398
 30
0.0
 10
179.722526
 20
207.195731
 30
0.0
 10
179.571859
 20
207.306398
 30
0.0
 10
179.423860
 20
207.415731
 30
0.0
 10
179.273194
 20
207.525064
 30
0.0
 10
179.121194
 20
207.630397
 30
0.0
 10
178.966528
 20
207.733063
 30
0.0
 10
178.811861
 20
207.834396
 30
0.0
 10
178.657195
 20
207.937063
 30
0.0
 10
178.498529
 20
208.035729
 30
0.0
 10
178.339863
 20
208.130396
 30
0.0
 10
178.181196
 20
208.223729
 30
0.0
 10
178.018530
 20
208.318395
 30
0.0
 10
177.855864
 20
208.409062
 30
0.0
 10
177.693198
 20
208.497061
 30
0.0
 10
177.530531
 20
208.583728
 30
0.0
 10
177.363865
 20
208.666394
 30
0.0
 10
177.198532
 20
208.749061
 30
0.0
 10
177.031866
 20
208.829061
 30
0.0
 10
176.861200
 20
208.907727
 30
0.0
 10
176.695867
 20
208.983727
 30
0.0
 10
176.525200
 20
209.059727
 30
0.0
 10
176.351868
 20
209.131727
 30
0.0
 10
176.181201
 20
209.203726
 30
0.0
 10
176.007868
 20
209.267726
 30
0.0
 10
175.833202
 20
209.335726
 30
0.0
 10
175.659869
 20
209.399726
 30
0.0
 10
175.486536
 20
209.459726
 30
0.0
 10
175.307870
 20
209.521059
 30
0.0
 10
175.134537
 20
209.577059
 30
0.0
 10
174.957204
 20
209.630392
 30
0.0
 10
174.778538
 20
209.683725
 30
0.0
 10
174.597205
 20
209.735725
 30
0.0
 10
174.419872
 20
209.781058
 30
0.0
 10
174.242539
 20
209.830391
 30
0.0
 10
174.061207
 20
209.871725
 30
0.0
 10
173.879874
 20
209.914391
 30
0.0
 10
173.698541
 20
209.955724
 30
0.0
 10
173.517208
 20
209.993058
 30
0.0
 10
173.335875
 20
210.027724
 30
0.0
 10
173.150542
 20
210.061058
 30
0.0
 10
172.969209
 20
210.091724
 30
0.0
 10
172.787876
 20
210.118391
 30
0.0
 10
172.602544
 20
210.143724
 30
0.0
 10
172.417211
 20
210.166391
 30
0.0
 10
172.235878
 20
210.189057
 30
0.0
 10
172.050545
 20
210.209057
 30
0.0
 10
171.865212
 20
210.227724
 30
0.0
 10
171.679879
 20
210.242390
 30
0.0
 10
171.494546
 20
210.254390
 30
0.0
 10
171.309213
 20
210.265057
 30
0.0
 10
171.123881
 20
210.273057
 30
0.0
 10
170.938548
 20
210.277057
 30
0.0
 10
170.754548
 20
210.279724
 30
0.0
 10
170.569215
 20
210.279724
 30
0.0
 10
25.294912
 20
210.279724
 30
0.0
 10
25.110912
 20
210.283724
 30
0.0
 10
24.925579
 20
210.287724
 30
0.0
 10
24.740247
 20
210.291724
 30
0.0
 10
24.554914
 20
210.299724
 30
0.0
 10
24.369581
 20
210.310390
 30
0.0
 10
24.184248
 20
210.322390
 30
0.0
 10
23.998915
 20
210.337057
 30
0.0
 10
23.813582
 20
210.355723
 30
0.0
 10
23.628249
 20
210.374390
 30
0.0
 10
23.446916
 20
210.397057
 30
0.0
 10
23.261584
 20
210.419723
 30
0.0
 10
23.076251
 20
210.446390
 30
0.0
 10
22.894918
 20
210.473056
 30
0.0
 10
22.713585
 20
210.503723
 30
0.0
 10
22.528252
 20
210.537056
 30
0.0
 10
22.346919
 20
210.571723
 30
0.0
 10
22.165586
 20
210.609056
 30
0.0
 10
21.984253
 20
210.650389
 30
0.0
 10
21.802921
 20
210.691723
 30
0.0
 10
21.621588
 20
210.734389
 30
0.0
 10
21.444255
 20
210.782389
 30
0.0
 10
21.266922
 20
210.827722
 30
0.0
 10
21.085589
 20
210.881055
 30
0.0
 10
20.906923
 20
210.934389
 30
0.0
 10
20.729590
 20
210.987722
 30
0.0
 10
20.556257
 20
211.043722
 30
0.0
 10
20.378924
 20
211.103722
 30
0.0
 10
20.204258
 20
211.165055
 30
0.0
 10
20.030925
 20
211.229055
 30
0.0
 10
19.856259
 20
211.297054
 30
0.0
 10
19.682926
 20
211.361054
 30
0.0
 10
19.512260
 20
211.433054
 30
0.0
 10
19.338927
 20
211.505054
 30
0.0
 10
19.168261
 20
211.581054
 30
0.0
 10
19.002928
 20
211.655720
 30
0.0
 10
18.832261
 20
211.735720
 30
0.0
 10
18.665595
 20
211.814386
 30
0.0
 10
18.500262
 20
211.898386
 30
0.0
 10
18.333596
 20
211.981053
 30
0.0
 10
18.170930
 20
212.067719
 30
0.0
 10
18.008263
 20
212.154386
 30
0.0
 10
17.845597
 20
212.245052
 30
0.0
 10
17.682931
 20
212.339718
 30
0.0
 10
17.524265
 20
212.434385
 30
0.0
 10
17.365598
 20
212.529051
 30
0.0
 10
17.206932
 20
212.627718
 30
0.0
 10
17.052266
 20
212.729051
 30
0.0
 10
16.897600
 20
212.831717
 30
0.0
 10
16.742933
 20
212.933050
 30
0.0
 10
16.590934
 20
213.039717
 30
0.0
 10
16.440267
 20
213.149050
 30
0.0
 10
16.292268
 20
213.258383
 30
0.0
 10
16.141601
 20
213.367716
 30
0.0
 10
15.993602
 20
213.481049
 30
0.0
 10
15.850935
 20
213.598382
 30
0.0
 10
15.706936
 20
213.711715
 30
0.0
 10
15.562936
 20
213.833048
 30
0.0
 10
15.422937
 20
213.954381
 30
0.0
 10
15.282937
 20
214.074381
 30
0.0
 10
15.144271
 20
214.199714
 30
0.0
 10
15.006938
 20
214.325047
 30
0.0
 10
14.870938
 20
214.453047
 30
0.0
 10
14.738938
 20
214.581046
 30
0.0
 10
14.606939
 20
214.710379
 30
0.0
 10
4.564297
 20
224.751687
 30
0.0
 10
4.436297
 20
224.885020
 30
0.0
 10
4.308298
 20
225.017020
 30
0.0
 10
4.178965
 20
225.153020
 30
0.0
 10
4.054965
 20
225.289019
 30
0.0
 10
3.929632
 20
225.429019
 30
0.0
 10
3.808299
 20
225.569019
 30
0.0
 10
3.688299
 20
225.707685
 30
0.0
 10
3.566966
 20
225.851685
 30
0.0
 10
3.453633
 20
225.995684
 30
0.0
 10
3.336300
 20
226.139684
 30
0.0
 10
3.222967
 20
226.286350
 30
0.0
 10
3.113634
 20
226.438350
 30
0.0
 10
3.004301
 20
226.585016
 30
0.0
 10
2.893635
 20
226.737016
 30
0.0
 10
2.788301
 20
226.887682
 30
0.0
 10
2.686968
 20
227.042348
 30
0.0
 10
2.584302
 20
227.197015
 30
0.0
 10
2.481636
 20
227.353014
 30
0.0
 10
2.384302
 20
227.511681
 30
0.0
 10
2.289636
 20
227.670347
 30
0.0
 10
2.194970
 20
227.829013
 30
0.0
 10
2.100303
 20
227.991679
 30
0.0
 10
2.009637
 20
228.154346
 30
0.0
 10
1.922970
 20
228.315679
 30
0.0
 10
1.836304
 20
228.478345
 30
0.0
 10
1.752304
 20
228.645011
 30
0.0
 10
1.669638
 20
228.811677
 30
0.0
 10
1.590971
 20
228.977010
 30
0.0
 10
1.510971
 20
229.147676
 30
0.0
 10
1.434972
 20
229.314343
 30
0.0
 10
1.360305
 20
229.483676
 30
0.0
 10
1.288305
 20
229.658342
 30
0.0
 10
1.216305
 20
229.827675
 30
0.0
 10
1.152306
 20
230.002341
 30
0.0
 10
1.084306
 20
230.175674
 30
0.0
 10
1.018973
 20
230.349007
 30
0.0
 10
0.958973
 20
230.523673
 30
0.0
 10
0.898973
 20
230.701006
 30
0.0
 10
0.841640
 20
230.874339
 30
0.0
 10
0.789640
 20
231.053005
 30
0.0
 10
0.736307
 20
231.230338
 30
0.0
 10
0.682973
 20
231.411671
 30
0.0
 10
0.637640
 20
231.589004
 30
0.0
 10
0.588307
 20
231.766337
 30
0.0
 10
0.546974
 20
231.947669
 30
0.0
 10
0.505641
 20
232.130336
 30
0.0
 10
0.464307
 20
232.311669
 30
0.0
 10
0.425641
 20
232.493001
 30
0.0
 10
0.392307
 20
232.674334
 30
0.0
 10
0.357641
 20
232.859667
 30
0.0
 10
0.328308
 20
233.041000
 30
0.0
 10
0.301641
 20
233.222333
 30
0.0
 10
0.274974
 20
233.407666
 30
0.0
 10
0.252308
 20
233.592999
 30
0.0
 10
0.229641
 20
233.774332
 30
0.0
 10
0.210975
 20
233.959664
 30
0.0
 10
0.192308
 20
234.143664
 30
0.0
 10
0.176308
 20
234.328997
 30
0.0
 10
0.165641
 20
234.514330
 30
0.0
 10
0.153641
 20
234.699663
 30
0.0
 10
0.146975
 20
234.884995
 30
0.0
 10
0.142975
 20
235.070328
 30
0.0
 10
0.138975
 20
235.255661
 30
0.0
 10
0.138975
 20
235.440994
 30
0.0
 10
0.138975
 20
499.391001
 30
0.0
 10
0.138975
 20
499.576334
 30
0.0
 10
0.142975
 20
499.761667
 30
0.0
 10
0.146975
 20
499.946999
 30
0.0
 10
0.153641
 20
500.130999
 30
0.0
 10
0.165641
 20
500.316332
 30
0.0
 10
0.176308
 20
500.501665
 30
0.0
 10
0.192308
 20
500.686998
 30
0.0
 10
0.210975
 20
500.872330
 30
0.0
 10
0.229641
 20
501.057663
 30
0.0
 10
0.252308
 20
501.238996
 30
0.0
 10
0.274974
 20
501.424329
 30
0.0
 10
0.301641
 20
501.609662
 30
0.0
 10
0.328308
 20
501.790995
 30
0.0
 10
0.357641
 20
501.972328
 30
0.0
 10
0.392307
 20
502.157661
 30
0.0
 10
0.425641
 20
502.338993
 30
0.0
 10
0.464307
 20
502.520326
 30
0.0
 10
0.505641
 20
502.701659
 30
0.0
 10
0.546974
 20
502.882992
 30
0.0
 10
0.588307
 20
503.064325
 30
0.0
 10
0.637640
 20
503.241658
 30
0.0
 10
0.682973
 20
503.420324
 30
0.0
 10
0.736307
 20
503.601657
 30
0.0
 10
0.789640
 20
503.778990
 30
0.0
 10
0.841640
 20
503.956323
 30
0.0
 10
0.898973
 20
504.129656
 30
0.0
 10
0.958973
 20
504.308322
 30
0.0
 10
1.018973
 20
504.481655
 30
0.0
 10
1.084306
 20
504.656321
 30
0.0
 10
1.152306
 20
504.829654
 30
0.0
 10
1.216305
 20
505.002987
 30
0.0
 10
1.288305
 20
505.173653
 30
0.0
 10
1.360305
 20
505.346986
 30
0.0
 10
1.434972
 20
505.517652
 30
0.0
 10
1.510971
 20
505.684318
 30
0.0
 10
1.590971
 20
505.853651
 30
0.0
 10
1.669638
 20
506.020318
 30
0.0
 10
1.752304
 20
506.186984
 30
0.0
 10
1.836304
 20
506.352317
 30
0.0
 10
1.922970
 20
506.514983
 30
0.0
 10
2.009637
 20
506.677649
 30
0.0
 10
2.100303
 20
506.840316
 30
0.0
 10
2.194970
 20
507.002982
 30
0.0
 10
2.289636
 20
507.161648
 30
0.0
 10
2.384302
 20
507.320314
 30
0.0
 10
2.481636
 20
507.478981
 30
0.0
 10
2.584302
 20
507.633647
 30
0.0
 10
2.686968
 20
507.788313
 30
0.0
 10
2.788301
 20
507.944313
 30
0.0
 10
2.893635
 20
508.094979
 30
0.0
 10
3.004301
 20
508.245645
 30
0.0
 10
3.113634
 20
508.393645
 30
0.0
 10
3.222967
 20
508.544311
 30
0.0
 10
3.336300
 20
508.692311
 30
0.0
 10
3.453633
 20
508.836311
 30
0.0
 10
3.566966
 20
508.978977
 30
0.0
 10
3.688299
 20
509.122977
 30
0.0
 10
3.808299
 20
509.262976
 30
0.0
 10
3.929632
 20
509.402976
 30
0.0
 10
4.054965
 20
509.542975
 30
0.0
 10
4.178965
 20
509.678975
 30
0.0
 10
4.308298
 20
509.814975
 30
0.0
 10
4.436297
 20
509.946974
 30
0.0
 10
4.564297
 20
510.078974
 30
0.0
 10
15.857602
 20
521.372279
 30
0.0
 10
15.952269
 20
521.466946
 30
0.0
 10
16.050935
 20
521.561612
 30
0.0
 10
16.149601
 20
521.656279
 30
0.0
 10
16.250934
 20
521.750945
 30
0.0
 10
16.349601
 20
521.841611
 30
0.0
 10
16.450934
 20
521.936278
 30
0.0
 10
16.553600
 20
522.026944
 30
0.0
 10
16.654933
 20
522.113611
 30
0.0
 10
16.761600
 20
522.204277
 30
0.0
 10
16.862933
 20
522.290944
 30
0.0
 10
16.969599
 20
522.377610
 30
0.0
 10
17.074932
 20
522.464277
 30
0.0
 10
17.180265
 20
522.548276
 30
0.0
 10
17.290932
 20
522.634943
 30
0.0
 10
17.400265
 20
522.717609
 30
0.0
 10
17.505598
 20
522.797609
 30
0.0
 10
17.614931
 20
522.880275
 30
0.0
 10
17.728264
 20
522.960275
 30
0.0
 10
17.838931
 20
523.038942
 30
0.0
 10
17.952264
 20
523.118942
 30
0.0
 10
18.065597
 20
523.193608
 30
0.0
 10
18.178930
 20
523.269608
 30
0.0
 10
18.292263
 20
523.345608
 30
0.0
 10
18.405596
 20
523.421607
 30
0.0
 10
18.522929
 20
523.492274
 30
0.0
 10
18.636262
 20
523.564274
 30
0.0
 10
18.753595
 20
523.636274
 30
0.0
 10
18.870928
 20
523.704273
 30
0.0
 10
18.986928
 20
523.772273
 30
0.0
 10
19.108261
 20
523.840273
 30
0.0
 10
19.225594
 20
523.908273
 30
0.0
 10
19.346927
 20
523.972273
 30
0.0
 10
19.466926
 20
524.037606
 30
0.0
 10
19.588259
 20
524.101606
 30
0.0
 10
19.709592
 20
524.165606
 30
0.0
 10
19.830926
 20
524.225605
 30
0.0
 10
19.954925
 20
524.286939
 30
0.0
 10
20.076258
 20
524.342938
 30
0.0
 10
20.200258
 20
524.404272
 30
0.0
 10
20.325591
 20
524.460272
 30
0.0
 10
20.449591
 20
524.513605
 30
0.0
 10
20.574924
 20
524.569605
 30
0.0
 10
20.698923
 20
524.622938
 30
0.0
 10
20.824256
 20
524.676271
 30
0.0
 10
20.952256
 20
524.724271
 30
0.0
 10
21.081589
 20
524.777604
 30
0.0
 10
21.205589
 20
524.822937
 30
0.0
 10
21.334922
 20
524.872270
 30
0.0
 10
21.462921
 20
524.917604
 30
0.0
 10
21.590921
 20
524.962937
 30
0.0
 10
21.720254
 20
525.008270
 30
0.0
 10
21.852254
 20
525.049603
 30
0.0
 10
21.980253
 20
525.090937
 30
0.0
 10
22.109586
 20
525.133603
 30
0.0
 10
22.241586
 20
525.174936
 30
0.0
 10
22.373586
 20
525.212270
 30
0.0
 10
22.502919
 20
525.249603
 30
0.0
 10
22.634919
 20
525.284269
 30
0.0
 10
22.766918
 20
525.318936
 30
0.0
 10
22.898918
 20
525.352269
 30
0.0
 10
23.030918
 20
525.386936
 30
0.0
 10
23.166917
 20
525.416269
 30
0.0
 10
23.300250
 20
525.446936
 30
0.0
 10
23.432250
 20
525.473602
 30
0.0
 10
232.926393
 20
569.580159
 30
0.0
 10
232.975726
 20
569.588159
 30
0.0
 10
233.021059
 20
569.598825
 30
0.0
 10
233.070392
 20
569.610825
 30
0.0
 10
233.119726
 20
569.617492
 30
0.0
 10
233.169059
 20
569.629492
 30
0.0
 10
233.214392
 20
569.637492
 30
0.0
 10
233.263725
 20
569.644159
 30
0.0
 10
233.313058
 20
569.656159
 30
0.0
 10
233.358392
 20
569.662825
 30
0.0
 10
233.406392
 20
569.670825
 30
0.0
 10
233.455725
 20
569.682825
 30
0.0
 10
233.505058
 20
569.689492
 30
0.0
 10
233.554391
 20
569.697492
 30
0.0
 10
233.599724
 20
569.705492
 30
0.0
 10
233.649058
 20
569.712158
 30
0.0
 10
233.698391
 20
569.720158
 30
0.0
 10
233.747724
 20
569.728158
 30
0.0
 10
233.795724
 20
569.734825
 30
0.0
 10
233.841057
 20
569.742825
 30
0.0
 10
233.890390
 20
569.750825
 30
0.0
 10
233.939724
 20
569.757492
 30
0.0
 10
233.989057
 20
569.761492
 30
0.0
 10
234.038390
 20
569.769492
 30
0.0
 10
234.087723
 20
569.776158
 30
0.0
 10
234.137056
 20
569.784158
 30
0.0
 10
234.182390
 20
569.788158
 30
0.0
 10
234.230390
 20
569.796158
 30
0.0
 10
234.279723
 20
569.798825
 30
0.0
 10
234.329056
 20
569.806825
 30
0.0
 10
234.378389
 20
569.810825
 30
0.0
 10
234.427722
 20
569.818825
 30
0.0
 10
234.477056
 20
569.821491
 30
0.0
 10
234.526389
 20
569.825491
 30
0.0
 10
234.574389
 20
569.833491
 30
0.0
 10
234.619722
 20
569.837491
 30
0.0
 10
234.669055
 20
569.841491
 30
0.0
 10
234.718388
 20
569.844158
 30
0.0
 10
234.767722
 20
569.848158
 30
0.0
 10
234.817055
 20
569.852158
 30
0.0
 10
234.866388
 20
569.856158
 30
0.0
 10
234.915721
 20
569.860158
 30
0.0
 10
234.963721
 20
569.864158
 30
0.0
 10
235.013054
 20
569.866825
 30
0.0
 10
235.062387
 20
569.870825
 30
0.0
 10
235.111721
 20
569.874825
 30
0.0
 10
235.161054
 20
569.878825
 30
0.0
 10
235.210387
 20
569.878825
 30
0.0
 10
235.258387
 20
569.882825
 30
0.0
 10
235.307720
 20
569.886825
 30
0.0
 10
235.353053
 20
569.886825
 30
0.0
 10
235.402387
 20
569.889491
 30
0.0
 10
235.451720
 20
569.889491
 30
0.0
 10
235.501053
 20
569.893491
 30
0.0
 10
235.550386
 20
569.893491
 30
0.0
 10
235.599719
 20
569.897491
 30
0.0
 10
235.647719
 20
569.897491
 30
0.0
 10
235.697053
 20
569.897491
 30
0.0
 10
235.746386
 20
569.901491
 30
0.0
 10
235.795719
 20
569.901491
 30
0.0
 10
235.845052
 20
569.901491
 30
0.0
 10
235.894385
 20
569.901491
 30
0.0
 10
235.943719
 20
569.901491
 30
0.0
 10
235.991718
 20
569.901491
 30
0.0
 10
236.041052
 20
569.901491
 30
0.0
 10
337.547465
 20
569.901491
 30
0.0
 10
337.604798
 20
569.901491
 30
0.0
 10
337.660798
 20
569.901491
 30
0.0
 10
337.718131
 20
569.901491
 30
0.0
 10
337.774131
 20
569.901491
 30
0.0
 10
337.827464
 20
569.901491
 30
0.0
 10
337.884797
 20
569.901491
 30
0.0
 10
337.940797
 20
569.897491
 30
0.0
 10
337.998130
 20
569.897491
 30
0.0
 10
338.054130
 20
569.893491
 30
0.0
 10
338.107463
 20
569.893491
 30
0.0
 10
338.163463
 20
569.889491
 30
0.0
 10
338.220796
 20
569.889491
 30
0.0
 10
338.276796
 20
569.886825
 30
0.0
 10
338.334129
 20
569.882825
 30
0.0
 10
338.387462
 20
569.878825
 30
0.0
 10
338.443462
 20
569.874825
 30
0.0
 10
338.500796
 20
569.874825
 30
0.0
 10
338.556795
 20
569.870825
 30
0.0
 10
338.610129
 20
569.866825
 30
0.0
 10
338.666128
 20
569.864158
 30
0.0
 10
338.723462
 20
569.856158
 30
0.0
 10
338.779461
 20
569.852158
 30
0.0
 10
338.836795
 20
569.848158
 30
0.0
 10
338.890128
 20
569.844158
 30
0.0
 10
338.946128
 20
569.837491
 30
0.0
 10
339.003461
 20
569.833491
 30
0.0
 10
339.059461
 20
569.829491
 30
0.0
 10
339.112794
 20
569.821491
 30
0.0
 10
339.168794
 20
569.814825
 30
0.0
 10
339.226127
 20
569.810825
 30
0.0
 10
339.279460
 20
569.802825
 30
0.0
 10
339.335460
 20
569.796158
 30
0.0
 10
339.392793
 20
569.792158
 30
0.0
 10
339.448793
 20
569.784158
 30
0.0
 10
339.502126
 20
569.776158
 30
0.0
 10
339.558126
 20
569.769492
 30
0.0
 10
339.615459
 20
569.761492
 30
0.0
 10
339.668793
 20
569.753492
 30
0.0
 10
339.724792
 20
569.746825
 30
0.0
 10
339.782126
 20
569.738825
 30
0.0
 10
339.834126
 20
569.728158
 30
0.0
 10
339.891459
 20
569.720158
 30
0.0
 10
339.943459
 20
569.712158
 30
0.0
 10
340.000792
 20
569.705492
 30
0.0
 10
340.058125
 20
569.693492
 30
0.0
 10
340.110125
 20
569.685492
 30
0.0
 10
340.167458
 20
569.674825
 30
0.0
 10
340.223458
 20
569.662825
 30
0.0
 10
340.276791
 20
569.656159
 30
0.0
 10
340.332791
 20
569.644159
 30
0.0
 10
340.386124
 20
569.633492
 30
0.0
 10
340.443457
 20
569.625492
 30
0.0
 10
340.495457
 20
569.614825
 30
0.0
 10
340.552790
 20
569.602825
 30
0.0
 10
340.606124
 20
569.592159
 30
0.0
 10
340.662123
 20
569.580159
 30
0.0
 10
340.715457
 20
569.569492
 30
0.0
 10
340.771456
 20
569.557492
 30
0.0
 10
340.824790
 20
569.542825
 30
0.0
 10
340.880790
 20
569.530826
 30
0.0
 10
340.934123
 20
569.520159
 30
0.0
 10
340.991456
 20
569.508159
 30
0.0
 10
341.043456
 20
569.493492
 30
0.0
 10
341.096789
 20
569.481492
 30
0.0
 10
514.036357
 20
527.714930
 30
0.0
 10
514.187023
 20
527.676263
 30
0.0
 10
514.343023
 20
527.634930
 30
0.0
 10
514.493689
 20
527.589597
 30
0.0
 10
514.640355
 20
527.540264
 30
0.0
 10
514.792355
 20
527.490931
 30
0.0
 10
514.939021
 20
527.434931
 30
0.0
 10
515.087021
 20
527.377598
 30
0.0
 10
515.231020
 20
527.317598
 30
0.0
 10
515.373687
 20
527.253598
 30
0.0
 10
515.517686
 20
527.189598
 30
0.0
 10
515.661686
 20
527.121598
 30
0.0
 10
515.801686
 20
527.045598
 30
0.0
 10
515.937685
 20
526.973599
 30
0.0
 10
516.073685
 20
526.894932
 30
0.0
 10
516.209685
 20
526.810932
 30
0.0
 10
516.341684
 20
526.728266
 30
0.0
 10
516.473684
 20
526.641599
 30
0.0
 10
516.605684
 20
526.553600
 30
0.0
 10
516.735017
 20
526.462933
 30
0.0
 10
516.859016
 20
526.369600
 30
0.0
 10
516.984349
 20
526.270934
 30
0.0
 10
517.105682
 20
526.172267
 30
0.0
 10
517.225682
 20
526.066934
 30
0.0
 10
517.343015
 20
525.964268
 30
0.0
 10
517.456348
 20
525.854935
 30
0.0
 10
517.569681
 20
525.745602
 30
0.0
 10
517.683014
 20
525.636269
 30
0.0
 10
517.789681
 20
525.522936
 30
0.0
 10
517.899014
 20
525.405602
 30
0.0
 10
518.000347
 20
525.288269
 30
0.0
 10
518.103013
 20
525.166936
 30
0.0
 10
518.201680
 20
525.042937
 30
0.0
 10
518.296346
 20
524.917604
 30
0.0
 10
518.389679
 20
524.793604
 30
0.0
 10
518.480346
 20
524.664271
 30
0.0
 10
518.572345
 20
524.532271
 30
0.0
 10
518.655012
 20
524.400272
 30
0.0
 10
518.737678
 20
524.264272
 30
0.0
 10
518.817678
 20
524.130939
 30
0.0
 10
518.892345
 20
523.992273
 30
0.0
 10
518.968344
 20
523.852273
 30
0.0
 10
519.040344
 20
523.712273
 30
0.0
 10
519.108344
 20
523.572274
 30
0.0
 10
519.172344
 20
523.428274
 30
0.0
 10
519.236344
 20
523.281608
 30
0.0
 10
519.293677
 20
523.137608
 30
0.0
 10
519.349677
 20
522.989609
 30
0.0
 10
519.403010
 20
522.842942
 30
0.0
 10
519.456343
 20
522.690943
 30
0.0
 10
519.501676
 20
522.540276
 30
0.0
 10
519.547010
 20
522.389610
 30
0.0
 10
519.584343
 20
522.237610
 30
0.0
 10
519.623009
 20
522.086944
 30
0.0
 10
519.656343
 20
521.932278
 30
0.0
 10
519.687009
 20
521.776278
 30
0.0
 10
519.716342
 20
521.621612
 30
0.0
 10
519.739009
 20
521.466946
 30
0.0
 10
519.761676
 20
521.308279
 30
0.0
 10
519.781676
 20
521.153613
 30
0.0
 10
519.796342
 20
520.998947
 30
0.0
 10
519.807009
 20
520.838947
 30
0.0
 10
519.815009
 20
520.680281
 30
0.0
 10
519.819009
 20
520.525615
 30
0.0
 10
519.823009
 20
520.366948
 30
0.0
  0
LWPOLYLINE
  5
119
100
AcDbEntity
  8
case
 62
7
100
AcDbPolyline
 90
65
 70
1
 10
168.327888
 20
392.623268
 30
0.0
 10
168.327888
 20
392.623268
 30
0.0
 10
167.926555
 20
392.645934
 30
0.0
 10
167.530556
 20
392.701934
 30
0.0
 10
167.141224
 20
392.800601
 30
0.0
 10
166.762558
 20
392.936600
 30
0.0
 10
166.399892
 20
393.107267
 30
0.0
 10
166.055893
 20
393.315266
 30
0.0
 10
165.734561
 20
393.552599
 30
0.0
 10
165.439895
 20
393.821931
 30
0.0
 10
165.171895
 20
394.116597
 30
0.0
 10
164.933229
 20
394.437930
 30
0.0
 10
164.725230
 20
394.781929
 30
0.0
 10
164.555897
 20
395.144595
 30
0.0
 10
164.419897
 20
395.521927
 30
0.0
 10
164.321231
 20
395.911260
 30
0.0
 10
164.263898
 20
396.308592
 30
0.0
 10
164.245231
 20
396.704591
 30
0.0
 10
164.263898
 20
397.105923
 30
0.0
 10
164.321231
 20
397.501922
 30
0.0
 10
164.419897
 20
397.891255
 30
0.0
 10
164.555897
 20
398.269920
 30
0.0
 10
164.725230
 20
398.632586
 30
0.0
 10
164.933229
 20
398.976585
 30
0.0
 10
165.171895
 20
399.297918
 30
0.0
 10
165.439895
 20
399.592584
 30
0.0
 10
165.734561
 20
399.860583
 30
0.0
 10
166.055893
 20
400.099249
 30
0.0
 10
166.399892
 20
400.307249
 30
0.0
 10
166.762558
 20
400.476581
 30
0.0
 10
167.141224
 20
400.612581
 30
0.0
 10
167.530556
 20
400.711248
 30
0.0
 10
167.926555
 20
400.768581
 30
0.0
 10
168.323888
 20
400.787247
 30
0.0
 10
168.723887
 20
400.768581
 30
0.0
 10
169.121219
 20
400.711248
 30
0.0
 10
169.510551
 20
400.612581
 30
0.0
 10
169.887884
 20
400.476581
 30
0.0
 10
170.251883
 20
400.307249
 30
0.0
 10
170.595882
 20
400.099249
 30
0.0
 10
170.915881
 20
399.860583
 30
0.0
 10
171.211880
 20
399.592584
 30
0.0
 10
171.479880
 20
399.297918
 30
0.0
 10
171.717212
 20
398.976585
 30
0.0
 10
171.925212
 20
398.632586
 30
0.0
 10
172.095878
 20
398.269920
 30
0.0
 10
172.231878
 20
397.891255
 30
0.0
 10
172.330544
 20
397.501922
 30
0.0
 10
172.386544
 20
397.105923
 30
0.0
 10
172.409211
 20
396.704591
 30
0.0
 10
172.386544
 20
396.308592
 30
0.0
 10
172.330544
 20
395.911260
 30
0.0
 10
172.231878
 20
395.521927
 30
0.0
 10
172.095878
 20
395.144595
 30
0.0
 10
171.925212
 20
394.781929
 30
0.0
 10
171.717212
 20
394.437930
 30
0.0
 10
171.479880
 20
394.116597
 30
0.0
 10
171.211880
 20
393.821931
 30
0.0
 10
170.915881
 20
393.552599
 30
0.0
 10
170.595882
 20
393.315266
 30
0.0
 10
170.251883
 20
393.107267
 30
0.0
 10
169.887884
 20
392.936600
 30
0.0
 10
169.510551
 20
392.800601
 30
0.0
 10
169.121219
 20
392.701934
 30
0.0
 10
168.723887
 20
392.645934
 30
0.0
  0
LWPOLYLINE
  5
11a
100
AcDbEntity
  8
case
 62
7
100
AcDbPolyline
 90
4
 70
1
 10
456.893833
 20
304.768821
 30
0.0
 10
456.893833
 20
356.926024
 30
0.0
 10
509.051036
 20
356.926024
 30
0.0
 10
509.051036
 20
304.768821
 30
0.0
  0
LWPOLYLINE
  5
11b
100
AcDbEntity
  8
case
 62
7
100
AcDbPolyline
 90
65
 70
1
 10
362.972734
 20
547.582880
 30
0.0
 10
362.972734
 20
547.582880
 30
0.0
 10
362.572735
 20
547.605547
 30
0.0
 10
362.175403
 20
547.662880
 30
0.0
 10
361.786071
 20
547.761547
 30
0.0
 10
361.407405
 20
547.897546
 30
0.0
 10
361.044739
 20
548.066879
 30
0.0
 10
360.700740
 20
548.274879
 30
0.0
 10
360.379407
 20
548.513545
 30
0.0
 10
360.084742
 20
548.781544
 30
0.0
 10
359.816742
 20
549.076210
 30
0.0
 10
359.578076
 20
549.397543
 30
0.0
 10
359.371410
 20
549.741542
 30
0.0
 10
359.200744
 20
550.104207
 30
0.0
 10
359.064744
 20
550.482873
 30
0.0
 10
358.966078
 20
550.872205
 30
0.0
 10
358.910078
 20
551.268204
 30
0.0
 10
358.891411
 20
551.665537
 30
0.0
 10
358.910078
 20
552.065536
 30
0.0
 10
358.966078
 20
552.462868
 30
0.0
 10
359.064744
 20
552.852201
 30
0.0
 10
359.200744
 20
553.229533
 30
0.0
 10
359.371410
 20
553.593532
 30
0.0
 10
359.578076
 20
553.936198
 30
0.0
 10
359.816742
 20
554.257530
 30
0.0
 10
360.084742
 20
554.553530
 30
0.0
 10
360.379407
 20
554.821529
 30
0.0
 10
360.700740
 20
555.058862
 30
0.0
 10
361.044739
 20
555.266861
 30
0.0
 10
361.407405
 20
555.437527
 30
0.0
 10
361.786071
 20
555.573527
 30
0.0
 10
362.175403
 20
555.672193
 30
0.0
 10
362.572735
 20
555.728193
 30
0.0
 10
362.968734
 20
555.746860
 30
0.0
 10
363.370067
 20
555.728193
 30
0.0
 10
363.766066
 20
555.672193
 30
0.0
 10
364.155398
 20
555.573527
 30
0.0
 10
364.534064
 20
555.437527
 30
0.0
 10
364.896730
 20
555.266861
 30
0.0
 10
365.240729
 20
555.058862
 30
0.0
 10
365.562061
 20
554.821529
 30
0.0
 10
365.856727
 20
554.553530
 30
0.0
 10
366.124726
 20
554.257530
 30
0.0
 10
366.363393
 20
553.936198
 30
0.0
 10
366.571392
 20
553.593532
 30
0.0
 10
366.740725
 20
553.229533
 30
0.0
 10
366.876725
 20
552.852201
 30
0.0
 10
366.975391
 20
552.462868
 30
0.0
 10
367.031391
 20
552.065536
 30
0.0
 10
367.054057
 20
551.665537
 30
0.0
 10
367.031391
 20
551.268204
 30
0.0
 10
366.975391
 20
550.872205
 30
0.0
 10
366.876725
 20
550.482873
 30
0.0
 10
366.740725
 20
550.104207
 30
0.0
 10
366.571392
 20
549.741542
 30
0.0
 10
366.363393
 20
549.397543
 30
0.0
 10
366.124726
 20
549.076210
 30
0.0
 10
365.856727
 20
548.781544
 30
0.0
 10
365.562061
 20
548.513545
 30
0.0
 10
365.240729
 20
548.274879
 30
0.0
 10
364.896730
 20
548.066879
 30
0.0
 10
364.534064
 20
547.897546
 30
0.0
 10
364.155398
 20
547.761547
 30
0.0
 10
363.766066
 20
547.662880
 30
0.0
 10
363.370067
 20
547.605547
 30
0.0
  0
LWPOLYLINE
  5
11c
100
AcDbEntity
  8
case
 62
7
100
AcDbPolyline
 90
4
 70
1
 10
169.650551
 20
478.625719
 30
0.0
 10
169.650551
 20
530.782922
 30
0.0
 10
221.807754
 20
530.782922
 30
0.0
 10
221.807754
 20
478.625719
 30
0.0
  0
LWPOLYLINE
  5
11d
100
AcDbEntity
  8
case
 62
7
100
AcDbPolyline
 90
4
 70
1
 10
241.461038
 20
421.933861
 30
0.0
 10
241.461038
 20
474.091064
 30
0.0
 10
293.618241
 20
474.091064
 30
0.0
 10
293.618241
 20
421.933861
 30
0.0
  0
LWPOLYLINE
  5
11e
100
AcDbEntity
  8
case
 62
7
100
AcDbPolyline
 90
4
 70
1
 10
444.263198
 20
76.674724
 30
0.0
 10
407.381957
 20
39.793483
 30
0.0
 10
370.498049
 20
76.674724
 30
0.0
 10
407.381957
 20
113.558632
 30
0.0
  0
LWPOLYLINE
  5
11f
100
AcDbEntity
  8
case
 62
7
100
AcDbPolyline
 90
4
 70
1
 10
385.083346
 20
463.508424
 30
0.0
 10
385.083346
 20
515.665627
 30
0.0
 10
437.240549
 20
515.665627
 30
0.0
 10
437.240549
 20
463.508424
 30
0.0
  0
LWPOLYLINE
  5
120
100
AcDbEntity
  8
case
 62
7
100
AcDbPolyline
 90
4
 70
1
 10
313.271525
 20
478.625719
 30
0.0
 10
313.271525
 20
530.782922
 30
0.0
 10
365.430062
 20
530.782922
 30
0.0
 10
365.430062
 20
478.625719
 30
0.0
  0
LWPOLYLINE
  5
121
100
AcDbEntity
  8
case
 62
7
100
AcDbPolyline
 90
4
 70
1
 10
26.028243
 20
376.579308
 30
0.0
 10
26.028243
 20
428.736511
 30
0.0
 10
78.185446
 20
428.736511
 30
0.0
 10
78.185446
 20
376.579308
 30
0.0
  0
LWPOLYLINE
  5
122
100
AcDbEntity
  8
case
 62
7
100
AcDbPolyline
 90
4
 70
1
 10
97.840064
 20
463.508424
 30
0.0
 10
97.840064
 20
515.665627
 30
0.0
 10
149.997267
 20
515.665627
 30
0.0
 10
149.997267
 20
463.508424
 30
0.0
  0
LWPOLYLINE
  5
123
100
AcDbEntity
  8
case
 62
7
100
AcDbPolyline
 90
4
 70
1
 10
456.893833
 20
376.579308
 30
0.0
 10
456.893833
 20
428.736511
 30
0.0
 10
509.051036
 20
428.736511
 30
0.0
 10
509.051036
 20
376.579308
 30
0.0
  0
LWPOLYLINE
  5
124
100
AcDbEntity
  8
case
 62
7
100
AcDbPolyline
 90
4
 70
1
 10
97.840064
 20
319.886116
 30
0.0
 10
97.840064
 20
372.043319
 30
0.0
 10
149.997267
 20
372.043319
 30
0.0
 10
149.997267
 20
319.886116
 30
0.0
  0
LWPOLYLINE
  5
125
100
AcDbEntity
  8
case
 62
7
100
AcDbPolyline
 90
65
 70
1
 10
607.129457
 20
470.008408
 30
0.0
 10
607.129457
 20
470.008408
 30
0.0
 10
606.729458
 20
470.031074
 30
0.0
 10
606.332126
 20
470.088407
 30
0.0
 10
605.942794
 20
470.187074
 30
0.0
 10
605.565461
 20
470.323074
 30
0.0
 10
605.201462
 20
470.492406
 30
0.0
 10
604.857463
 20
470.700406
 30
0.0
 10
604.537464
 20
470.939072
 30
0.0
 10
604.241464
 20
471.207071
 30
0.0
 10
603.973465
 20
471.501737
 30
0.0
 10
603.736132
 20
471.823070
 30
0.0
 10
603.528133
 20
472.167069
 30
0.0
 10
603.357467
 20
472.529735
 30
0.0
 10
603.221467
 20
472.907067
 30
0.0
 10
603.122801
 20
473.296399
 30
0.0
 10
603.066801
 20
473.693732
 30
0.0
 10
603.048134
 20
474.091064
 30
0.0
 10
603.066801
 20
474.491063
 30
0.0
 10
603.122801
 20
474.888395
 30
0.0
 10
603.221467
 20
475.277728
 30
0.0
 10
603.357467
 20
475.655060
 30
0.0
 10
603.528133
 20
476.017726
 30
0.0
 10
603.736132
 20
476.361725
 30
0.0
 10
603.973465
 20
476.683058
 30
0.0
 10
604.241464
 20
476.977724
 30
0.0
 10
604.537464
 20
477.247056
 30
0.0
 10
604.857463
 20
477.484389
 30
0.0
 10
605.201462
 20
477.692388
 30
0.0
 10
605.565461
 20
477.863055
 30
0.0
 10
605.942794
 20
477.999054
 30
0.0
 10
606.332126
 20
478.096387
 30
0.0
 10
606.729458
 20
478.153721
 30
0.0
 10
607.125457
 20
478.172387
 30
0.0
 10
607.526790
 20
478.153721
 30
0.0
 10
607.922789
 20
478.096387
 30
0.0
 10
608.312121
 20
477.999054
 30
0.0
 10
608.690787
 20
477.863055
 30
0.0
 10
609.053452
 20
477.692388
 30
0.0
 10
609.397452
 20
477.484389
 30
0.0
 10
609.718784
 20
477.247056
 30
0.0
 10
610.013450
 20
476.977724
 30
0.0
 10
610.281449
 20
476.683058
 30
0.0
 10
610.520115
 20
476.361725
 30
0.0
 10
610.728115
 20
476.017726
 30
0.0
 10
610.897448
 20
475.655060
 30
0.0
 10
611.033448
 20
475.277728
 30
0.0
 10
611.132114
 20
474.888395
 30
0.0
 10
611.189447
 20
474.491063
 30
0.0
 10
611.212114
 20
474.091064
 30
0.0
 10
611.189447
 20
473.693732
 30
0.0
 10
611.132114
 20
473.296399
 30
0.0
 10
611.033448
 20
472.907067
 30
0.0
 10
610.897448
 20
472.529735
 30
0.0
 10
610.728115
 20
472.167069
 30
0.0
 10
610.520115
 20
471.823070
 30
0.0
 10
610.281449
 20
471.501737
 30
0.0
 10
610.013450
 20
471.207071
 30
0.0
 10
609.718784
 20
470.939072
 30
0.0
 10
609.397452
 20
470.700406
 30
0.0
 10
609.053452
 20
470.492406
 30
0.0
 10
608.690787
 20
470.323074
 30
0.0
 10
608.312121
 20
470.187074
 30
0.0
 10
607.922789
 20
470.088407
 30
0.0
 10
607.526790
 20
470.031074
 30
0.0
  0
LWPOLYLINE
  5
126
100
AcDbEntity
  8
case
 62
7
100
AcDbPolyline
 90
65
 70
1
 10
210.658448
 20
547.582880
 30
0.0
 10
210.658448
 20
547.582880
 30
0.0
 10
210.257116
 20
547.605547
 30
0.0
 10
209.861117
 20
547.662880
 30
0.0
 10
209.471785
 20
547.761547
 30
0.0
 10
209.093119
 20
547.897546
 30
0.0
 10
208.730453
 20
548.066879
 30
0.0
 10
208.386454
 20
548.274879
 30
0.0
 10
208.065122
 20
548.513545
 30
0.0
 10
207.770456
 20
548.781544
 30
0.0
 10
207.502456
 20
549.076210
 30
0.0
 10
207.263790
 20
549.397543
 30
0.0
 10
207.055791
 20
549.741542
 30
0.0
 10
206.886458
 20
550.104207
 30
0.0
 10
206.750458
 20
550.482873
 30
0.0
 10
206.651792
 20
550.872205
 30
0.0
 10
206.595792
 20
551.268204
 30
0.0
 10
206.575792
 20
551.665537
 30
0.0
 10
206.595792
 20
552.065536
 30
0.0
 10
206.651792
 20
552.462868
 30
0.0
 10
206.750458
 20
552.852201
 30
0.0
 10
206.886458
 20
553.229533
 30
0.0
 10
207.055791
 20
553.593532
 30
0.0
 10
207.263790
 20
553.936198
 30
0.0
 10
207.502456
 20
554.257530
 30
0.0
 10
207.770456
 20
554.553530
 30
0.0
 10
208.065122
 20
554.821529
 30
0.0
 10
208.386454
 20
555.058862
 30
0.0
 10
208.730453
 20
555.266861
 30
0.0
 10
209.093119
 20
555.437527
 30
0.0
 10
209.471785
 20
555.573527
 30
0.0
 10
209.861117
 20
555.672193
 30
0.0
 10
210.257116
 20
555.728193
 30
0.0
 10
210.654448
 20
555.746860
 30
0.0
 10
211.054447
 20
555.728193
 30
0.0
 10
211.451780
 20
555.672193
 30
0.0
 10
211.841112
 20
555.573527
 30
0.0
 10
212.218445
 20
555.437527
 30
0.0
 10
212.582444
 20
555.266861
 30
0.0
 10
212.926443
 20
555.058862
 30
0.0
 10
213.246442
 20
554.821529
 30
0.0
 10
213.542441
 20
554.553530
 30
0.0
 10
213.810441
 20
554.257530
 30
0.0
 10
214.047773
 20
553.936198
 30
0.0
 10
214.255773
 20
553.593532
 30
0.0
 10
214.426439
 20
553.229533
 30
0.0
 10
214.562439
 20
552.852201
 30
0.0
 10
214.661105
 20
552.462868
 30
0.0
 10
214.717105
 20
552.065536
 30
0.0
 10
214.739772
 20
551.665537
 30
0.0
 10
214.717105
 20
551.268204
 30
0.0
 10
214.661105
 20
550.872205
 30
0.0
 10
214.562439
 20
550.482873
 30
0.0
 10
214.426439
 20
550.104207
 30
0.0
 10
214.255773
 20
549.741542
 30
0.0
 10
214.047773
 20
549.397543
 30
0.0
 10
213.810441
 20
549.076210
 30
0.0
 10
213.542441
 20
548.781544
 30
0.0
 10
213.246442
 20
548.513545
 30
0.0
 10
212.926443
 20
548.274879
 30
0.0
 10
212.582444
 20
548.066879
 30
0.0
 10
212.218445
 20
547.897546
 30
0.0
 10
211.841112
 20
547.761547
 30
0.0
 10
211.451780
 20
547.662880
 30
0.0
 10
211.054447
 20
547.605547
 30
0.0
  0
LWPOLYLINE
  5
127
100
AcDbEntity
  8
case
 62
7
100
AcDbPolyline
 90
4
 70
1
 10
393.484658
 20
127.455931
 30
0.0
 10
356.604750
 20
90.572023
 30
0.0
 10
319.719509
 20
127.455931
 30
0.0
 10
356.604750
 20
164.337172
 30
0.0
  0
LWPOLYLINE
  5
128
100
AcDbEntity
  8
case
 62
7
100
AcDbPolyline
 90
4
 70
1
 10
241.461038
 20
493.744348
 30
0.0
 10
241.461038
 20
545.901551
 30
0.0
 10
293.618241
 20
545.901551
 30
0.0
 10
293.618241
 20
493.744348
 30
0.0
  0
LWPOLYLINE
  5
129
100
AcDbEntity
  8
case
 62
7
100
AcDbPolyline
 90
65
 70
1
 10
369.964717
 20
219.049035
 30
0.0
 10
369.964717
 20
219.049035
 30
0.0
 10
369.564718
 20
219.071702
 30
0.0
 10
369.167386
 20
219.127702
 30
0.0
 10
368.778053
 20
219.226368
 30
0.0
 10
368.400721
 20
219.362368
 30
0.0
 10
368.036722
 20
219.533034
 30
0.0
 10
367.692723
 20
219.741033
 30
0.0
 10
367.372723
 20
219.978366
 30
0.0
 10
367.076724
 20
220.246365
 30
0.0
 10
366.808725
 20
220.542365
 30
0.0
 10
366.571392
 20
220.862364
 30
0.0
 10
366.363393
 20
221.206363
 30
0.0
 10
366.192726
 20
221.570362
 30
0.0
 10
366.056727
 20
221.947694
 30
0.0
 10
365.958060
 20
222.337027
 30
0.0
 10
365.902060
 20
222.734359
 30
0.0
 10
365.883394
 20
223.130358
 30
0.0
 10
365.902060
 20
223.531691
 30
0.0
 10
365.958060
 20
223.927690
 30
0.0
 10
366.056727
 20
224.317022
 30
0.0
 10
366.192726
 20
224.695688
 30
0.0
 10
366.363393
 20
225.058353
 30
0.0
 10
366.571392
 20
225.402352
 30
0.0
 10
366.808725
 20
225.723685
 30
0.0
 10
367.076724
 20
226.018351
 30
0.0
 10
367.372723
 20
226.286350
 30
0.0
 10
367.692723
 20
226.525016
 30
0.0
 10
368.036722
 20
226.733016
 30
0.0
 10
368.400721
 20
226.902349
 30
0.0
 10
368.778053
 20
227.038348
 30
0.0
 10
369.167386
 20
227.137015
 30
0.0
 10
369.564718
 20
227.194348
 30
0.0
 10
369.960717
 20
227.213015
 30
0.0
 10
370.362049
 20
227.194348
 30
0.0
 10
370.758048
 20
227.137015
 30
0.0
 10
371.147381
 20
227.038348
 30
0.0
 10
371.526046
 20
226.902349
 30
0.0
 10
371.888712
 20
226.733016
 30
0.0
 10
372.232711
 20
226.525016
 30
0.0
 10
372.554044
 20
226.286350
 30
0.0
 10
372.848710
 20
226.018351
 30
0.0
 10
373.116709
 20
225.723685
 30
0.0
 10
373.355375
 20
225.402352
 30
0.0
 10
373.563375
 20
225.058353
 30
0.0
 10
373.732707
 20
224.695688
 30
0.0
 10
373.868707
 20
224.317022
 30
0.0
 10
373.967374
 20
223.927690
 30
0.0
 10
374.023373
 20
223.531691
 30
0.0
 10
374.046040
 20
223.130358
 30
0.0
 10
374.023373
 20
222.734359
 30
0.0
 10
373.967374
 20
222.337027
 30
0.0
 10
373.868707
 20
221.947694
 30
0.0
 10
373.732707
 20
221.570362
 30
0.0
 10
373.563375
 20
221.206363
 30
0.0
 10
373.355375
 20
220.862364
 30
0.0
 10
373.116709
 20
220.542365
 30
0.0
 10
372.848710
 20
220.246365
 30
0.0
 10
372.554044
 20
219.978366
 30
0.0
 10
372.232711
 20
219.741033
 30
0.0
 10
371.888712
 20
219.533034
 30
0.0
 10
371.526046
 20
219.362368
 30
0.0
 10
371.147381
 20
219.226368
 30
0.0
 10
370.758048
 20
219.127702
 30
0.0
 10
370.362049
 20
219.071702
 30
0.0
  0
LWPOLYLINE
  5
12a
100
AcDbEntity
  8
case
 62
7
100
AcDbPolyline
 90
4
 70
1
 10
169.650551
 20
406.815232
 30
0.0
 10
169.650551
 20
458.972435
 30
0.0
 10
221.807754
 20
458.972435
 30
0.0
 10
221.807754
 20
406.815232
 30
0.0
  0
LWPOLYLINE
  5
12b
100
AcDbEntity
  8
case
 62
7
100
AcDbPolyline
 90
8
 70
1
 10
478.471112
 20
117.565289
 30
0.0
 10
461.633821
 20
134.402580
 30
0.0
 10
479.941775
 20
152.706534
 30
0.0
 10
483.547100
 20
149.101210
 30
0.0
 10
495.973735
 20
161.527846
 30
0.0
 10
505.596378
 20
151.905203
 30
0.0
 10
493.165742
 20
139.482567
 30
0.0
 10
496.779066
 20
135.873243
 30
0.0
  0
LWPOLYLINE
  5
12c
100
AcDbEntity
  8
case
 62
7
100
AcDbPolyline
 90
65
 70
1
 10
607.129457
 20
319.583450
 30
0.0
 10
607.129457
 20
319.583450
 30
0.0
 10
606.729458
 20
319.606117
 30
0.0
 10
606.332126
 20
319.663450
 30
0.0
 10
605.942794
 20
319.762117
 30
0.0
 10
605.565461
 20
319.898116
 30
0.0
 10
605.201462
 20
320.067449
 30
0.0
 10
604.857463
 20
320.275449
 30
0.0
 10
604.537464
 20
320.514115
 30
0.0
 10
604.241464
 20
320.782114
 30
0.0
 10
603.973465
 20
321.076780
 30
0.0
 10
603.736132
 20
321.398113
 30
0.0
 10
603.528133
 20
321.742112
 30
0.0
 10
603.357467
 20
322.104777
 30
0.0
 10
603.221467
 20
322.483443
 30
0.0
 10
603.122801
 20
322.872775
 30
0.0
 10
603.066801
 20
323.268775
 30
0.0
 10
603.048134
 20
323.666107
 30
0.0
 10
603.066801
 20
324.066106
 30
0.0
 10
603.122801
 20
324.463438
 30
0.0
 10
603.221467
 20
324.852771
 30
0.0
 10
603.357467
 20
325.230103
 30
0.0
 10
603.528133
 20
325.594102
 30
0.0
 10
603.736132
 20
325.936768
 30
0.0
 10
603.973465
 20
326.258100
 30
0.0
 10
604.241464
 20
326.554100
 30
0.0
 10
604.537464
 20
326.822099
 30
0.0
 10
604.857463
 20
327.059432
 30
0.0
 10
605.201462
 20
327.267431
 30
0.0
 10
605.565461
 20
327.438097
 30
0.0
 10
605.942794
 20
327.574097
 30
0.0
 10
606.332126
 20
327.672763
 30
0.0
 10
606.729458
 20
327.728763
 30
0.0
 10
607.125457
 20
327.747430
 30
0.0
 10
607.526790
 20
327.728763
 30
0.0
 10
607.922789
 20
327.672763
 30
0.0
 10
608.312121
 20
327.574097
 30
0.0
 10
608.690787
 20
327.438097
 30
0.0
 10
609.053452
 20
327.267431
 30
0.0
 10
609.397452
 20
327.059432
 30
0.0
 10
609.718784
 20
326.822099
 30
0.0
 10
610.013450
 20
326.554100
 30
0.0
 10
610.281449
 20
326.258100
 30
0.0
 10
610.520115
 20
325.936768
 30
0.0
 10
610.728115
 20
325.594102
 30
0.0
 10
610.897448
 20
325.230103
 30
0.0
 10
611.033448
 20
324.852771
 30
0.0
 10
611.132114
 20
324.463438
 30
0.0
 10
611.189447
 20
324.066106
 30
0.0
 10
611.212114
 20
323.666107
 30
0.0
 10
611.189447
 20
323.268775
 30
0.0
 10
611.132114
 20
322.872775
 30
0.0
 10
611.033448
 20
322.483443
 30
0.0
 10
610.897448
 20
322.104777
 30
0.0
 10
610.728115
 20
321.742112
 30
0.0
 10
610.520115
 20
321.398113
 30
0.0
 10
610.281449
 20
321.076780
 30
0.0
 10
610.013450
 20
320.782114
 30
0.0
 10
609.718784
 20
320.514115
 30
0.0
 10
609.397452
 20
320.275449
 30
0.0
 10
609.053452
 20
320.067449
 30
0.0
 10
608.690787
 20
319.898116
 30
0.0
 10
608.312121
 20
319.762117
 30
0.0
 10
607.922789
 20
319.663450
 30
0.0
 10
607.526790
 20
319.606117
 30
0.0
  0
LWPOLYLINE
  5
12d
100
AcDbEntity
  8
case
 62
7
100
AcDbPolyline
 90
4
 70
1
 10
169.650551
 20
335.004745
 30
0.0
 10
169.650551
 20
387.161948
 30
0.0
 10
221.807754
 20
387.161948
 30
0.0
 10
221.807754
 20
335.004745
 30
0.0
  0
LWPOLYLINE
  5
12e
100
AcDbEntity
  8
case
 62
7
100
AcDbPolyline
 90
65
 70
1
 10
394.153990
 20
8.908227
 30
0.0
 10
394.153990
 20
8.908227
 30
0.0
 10
393.752657
 20
8.930894
 30
0.0
 10
393.356658
 20
8.986894
 30
0.0
 10
392.967326
 20
9.085560
 30
0.0
 10
392.588660
 20
9.221560
 30
0.0
 10
392.225995
 20
9.390893
 30
0.0
 10
391.881995
 20
9.598892
 30
0.0
 10
391.560663
 20
9.837558
 30
0.0
 10
391.265997
 20
10.105557
 30
0.0
 10
390.997998
 20
10.400223
 30
0.0
 10
390.759332
 20
10.721556
 30
0.0
 10
390.551332
 20
11.065555
 30
0.0
 10
390.381999
 20
11.428221
 30
0.0
 10
390.245999
 20
11.806886
 30
0.0
 10
390.147333
 20
12.196219
 30
0.0
 10
390.091333
 20
12.592218
 30
0.0
 10
390.071333
 20
12.989550
 30
0.0
 10
390.091333
 20
13.389549
 30
0.0
 10
390.147333
 20
13.786882
 30
0.0
 10
390.245999
 20
14.176214
 30
0.0
 10
390.381999
 20
14.554880
 30
0.0
 10
390.551332
 20
14.917545
 30
0.0
 10
390.759332
 20
15.261545
 30
0.0
 10
390.997998
 20
15.582877
 30
0.0
 10
391.265997
 20
15.877543
 30
0.0
 10
391.560663
 20
16.145542
 30
0.0
 10
391.881995
 20
16.382875
 30
0.0
 10
392.225995
 20
16.590875
 30
0.0
 10
392.588660
 20
16.761541
 30
0.0
 10
392.967326
 20
16.897540
 30
0.0
 10
393.356658
 20
16.996207
 30
0.0
 10
393.752657
 20
17.052207
 30
0.0
 10
394.149990
 20
17.070873
 30
0.0
 10
394.549989
 20
17.052207
 30
0.0
 10
394.947321
 20
16.996207
 30
0.0
 10
395.336653
 20
16.897540
 30
0.0
 10
395.715319
 20
16.761541
 30
0.0
 10
396.077985
 20
16.590875
 30
0.0
 10
396.421984
 20
16.382875
 30
0.0
 10
396.743317
 20
16.145542
 30
0.0
 10
397.037982
 20
15.877543
 30
0.0
 10
397.305982
 20
15.582877
 30
0.0
 10
397.543315
 20
15.261545
 30
0.0
 10
397.751314
 20
14.917545
 30
0.0
 10
397.921980
 20
14.554880
 30
0.0
 10
398.057980
 20
14.176214
 30
0.0
 10
398.156646
 20
13.786882
 30
0.0
 10
398.212646
 20
13.389549
 30
0.0
 10
398.235313
 20
12.989550
 30
0.0
 10
398.212646
 20
12.592218
 30
0.0
 10
398.156646
 20
12.196219
 30
0.0
 10
398.057980
 20
11.806886
 30
0.0
 10
397.921980
 20
11.428221
 30
0.0
 10
397.751314
 20
11.065555
 30
0.0
 10
397.543315
 20
10.721556
 30
0.0
 10
397.305982
 20
10.400223
 30
0.0
 10
397.037982
 20
10.105557
 30
0.0
 10
396.743317
 20
9.837558
 30
0.0
 10
396.421984
 20
9.598892
 30
0.0
 10
396.077985
 20
9.390893
 30
0.0
 10
395.715319
 20
9.221560
 30
0.0
 10
395.336653
 20
9.085560
 30
0.0
 10
394.947321
 20
8.986894
 30
0.0
 10
394.549989
 20
8.930894
 30
0.0
  0
LWPOLYLINE
  5
12f
100
AcDbEntity
  8
case
 62
7
100
AcDbPolyline
 90
4
 70
1
 10
169.650551
 20
263.194258
 30
0.0
 10
169.650551
 20
315.351461
 30
0.0
 10
221.807754
 20
315.351461
 30
0.0
 10
221.807754
 20
263.194258
 30
0.0
  0
LWPOLYLINE
  5
130
100
AcDbEntity
  8
case
 62
7
100
AcDbPolyline
 90
4
 70
1
 10
385.083346
 20
319.886116
 30
0.0
 10
385.083346
 20
372.043319
 30
0.0
 10
437.240549
 20
372.043319
 30
0.0
 10
437.240549
 20
319.886116
 30
0.0
  0
LWPOLYLINE
  5
131
100
AcDbEntity
  8
case
 62
7
100
AcDbPolyline
 90
4
 70
1
 10
483.013768
 20
166.207834
 30
0.0
 10
446.133860
 20
129.326593
 30
0.0
 10
409.252619
 20
166.207834
 30
0.0
 10
446.133860
 20
203.087742
 30
0.0
  0
LWPOLYLINE
  5
132
100
AcDbEntity
  8
case
 62
7
100
AcDbPolyline
 90
325
 70
1
 10
615.550770
 20
483.623040
 30
0.0
 10
615.678769
 20
483.489707
 30
0.0
 10
615.806769
 20
483.357708
 30
0.0
 10
615.936102
 20
483.221708
 30
0.0
 10
616.060102
 20
483.085708
 30
0.0
 10
616.185435
 20
482.945709
 30
0.0
 10
616.306768
 20
482.805709
 30
0.0
 10
616.426767
 20
482.667043
 30
0.0
 10
616.548100
 20
482.523043
 30
0.0
 10
616.661433
 20
482.379043
 30
0.0
 10
616.778766
 20
482.235044
 30
0.0
 10
616.892100
 20
482.088377
 30
0.0
 10
617.001433
 20
481.936378
 30
0.0
 10
617.110766
 20
481.789712
 30
0.0
 10
617.221432
 20
481.639045
 30
0.0
 10
617.326765
 20
481.487046
 30
0.0
 10
617.429432
 20
481.332379
 30
0.0
 10
617.530765
 20
481.177713
 30
0.0
 10
617.633431
 20
481.021713
 30
0.0
 10
617.730764
 20
480.863047
 30
0.0
 10
617.825431
 20
480.704381
 30
0.0
 10
617.920097
 20
480.545715
 30
0.0
 10
618.014763
 20
480.383048
 30
0.0
 10
618.105430
 20
480.221715
 30
0.0
 10
618.192096
 20
480.059049
 30
0.0
 10
618.278763
 20
479.896383
 30
0.0
 10
618.362763
 20
479.729717
 30
0.0
 10
618.445429
 20
479.563050
 30
0.0
 10
618.525429
 20
479.397718
 30
0.0
 10
618.604095
 20
479.227051
 30
0.0
 10
618.680095
 20
479.060385
 30
0.0
 10
618.754762
 20
478.891052
 30
0.0
 10
618.826761
 20
478.716386
 30
0.0
 10
618.898761
 20
478.547053
 30
0.0
 10
618.962761
 20
478.372387
 30
0.0
 10
619.030761
 20
478.199054
 30
0.0
 10
619.096094
 20
478.025721
 30
0.0
 10
619.156094
 20
477.851055
 30
0.0
 10
619.216094
 20
477.673722
 30
0.0
 10
619.273427
 20
477.500389
 30
0.0
 10
619.325427
 20
477.321723
 30
0.0
 10
619.378760
 20
477.144390
 30
0.0
 10
619.432093
 20
476.963057
 30
0.0
 10
619.477426
 20
476.785724
 30
0.0
 10
619.526760
 20
476.608391
 30
0.0
 10
619.568093
 20
476.427058
 30
0.0
 10
619.609426
 20
476.244392
 30
0.0
 10
619.650759
 20
476.063059
 30
0.0
 10
619.689426
 20
475.881726
 30
0.0
 10
619.722759
 20
475.700393
 30
0.0
 10
619.757426
 20
475.515061
 30
0.0
 10
619.786759
 20
475.333728
 30
0.0
 10
619.813426
 20
475.152395
 30
0.0
 10
619.840092
 20
474.967062
 30
0.0
 10
619.862759
 20
474.781729
 30
0.0
 10
619.885425
 20
474.600396
 30
0.0
 10
619.904092
 20
474.416397
 30
0.0
 10
619.922759
 20
474.231064
 30
0.0
 10
619.938759
 20
474.045731
 30
0.0
 10
619.949425
 20
473.860398
 30
0.0
 10
619.961425
 20
473.675065
 30
0.0
 10
619.968092
 20
473.489732
 30
0.0
 10
619.972092
 20
473.304399
 30
0.0
 10
619.976092
 20
473.119067
 30
0.0
 10
619.980092
 20
472.933734
 30
0.0
 10
619.980092
 20
344.075389
 30
0.0
 10
619.976092
 20
343.890056
 30
0.0
 10
619.968092
 20
343.704723
 30
0.0
 10
619.957425
 20
343.519391
 30
0.0
 10
619.942759
 20
343.334058
 30
0.0
 10
619.920092
 20
343.152725
 30
0.0
 10
619.897425
 20
342.967392
 30
0.0
 10
619.866759
 20
342.786059
 30
0.0
 10
619.832092
 20
342.600726
 30
0.0
 10
619.794759
 20
342.419393
 30
0.0
 10
619.753426
 20
342.242060
 30
0.0
 10
619.704092
 20
342.060728
 30
0.0
 10
619.650759
 20
341.883395
 30
0.0
 10
619.598759
 20
341.706062
 30
0.0
 10
619.537426
 20
341.531396
 30
0.0
 10
619.469426
 20
341.358063
 30
0.0
 10
619.401427
 20
341.183396
 30
0.0
 10
619.329427
 20
341.014063
 30
0.0
 10
619.250760
 20
340.843397
 30
0.0
 10
619.170760
 20
340.678064
 30
0.0
 10
619.084094
 20
340.515398
 30
0.0
 10
618.997428
 20
340.352732
 30
0.0
 10
618.902761
 20
340.190066
 30
0.0
 10
618.804095
 20
340.035399
 30
0.0
 10
618.702762
 20
339.876733
 30
0.0
 10
618.600095
 20
339.724733
 30
0.0
 10
618.490762
 20
339.574067
 30
0.0
 10
618.377429
 20
339.426067
 30
0.0
 10
618.264096
 20
339.283401
 30
0.0
 10
618.142763
 20
339.139401
 30
0.0
 10
618.018763
 20
338.999402
 30
0.0
 10
617.893430
 20
338.863402
 30
0.0
 10
617.765431
 20
338.731403
 30
0.0
 10
617.633431
 20
338.602069
 30
0.0
 10
617.497431
 20
338.478070
 30
0.0
 10
617.357432
 20
338.352737
 30
0.0
 10
617.213432
 20
338.232737
 30
0.0
 10
617.069432
 20
338.119404
 30
0.0
 10
616.922766
 20
338.004738
 30
0.0
 10
616.770766
 20
337.895405
 30
0.0
 10
616.620100
 20
337.794072
 30
0.0
 10
616.461434
 20
337.691405
 30
0.0
 10
616.306768
 20
337.594072
 30
0.0
 10
616.144101
 20
337.499406
 30
0.0
 10
615.981435
 20
337.411406
 30
0.0
 10
615.818769
 20
337.324739
 30
0.0
 10
615.652103
 20
337.246073
 30
0.0
 10
615.482770
 20
337.166073
 30
0.0
 10
615.312103
 20
337.094073
 30
0.0
 10
615.138771
 20
337.026073
 30
0.0
 10
614.964104
 20
336.958074
 30
0.0
 10
614.790771
 20
336.898074
 30
0.0
 10
614.613439
 20
336.844741
 30
0.0
 10
614.434772
 20
336.792741
 30
0.0
 10
614.253439
 20
336.743407
 30
0.0
 10
614.076107
 20
336.702074
 30
0.0
 10
613.894774
 20
336.663408
 30
0.0
 10
613.709441
 20
336.630074
 30
0.0
 10
613.528108
 20
336.599408
 30
0.0
 10
613.342775
 20
336.576741
 30
0.0
 10
613.161442
 20
336.554075
 30
0.0
 10
612.976109
 20
336.539408
 30
0.0
 10
612.790776
 20
336.527408
 30
0.0
 10
612.605444
 20
336.519408
 30
0.0
 10
612.421444
 20
336.516741
 30
0.0
 10
527.381657
 20
336.516741
 30
0.0
 10
527.192324
 20
336.519408
 30
0.0
 10
527.006991
 20
336.527408
 30
0.0
 10
526.822991
 20
336.539408
 30
0.0
 10
526.637658
 20
336.554075
 30
0.0
 10
526.456326
 20
336.576741
 30
0.0
 10
526.270993
 20
336.599408
 30
0.0
 10
526.089660
 20
336.630074
 30
0.0
 10
525.904327
 20
336.663408
 30
0.0
 10
525.722994
 20
336.702074
 30
0.0
 10
525.544328
 20
336.743407
 30
0.0
 10
525.362995
 20
336.792741
 30
0.0
 10
525.185662
 20
336.844741
 30
0.0
 10
525.008329
 20
336.898074
 30
0.0
 10
524.834996
 20
336.958074
 30
0.0
 10
524.660330
 20
337.026073
 30
0.0
 10
524.486997
 20
337.094073
 30
0.0
 10
524.316331
 20
337.166073
 30
0.0
 10
524.146998
 20
337.246073
 30
0.0
 10
523.980332
 20
337.324739
 30
0.0
 10
523.817666
 20
337.411406
 30
0.0
 10
523.654999
 20
337.499406
 30
0.0
 10
523.492333
 20
337.594072
 30
0.0
 10
523.337667
 20
337.691405
 30
0.0
 10
523.179000
 20
337.794072
 30
0.0
 10
523.028334
 20
337.895405
 30
0.0
 10
522.876335
 20
338.004738
 30
0.0
 10
522.729668
 20
338.119404
 30
0.0
 10
522.585669
 20
338.232737
 30
0.0
 10
522.441669
 20
338.352737
 30
0.0
 10
522.301669
 20
338.478070
 30
0.0
 10
522.165670
 20
338.602069
 30
0.0
 10
522.033670
 20
338.731403
 30
0.0
 10
521.905670
 20
338.863402
 30
0.0
 10
521.780337
 20
338.999402
 30
0.0
 10
521.656338
 20
339.139401
 30
0.0
 10
521.535005
 20
339.283401
 30
0.0
 10
521.421672
 20
339.426067
 30
0.0
 10
521.308338
 20
339.574067
 30
0.0
 10
521.199005
 20
339.724733
 30
0.0
 10
521.096339
 20
339.876733
 30
0.0
 10
520.995006
 20
340.035399
 30
0.0
 10
520.896340
 20
340.190066
 30
0.0
 10
520.801673
 20
340.352732
 30
0.0
 10
520.715007
 20
340.515398
 30
0.0
 10
520.628340
 20
340.678064
 30
0.0
 10
520.548340
 20
340.843397
 30
0.0
 10
520.469674
 20
341.014063
 30
0.0
 10
520.397674
 20
341.183396
 30
0.0
 10
520.329674
 20
341.358063
 30
0.0
 10
520.261674
 20
341.531396
 30
0.0
 10
520.200341
 20
341.706062
 30
0.0
 10
520.148341
 20
341.883395
 30
0.0
 10
520.095008
 20
342.060728
 30
0.0
 10
520.045675
 20
342.242060
 30
0.0
 10
520.004342
 20
342.419393
 30
0.0
 10
519.965675
 20
342.600726
 30
0.0
 10
519.932342
 20
342.786059
 30
0.0
 10
519.901675
 20
342.967392
 30
0.0
 10
519.879009
 20
343.152725
 30
0.0
 10
519.856342
 20
343.334058
 30
0.0
 10
519.841675
 20
343.519391
 30
0.0
 10
519.829676
 20
343.704723
 30
0.0
 10
519.823009
 20
343.890056
 30
0.0
 10
519.823009
 20
344.075389
 30
0.0
 10
519.823009
 20
516.716291
 30
0.0
 10
519.823009
 20
516.928290
 30
0.0
 10
519.833676
 20
517.142956
 30
0.0
 10
519.849675
 20
517.354956
 30
0.0
 10
519.868342
 20
517.566955
 30
0.0
 10
519.895009
 20
517.777622
 30
0.0
 10
519.928342
 20
517.989621
 30
0.0
 10
519.965675
 20
518.201620
 30
0.0
 10
520.012342
 20
518.409620
 30
0.0
 10
520.064342
 20
518.617619
 30
0.0
 10
520.121675
 20
518.821619
 30
0.0
 10
520.181675
 20
519.025618
 30
0.0
 10
520.249674
 20
519.229618
 30
0.0
 10
520.325674
 20
519.429617
 30
0.0
 10
520.404341
 20
519.626950
 30
0.0
 10
520.488341
 20
519.822950
 30
0.0
 10
520.579007
 20
520.016283
 30
0.0
 10
520.676340
 20
520.208282
 30
0.0
 10
520.775006
 20
520.397615
 30
0.0
 10
520.884340
 20
520.582948
 30
0.0
 10
520.995006
 20
520.764281
 30
0.0
 10
521.111006
 20
520.941614
 30
0.0
 10
521.232339
 20
521.114947
 30
0.0
 10
521.360338
 20
521.289613
 30
0.0
 10
521.493671
 20
521.456279
 30
0.0
 10
521.629671
 20
521.621612
 30
0.0
 10
521.769671
 20
521.780278
 30
0.0
 10
521.912337
 20
521.938944
 30
0.0
 10
522.064337
 20
522.090944
 30
0.0
 10
522.219003
 20
522.237610
 30
0.0
 10
522.377669
 20
522.381610
 30
0.0
 10
522.536335
 20
522.521610
 30
0.0
 10
522.703002
 20
522.653609
 30
0.0
 10
522.872335
 20
522.785609
 30
0.0
 10
523.047001
 20
522.910942
 30
0.0
 10
523.224334
 20
523.032275
 30
0.0
 10
523.401667
 20
523.145608
 30
0.0
 10
523.586999
 20
523.254941
 30
0.0
 10
523.772332
 20
523.360274
 30
0.0
 10
523.961665
 20
523.458941
 30
0.0
 10
524.153665
 20
523.553607
 30
0.0
 10
524.346998
 20
523.640274
 30
0.0
 10
524.542997
 20
523.722940
 30
0.0
 10
524.742997
 20
523.798940
 30
0.0
 10
524.944329
 20
523.870940
 30
0.0
 10
525.148329
 20
523.938939
 30
0.0
 10
525.352328
 20
523.998939
 30
0.0
 10
525.560328
 20
524.052273
 30
0.0
 10
525.768327
 20
524.101606
 30
0.0
 10
525.976327
 20
524.142939
 30
0.0
 10
526.186993
 20
524.180272
 30
0.0
 10
526.398992
 20
524.210939
 30
0.0
 10
526.610992
 20
524.237605
 30
0.0
 10
526.822991
 20
524.256272
 30
0.0
 10
527.037657
 20
524.266939
 30
0.0
 10
527.249657
 20
524.274939
 30
0.0
 10
527.464323
 20
524.274939
 30
0.0
 10
527.676323
 20
524.266939
 30
0.0
 10
527.888322
 20
524.256272
 30
0.0
 10
528.102988
 20
524.241605
 30
0.0
 10
528.314988
 20
524.218939
 30
0.0
 10
528.526987
 20
524.188272
 30
0.0
 10
528.738987
 20
524.150939
 30
0.0
 10
528.946986
 20
524.112272
 30
0.0
 10
529.154986
 20
524.062939
 30
0.0
 10
585.609511
 20
510.430973
 30
0.0
 10
585.733511
 20
510.396307
 30
0.0
 10
585.858844
 20
510.366973
 30
0.0
 10
585.982843
 20
510.332307
 30
0.0
 10
586.108176
 20
510.298974
 30
0.0
 10
586.232176
 20
510.264307
 30
0.0
 10
586.357509
 20
510.226974
 30
0.0
 10
586.481509
 20
510.188307
 30
0.0
 10
586.606842
 20
510.150974
 30
0.0
 10
586.732175
 20
510.113641
 30
0.0
 10
586.852175
 20
510.072307
 30
0.0
 10
586.977508
 20
510.029641
 30
0.0
 10
587.097507
 20
509.988308
 30
0.0
 10
587.218840
 20
509.942974
 30
0.0
 10
587.340173
 20
509.897641
 30
0.0
 10
587.461506
 20
509.852308
 30
0.0
 10
587.581506
 20
509.806975
 30
0.0
 10
587.702839
 20
509.757642
 30
0.0
 10
587.824172
 20
509.708308
 30
0.0
 10
587.944172
 20
509.660309
 30
0.0
 10
588.061505
 20
509.610975
 30
0.0
 10
588.182838
 20
509.557642
 30
0.0
 10
588.300171
 20
509.504309
 30
0.0
 10
588.417504
 20
509.448309
 30
0.0
 10
588.534837
 20
509.394976
 30
0.0
 10
588.652170
 20
509.338976
 30
0.0
 10
588.768170
 20
509.281643
 30
0.0
 10
588.881503
 20
509.225643
 30
0.0
 10
588.998836
 20
509.164310
 30
0.0
 10
589.112169
 20
509.104310
 30
0.0
 10
589.225502
 20
509.044310
 30
0.0
 10
589.342835
 20
508.982977
 30
0.0
 10
589.456168
 20
508.918977
 30
0.0
 10
589.565501
 20
508.854977
 30
0.0
 10
589.680168
 20
508.790977
 30
0.0
 10
589.793501
 20
508.725644
 30
0.0
 10
589.902834
 20
508.657644
 30
0.0
 10
590.012167
 20
508.589645
 30
0.0
 10
590.121500
 20
508.521645
 30
0.0
 10
590.230833
 20
508.453645
 30
0.0
 10
590.341499
 20
508.381645
 30
0.0
 10
590.450832
 20
508.310979
 30
0.0
 10
590.556165
 20
508.238979
 30
0.0
 10
590.662832
 20
508.162979
 30
0.0
 10
590.768165
 20
508.090979
 30
0.0
 10
590.873498
 20
508.016313
 30
0.0
 10
590.980164
 20
507.940313
 30
0.0
 10
591.085497
 20
507.860313
 30
0.0
 10
591.188164
 20
507.785647
 30
0.0
 10
591.289497
 20
507.705647
 30
0.0
 10
591.392163
 20
507.626980
 30
0.0
 10
591.493496
 20
507.546980
 30
0.0
 10
591.596163
 20
507.464314
 30
0.0
 10
591.693496
 20
507.384314
 30
0.0
 10
591.796162
 20
507.301648
 30
0.0
 10
591.894829
 20
507.214981
 30
0.0
 10
591.992162
 20
507.130982
 30
0.0
 10
592.086828
 20
507.044315
 30
0.0
 10
592.185495
 20
506.957649
 30
0.0
 10
592.280161
 20
506.870982
 30
0.0
 10
592.377494
 20
506.782982
 30
0.0
 10
592.469494
 20
506.696316
 30
0.0
 10
592.562827
 20
506.605649
 30
0.0
 10
592.657493
 20
506.514983
 30
0.0
 10
592.748160
 20
506.424317
 30
0.0
  0
LWPOLYLINE
  5
133
100
AcDbEntity
  8
case
 62
7
100
AcDbPolyline
 90
65
 70
1
 10
532.673643
 20
505.913651
 30
0.0
 10
532.673643
 20
505.913651
 30
0.0
 10
532.272311
 20
505.936318
 30
0.0
 10
531.874979
 20
505.993651
 30
0.0
 10
531.485646
 20
506.092317
 30
0.0
 10
531.108314
 20
506.228317
 30
0.0
 10
530.745648
 20
506.397650
 30
0.0
 10
530.401649
 20
506.605649
 30
0.0
 10
530.080317
 20
506.844316
 30
0.0
 10
529.785651
 20
507.112315
 30
0.0
 10
529.517651
 20
507.406981
 30
0.0
 10
529.278985
 20
507.728313
 30
0.0
 10
529.070986
 20
508.072312
 30
0.0
 10
528.901653
 20
508.434978
 30
0.0
 10
528.765653
 20
508.813644
 30
0.0
 10
528.666987
 20
509.202976
 30
0.0
 10
528.609654
 20
509.598975
 30
0.0
 10
528.590987
 20
509.996308
 30
0.0
 10
528.609654
 20
510.396307
 30
0.0
 10
528.666987
 20
510.793639
 30
0.0
 10
528.765653
 20
511.182971
 30
0.0
 10
528.901653
 20
511.560304
 30
0.0
 10
529.070986
 20
511.924303
 30
0.0
 10
529.278985
 20
512.266969
 30
0.0
 10
529.517651
 20
512.588301
 30
0.0
 10
529.785651
 20
512.884300
 30
0.0
 10
530.080317
 20
513.152300
 30
0.0
 10
530.401649
 20
513.389633
 30
0.0
 10
530.745648
 20
513.597632
 30
0.0
 10
531.108314
 20
513.768298
 30
0.0
 10
531.485646
 20
513.904298
 30
0.0
 10
531.874979
 20
514.002964
 30
0.0
 10
532.272311
 20
514.058964
 30
0.0
 10
532.669643
 20
514.077631
 30
0.0
 10
533.069642
 20
514.058964
 30
0.0
 10
533.466975
 20
514.002964
 30
0.0
 10
533.856307
 20
513.904298
 30
0.0
 10
534.233640
 20
513.768298
 30
0.0
 10
534.596305
 20
513.597632
 30
0.0
 10
534.940304
 20
513.389633
 30
0.0
 10
535.261637
 20
513.152300
 30
0.0
 10
535.556303
 20
512.884300
 30
0.0
 10
535.825636
 20
512.588301
 30
0.0
 10
536.062968
 20
512.266969
 30
0.0
 10
536.270968
 20
511.924303
 30
0.0
 10
536.441634
 20
511.560304
 30
0.0
 10
536.577634
 20
511.182971
 30
0.0
 10
536.674967
 20
510.793639
 30
0.0
 10
536.732300
 20
510.396307
 30
0.0
 10
536.754967
 20
509.996308
 30
0.0
 10
536.732300
 20
509.598975
 30
0.0
 10
536.674967
 20
509.202976
 30
0.0
 10
536.577634
 20
508.813644
 30
0.0
 10
536.441634
 20
508.434978
 30
0.0
 10
536.270968
 20
508.072312
 30
0.0
 10
536.062968
 20
507.728313
 30
0.0
 10
535.825636
 20
507.406981
 30
0.0
 10
535.556303
 20
507.112315
 30
0.0
 10
535.261637
 20
506.844316
 30
0.0
 10
534.940304
 20
506.605649
 30
0.0
 10
534.596305
 20
506.397650
 30
0.0
 10
534.233640
 20
506.228317
 30
0.0
 10
533.856307
 20
506.092317
 30
0.0
 10
533.466975
 20
505.993651
 30
0.0
 10
533.069642
 20
505.936318
 30
0.0
  0
LWPOLYLINE
  5
134
100
AcDbEntity
  8
case
 62
7
100
AcDbPolyline
 90
65
 70
1
 10
607.129457
 20
219.049035
 30
0.0
 10
607.129457
 20
219.049035
 30
0.0
 10
606.729458
 20
219.071702
 30
0.0
 10
606.332126
 20
219.127702
 30
0.0
 10
605.942794
 20
219.226368
 30
0.0
 10
605.565461
 20
219.362368
 30
0.0
 10
605.201462
 20
219.533034
 30
0.0
 10
604.857463
 20
219.741033
 30
0.0
 10
604.537464
 20
219.978366
 30
0.0
 10
604.241464
 20
220.246365
 30
0.0
 10
603.973465
 20
220.542365
 30
0.0
 10
603.736132
 20
220.862364
 30
0.0
 10
603.528133
 20
221.206363
 30
0.0
 10
603.357467
 20
221.570362
 30
0.0
 10
603.221467
 20
221.947694
 30
0.0
 10
603.122801
 20
222.337027
 30
0.0
 10
603.066801
 20
222.734359
 30
0.0
 10
603.048134
 20
223.130358
 30
0.0
 10
603.066801
 20
223.531691
 30
0.0
 10
603.122801
 20
223.927690
 30
0.0
 10
603.221467
 20
224.317022
 30
0.0
 10
603.357467
 20
224.695688
 30
0.0
 10
603.528133
 20
225.058353
 30
0.0
 10
603.736132
 20
225.402352
 30
0.0
 10
603.973465
 20
225.723685
 30
0.0
 10
604.241464
 20
226.018351
 30
0.0
 10
604.537464
 20
226.286350
 30
0.0
 10
604.857463
 20
226.525016
 30
0.0
 10
605.201462
 20
226.733016
 30
0.0
 10
605.565461
 20
226.902349
 30
0.0
 10
605.942794
 20
227.038348
 30
0.0
 10
606.332126
 20
227.137015
 30
0.0
 10
606.729458
 20
227.194348
 30
0.0
 10
607.125457
 20
227.213015
 30
0.0
 10
607.526790
 20
227.194348
 30
0.0
 10
607.922789
 20
227.137015
 30
0.0
 10
608.312121
 20
227.038348
 30
0.0
 10
608.690787
 20
226.902349
 30
0.0
 10
609.053452
 20
226.733016
 30
0.0
 10
609.397452
 20
226.525016
 30
0.0
 10
609.718784
 20
226.286350
 30
0.0
 10
610.013450
 20
226.018351
 30
0.0
 10
610.281449
 20
225.723685
 30
0.0
 10
610.520115
 20
225.402352
 30
0.0
 10
610.728115
 20
225.058353
 30
0.0
 10
610.897448
 20
224.695688
 30
0.0
 10
611.033448
 20
224.317022
 30
0.0
 10
611.132114
 20
223.927690
 30
0.0
 10
611.189447
 20
223.531691
 30
0.0
 10
611.212114
 20
223.130358
 30
0.0
 10
611.189447
 20
222.734359
 30
0.0
 10
611.132114
 20
222.337027
 30
0.0
 10
611.033448
 20
221.947694
 30
0.0
 10
610.897448
 20
221.570362
 30
0.0
 10
610.728115
 20
221.206363
 30
0.0
 10
610.520115
 20
220.862364
 30
0.0
 10
610.281449
 20
220.542365
 30
0.0
 10
610.013450
 20
220.246365
 30
0.0
 10
609.718784
 20
219.978366
 30
0.0
 10
609.397452
 20
219.741033
 30
0.0
 10
609.053452
 20
219.533034
 30
0.0
 10
608.690787
 20
219.362368
 30
0.0
 10
608.312121
 20
219.226368
 30
0.0
 10
607.922789
 20
219.127702
 30
0.0
 10
607.526790
 20
219.071702
 30
0.0
  0
LWPOLYLINE
  5
135
100
AcDbEntity
  8
case
 62
7
100
AcDbPolyline
 90
65
 70
1
 10
607.129457
 20
345.284719
 30
0.0
 10
607.129457
 20
345.284719
 30
0.0
 10
606.729458
 20
345.307386
 30
0.0
 10
606.332126
 20
345.364719
 30
0.0
 10
605.942794
 20
345.462052
 30
0.0
 10
605.565461
 20
345.598052
 30
0.0
 10
605.201462
 20
345.768718
 30
0.0
 10
604.857463
 20
345.976718
 30
0.0
 10
604.537464
 20
346.214050
 30
0.0
 10
604.241464
 20
346.483383
 30
0.0
 10
603.973465
 20
346.778049
 30
0.0
 10
603.736132
 20
347.099382
 30
0.0
 10
603.528133
 20
347.443381
 30
0.0
 10
603.357467
 20
347.806046
 30
0.0
 10
603.221467
 20
348.183379
 30
0.0
 10
603.122801
 20
348.572711
 30
0.0
 10
603.066801
 20
348.970044
 30
0.0
 10
603.048134
 20
349.366043
 30
0.0
 10
603.066801
 20
349.767375
 30
0.0
 10
603.122801
 20
350.164707
 30
0.0
 10
603.221467
 20
350.554040
 30
0.0
 10
603.357467
 20
350.931372
 30
0.0
 10
603.528133
 20
351.294038
 30
0.0
 10
603.736132
 20
351.638037
 30
0.0
 10
603.973465
 20
351.959369
 30
0.0
 10
604.241464
 20
352.254035
 30
0.0
 10
604.537464
 20
352.522035
 30
0.0
 10
604.857463
 20
352.760701
 30
0.0
 10
605.201462
 20
352.968700
 30
0.0
 10
605.565461
 20
353.138033
 30
0.0
 10
605.942794
 20
353.274033
 30
0.0
 10
606.332126
 20
353.372699
 30
0.0
 10
606.729458
 20
353.430032
 30
0.0
 10
607.125457
 20
353.448699
 30
0.0
 10
607.526790
 20
353.430032
 30
0.0
 10
607.922789
 20
353.372699
 30
0.0
 10
608.312121
 20
353.274033
 30
0.0
 10
608.690787
 20
353.138033
 30
0.0
 10
609.053452
 20
352.968700
 30
0.0
 10
609.397452
 20
352.760701
 30
0.0
 10
609.718784
 20
352.522035
 30
0.0
 10
610.013450
 20
352.254035
 30
0.0
 10
610.281449
 20
351.959369
 30
0.0
 10
610.520115
 20
351.638037
 30
0.0
 10
610.728115
 20
351.294038
 30
0.0
 10
610.897448
 20
350.931372
 30
0.0
 10
611.033448
 20
350.554040
 30
0.0
 10
611.132114
 20
350.164707
 30
0.0
 10
611.189447
 20
349.767375
 30
0.0
 10
611.212114
 20
349.366043
 30
0.0
 10
611.189447
 20
348.970044
 30
0.0
 10
611.132114
 20
348.572711
 30
0.0
 10
611.033448
 20
348.183379
 30
0.0
 10
610.897448
 20
347.806046
 30
0.0
 10
610.728115
 20
347.443381
 30
0.0
 10
610.520115
 20
347.099382
 30
0.0
 10
610.281449
 20
346.778049
 30
0.0
 10
610.013450
 20
346.483383
 30
0.0
 10
609.718784
 20
346.214050
 30
0.0
 10
609.397452
 20
345.976718
 30
0.0
 10
609.053452
 20
345.768718
 30
0.0
 10
608.690787
 20
345.598052
 30
0.0
 10
608.312121
 20
345.462052
 30
0.0
 10
607.922789
 20
345.364719
 30
0.0
 10
607.526790
 20
345.307386
 30
0.0
  0
LWPOLYLINE
  5
136
100
AcDbEntity
  8
case
 62
7
100
AcDbPolyline
 90
4
 70
1
 10
241.461038
 20
350.122041
 30
0.0
 10
241.461038
 20
402.279244
 30
0.0
 10
293.618241
 20
402.279244
 30
0.0
 10
293.618241
 20
350.122041
 30
0.0
  0
LWPOLYLINE
  5
137
100
AcDbEntity
  8
case
 62
7
100
AcDbPolyline
 90
65
 70
1
 10
379.980692
 20
373.725982
 30
0.0
 10
379.980692
 20
373.725982
 30
0.0
 10
379.579359
 20
373.748648
 30
0.0
 10
379.183360
 20
373.804648
 30
0.0
 10
378.794028
 20
373.903315
 30
0.0
 10
378.415362
 20
374.039314
 30
0.0
 10
378.052697
 20
374.209980
 30
0.0
 10
377.708697
 20
374.416647
 30
0.0
 10
377.387365
 20
374.655313
 30
0.0
 10
377.092699
 20
374.923312
 30
0.0
 10
376.824700
 20
375.217978
 30
0.0
 10
376.586034
 20
375.539310
 30
0.0
 10
376.378034
 20
375.883310
 30
0.0
 10
376.208701
 20
376.245975
 30
0.0
 10
376.072702
 20
376.624641
 30
0.0
 10
375.974035
 20
377.013973
 30
0.0
 10
375.918035
 20
377.409972
 30
0.0
 10
375.898035
 20
377.807305
 30
0.0
 10
375.918035
 20
378.208637
 30
0.0
 10
375.974035
 20
378.604636
 30
0.0
 10
376.072702
 20
378.993969
 30
0.0
 10
376.208701
 20
379.372634
 30
0.0
 10
376.378034
 20
379.735300
 30
0.0
 10
376.586034
 20
380.079299
 30
0.0
 10
376.824700
 20
380.400632
 30
0.0
 10
377.092699
 20
380.695298
 30
0.0
 10
377.387365
 20
380.963297
 30
0.0
 10
377.708697
 20
381.201963
 30
0.0
 10
378.052697
 20
381.409962
 30
0.0
 10
378.415362
 20
381.579295
 30
0.0
 10
378.794028
 20
381.715295
 30
0.0
 10
379.183360
 20
381.813961
 30
0.0
 10
379.579359
 20
381.869961
 30
0.0
 10
379.976692
 20
381.889961
 30
0.0
 10
380.378024
 20
381.869961
 30
0.0
 10
380.774023
 20
381.813961
 30
0.0
 10
381.163356
 20
381.715295
 30
0.0
 10
381.542021
 20
381.579295
 30
0.0
 10
381.904687
 20
381.409962
 30
0.0
 10
382.248686
 20
381.201963
 30
0.0
 10
382.570019
 20
380.963297
 30
0.0
 10
382.864685
 20
380.695298
 30
0.0
 10
383.132684
 20
380.400632
 30
0.0
 10
383.371350
 20
380.079299
 30
0.0
 10
383.578016
 20
379.735300
 30
0.0
 10
383.748682
 20
379.372634
 30
0.0
 10
383.884682
 20
378.993969
 30
0.0
 10
383.983348
 20
378.604636
 30
0.0
 10
384.039348
 20
378.208637
 30
0.0
 10
384.062015
 20
377.807305
 30
0.0
 10
384.039348
 20
377.409972
 30
0.0
 10
383.983348
 20
377.013973
 30
0.0
 10
383.884682
 20
376.624641
 30
0.0
 10
383.748682
 20
376.245975
 30
0.0
 10
383.578016
 20
375.883310
 30
0.0
 10
383.371350
 20
375.539310
 30
0.0
 10
383.132684
 20
375.217978
 30
0.0
 10
382.864685
 20
374.923312
 30
0.0
 10
382.570019
 20
374.655313
 30
0.0
 10
382.248686
 20
374.416647
 30
0.0
 10
381.904687
 20
374.209980
 30
0.0
 10
381.542021
 20
374.039314
 30
0.0
 10
381.163356
 20
373.903315
 30
0.0
 10
380.774023
 20
373.804648
 30
0.0
 10
380.378024
 20
373.748648
 30
0.0
  0
LWPOLYLINE
  5
138
100
AcDbEntity
  8
case
 62
7
100
AcDbPolyline
 90
65
 70
1
 10
18.658928
 20
502.890992
 30
0.0
 10
18.658928
 20
502.890992
 30
0.0
 10
18.257596
 20
502.913659
 30
0.0
 10
17.861597
 20
502.969659
 30
0.0
 10
17.472265
 20
503.068325
 30
0.0
 10
17.093599
 20
503.204325
 30
0.0
 10
16.730933
 20
503.374991
 30
0.0
 10
16.386934
 20
503.581657
 30
0.0
 10
16.065602
 20
503.820323
 30
0.0
 10
15.770936
 20
504.088322
 30
0.0
 10
15.502936
 20
504.382988
 30
0.0
 10
15.264270
 20
504.704321
 30
0.0
 10
15.056271
 20
505.048320
 30
0.0
 10
14.886938
 20
505.410986
 30
0.0
 10
14.750938
 20
505.789652
 30
0.0
 10
14.652272
 20
506.178984
 30
0.0
 10
14.596272
 20
506.576316
 30
0.0
 10
14.576272
 20
506.972315
 30
0.0
 10
14.596272
 20
507.373648
 30
0.0
 10
14.652272
 20
507.769647
 30
0.0
 10
14.750938
 20
508.158979
 30
0.0
 10
14.886938
 20
508.537645
 30
0.0
 10
15.056271
 20
508.900310
 30
0.0
 10
15.264270
 20
509.244310
 30
0.0
 10
15.502936
 20
509.565642
 30
0.0
 10
15.770936
 20
509.860308
 30
0.0
 10
16.065602
 20
510.128307
 30
0.0
 10
16.386934
 20
510.366973
 30
0.0
 10
16.730933
 20
510.574973
 30
0.0
 10
17.093599
 20
510.744306
 30
0.0
 10
17.472265
 20
510.880305
 30
0.0
 10
17.861597
 20
510.978972
 30
0.0
 10
18.257596
 20
511.034972
 30
0.0
 10
18.654928
 20
511.054972
 30
0.0
 10
19.054927
 20
511.034972
 30
0.0
 10
19.452260
 20
510.978972
 30
0.0
 10
19.841592
 20
510.880305
 30
0.0
 10
20.218925
 20
510.744306
 30
0.0
 10
20.582924
 20
510.574973
 30
0.0
 10
20.926923
 20
510.366973
 30
0.0
 10
21.246922
 20
510.128307
 30
0.0
 10
21.542921
 20
509.860308
 30
0.0
 10
21.810921
 20
509.565642
 30
0.0
 10
22.048253
 20
509.244310
 30
0.0
 10
22.256253
 20
508.900310
 30
0.0
 10
22.426919
 20
508.537645
 30
0.0
 10
22.562919
 20
508.158979
 30
0.0
 10
22.661585
 20
507.769647
 30
0.0
 10
22.717585
 20
507.373648
 30
0.0
 10
22.740252
 20
506.972315
 30
0.0
 10
22.717585
 20
506.576316
 30
0.0
 10
22.661585
 20
506.178984
 30
0.0
 10
22.562919
 20
505.789652
 30
0.0
 10
22.426919
 20
505.410986
 30
0.0
 10
22.256253
 20
505.048320
 30
0.0
 10
22.048253
 20
504.704321
 30
0.0
 10
21.810921
 20
504.382988
 30
0.0
 10
21.542921
 20
504.088322
 30
0.0
 10
21.246922
 20
503.820323
 30
0.0
 10
20.926923
 20
503.581657
 30
0.0
 10
20.582924
 20
503.374991
 30
0.0
 10
20.218925
 20
503.204325
 30
0.0
 10
19.841592
 20
503.068325
 30
0.0
 10
19.452260
 20
502.969659
 30
0.0
 10
19.054927
 20
502.913659
 30
0.0
  0
LWPOLYLINE
  5
139
100
AcDbEntity
  8
case
 62
7
100
AcDbPolyline
 90
65
 70
1
 10
532.766977
 20
319.583450
 30
0.0
 10
532.766977
 20
319.583450
 30
0.0
 10
532.366978
 20
319.606117
 30
0.0
 10
531.969645
 20
319.663450
 30
0.0
 10
531.580313
 20
319.762117
 30
0.0
 10
531.202980
 20
319.898116
 30
0.0
 10
530.840315
 20
320.067449
 30
0.0
 10
530.496316
 20
320.275449
 30
0.0
 10
530.174983
 20
320.514115
 30
0.0
 10
529.880317
 20
320.782114
 30
0.0
 10
529.612318
 20
321.076780
 30
0.0
 10
529.373652
 20
321.398113
 30
0.0
 10
529.165652
 20
321.742112
 30
0.0
 10
528.994986
 20
322.104777
 30
0.0
 10
528.858986
 20
322.483443
 30
0.0
 10
528.761653
 20
322.872775
 30
0.0
 10
528.704320
 20
323.268775
 30
0.0
 10
528.685653
 20
323.666107
 30
0.0
 10
528.704320
 20
324.066106
 30
0.0
 10
528.761653
 20
324.463438
 30
0.0
 10
528.858986
 20
324.852771
 30
0.0
 10
528.994986
 20
325.230103
 30
0.0
 10
529.165652
 20
325.594102
 30
0.0
 10
529.373652
 20
325.936768
 30
0.0
 10
529.612318
 20
326.258100
 30
0.0
 10
529.880317
 20
326.554100
 30
0.0
 10
530.174983
 20
326.822099
 30
0.0
 10
530.496316
 20
327.059432
 30
0.0
 10
530.840315
 20
327.267431
 30
0.0
 10
531.202980
 20
327.438097
 30
0.0
 10
531.580313
 20
327.574097
 30
0.0
 10
531.969645
 20
327.672763
 30
0.0
 10
532.366978
 20
327.728763
 30
0.0
 10
532.764310
 20
327.747430
 30
0.0
 10
533.164309
 20
327.728763
 30
0.0
 10
533.561641
 20
327.672763
 30
0.0
 10
533.950974
 20
327.574097
 30
0.0
 10
534.328306
 20
327.438097
 30
0.0
 10
534.690972
 20
327.267431
 30
0.0
 10
535.034971
 20
327.059432
 30
0.0
 10
535.356303
 20
326.822099
 30
0.0
 10
535.650969
 20
326.554100
 30
0.0
 10
535.920302
 20
326.258100
 30
0.0
 10
536.157635
 20
325.936768
 30
0.0
 10
536.365634
 20
325.594102
 30
0.0
 10
536.536300
 20
325.230103
 30
0.0
 10
536.672300
 20
324.852771
 30
0.0
 10
536.769633
 20
324.463438
 30
0.0
 10
536.826966
 20
324.066106
 30
0.0
 10
536.849633
 20
323.666107
 30
0.0
 10
536.826966
 20
323.268775
 30
0.0
 10
536.769633
 20
322.872775
 30
0.0
 10
536.672300
 20
322.483443
 30
0.0
 10
536.536300
 20
322.104777
 30
0.0
 10
536.365634
 20
321.742112
 30
0.0
 10
536.157635
 20
321.398113
 30
0.0
 10
535.920302
 20
321.076780
 30
0.0
 10
535.650969
 20
320.782114
 30
0.0
 10
535.356303
 20
320.514115
 30
0.0
 10
535.034971
 20
320.275449
 30
0.0
 10
534.690972
 20
320.067449
 30
0.0
 10
534.328306
 20
319.898116
 30
0.0
 10
533.950974
 20
319.762117
 30
0.0
 10
533.561641
 20
319.663450
 30
0.0
 10
533.164309
 20
319.606117
 30
0.0
  0
ENDSEC
  0
SECTION
  2
OBJECTS
  0
DICTIONARY
  5
C
330
0
100
AcDbDictionary
  3
ACAD_GROUP
350
D
  3
ACAD_MLINESTYLE
350
17
  0
DICTIONARY
  5
D
330
C
100
AcDbDictionary
  0
DICTIONARY
  5
1A
330
C
100
AcDbDictionary
  0
DICTIONARY
  5
17
330
C
100
AcDbDictionary
  3
STANDARD
350
18
  0
DICTIONARY
  5
19
330
C
100
AcDbDictionary
  0
ENDSEC
  0
EOF
