<?xml version="1.0" encoding="UTF-8" standalone="no"?>
<svg
   xmlns:dc="http://purl.org/dc/elements/1.1/"
   xmlns:cc="http://creativecommons.org/ns#"
   xmlns:rdf="http://www.w3.org/1999/02/22-rdf-syntax-ns#"
   xmlns:svg="http://www.w3.org/2000/svg"
   xmlns="http://www.w3.org/2000/svg"
   xmlns:sodipodi="http://sodipodi.sourceforge.net/DTD/sodipodi-0.dtd"
   xmlns:inkscape="http://www.inkscape.org/namespaces/inkscape"
   version="1.1"
   id="svg851"
   xml:space="preserve"
   width="620.12061"
   height="570.04193"
   viewBox="0 0 620.12061 570.04193"
   sodipodi:docname="all.svg"
   inkscape:version="1.0.1 (3bc2e813f5, 2020-09-07)"><metadata
     id="metadata857"><rdf:RDF><cc:Work
         rdf:about=""><dc:format>image/svg+xml</dc:format><dc:type
           rdf:resource="http://purl.org/dc/dcmitype/StillImage" /><dc:title></dc:title></cc:Work></rdf:RDF></metadata><defs
     id="defs855" /><sodipodi:namedview
     pagecolor="#ffffff"
     bordercolor="#666666"
     borderopacity="1"
     objecttolerance="10"
     gridtolerance="10"
     guidetolerance="10"
     inkscape:pageopacity="0"
     inkscape:pageshadow="2"
     inkscape:window-width="3840"
     inkscape:window-height="2025"
     id="namedview853"
     showgrid="false"
     inkscape:zoom="2.2428543"
     inkscape:cx="202.02156"
     inkscape:cy="327.9476"
     inkscape:window-x="39"
     inkscape:window-y="29"
     inkscape:window-maximized="0"
     inkscape:current-layer="g859"
     inkscape:document-rotation="0"
     fit-margin-top="-0.05"
     fit-margin-left="-0.05"
     fit-margin-right="-0.05"
     fit-margin-bottom="-0.05" /><g
     id="g859"
     inkscape:groupmode="layer"
     inkscape:label="case"
     transform="matrix(1.3333333,0,0,-1.3333333,-0.36102361,575.63898)"><g
       id="g863"
       style="stroke-width:0.283465;stroke-miterlimit:4;stroke-dasharray:none"
       transform="translate(0.375,431.62501)"><path
         d="m 461.56,-64.709 0.096,-0.1 0.096,-0.099 0.097,-0.102 0.093,-0.102 0.094,-0.105 0.091,-0.105 0.09,-0.104 0.091,-0.108 0.085,-0.108 0.088,-0.108 0.085,-0.11 0.082,-0.114 0.082,-0.11 0.083,-0.113 0.079,-0.114 0.077,-0.116 0.076,-0.116 0.077,-0.117 0.073,-0.119 0.071,-0.119 0.071,-0.119 0.071,-0.122 0.068,-0.121 0.065,-0.122 0.065,-0.122 0.063,-0.125 0.062,-0.125 0.06,-0.124 0.059,-0.128 0.057,-0.125 0.056,-0.127 0.054,-0.131 0.054,-0.127 0.048,-0.131 0.051,-0.13 0.049,-0.13 0.045,-0.131 0.045,-0.133 0.043,-0.13 0.039,-0.134 0.04,-0.133 0.04,-0.136 0.034,-0.133 0.037,-0.133 0.031,-0.136 0.031,-0.137 0.031,-0.136 0.029,-0.136 0.025,-0.136 0.026,-0.139 0.022,-0.136 0.02,-0.136 0.02,-0.139 0.017,-0.139 0.017,-0.136 0.014,-0.138 0.014,-0.139 0.012,-0.139 0.008,-0.139 0.009,-0.139 0.005,-0.139 0.003,-0.139 0.003,-0.139 0.003,-0.139 v -186.199 l -0.003,-0.139 -0.003,-0.139 -0.003,-0.139 -0.005,-0.139 -0.009,-0.139 -0.008,-0.138 -0.012,-0.139 -0.014,-0.139 -0.014,-0.139 -0.017,-0.136 -0.017,-0.139 -0.02,-0.139 -0.02,-0.136 -0.022,-0.136 -0.026,-0.139 -0.025,-0.136 -0.029,-0.136 -0.031,-0.136 -0.031,-0.136 -0.031,-0.136 -0.037,-0.134 -0.034,-0.133 -0.04,-0.136 -0.04,-0.133 -0.039,-0.133 -0.043,-0.131 -0.045,-0.133 -0.045,-0.13 -0.049,-0.131 -0.051,-0.13 -0.048,-0.13 -0.054,-0.128 -0.054,-0.13 -0.056,-0.128 -0.057,-0.125 -0.059,-0.127 -0.06,-0.125 -0.062,-0.125 -0.063,-0.124 -0.065,-0.122 -0.065,-0.122 -0.068,-0.122 -0.071,-0.122 -0.071,-0.119 -0.071,-0.119 -0.073,-0.119 -0.077,-0.116 -0.076,-0.117 -0.077,-0.116 -0.079,-0.113 -0.083,-0.114 -0.082,-0.11 -0.082,-0.114 -0.085,-0.11 -0.088,-0.108 -0.085,-0.108 -0.091,-0.107 -0.09,-0.105 -0.091,-0.105 -0.094,-0.105 -0.093,-0.102 -0.097,-0.102 -0.096,-0.099 -0.096,-0.099 -157.06,-157.06 -0.099,-0.096 -0.099,-0.096 -0.102,-0.097 -0.102,-0.093 -0.105,-0.094 -0.105,-0.091 -0.105,-0.09 -0.107,-0.091 -0.108,-0.085 -0.108,-0.088 -0.11,-0.085 -0.114,-0.082 -0.11,-0.082 -0.114,-0.083 -0.113,-0.079 -0.116,-0.076 -0.117,-0.077 -0.116,-0.077 -0.119,-0.073 -0.119,-0.071 -0.119,-0.071 -0.122,-0.071 -0.122,-0.068 -0.122,-0.065 -0.121,-0.065 -0.125,-0.063 -0.125,-0.062 -0.125,-0.059 -0.127,-0.06 -0.125,-0.057 -0.128,-0.056 -0.13,-0.054 -0.127,-0.054 -0.131,-0.048 -0.13,-0.051 -0.131,-0.049 -0.13,-0.045 -0.133,-0.045 -0.131,-0.043 -0.133,-0.039 -0.133,-0.04 -0.136,-0.04 -0.133,-0.034 -0.134,-0.037 -0.136,-0.031 -0.136,-0.031 -0.136,-0.031 -0.136,-0.029 -0.136,-0.025 -0.139,-0.026 -0.136,-0.022 -0.136,-0.02 -0.139,-0.02 -0.139,-0.017 -0.136,-0.017 -0.139,-0.014 -0.139,-0.014 -0.139,-0.012 -0.138,-0.008 -0.139,-0.009 -0.139,-0.005 -0.139,-0.003 -0.139,-0.003 -0.139,-0.003 h -1.947 l -0.139,0.003 -0.139,0.003 -0.139,0.003 -0.139,0.005 -0.139,0.009 -0.139,0.008 -0.139,0.012 -0.138,0.014 -0.139,0.014 -0.136,0.017 -0.139,0.017 -0.139,0.02 -0.136,0.02 -0.136,0.022 -0.139,0.026 -0.136,0.025 -0.136,0.029 -0.136,0.031 -0.137,0.031 -0.136,0.031 -0.133,0.037 -0.133,0.034 -0.136,0.04 -0.133,0.04 -0.134,0.039 -0.13,0.043 -0.133,0.045 -0.131,0.045 -0.13,0.049 -0.13,0.051 -0.131,0.048 -0.127,0.054 -0.131,0.054 -0.127,0.056 -0.125,0.057 -0.128,0.06 -0.124,0.059 -0.125,0.062 -0.125,0.063 -0.122,0.065 -0.122,0.065 -0.121,0.068 -0.122,0.071 -0.119,0.071 -0.119,0.071 -0.119,0.073 -0.117,0.077 -0.116,0.077 -0.116,0.076 -0.113,0.079 -0.114,0.083 -0.11,0.082 -0.114,0.082 -0.11,0.085 -0.108,0.088 -0.108,0.085 -0.108,0.091 -0.104,0.09 -0.105,0.091 -0.105,0.094 -0.102,0.093 -0.102,0.097 -0.099,0.096 -0.1,0.096 -150.681,150.965 -0.099,0.096 -0.099,0.097 -0.102,0.096 -0.102,0.094 -0.105,0.093 -0.105,0.091 -0.105,0.091 -0.108,0.09 -0.108,0.085 -0.107,0.088 -0.111,0.085 -0.113,0.083 -0.111,0.082 -0.113,0.082 -0.114,0.079 -0.116,0.077 -0.116,0.076 -0.116,0.077 -0.119,0.074 -0.119,0.071 -0.119,0.07 -0.122,0.071 -0.122,0.068 -0.122,0.066 -0.122,0.065 -0.125,0.062 -0.124,0.062 -0.125,0.06 -0.128,0.059 -0.124,0.057 -0.128,0.057 -0.13,0.054 -0.128,0.054 -0.13,0.048 -0.131,0.051 -0.13,0.048 -0.13,0.045 -0.134,0.046 -0.13,0.042 -0.133,0.04 -0.134,0.04 -0.136,0.039 -0.133,0.034 -0.133,0.037 -0.136,0.031 -0.136,0.032 -0.136,0.031 -0.136,0.028 -0.136,0.026 -0.139,0.025 -0.136,0.023 -0.136,0.02 -0.139,0.019 -0.139,0.017 -0.136,0.017 -0.139,0.015 -0.139,0.014 -0.139,0.011 -0.139,0.009 -0.139,0.008 -0.139,0.006 -0.139,0.003 -0.138,0.002 H 127.823 18.867 l -0.138,0.003 -0.139,0.003 -0.139,0.003 -0.139,0.006 -0.139,0.008 -0.139,0.009 -0.139,0.011 -0.139,0.014 -0.139,0.014 -0.136,0.017 -0.139,0.017 -0.139,0.02 -0.136,0.02 -0.136,0.023 -0.139,0.025 -0.136,0.026 -0.136,0.028 -0.136,0.031 -0.136,0.031 -0.136,0.032 -0.133,0.036 -0.133,0.034 -0.136,0.04 -0.134,0.04 -0.133,0.04 -0.13,0.042 -0.133,0.045 -0.131,0.046 -0.13,0.048 -0.131,0.051 -0.13,0.048 -0.128,0.054 -0.13,0.054 -0.128,0.057 -0.124,0.056 -0.128,0.06 -0.125,0.059 -0.124,0.063 -0.125,0.062 -0.122,0.065 -0.122,0.065 -0.122,0.068 -0.122,0.071 -0.119,0.071 -0.119,0.071 -0.119,0.074 -0.116,0.076 -0.116,0.077 -0.116,0.076 -0.114,0.08 -0.113,0.082 -0.111,0.082 -0.113,0.082 -0.111,0.085 -0.107,0.088 -0.108,0.085 -0.108,0.091 -0.105,0.091 -0.105,0.09 -0.104,0.094 -0.103,0.094 -0.102,0.096 -0.099,0.096 -0.099,0.097 -7.532,7.531 -0.096,0.1 -0.096,0.099 -0.097,0.102 -0.093,0.102 -0.094,0.105 -0.091,0.105 -0.09,0.104 -0.091,0.108 -0.085,0.108 -0.088,0.108 -0.085,0.11 -0.082,0.114 -0.082,0.11 -0.083,0.114 -0.079,0.113 -0.076,0.116 -0.077,0.116 -0.077,0.117 -0.073,0.119 -0.071,0.119 -0.071,0.119 -0.071,0.122 -0.068,0.122 -0.065,0.121 -0.065,0.122 -0.063,0.125 -0.062,0.125 -0.059,0.124 -0.06,0.128 -0.057,0.125 -0.056,0.127 -0.054,0.131 -0.054,0.127 -0.048,0.131 -0.051,0.13 -0.049,0.13 -0.045,0.131 -0.045,0.133 -0.043,0.13 -0.039,0.134 -0.04,0.133 -0.04,0.136 -0.034,0.133 -0.037,0.133 -0.031,0.136 -0.031,0.137 -0.031,0.136 -0.029,0.136 -0.025,0.136 -0.026,0.139 -0.022,0.136 -0.02,0.136 -0.02,0.139 -0.017,0.139 -0.017,0.136 -0.014,0.139 -0.014,0.138 -0.012,0.139 -0.008,0.139 -0.009,0.139 -0.005,0.139 -0.003,0.139 -0.003,0.139 v 0.139 197.963 0.139 l 0.003,0.139 0.003,0.139 0.005,0.138 0.009,0.139 0.008,0.139 0.012,0.139 0.014,0.139 0.014,0.139 0.017,0.136 0.017,0.139 0.02,0.139 0.02,0.136 0.022,0.136 0.026,0.139 0.025,0.136 0.029,0.136 0.031,0.136 0.031,0.136 0.031,0.136 0.037,0.133 0.034,0.134 0.04,0.136 0.04,0.133 0.039,0.133 0.043,0.13 0.045,0.134 0.045,0.13 0.049,0.131 0.051,0.13 0.048,0.13 0.054,0.128 0.054,0.13 0.056,0.128 0.057,0.125 0.06,0.127 0.059,0.125 0.062,0.125 0.063,0.124 0.065,0.122 0.065,0.122 0.068,0.122 0.071,0.122 0.071,0.119 0.071,0.119 0.073,0.119 0.077,0.116 0.077,0.116 0.076,0.117 0.079,0.113 0.083,0.113 0.082,0.111 0.082,0.113 0.085,0.111 0.088,0.108 0.085,0.107 0.091,0.108 0.09,0.105 0.091,0.105 0.094,0.105 0.093,0.102 0.097,0.102 0.096,0.099 0.096,0.099 8.47,8.47 0.071,0.071 0.074,0.071 0.074,0.071 0.076,0.071 0.074,0.068 0.076,0.071 0.077,0.068 0.076,0.065 0.08,0.068 0.076,0.065 0.08,0.065 0.079,0.065 0.079,0.063 0.083,0.065 0.082,0.062 0.079,0.06 0.082,0.062 0.085,0.06 0.083,0.059 0.085,0.06 0.085,0.056 0.085,0.057 0.085,0.057 0.085,0.057 0.088,0.053 0.085,0.054 0.088,0.054 0.088,0.051 0.087,0.051 0.091,0.051 0.088,0.051 0.091,0.048 0.09,0.049 0.091,0.048 0.091,0.048 0.091,0.045 0.093,0.046 0.091,0.042 0.093,0.046 0.094,0.042 0.093,0.04 0.094,0.042 0.093,0.04 0.094,0.04 0.096,0.036 0.097,0.04 0.093,0.034 0.097,0.037 0.096,0.034 0.096,0.034 0.097,0.034 0.099,0.031 0.096,0.031 0.097,0.032 0.099,0.031 0.099,0.028 0.097,0.028 0.099,0.026 0.099,0.026 0.099,0.025 0.099,0.026 0.102,0.022 0.1,0.023 0.099,0.02 157.121,33.08 0.037,0.006 0.034,0.008 0.037,0.009 0.037,0.005 0.037,0.009 0.034,0.006 0.037,0.005 0.037,0.009 0.034,0.005 0.036,0.006 0.037,0.009 0.037,0.005 0.037,0.006 0.034,0.006 0.037,0.005 0.037,0.006 0.037,0.006 0.036,0.005 0.034,0.006 0.037,0.006 0.037,0.005 0.037,0.003 0.037,0.006 0.037,0.005 0.037,0.006 0.034,0.003 0.036,0.006 0.037,0.002 0.037,0.006 0.037,0.003 0.037,0.006 0.037,0.002 0.037,0.003 0.036,0.006 0.034,0.003 0.037,0.003 0.037,0.002 0.037,0.003 0.037,0.003 0.037,0.003 0.037,0.003 0.036,0.003 0.037,0.002 0.037,0.003 0.037,0.003 0.037,0.003 h 0.037 l 0.036,0.003 0.037,0.003 h 0.034 l 0.037,0.002 h 0.037 l 0.037,0.003 h 0.037 l 0.037,0.003 h 0.036 0.037 L 176.706,0 h 0.037 0.037 0.037 0.037 0.036 0.037 76.13 0.043 0.042 0.043 0.042 0.04 0.043 l 0.042,-0.003 h 0.043 l 0.042,-0.003 h 0.04 l 0.042,-0.003 h 0.043 l 0.042,-0.002 0.043,-0.003 0.04,-0.003 0.042,-0.003 h 0.043 l 0.042,-0.003 0.04,-0.003 0.042,-0.002 0.043,-0.006 0.042,-0.003 0.043,-0.003 0.04,-0.003 0.042,-0.005 0.043,-0.003 0.042,-0.003 0.04,-0.006 0.042,-0.005 0.043,-0.003 0.04,-0.006 0.042,-0.005 0.043,-0.003 0.042,-0.006 0.04,-0.006 0.042,-0.005 0.043,-0.006 0.04,-0.006 0.042,-0.005 0.043,-0.006 0.039,-0.008 0.043,-0.006 0.042,-0.006 0.04,-0.005 0.043,-0.009 0.039,-0.006 0.043,-0.008 0.042,-0.009 0.04,-0.005 0.042,-0.009 0.04,-0.008 0.043,-0.006 0.039,-0.008 0.043,-0.009 0.04,-0.008 0.042,-0.009 0.04,-0.008 0.042,-0.009 0.04,-0.011 0.042,-0.009 0.04,-0.008 0.043,-0.009 0.039,-0.011 0.04,-0.009 183.385,-44.288 0.093,-0.026 0.094,-0.022 0.093,-0.026 0.094,-0.025 0.093,-0.026 0.094,-0.028 0.093,-0.029 0.094,-0.028 0.094,-0.028 0.09,-0.031 0.094,-0.032 0.09,-0.031 0.091,-0.034 0.091,-0.034 0.091,-0.034 0.09,-0.034 0.091,-0.037 0.091,-0.037 0.09,-0.036 0.088,-0.037 0.091,-0.04 0.088,-0.04 0.088,-0.042 0.088,-0.04 0.088,-0.042 0.087,-0.043 0.085,-0.042 0.088,-0.046 0.085,-0.045 0.085,-0.045 0.088,-0.046 0.085,-0.048 0.082,-0.048 0.086,-0.048 0.085,-0.049 0.082,-0.051 0.082,-0.051 0.082,-0.051 0.082,-0.051 0.083,-0.054 0.082,-0.053 0.079,-0.054 0.08,-0.057 0.079,-0.054 0.079,-0.056 0.08,-0.057 0.079,-0.06 0.077,-0.056 0.076,-0.06 0.077,-0.059 0.076,-0.06 0.077,-0.062 0.073,-0.06 0.077,-0.062 0.074,-0.065 0.073,-0.063 0.071,-0.065 0.074,-0.065 0.071,-0.065 0.073,-0.066 0.069,-0.065 0.07,-0.068 0.071,-0.068 0.068,-0.068 z"
         style="fill:none;stroke:#000000;stroke-width:0.283465;stroke-linecap:round;stroke-linejoin:miter;stroke-miterlimit:4;stroke-dasharray:none;stroke-opacity:1"
         id="path865" /></g><g
       id="g867"
       style="stroke-width:0.283465;stroke-miterlimit:4;stroke-dasharray:none"
       transform="translate(0.375,431.62501)"><path
         d="m 348.627,-326.123 11.024,11.024 10.622,-10.624 -11.024,-11.024 z"
         style="fill:none;stroke:#000000;stroke-width:0.283465;stroke-linecap:round;stroke-linejoin:miter;stroke-miterlimit:4;stroke-dasharray:none;stroke-opacity:1"
         id="path869" /></g><g
       id="g871"
       style="stroke-width:0.283465;stroke-miterlimit:4;stroke-dasharray:none"
       transform="translate(0.375,431.62501)"><path
         d="m 317.458,-263.687 7.015,7.016 8.017,-8.017 -7.013,-7.016 z"
         style="fill:none;stroke:#000000;stroke-width:0.283465;stroke-linecap:round;stroke-linejoin:miter;stroke-miterlimit:4;stroke-dasharray:none;stroke-opacity:1"
         id="path873" /></g><g
       id="g875"
       style="stroke-width:0.283465;stroke-miterlimit:4;stroke-dasharray:none"
       transform="translate(0.375,431.62501)"><path
         d="m 300.521,-278.019 11.024,11.024 10.624,-10.622 -11.024,-11.024 z"
         style="fill:none;stroke:#000000;stroke-width:0.283465;stroke-linecap:round;stroke-linejoin:miter;stroke-miterlimit:4;stroke-dasharray:none;stroke-opacity:1"
         id="path877" /></g><g
       id="g879"
       style="stroke-width:0.283465;stroke-miterlimit:4;stroke-dasharray:none"
       transform="translate(0.375,431.62501)"><path
         d="m 365.564,-311.791 7.016,7.013 8.017,-8.017 -7.016,-7.015 z"
         style="fill:none;stroke:#000000;stroke-width:0.283465;stroke-linecap:round;stroke-linejoin:miter;stroke-miterlimit:4;stroke-dasharray:none;stroke-opacity:1"
         id="path881" /></g><g
       id="g883"
       style="stroke-width:0.283465;stroke-miterlimit:4;stroke-dasharray:none"
       transform="translate(0.375,431.62501)"><path
         d="m 135.85,-263.14 v 0 l -0.3,0.017 -0.298,0.042 -0.292,0.074 -0.283,0.102 -0.272,0.128 -0.258,0.156 -0.241,0.178 -0.221,0.201 -0.202,0.222 -0.178,0.24 -0.156,0.258 -0.128,0.273 -0.102,0.283 -0.073,0.292 -0.043,0.298 -0.014,0.297 0.014,0.301 0.043,0.297 0.073,0.292 0.102,0.284 0.128,0.272 0.156,0.258 0.178,0.241 0.202,0.221 0.221,0.201 0.241,0.179 0.258,0.156 0.272,0.127 0.283,0.102 0.292,0.074 0.298,0.043 0.298,0.014 0.3,-0.014 0.298,-0.043 0.292,-0.074 0.283,-0.102 0.272,-0.127 0.258,-0.156 0.241,-0.179 0.221,-0.201 0.201,-0.221 0.179,-0.241 0.156,-0.258 0.128,-0.272 0.102,-0.284 0.073,-0.292 0.043,-0.297 0.017,-0.301 -0.017,-0.297 -0.043,-0.298 -0.073,-0.292 -0.102,-0.283 -0.128,-0.273 -0.156,-0.258 -0.179,-0.24 -0.201,-0.222 -0.221,-0.201 -0.241,-0.178 -0.258,-0.156 -0.272,-0.128 -0.283,-0.102 -0.292,-0.074 -0.298,-0.042 z"
         style="fill:none;stroke:#000000;stroke-width:0.283465;stroke-linecap:round;stroke-linejoin:miter;stroke-miterlimit:4;stroke-dasharray:none;stroke-opacity:1"
         id="path885" /></g><g
       id="g887"
       style="stroke-width:0.283465;stroke-miterlimit:4;stroke-dasharray:none"
       transform="translate(0.375,431.62501)"><path
         d="m 399.472,-168.463 v 0 l -0.3,0.017 -0.298,0.043 -0.292,0.073 -0.283,0.102 -0.272,0.128 -0.258,0.156 -0.241,0.178 -0.221,0.202 -0.201,0.221 -0.179,0.241 -0.156,0.258 -0.128,0.272 -0.102,0.283 -0.073,0.292 -0.043,0.298 -0.014,0.297 0.014,0.301 0.043,0.298 0.073,0.292 0.102,0.283 0.128,0.272 0.156,0.258 0.179,0.241 0.201,0.221 0.221,0.201 0.241,0.179 0.258,0.156 0.272,0.127 0.283,0.102 0.292,0.074 0.298,0.043 0.298,0.014 0.3,-0.014 0.298,-0.043 0.292,-0.074 0.283,-0.102 0.272,-0.127 0.258,-0.156 0.241,-0.179 0.221,-0.201 0.202,-0.221 0.178,-0.241 0.156,-0.258 0.128,-0.272 0.102,-0.283 0.073,-0.292 0.043,-0.298 0.017,-0.301 -0.017,-0.297 -0.043,-0.298 -0.073,-0.292 -0.102,-0.283 -0.128,-0.272 -0.156,-0.258 -0.178,-0.241 -0.202,-0.221 -0.221,-0.202 -0.241,-0.178 -0.258,-0.156 -0.272,-0.128 -0.283,-0.102 -0.292,-0.073 -0.298,-0.043 z"
         style="fill:none;stroke:#000000;stroke-width:0.283465;stroke-linecap:round;stroke-linejoin:miter;stroke-miterlimit:4;stroke-dasharray:none;stroke-opacity:1"
         id="path889" /></g><g
       id="g891"
       style="stroke-width:0.283465;stroke-miterlimit:4;stroke-dasharray:none"
       transform="translate(0.375,431.62501)"><path
         d="m 288.709,-133.654 v 39.119 h 39.118 v -39.119 z"
         style="fill:none;stroke:#000000;stroke-width:0.283465;stroke-linecap:round;stroke-linejoin:miter;stroke-miterlimit:4;stroke-dasharray:none;stroke-opacity:1"
         id="path893" /></g><g
       id="g895"
       style="stroke-width:0.283465;stroke-miterlimit:4;stroke-dasharray:none"
       transform="translate(0.375,431.62501)"><path
         d="m 234.85,-230.031 v 39.118 h 39.119 v -39.118 z"
         style="fill:none;stroke:#000000;stroke-width:0.283465;stroke-linecap:round;stroke-linejoin:miter;stroke-miterlimit:4;stroke-dasharray:none;stroke-opacity:1"
         id="path897" /></g><g
       id="g899"
       style="stroke-width:0.283465;stroke-miterlimit:4;stroke-dasharray:none"
       transform="translate(0.375,431.62501)"><path
         d="m 256.927,-293.751 -27.664,-27.664 -27.66,27.664 27.66,27.66 z"
         style="fill:none;stroke:#000000;stroke-width:0.283465;stroke-linecap:round;stroke-linejoin:miter;stroke-miterlimit:4;stroke-dasharray:none;stroke-opacity:1"
         id="path901" /></g><g
       id="g903"
       style="stroke-width:0.283465;stroke-miterlimit:4;stroke-dasharray:none"
       transform="translate(0.375,431.62501)"><path
         d="m 342.567,-252.709 v 39.118 h 39.118 v -39.118 z"
         style="fill:none;stroke:#000000;stroke-width:0.283465;stroke-linecap:round;stroke-linejoin:miter;stroke-miterlimit:4;stroke-dasharray:none;stroke-opacity:1"
         id="path905" /></g><g
       id="g907"
       style="stroke-width:0.283465;stroke-miterlimit:4;stroke-dasharray:none"
       transform="translate(0.375,431.62501)"><path
         d="m 342.567,-91.134 v 39.118 h 39.118 v -39.118 z"
         style="fill:none;stroke:#000000;stroke-width:0.283465;stroke-linecap:round;stroke-linejoin:miter;stroke-miterlimit:4;stroke-dasharray:none;stroke-opacity:1"
         id="path909" /></g><g
       id="g911"
       style="stroke-width:0.283465;stroke-miterlimit:4;stroke-dasharray:none"
       transform="translate(0.375,431.62501)"><path
         d="m 73.276,-133.654 v 39.119 h 39.118 v -39.119 z"
         style="fill:none;stroke:#000000;stroke-width:0.283465;stroke-linecap:round;stroke-linejoin:miter;stroke-miterlimit:4;stroke-dasharray:none;stroke-opacity:1"
         id="path913" /></g><g
       id="g915"
       style="stroke-width:0.283465;stroke-miterlimit:4;stroke-dasharray:none"
       transform="translate(0.375,431.62501)"><path
         d="m 288.709,-241.37 v 39.118 h 39.118 v -39.118 z"
         style="fill:none;stroke:#000000;stroke-width:0.283465;stroke-linecap:round;stroke-linejoin:miter;stroke-miterlimit:4;stroke-dasharray:none;stroke-opacity:1"
         id="path917" /></g><g
       id="g919"
       style="stroke-width:0.283465;stroke-miterlimit:4;stroke-dasharray:none"
       transform="translate(0.375,431.62501)"><path
         d="m 380.126,-43.313 v 0 l -0.3,0.017 -0.298,0.042 -0.292,0.074 -0.284,0.102 -0.272,0.127 -0.258,0.156 -0.241,0.179 -0.221,0.201 -0.201,0.221 -0.179,0.241 -0.155,0.258 -0.128,0.272 -0.102,0.284 -0.074,0.292 -0.042,0.297 -0.014,0.298 0.014,0.301 0.042,0.297 0.074,0.292 0.102,0.284 0.128,0.272 0.155,0.258 0.179,0.241 0.201,0.221 0.221,0.201 0.241,0.179 0.258,0.155 0.272,0.128 0.284,0.102 0.292,0.074 0.298,0.042 0.297,0.014 0.301,-0.014 0.297,-0.042 0.292,-0.074 0.284,-0.102 0.272,-0.128 0.258,-0.155 0.241,-0.179 0.221,-0.201 0.201,-0.221 0.179,-0.241 0.156,-0.258 0.127,-0.272 0.102,-0.284 0.074,-0.292 0.042,-0.297 0.017,-0.301 -0.017,-0.298 -0.042,-0.297 -0.074,-0.292 -0.102,-0.284 -0.127,-0.272 -0.156,-0.258 -0.179,-0.241 -0.201,-0.221 -0.221,-0.201 -0.241,-0.179 -0.258,-0.156 -0.272,-0.127 -0.284,-0.102 -0.292,-0.074 -0.297,-0.042 z"
         style="fill:none;stroke:#000000;stroke-width:0.283465;stroke-linecap:round;stroke-linejoin:miter;stroke-miterlimit:4;stroke-dasharray:none;stroke-opacity:1"
         id="path921" /></g><g
       id="g923"
       style="stroke-width:0.283465;stroke-miterlimit:4;stroke-dasharray:none"
       transform="translate(0.375,431.62501)"><path
         d="m 234.85,-122.315 v 39.118 h 39.119 v -39.118 z"
         style="fill:none;stroke:#000000;stroke-width:0.283465;stroke-linecap:round;stroke-linejoin:miter;stroke-miterlimit:4;stroke-dasharray:none;stroke-opacity:1"
         id="path925" /></g><g
       id="g927"
       style="stroke-width:0.283465;stroke-miterlimit:4;stroke-dasharray:none"
       transform="translate(0.375,431.62501)"><path
         d="m 19.417,-252.709 v 39.118 h 39.118 v -39.118 z"
         style="fill:none;stroke:#000000;stroke-width:0.283465;stroke-linecap:round;stroke-linejoin:miter;stroke-miterlimit:4;stroke-dasharray:none;stroke-opacity:1"
         id="path929" /></g><g
       id="g931"
       style="stroke-width:0.283465;stroke-miterlimit:4;stroke-dasharray:none"
       transform="translate(0.375,431.62501)"><path
         d="m 180.992,-218.693 v 39.118 h 39.118 v -39.118 z"
         style="fill:none;stroke:#000000;stroke-width:0.283465;stroke-linecap:round;stroke-linejoin:miter;stroke-miterlimit:4;stroke-dasharray:none;stroke-opacity:1"
         id="path933" /></g><g
       id="g935"
       style="stroke-width:0.283465;stroke-miterlimit:4;stroke-dasharray:none"
       transform="translate(0.375,431.62501)"><path
         d="m 13.89,-258.817 v 0 l -0.301,0.017 -0.297,0.042 -0.292,0.074 -0.284,0.102 -0.272,0.128 -0.258,0.155 -0.241,0.179 -0.221,0.201 -0.201,0.221 -0.179,0.241 -0.156,0.258 -0.127,0.272 -0.102,0.284 -0.074,0.292 -0.042,0.297 -0.015,0.298 0.015,0.301 0.042,0.297 0.074,0.292 0.102,0.284 0.127,0.272 0.156,0.258 0.179,0.241 0.201,0.221 0.221,0.201 0.241,0.179 0.258,0.156 0.272,0.127 0.284,0.102 0.292,0.074 0.297,0.042 0.298,0.015 0.3,-0.015 0.298,-0.042 0.292,-0.074 0.283,-0.102 0.273,-0.127 0.258,-0.156 0.24,-0.179 0.222,-0.201 0.201,-0.221 0.178,-0.241 0.156,-0.258 0.128,-0.272 0.102,-0.284 0.074,-0.292 0.042,-0.297 0.017,-0.301 -0.017,-0.298 -0.042,-0.297 -0.074,-0.292 -0.102,-0.284 -0.128,-0.272 -0.156,-0.258 -0.178,-0.241 -0.201,-0.221 -0.222,-0.201 -0.24,-0.179 -0.258,-0.155 -0.273,-0.128 -0.283,-0.102 -0.292,-0.074 -0.298,-0.042 z"
         style="fill:none;stroke:#000000;stroke-width:0.283465;stroke-linecap:round;stroke-linejoin:miter;stroke-miterlimit:4;stroke-dasharray:none;stroke-opacity:1"
         id="path937" /></g><g
       id="g939"
       style="stroke-width:0.283465;stroke-miterlimit:4;stroke-dasharray:none"
       transform="translate(0.375,431.62501)"><path
         d="m 19.417,-198.85 v 39.118 h 39.118 v -39.118 z"
         style="fill:none;stroke:#000000;stroke-width:0.283465;stroke-linecap:round;stroke-linejoin:miter;stroke-miterlimit:4;stroke-dasharray:none;stroke-opacity:1"
         id="path941" /></g><g
       id="g943"
       style="stroke-width:0.283465;stroke-miterlimit:4;stroke-dasharray:none"
       transform="translate(0.375,431.62501)"><path
         d="m 310.646,-291.149 -12.628,12.628 13.731,13.728 2.704,-2.704 9.32,9.32 7.217,-7.217 -9.323,-9.317 2.71,-2.707 z"
         style="fill:none;stroke:#000000;stroke-width:0.283465;stroke-linecap:round;stroke-linejoin:miter;stroke-miterlimit:4;stroke-dasharray:none;stroke-opacity:1"
         id="path945" /></g><g
       id="g947"
       style="stroke-width:0.283465;stroke-miterlimit:4;stroke-dasharray:none"
       transform="translate(0.375,431.62501)"><path
         d="m 73.276,-241.37 v 39.118 h 39.118 v -39.118 z"
         style="fill:none;stroke:#000000;stroke-width:0.283465;stroke-linecap:round;stroke-linejoin:miter;stroke-miterlimit:4;stroke-dasharray:none;stroke-opacity:1"
         id="path949" /></g><g
       id="g951"
       style="stroke-width:0.283465;stroke-miterlimit:4;stroke-dasharray:none"
       transform="translate(0.375,431.62501)"><path
         d="m 234.85,-176.173 v 39.118 h 39.119 v -39.118 z"
         style="fill:none;stroke:#000000;stroke-width:0.283465;stroke-linecap:round;stroke-linejoin:miter;stroke-miterlimit:4;stroke-dasharray:none;stroke-opacity:1"
         id="path953" /></g><g
       id="g955"
       style="stroke-width:0.283465;stroke-miterlimit:4;stroke-dasharray:none"
       transform="translate(0.375,431.62501)"><path
         d="m 19.417,-91.134 v 39.118 h 39.118 v -39.118 z"
         style="fill:none;stroke:#000000;stroke-width:0.283465;stroke-linecap:round;stroke-linejoin:miter;stroke-miterlimit:4;stroke-dasharray:none;stroke-opacity:1"
         id="path957" /></g><g
       id="g959"
       style="stroke-width:0.283465;stroke-miterlimit:4;stroke-dasharray:none"
       transform="translate(0.375,431.62501)"><path
         d="m 389.764,-169.37 v -0.139 l 0.005,-0.139 0.009,-0.139 0.011,-0.139 0.017,-0.136 0.017,-0.139 0.023,-0.136 0.025,-0.139 0.029,-0.136 0.031,-0.133 0.037,-0.136 0.04,-0.133 0.039,-0.133 0.046,-0.131 0.051,-0.13 0.051,-0.131 0.054,-0.127 0.059,-0.128 0.06,-0.124 0.065,-0.122 0.065,-0.122 0.071,-0.122 0.074,-0.116 0.076,-0.119 0.077,-0.114 0.082,-0.113 0.085,-0.111 0.085,-0.107 0.091,-0.108 0.093,-0.105 0.094,-0.102 0.096,-0.099 0.099,-0.097 0.102,-0.093 0.105,-0.094 0.108,-0.09 0.108,-0.085 0.11,-0.086 0.114,-0.082 0.113,-0.076 0.119,-0.077 0.116,-0.073 0.122,-0.071 0.122,-0.066 0.122,-0.065 0.125,-0.059 0.127,-0.06 0.128,-0.054 0.13,-0.051 0.131,-0.051 0.13,-0.045 0.133,-0.04 0.133,-0.039 0.136,-0.037 0.134,-0.031 0.136,-0.029 0.139,-0.025 0.136,-0.023 0.139,-0.017 0.136,-0.017 0.139,-0.011 0.138,-0.009 0.139,-0.006 0.142,-0.002 h 63.78 0.138 l 0.139,-0.006 0.139,-0.009 0.139,-0.011 0.136,-0.017 0.139,-0.017 0.136,-0.023 0.139,-0.025 0.136,-0.028 0.133,-0.032 0.136,-0.036 0.134,-0.04 0.133,-0.04 0.13,-0.045 0.131,-0.051 0.13,-0.051 0.128,-0.054 0.127,-0.06 0.125,-0.059 0.122,-0.065 0.122,-0.066 0.122,-0.07 0.116,-0.074 0.119,-0.077 0.113,-0.076 0.114,-0.082 0.11,-0.085 0.108,-0.085 0.108,-0.091 0.105,-0.094 0.102,-0.093 0.099,-0.097 0.096,-0.099 0.094,-0.102 0.093,-0.105 0.091,-0.107 0.085,-0.108 0.085,-0.111 0.082,-0.113 0.077,-0.114 0.076,-0.119 0.074,-0.116 0.071,-0.122 0.065,-0.122 0.065,-0.121 0.06,-0.125 0.059,-0.128 0.054,-0.127 0.051,-0.131 0.051,-0.13 0.046,-0.131 0.039,-0.133 0.04,-0.133 0.037,-0.136 0.031,-0.133 0.028,-0.136 0.026,-0.139 0.023,-0.136 0.017,-0.139 0.017,-0.136 0.011,-0.139 0.008,-0.139 0.006,-0.139 0.003,-0.142 v -78.216 l -0.003,-0.139 -0.003,-0.139 -0.003,-0.139 -0.005,-0.139 -0.009,-0.139 -0.008,-0.138 -0.012,-0.139 -0.014,-0.139 -0.014,-0.139 -0.017,-0.136 -0.017,-0.139 -0.02,-0.139 -0.02,-0.136 -0.022,-0.136 -0.026,-0.139 -0.025,-0.136 -0.029,-0.136 -0.031,-0.136 -0.031,-0.136 -0.031,-0.136 -0.037,-0.134 -0.034,-0.133 -0.04,-0.136 -0.04,-0.133 -0.039,-0.133 -0.043,-0.131 -0.045,-0.133 -0.045,-0.13 -0.049,-0.131 -0.051,-0.13 -0.048,-0.13 -0.054,-0.128 -0.054,-0.13 -0.056,-0.128 -0.057,-0.125 -0.059,-0.127 -0.06,-0.125 -0.062,-0.125 -0.063,-0.124 -0.065,-0.122 -0.065,-0.122 -0.068,-0.122 -0.071,-0.122 -0.071,-0.119 -0.071,-0.119 -0.073,-0.119 -0.077,-0.116 -0.076,-0.117 -0.077,-0.116 -0.079,-0.113 -0.083,-0.114 -0.082,-0.11 -0.082,-0.114 -0.085,-0.11 -0.088,-0.108 -0.085,-0.108 -0.091,-0.107 -0.09,-0.105 -0.091,-0.105 -0.094,-0.105 -0.093,-0.102 -0.097,-0.102 -0.096,-0.099 -0.096,-0.099 -157.06,-157.06 -0.099,-0.096 -0.099,-0.096 -0.102,-0.097 -0.102,-0.093 -0.105,-0.094 -0.105,-0.091 -0.105,-0.09 -0.107,-0.091 -0.108,-0.085 -0.108,-0.088 -0.11,-0.085 -0.114,-0.082 -0.11,-0.082 -0.114,-0.083 -0.113,-0.079 -0.116,-0.076 -0.117,-0.077 -0.116,-0.077 -0.119,-0.073 -0.119,-0.071 -0.119,-0.071 -0.122,-0.071 -0.122,-0.068 -0.122,-0.065 -0.121,-0.065 -0.125,-0.063 -0.125,-0.062 -0.125,-0.059 -0.127,-0.06 -0.125,-0.057 -0.128,-0.056 -0.13,-0.054 -0.127,-0.054 -0.131,-0.048 -0.13,-0.051 -0.131,-0.049 -0.13,-0.045 -0.133,-0.045 -0.131,-0.043 -0.133,-0.039 -0.133,-0.04 -0.136,-0.04 -0.133,-0.034 -0.134,-0.037 -0.136,-0.031 -0.136,-0.031 -0.136,-0.031 -0.136,-0.029 -0.136,-0.025 -0.139,-0.026 -0.136,-0.022 -0.136,-0.02 -0.139,-0.02 -0.139,-0.017 -0.136,-0.017 -0.139,-0.014 -0.139,-0.014 -0.139,-0.012 -0.138,-0.008 -0.139,-0.009 -0.139,-0.005 -0.139,-0.003 -0.139,-0.003 -0.139,-0.003 h -1.947 l -0.139,0.003 -0.139,0.003 -0.139,0.003 -0.139,0.005 -0.139,0.009 -0.139,0.008 -0.139,0.012 -0.138,0.014 -0.139,0.014 -0.136,0.017 -0.139,0.017 -0.139,0.02 -0.136,0.02 -0.136,0.022 -0.139,0.026 -0.136,0.025 -0.136,0.029 -0.136,0.031 -0.137,0.031 -0.136,0.031 -0.133,0.037 -0.133,0.034 -0.136,0.04 -0.133,0.04 -0.134,0.039 -0.13,0.043 -0.133,0.045 -0.131,0.045 -0.13,0.049 -0.13,0.051 -0.131,0.048 -0.127,0.054 -0.131,0.054 -0.127,0.056 -0.125,0.057 -0.128,0.06 -0.124,0.059 -0.125,0.062 -0.125,0.063 -0.122,0.065 -0.122,0.065 -0.121,0.068 -0.122,0.071 -0.119,0.071 -0.119,0.071 -0.119,0.073 -0.117,0.077 -0.116,0.077 -0.116,0.076 -0.113,0.079 -0.114,0.083 -0.11,0.082 -0.114,0.082 -0.11,0.085 -0.108,0.088 -0.108,0.085 -0.108,0.091 -0.104,0.09 -0.105,0.091 -0.105,0.094 -0.102,0.093 -0.102,0.097 -0.099,0.096 -0.1,0.096 -150.681,150.965 -0.099,0.096 -0.099,0.097 -0.102,0.096 -0.102,0.094 -0.105,0.093 -0.105,0.091 -0.105,0.091 -0.108,0.09 -0.108,0.085 -0.107,0.088 -0.111,0.085 -0.113,0.083 -0.111,0.082 -0.113,0.082 -0.114,0.079 -0.116,0.077 -0.116,0.076 -0.116,0.077 -0.119,0.074 -0.119,0.071 -0.119,0.07 -0.122,0.071 -0.122,0.068 -0.122,0.066 -0.122,0.065 -0.125,0.062 -0.124,0.062 -0.125,0.06 -0.128,0.059 -0.124,0.057 -0.128,0.057 -0.13,0.054 -0.128,0.054 -0.13,0.048 -0.131,0.051 -0.13,0.048 -0.13,0.045 -0.134,0.046 -0.13,0.042 -0.133,0.04 -0.134,0.04 -0.136,0.039 -0.133,0.034 -0.133,0.037 -0.136,0.031 -0.136,0.032 -0.136,0.031 -0.136,0.028 -0.136,0.026 -0.139,0.025 -0.136,0.023 -0.136,0.02 -0.139,0.019 -0.139,0.017 -0.136,0.017 -0.139,0.015 -0.139,0.014 -0.139,0.011 -0.139,0.009 -0.139,0.008 -0.139,0.006 -0.139,0.003 -0.138,0.002 H 127.823 18.867 l -0.138,0.003 -0.139,0.003 -0.139,0.003 -0.139,0.006 -0.139,0.008 -0.139,0.009 -0.139,0.011 -0.139,0.014 -0.139,0.014 -0.136,0.017 -0.139,0.017 -0.139,0.02 -0.136,0.02 -0.136,0.023 -0.139,0.025 -0.136,0.026 -0.136,0.028 -0.136,0.031 -0.136,0.031 -0.136,0.032 -0.133,0.036 -0.133,0.034 -0.136,0.04 -0.134,0.04 -0.133,0.04 -0.13,0.042 -0.133,0.045 -0.131,0.046 -0.13,0.048 -0.131,0.051 -0.13,0.048 -0.128,0.054 -0.13,0.054 -0.128,0.057 -0.124,0.056 -0.128,0.06 -0.125,0.059 -0.124,0.063 -0.125,0.062 -0.122,0.065 -0.122,0.065 -0.122,0.068 -0.122,0.071 -0.119,0.071 -0.119,0.071 -0.119,0.074 -0.116,0.076 -0.116,0.077 -0.116,0.076 -0.114,0.08 -0.113,0.082 -0.111,0.082 -0.113,0.082 -0.111,0.085 -0.107,0.088 -0.108,0.085 -0.108,0.091 -0.105,0.091 -0.105,0.09 -0.104,0.094 -0.103,0.094 -0.102,0.096 -0.099,0.096 -0.099,0.097 -7.532,7.531 -0.096,0.1 -0.096,0.099 -0.097,0.102 -0.093,0.102 -0.094,0.105 -0.091,0.105 -0.09,0.104 -0.091,0.108 -0.085,0.108 -0.088,0.108 -0.085,0.11 -0.082,0.114 -0.082,0.11 -0.083,0.114 -0.079,0.113 -0.076,0.116 -0.077,0.116 -0.077,0.117 -0.073,0.119 -0.071,0.119 -0.071,0.119 -0.071,0.122 -0.068,0.122 -0.065,0.121 -0.065,0.122 -0.063,0.125 -0.062,0.125 -0.059,0.124 -0.06,0.128 -0.057,0.125 -0.056,0.127 -0.054,0.131 -0.054,0.127 -0.048,0.131 -0.051,0.13 -0.049,0.13 -0.045,0.131 -0.045,0.133 -0.043,0.13 -0.039,0.134 -0.04,0.133 -0.04,0.136 -0.034,0.133 -0.037,0.133 -0.031,0.136 -0.031,0.137 -0.031,0.136 -0.029,0.136 -0.025,0.136 -0.026,0.139 -0.022,0.136 -0.02,0.136 -0.02,0.139 -0.017,0.139 -0.017,0.136 -0.014,0.139 -0.014,0.138 -0.012,0.139 -0.008,0.139 -0.009,0.139 -0.005,0.139 -0.003,0.139 -0.003,0.139 v 0.139 197.963 0.139 l 0.003,0.139 0.003,0.139 0.005,0.138 0.009,0.139 0.008,0.139 0.012,0.139 0.014,0.139 0.014,0.139 0.017,0.136 0.017,0.139 0.02,0.139 0.02,0.136 0.022,0.136 0.026,0.139 0.025,0.136 0.029,0.136 0.031,0.136 0.031,0.136 0.031,0.136 0.037,0.133 0.034,0.134 0.04,0.136 0.04,0.133 0.039,0.133 0.043,0.13 0.045,0.134 0.045,0.13 0.049,0.131 0.051,0.13 0.048,0.13 0.054,0.128 0.054,0.13 0.056,0.128 0.057,0.125 0.06,0.127 0.059,0.125 0.062,0.125 0.063,0.124 0.065,0.122 0.065,0.122 0.068,0.122 0.071,0.122 0.071,0.119 0.071,0.119 0.073,0.119 0.077,0.116 0.077,0.116 0.076,0.117 0.079,0.113 0.083,0.113 0.082,0.111 0.082,0.113 0.085,0.111 0.088,0.108 0.085,0.107 0.091,0.108 0.09,0.105 0.091,0.105 0.094,0.105 0.093,0.102 0.097,0.102 0.096,0.099 0.096,0.099 8.47,8.47 0.071,0.071 0.074,0.071 0.074,0.071 0.076,0.071 0.074,0.068 0.076,0.071 0.077,0.068 0.076,0.065 0.08,0.068 0.076,0.065 0.08,0.065 0.079,0.065 0.079,0.063 0.083,0.065 0.082,0.062 0.079,0.06 0.082,0.062 0.085,0.06 0.083,0.059 0.085,0.06 0.085,0.056 0.085,0.057 0.085,0.057 0.085,0.057 0.088,0.053 0.085,0.054 0.088,0.054 0.088,0.051 0.087,0.051 0.091,0.051 0.088,0.051 0.091,0.048 0.09,0.049 0.091,0.048 0.091,0.048 0.091,0.045 0.093,0.046 0.091,0.042 0.093,0.046 0.094,0.042 0.093,0.04 0.094,0.042 0.093,0.04 0.094,0.04 0.096,0.036 0.097,0.04 0.093,0.034 0.097,0.037 0.096,0.034 0.096,0.034 0.097,0.034 0.099,0.031 0.096,0.031 0.097,0.032 0.099,0.031 0.099,0.028 0.097,0.028 0.099,0.026 0.099,0.026 0.099,0.025 0.099,0.026 0.102,0.022 0.1,0.023 0.099,0.02 157.121,33.08 0.037,0.006 0.034,0.008 0.037,0.009 0.037,0.005 0.037,0.009 0.034,0.006 0.037,0.005 0.037,0.009 0.034,0.005 0.036,0.006 0.037,0.009 0.037,0.005 0.037,0.006 0.034,0.006 0.037,0.005 0.037,0.006 0.037,0.006 0.036,0.005 0.034,0.006 0.037,0.006 0.037,0.005 0.037,0.003 0.037,0.006 0.037,0.005 0.037,0.006 0.034,0.003 0.036,0.006 0.037,0.002 0.037,0.006 0.037,0.003 0.037,0.006 0.037,0.002 0.037,0.003 0.036,0.006 0.034,0.003 0.037,0.003 0.037,0.002 0.037,0.003 0.037,0.003 0.037,0.003 0.037,0.003 0.036,0.003 0.037,0.002 0.037,0.003 0.037,0.003 0.037,0.003 h 0.037 l 0.036,0.003 0.037,0.003 h 0.034 l 0.037,0.002 h 0.037 l 0.037,0.003 h 0.037 l 0.037,0.003 h 0.036 0.037 L 176.706,0 h 0.037 0.037 0.037 0.037 0.036 0.037 76.13 0.043 0.042 0.043 0.042 0.04 0.043 l 0.042,-0.003 h 0.043 l 0.042,-0.003 h 0.04 l 0.042,-0.003 h 0.043 l 0.042,-0.002 0.043,-0.003 0.04,-0.003 0.042,-0.003 h 0.043 l 0.042,-0.003 0.04,-0.003 0.042,-0.002 0.043,-0.006 0.042,-0.003 0.043,-0.003 0.04,-0.003 0.042,-0.005 0.043,-0.003 0.042,-0.003 0.04,-0.006 0.042,-0.005 0.043,-0.003 0.04,-0.006 0.042,-0.005 0.043,-0.003 0.042,-0.006 0.04,-0.006 0.042,-0.005 0.043,-0.006 0.04,-0.006 0.042,-0.005 0.043,-0.006 0.039,-0.008 0.043,-0.006 0.039,-0.006 0.043,-0.005 0.043,-0.009 0.039,-0.006 0.043,-0.008 0.042,-0.009 0.04,-0.005 0.042,-0.009 0.04,-0.008 0.043,-0.006 0.039,-0.008 0.043,-0.009 0.04,-0.008 0.042,-0.009 0.04,-0.008 0.042,-0.009 0.04,-0.011 0.042,-0.009 0.04,-0.008 0.043,-0.009 0.039,-0.011 0.04,-0.009 129.705,-31.325 0.113,-0.029 0.117,-0.031 0.113,-0.034 0.11,-0.037 0.114,-0.037 0.11,-0.042 0.111,-0.043 0.108,-0.045 0.107,-0.048 0.108,-0.048 0.108,-0.051 0.105,-0.057 0.102,-0.054 0.102,-0.059 0.102,-0.063 0.099,-0.062 0.099,-0.065 0.099,-0.066 0.097,-0.068 0.093,-0.07 0.094,-0.074 0.091,-0.074 0.09,-0.079 0.088,-0.077 0.085,-0.082 0.085,-0.082 0.085,-0.082 0.08,-0.085 0.082,-0.088 0.076,-0.088 0.077,-0.091 0.074,-0.093 0.071,-0.094 0.07,-0.093 0.068,-0.097 0.069,-0.099 0.062,-0.099 0.062,-0.102 0.06,-0.1 0.056,-0.104 0.057,-0.105 0.054,-0.105 0.051,-0.105 0.048,-0.108 0.048,-0.11 0.043,-0.108 0.042,-0.111 0.04,-0.11 0.04,-0.114 0.034,-0.113 0.034,-0.113 0.028,-0.114 0.029,-0.113 0.025,-0.116 0.023,-0.117 0.022,-0.116 0.017,-0.116 0.017,-0.119 0.015,-0.116 0.011,-0.116 0.008,-0.12 0.006,-0.119 0.003,-0.116 0.003,-0.119 z"
         style="fill:none;stroke:#000000;stroke-width:0.283465;stroke-linecap:round;stroke-linejoin:miter;stroke-miterlimit:4;stroke-dasharray:none;stroke-opacity:1"
         id="path961" /></g><g
       id="g963"
       style="stroke-width:0.283465;stroke-miterlimit:4;stroke-dasharray:none"
       transform="translate(0.375,431.62501)"><path
         d="m 126.142,-132.959 v 0 l -0.301,0.017 -0.297,0.042 -0.292,0.074 -0.284,0.102 -0.272,0.128 -0.258,0.156 -0.241,0.178 -0.221,0.202 -0.201,0.221 -0.179,0.241 -0.156,0.258 -0.127,0.272 -0.102,0.283 -0.074,0.292 -0.043,0.298 -0.014,0.297 0.014,0.301 0.043,0.297 0.074,0.292 0.102,0.284 0.127,0.272 0.156,0.258 0.179,0.241 0.201,0.221 0.221,0.201 0.241,0.179 0.258,0.156 0.272,0.127 0.284,0.102 0.292,0.074 0.297,0.043 0.298,0.014 0.3,-0.014 0.298,-0.043 0.292,-0.074 0.283,-0.102 0.273,-0.127 0.258,-0.156 0.24,-0.179 0.222,-0.201 0.201,-0.221 0.178,-0.241 0.156,-0.258 0.128,-0.272 0.102,-0.284 0.074,-0.292 0.042,-0.297 0.017,-0.301 -0.017,-0.297 -0.042,-0.298 -0.074,-0.292 -0.102,-0.283 -0.128,-0.272 -0.156,-0.258 -0.178,-0.241 -0.201,-0.221 -0.222,-0.202 -0.24,-0.178 -0.258,-0.156 -0.273,-0.128 -0.283,-0.102 -0.292,-0.074 -0.298,-0.042 z"
         style="fill:none;stroke:#000000;stroke-width:0.283465;stroke-linecap:round;stroke-linejoin:miter;stroke-miterlimit:4;stroke-dasharray:none;stroke-opacity:1"
         id="path965" /></g><g
       id="g967"
       style="stroke-width:0.283465;stroke-miterlimit:4;stroke-dasharray:none"
       transform="translate(0.375,431.62501)"><path
         d="m 342.567,-198.85 v 39.118 h 39.118 v -39.118 z"
         style="fill:none;stroke:#000000;stroke-width:0.283465;stroke-linecap:round;stroke-linejoin:miter;stroke-miterlimit:4;stroke-dasharray:none;stroke-opacity:1"
         id="path969" /></g><g
       id="g971"
       style="stroke-width:0.283465;stroke-miterlimit:4;stroke-dasharray:none"
       transform="translate(0.375,431.62501)"><path
         d="m 272.126,-16.739 v 0 l -0.3,0.017 -0.298,0.043 -0.292,0.074 -0.284,0.102 -0.272,0.127 -0.258,0.156 -0.241,0.179 -0.221,0.201 -0.201,0.221 -0.179,0.241 -0.155,0.258 -0.128,0.272 -0.102,0.284 -0.074,0.292 -0.042,0.297 -0.014,0.298 0.014,0.3 0.042,0.298 0.074,0.292 0.102,0.283 0.128,0.273 0.155,0.257 0.179,0.241 0.201,0.222 0.221,0.201 0.241,0.178 0.258,0.156 0.272,0.128 0.284,0.102 0.292,0.074 0.298,0.042 0.297,0.014 0.301,-0.014 0.297,-0.042 0.292,-0.074 0.284,-0.102 0.272,-0.128 0.258,-0.156 0.241,-0.178 0.221,-0.201 0.201,-0.222 0.179,-0.241 0.156,-0.257 0.127,-0.273 0.102,-0.283 0.074,-0.292 0.042,-0.298 0.017,-0.3 -0.017,-0.298 -0.042,-0.297 -0.074,-0.292 -0.102,-0.284 -0.127,-0.272 -0.156,-0.258 -0.179,-0.241 -0.201,-0.221 -0.221,-0.201 -0.241,-0.179 -0.258,-0.156 -0.272,-0.127 -0.284,-0.102 -0.292,-0.074 -0.297,-0.043 z"
         style="fill:none;stroke:#000000;stroke-width:0.283465;stroke-linecap:round;stroke-linejoin:miter;stroke-miterlimit:4;stroke-dasharray:none;stroke-opacity:1"
         id="path973" /></g><g
       id="g975"
       style="stroke-width:0.283465;stroke-miterlimit:4;stroke-dasharray:none"
       transform="translate(0.375,431.62501)"><path
         d="m 127.134,-68.457 v 39.118 h 39.118 v -39.118 z"
         style="fill:none;stroke:#000000;stroke-width:0.283465;stroke-linecap:round;stroke-linejoin:miter;stroke-miterlimit:4;stroke-dasharray:none;stroke-opacity:1"
         id="path977" /></g><g
       id="g979"
       style="stroke-width:0.283465;stroke-miterlimit:4;stroke-dasharray:none"
       transform="translate(0.375,431.62501)"><path
         d="m 180.992,-110.976 v 39.118 h 39.118 v -39.118 z"
         style="fill:none;stroke:#000000;stroke-width:0.283465;stroke-linecap:round;stroke-linejoin:miter;stroke-miterlimit:4;stroke-dasharray:none;stroke-opacity:1"
         id="path981" /></g><g
       id="g983"
       style="stroke-width:0.283465;stroke-miterlimit:4;stroke-dasharray:none"
       transform="translate(0.375,431.62501)"><path
         d="m 333.094,-369.921 -27.661,-27.661 -27.663,27.661 27.663,27.663 z"
         style="fill:none;stroke:#000000;stroke-width:0.283465;stroke-linecap:round;stroke-linejoin:miter;stroke-miterlimit:4;stroke-dasharray:none;stroke-opacity:1"
         id="path985" /></g><g
       id="g987"
       style="stroke-width:0.283465;stroke-miterlimit:4;stroke-dasharray:none"
       transform="translate(0.375,431.62501)"><path
         d="m 288.709,-79.795 v 39.118 h 39.118 v -39.118 z"
         style="fill:none;stroke:#000000;stroke-width:0.283465;stroke-linecap:round;stroke-linejoin:miter;stroke-miterlimit:4;stroke-dasharray:none;stroke-opacity:1"
         id="path989" /></g><g
       id="g991"
       style="stroke-width:0.283465;stroke-miterlimit:4;stroke-dasharray:none"
       transform="translate(0.375,431.62501)"><path
         d="m 234.85,-68.457 v 39.118 h 39.119 v -39.118 z"
         style="fill:none;stroke:#000000;stroke-width:0.283465;stroke-linecap:round;stroke-linejoin:miter;stroke-miterlimit:4;stroke-dasharray:none;stroke-opacity:1"
         id="path993" /></g><g
       id="g995"
       style="stroke-width:0.283465;stroke-miterlimit:4;stroke-dasharray:none"
       transform="translate(0.375,431.62501)"><path
         d="m 19.417,-144.992 v 39.118 h 39.118 v -39.118 z"
         style="fill:none;stroke:#000000;stroke-width:0.283465;stroke-linecap:round;stroke-linejoin:miter;stroke-miterlimit:4;stroke-dasharray:none;stroke-opacity:1"
         id="path997" /></g><g
       id="g999"
       style="stroke-width:0.283465;stroke-miterlimit:4;stroke-dasharray:none"
       transform="translate(0.375,431.62501)"><path
         d="m 73.276,-79.795 v 39.118 h 39.118 v -39.118 z"
         style="fill:none;stroke:#000000;stroke-width:0.283465;stroke-linecap:round;stroke-linejoin:miter;stroke-miterlimit:4;stroke-dasharray:none;stroke-opacity:1"
         id="path1001" /></g><g
       id="g1003"
       style="stroke-width:0.283465;stroke-miterlimit:4;stroke-dasharray:none"
       transform="translate(0.375,431.62501)"><path
         d="m 342.567,-144.992 v 39.118 h 39.118 v -39.118 z"
         style="fill:none;stroke:#000000;stroke-width:0.283465;stroke-linecap:round;stroke-linejoin:miter;stroke-miterlimit:4;stroke-dasharray:none;stroke-opacity:1"
         id="path1005" /></g><g
       id="g1007"
       style="stroke-width:0.283465;stroke-miterlimit:4;stroke-dasharray:none"
       transform="translate(0.375,431.62501)"><path
         d="m 73.276,-187.512 v 39.118 h 39.118 v -39.118 z"
         style="fill:none;stroke:#000000;stroke-width:0.283465;stroke-linecap:round;stroke-linejoin:miter;stroke-miterlimit:4;stroke-dasharray:none;stroke-opacity:1"
         id="path1009" /></g><g
       id="g1011"
       style="stroke-width:0.283465;stroke-miterlimit:4;stroke-dasharray:none"
       transform="translate(0.375,431.62501)"><path
         d="m 455.244,-74.92 v 0 l -0.3,0.017 -0.298,0.043 -0.292,0.074 -0.283,0.102 -0.273,0.127 -0.258,0.156 -0.24,0.179 -0.222,0.201 -0.201,0.221 -0.178,0.241 -0.156,0.258 -0.128,0.272 -0.102,0.283 -0.074,0.292 -0.042,0.298 -0.014,0.298 0.014,0.3 0.042,0.298 0.074,0.292 0.102,0.283 0.128,0.272 0.156,0.258 0.178,0.241 0.201,0.221 0.222,0.202 0.24,0.178 0.258,0.156 0.273,0.128 0.283,0.102 0.292,0.073 0.298,0.043 0.297,0.014 0.301,-0.014 0.297,-0.043 0.292,-0.073 0.284,-0.102 0.272,-0.128 0.258,-0.156 0.241,-0.178 0.221,-0.202 0.201,-0.221 0.179,-0.241 0.156,-0.258 0.127,-0.272 0.102,-0.283 0.074,-0.292 0.043,-0.298 0.017,-0.3 -0.017,-0.298 -0.043,-0.298 -0.074,-0.292 -0.102,-0.283 -0.127,-0.272 -0.156,-0.258 -0.179,-0.241 -0.201,-0.221 -0.221,-0.201 -0.241,-0.179 -0.258,-0.156 -0.272,-0.127 -0.284,-0.102 -0.292,-0.074 -0.297,-0.043 z"
         style="fill:none;stroke:#000000;stroke-width:0.283465;stroke-linecap:round;stroke-linejoin:miter;stroke-miterlimit:4;stroke-dasharray:none;stroke-opacity:1"
         id="path1013" /></g><g
       id="g1015"
       style="stroke-width:0.283465;stroke-miterlimit:4;stroke-dasharray:none"
       transform="translate(0.375,431.62501)"><path
         d="m 157.89,-16.739 v 0 l -0.301,0.017 -0.297,0.043 -0.292,0.074 -0.284,0.102 -0.272,0.127 -0.258,0.156 -0.241,0.179 -0.221,0.201 -0.201,0.221 -0.179,0.241 -0.156,0.258 -0.127,0.272 -0.102,0.284 -0.074,0.292 -0.042,0.297 -0.015,0.298 0.015,0.3 0.042,0.298 0.074,0.292 0.102,0.283 0.127,0.273 0.156,0.257 0.179,0.241 0.201,0.222 0.221,0.201 0.241,0.178 0.258,0.156 0.272,0.128 0.284,0.102 0.292,0.074 0.297,0.042 0.298,0.014 0.3,-0.014 0.298,-0.042 0.292,-0.074 0.283,-0.102 0.273,-0.128 0.258,-0.156 0.24,-0.178 0.222,-0.201 0.201,-0.222 0.178,-0.241 0.156,-0.257 0.128,-0.273 0.102,-0.283 0.074,-0.292 0.042,-0.298 0.017,-0.3 -0.017,-0.298 -0.042,-0.297 -0.074,-0.292 -0.102,-0.284 -0.128,-0.272 -0.156,-0.258 -0.178,-0.241 -0.201,-0.221 -0.222,-0.201 -0.24,-0.179 -0.258,-0.156 -0.273,-0.127 -0.283,-0.102 -0.292,-0.074 -0.298,-0.043 z"
         style="fill:none;stroke:#000000;stroke-width:0.283465;stroke-linecap:round;stroke-linejoin:miter;stroke-miterlimit:4;stroke-dasharray:none;stroke-opacity:1"
         id="path1017" /></g><g
       id="g1019"
       style="stroke-width:0.283465;stroke-miterlimit:4;stroke-dasharray:none"
       transform="translate(0.375,431.62501)"><path
         d="m 295.01,-331.835 -27.66,-27.663 -27.664,27.663 27.664,27.661 z"
         style="fill:none;stroke:#000000;stroke-width:0.283465;stroke-linecap:round;stroke-linejoin:miter;stroke-miterlimit:4;stroke-dasharray:none;stroke-opacity:1"
         id="path1021" /></g><g
       id="g1023"
       style="stroke-width:0.283465;stroke-miterlimit:4;stroke-dasharray:none"
       transform="translate(0.375,431.62501)"><path
         d="M 180.992,-57.118 V -18 h 39.118 v -39.118 z"
         style="fill:none;stroke:#000000;stroke-width:0.283465;stroke-linecap:round;stroke-linejoin:miter;stroke-miterlimit:4;stroke-dasharray:none;stroke-opacity:1"
         id="path1025" /></g><g
       id="g1027"
       style="stroke-width:0.283465;stroke-miterlimit:4;stroke-dasharray:none"
       transform="translate(0.375,431.62501)"><path
         d="m 277.37,-263.14 v 0 l -0.3,0.017 -0.298,0.042 -0.292,0.074 -0.283,0.102 -0.273,0.128 -0.258,0.156 -0.24,0.178 -0.222,0.201 -0.201,0.222 -0.178,0.24 -0.156,0.258 -0.128,0.273 -0.102,0.283 -0.074,0.292 -0.042,0.298 -0.014,0.297 0.014,0.301 0.042,0.297 0.074,0.292 0.102,0.284 0.128,0.272 0.156,0.258 0.178,0.241 0.201,0.221 0.222,0.201 0.24,0.179 0.258,0.156 0.273,0.127 0.283,0.102 0.292,0.074 0.298,0.043 0.297,0.014 0.301,-0.014 0.297,-0.043 0.292,-0.074 0.284,-0.102 0.272,-0.127 0.258,-0.156 0.241,-0.179 0.221,-0.201 0.201,-0.221 0.179,-0.241 0.156,-0.258 0.127,-0.272 0.102,-0.284 0.074,-0.292 0.042,-0.297 0.017,-0.301 -0.017,-0.297 -0.042,-0.298 -0.074,-0.292 -0.102,-0.283 -0.127,-0.273 -0.156,-0.258 -0.179,-0.24 -0.201,-0.222 -0.221,-0.201 -0.241,-0.178 -0.258,-0.156 -0.272,-0.128 -0.284,-0.102 -0.292,-0.074 -0.297,-0.042 z"
         style="fill:none;stroke:#000000;stroke-width:0.283465;stroke-linecap:round;stroke-linejoin:miter;stroke-miterlimit:4;stroke-dasharray:none;stroke-opacity:1"
         id="path1029" /></g><g
       id="g1031"
       style="stroke-width:0.283465;stroke-miterlimit:4;stroke-dasharray:none"
       transform="translate(0.375,431.62501)"><path
         d="m 127.134,-122.315 v 39.118 h 39.118 v -39.118 z"
         style="fill:none;stroke:#000000;stroke-width:0.283465;stroke-linecap:round;stroke-linejoin:miter;stroke-miterlimit:4;stroke-dasharray:none;stroke-opacity:1"
         id="path1033" /></g><g
       id="g1035"
       style="stroke-width:0.283465;stroke-miterlimit:4;stroke-dasharray:none"
       transform="translate(0.375,431.62501)"><path
         d="m 358.75,-339.253 -12.628,12.628 13.731,13.728 2.704,-2.704 9.32,9.32 7.217,-7.217 -9.323,-9.317 2.71,-2.707 z"
         style="fill:none;stroke:#000000;stroke-width:0.283465;stroke-linecap:round;stroke-linejoin:miter;stroke-miterlimit:4;stroke-dasharray:none;stroke-opacity:1"
         id="path1037" /></g><g
       id="g1039"
       style="stroke-width:0.283465;stroke-miterlimit:4;stroke-dasharray:none"
       transform="translate(0.375,431.62501)"><path
         d="m 455.244,-187.739 v 0 l -0.3,0.017 -0.298,0.043 -0.292,0.074 -0.283,0.102 -0.273,0.127 -0.258,0.156 -0.24,0.179 -0.222,0.201 -0.201,0.221 -0.178,0.241 -0.156,0.258 -0.128,0.272 -0.102,0.284 -0.074,0.292 -0.042,0.297 -0.014,0.298 0.014,0.3 0.042,0.298 0.074,0.292 0.102,0.283 0.128,0.273 0.156,0.257 0.178,0.241 0.201,0.222 0.222,0.201 0.24,0.178 0.258,0.156 0.273,0.128 0.283,0.102 0.292,0.074 0.298,0.042 0.297,0.014 0.301,-0.014 0.297,-0.042 0.292,-0.074 0.284,-0.102 0.272,-0.128 0.258,-0.156 0.241,-0.178 0.221,-0.201 0.201,-0.222 0.179,-0.241 0.156,-0.257 0.127,-0.273 0.102,-0.283 0.074,-0.292 0.043,-0.298 0.017,-0.3 -0.017,-0.298 -0.043,-0.297 -0.074,-0.292 -0.102,-0.284 -0.127,-0.272 -0.156,-0.258 -0.179,-0.241 -0.201,-0.221 -0.221,-0.201 -0.241,-0.179 -0.258,-0.156 -0.272,-0.127 -0.284,-0.102 -0.292,-0.074 -0.297,-0.043 z"
         style="fill:none;stroke:#000000;stroke-width:0.283465;stroke-linecap:round;stroke-linejoin:miter;stroke-miterlimit:4;stroke-dasharray:none;stroke-opacity:1"
         id="path1041" /></g><g
       id="g1043"
       style="stroke-width:0.283465;stroke-miterlimit:4;stroke-dasharray:none"
       transform="translate(0.375,431.62501)"><path
         d="m 127.134,-176.173 v 39.118 h 39.118 v -39.118 z"
         style="fill:none;stroke:#000000;stroke-width:0.283465;stroke-linecap:round;stroke-linejoin:miter;stroke-miterlimit:4;stroke-dasharray:none;stroke-opacity:1"
         id="path1045" /></g><g
       id="g1047"
       style="stroke-width:0.283465;stroke-miterlimit:4;stroke-dasharray:none"
       transform="translate(0.375,431.62501)"><path
         d="m 295.512,-420.746 v 0 l -0.301,0.017 -0.297,0.042 -0.292,0.074 -0.284,0.102 -0.272,0.127 -0.258,0.156 -0.241,0.179 -0.221,0.201 -0.201,0.221 -0.179,0.241 -0.156,0.258 -0.127,0.272 -0.102,0.284 -0.074,0.292 -0.042,0.297 -0.015,0.298 0.015,0.3 0.042,0.298 0.074,0.292 0.102,0.284 0.127,0.272 0.156,0.258 0.179,0.241 0.201,0.221 0.221,0.201 0.241,0.178 0.258,0.156 0.272,0.128 0.284,0.102 0.292,0.074 0.297,0.042 0.298,0.014 0.3,-0.014 0.298,-0.042 0.292,-0.074 0.284,-0.102 0.272,-0.128 0.258,-0.156 0.241,-0.178 0.221,-0.201 0.201,-0.221 0.178,-0.241 0.156,-0.258 0.128,-0.272 0.102,-0.284 0.074,-0.292 0.042,-0.298 0.017,-0.3 -0.017,-0.298 -0.042,-0.297 -0.074,-0.292 -0.102,-0.284 -0.128,-0.272 -0.156,-0.258 -0.178,-0.241 -0.201,-0.221 -0.221,-0.201 -0.241,-0.179 -0.258,-0.156 -0.272,-0.127 -0.284,-0.102 -0.292,-0.074 -0.298,-0.042 z"
         style="fill:none;stroke:#000000;stroke-width:0.283465;stroke-linecap:round;stroke-linejoin:miter;stroke-miterlimit:4;stroke-dasharray:none;stroke-opacity:1"
         id="path1049" /></g><g
       id="g1051"
       style="stroke-width:0.283465;stroke-miterlimit:4;stroke-dasharray:none"
       transform="translate(0.375,431.62501)"><path
         d="m 127.134,-230.031 v 39.118 h 39.118 v -39.118 z"
         style="fill:none;stroke:#000000;stroke-width:0.283465;stroke-linecap:round;stroke-linejoin:miter;stroke-miterlimit:4;stroke-dasharray:none;stroke-opacity:1"
         id="path1053" /></g><g
       id="g1055"
       style="stroke-width:0.283465;stroke-miterlimit:4;stroke-dasharray:none"
       transform="translate(0.375,431.62501)"><path
         d="m 288.709,-187.512 v 39.118 h 39.118 v -39.118 z"
         style="fill:none;stroke:#000000;stroke-width:0.283465;stroke-linecap:round;stroke-linejoin:miter;stroke-miterlimit:4;stroke-dasharray:none;stroke-opacity:1"
         id="path1057" /></g><g
       id="g1059"
       style="stroke-width:0.283465;stroke-miterlimit:4;stroke-dasharray:none"
       transform="translate(0.375,431.62501)"><path
         d="m 362.157,-302.771 -27.66,-27.661 -27.661,27.661 27.661,27.66 z"
         style="fill:none;stroke:#000000;stroke-width:0.283465;stroke-linecap:round;stroke-linejoin:miter;stroke-miterlimit:4;stroke-dasharray:none;stroke-opacity:1"
         id="path1061" /></g><g
       id="g1063"
       style="stroke-width:0.283465;stroke-miterlimit:4;stroke-dasharray:none"
       transform="translate(0.375,431.62501)"><path
         d="m 461.56,-64.709 0.096,-0.1 0.096,-0.099 0.097,-0.102 0.093,-0.102 0.094,-0.105 0.091,-0.105 0.09,-0.104 0.091,-0.108 0.085,-0.108 0.088,-0.108 0.085,-0.11 0.082,-0.114 0.082,-0.11 0.083,-0.113 0.079,-0.114 0.077,-0.116 0.076,-0.116 0.077,-0.117 0.073,-0.119 0.071,-0.119 0.071,-0.119 0.071,-0.122 0.068,-0.121 0.065,-0.122 0.065,-0.122 0.063,-0.125 0.062,-0.125 0.06,-0.124 0.059,-0.128 0.057,-0.125 0.056,-0.127 0.054,-0.131 0.054,-0.127 0.048,-0.131 0.051,-0.13 0.049,-0.13 0.045,-0.131 0.045,-0.133 0.043,-0.13 0.039,-0.134 0.04,-0.133 0.04,-0.136 0.034,-0.133 0.037,-0.133 0.031,-0.136 0.031,-0.137 0.031,-0.136 0.029,-0.136 0.025,-0.136 0.026,-0.139 0.022,-0.136 0.02,-0.136 0.02,-0.139 0.017,-0.139 0.017,-0.136 0.014,-0.138 0.014,-0.139 0.012,-0.139 0.008,-0.139 0.009,-0.139 0.005,-0.139 0.003,-0.139 0.003,-0.139 0.003,-0.139 v -96.644 l -0.003,-0.139 -0.006,-0.139 -0.008,-0.139 -0.011,-0.139 -0.017,-0.136 -0.017,-0.139 -0.023,-0.136 -0.026,-0.139 -0.028,-0.136 -0.031,-0.133 -0.037,-0.136 -0.04,-0.133 -0.039,-0.133 -0.046,-0.131 -0.051,-0.13 -0.051,-0.131 -0.054,-0.127 -0.059,-0.128 -0.06,-0.124 -0.065,-0.122 -0.065,-0.122 -0.071,-0.122 -0.074,-0.116 -0.076,-0.119 -0.077,-0.114 -0.082,-0.113 -0.085,-0.111 -0.085,-0.107 -0.091,-0.108 -0.093,-0.105 -0.094,-0.102 -0.096,-0.099 -0.099,-0.097 -0.102,-0.093 -0.105,-0.094 -0.108,-0.09 -0.108,-0.085 -0.11,-0.086 -0.114,-0.082 -0.113,-0.076 -0.119,-0.077 -0.116,-0.073 -0.122,-0.071 -0.122,-0.066 -0.122,-0.065 -0.125,-0.059 -0.127,-0.06 -0.128,-0.054 -0.13,-0.051 -0.131,-0.051 -0.13,-0.045 -0.133,-0.04 -0.134,-0.039 -0.136,-0.037 -0.133,-0.031 -0.136,-0.029 -0.139,-0.025 -0.136,-0.023 -0.139,-0.017 -0.136,-0.017 -0.139,-0.011 -0.139,-0.009 -0.139,-0.006 -0.138,-0.002 h -63.78 l -0.142,0.002 -0.139,0.006 -0.138,0.009 -0.139,0.011 -0.136,0.017 -0.139,0.017 -0.136,0.023 -0.139,0.025 -0.136,0.029 -0.134,0.031 -0.136,0.037 -0.133,0.039 -0.133,0.04 -0.13,0.045 -0.131,0.051 -0.13,0.051 -0.128,0.054 -0.127,0.06 -0.125,0.059 -0.122,0.065 -0.122,0.066 -0.122,0.071 -0.116,0.073 -0.119,0.077 -0.113,0.076 -0.114,0.082 -0.11,0.086 -0.108,0.085 -0.108,0.09 -0.105,0.094 -0.102,0.093 -0.099,0.097 -0.096,0.099 -0.094,0.102 -0.093,0.105 -0.091,0.108 -0.085,0.107 -0.085,0.111 -0.082,0.113 -0.077,0.114 -0.076,0.119 -0.074,0.116 -0.071,0.122 -0.065,0.122 -0.065,0.122 -0.06,0.124 -0.059,0.128 -0.054,0.127 -0.051,0.131 -0.051,0.13 -0.046,0.131 -0.039,0.133 -0.04,0.133 -0.037,0.136 -0.031,0.133 -0.029,0.136 -0.025,0.139 -0.023,0.136 -0.017,0.139 -0.017,0.136 -0.011,0.139 -0.009,0.139 -0.005,0.139 v 0.139 129.481 0.159 l 0.008,0.161 0.012,0.159 0.014,0.159 0.02,0.158 0.025,0.159 0.028,0.159 0.035,0.156 0.039,0.156 0.043,0.153 0.045,0.153 0.051,0.153 0.057,0.15 0.059,0.148 0.063,0.147 0.068,0.145 0.073,0.144 0.074,0.142 0.082,0.139 0.083,0.136 0.087,0.133 0.091,0.13 0.096,0.131 0.1,0.125 0.102,0.124 0.105,0.119 0.107,0.119 0.114,0.114 0.116,0.11 0.119,0.108 0.119,0.105 0.125,0.099 0.127,0.099 0.131,0.094 0.133,0.091 0.133,0.085 0.139,0.082 0.139,0.079 0.142,0.074 0.144,0.071 0.145,0.065 0.147,0.062 0.15,0.057 0.151,0.054 0.153,0.051 0.153,0.045 0.156,0.04 0.156,0.037 0.156,0.031 0.158,0.028 0.159,0.023 0.159,0.02 0.159,0.014 0.161,0.008 0.159,0.006 h 0.161 l 0.159,-0.006 0.159,-0.008 0.161,-0.011 0.159,-0.017 0.159,-0.023 0.159,-0.028 0.156,-0.029 0.156,-0.037 42.341,-10.224 0.093,-0.026 0.094,-0.022 0.093,-0.026 0.094,-0.025 0.093,-0.026 0.094,-0.028 0.093,-0.029 0.094,-0.028 0.094,-0.028 0.09,-0.031 0.094,-0.032 0.09,-0.031 0.091,-0.034 0.091,-0.034 0.091,-0.034 0.09,-0.034 0.091,-0.037 0.091,-0.037 0.09,-0.036 0.088,-0.037 0.091,-0.04 0.088,-0.04 0.088,-0.042 0.088,-0.04 0.088,-0.042 0.087,-0.043 0.085,-0.042 0.088,-0.046 0.085,-0.045 0.085,-0.045 0.088,-0.046 0.085,-0.048 0.082,-0.048 0.086,-0.048 0.085,-0.049 0.082,-0.051 0.082,-0.051 0.082,-0.051 0.082,-0.051 0.083,-0.054 0.082,-0.053 0.079,-0.054 0.08,-0.057 0.079,-0.054 0.079,-0.056 0.08,-0.057 0.079,-0.06 0.077,-0.056 0.076,-0.06 0.077,-0.059 0.076,-0.06 0.077,-0.062 0.073,-0.06 0.077,-0.062 0.074,-0.065 0.073,-0.063 0.071,-0.065 0.074,-0.065 0.071,-0.065 0.073,-0.066 0.069,-0.065 0.07,-0.068 0.071,-0.068 0.068,-0.068 z"
         style="fill:none;stroke:#000000;stroke-width:0.283465;stroke-linecap:round;stroke-linejoin:miter;stroke-miterlimit:4;stroke-dasharray:none;stroke-opacity:1"
         id="path1065" /></g><g
       id="g1067"
       style="stroke-width:0.283465;stroke-miterlimit:4;stroke-dasharray:none"
       transform="translate(0.375,431.62501)"><path
         d="m 399.402,-47.991 v 0 l -0.301,0.017 -0.298,0.043 -0.292,0.074 -0.283,0.102 -0.272,0.127 -0.258,0.156 -0.241,0.179 -0.221,0.201 -0.201,0.221 -0.179,0.241 -0.156,0.258 -0.127,0.272 -0.102,0.284 -0.074,0.292 -0.043,0.297 -0.014,0.298 0.014,0.3 0.043,0.298 0.074,0.292 0.102,0.283 0.127,0.273 0.156,0.257 0.179,0.241 0.201,0.222 0.221,0.201 0.241,0.178 0.258,0.156 0.272,0.128 0.283,0.102 0.292,0.074 0.298,0.042 0.298,0.014 0.3,-0.014 0.298,-0.042 0.292,-0.074 0.283,-0.102 0.272,-0.128 0.258,-0.156 0.241,-0.178 0.221,-0.201 0.202,-0.222 0.178,-0.241 0.156,-0.257 0.128,-0.273 0.102,-0.283 0.073,-0.292 0.043,-0.298 0.017,-0.3 -0.017,-0.298 -0.043,-0.297 -0.073,-0.292 -0.102,-0.284 -0.128,-0.272 -0.156,-0.258 -0.178,-0.241 -0.202,-0.221 -0.221,-0.201 -0.241,-0.179 -0.258,-0.156 -0.272,-0.127 -0.283,-0.102 -0.292,-0.074 -0.298,-0.043 z"
         style="fill:none;stroke:#000000;stroke-width:0.283465;stroke-linecap:round;stroke-linejoin:miter;stroke-miterlimit:4;stroke-dasharray:none;stroke-opacity:1"
         id="path1069" /></g><g
       id="g1071"
       style="stroke-width:0.283465;stroke-miterlimit:4;stroke-dasharray:none"
       transform="translate(0.375,431.62501)"><path
         d="m 455.244,-263.14 v 0 l -0.3,0.017 -0.298,0.042 -0.292,0.074 -0.283,0.102 -0.273,0.128 -0.258,0.156 -0.24,0.178 -0.222,0.201 -0.201,0.222 -0.178,0.24 -0.156,0.258 -0.128,0.273 -0.102,0.283 -0.074,0.292 -0.042,0.298 -0.014,0.297 0.014,0.301 0.042,0.297 0.074,0.292 0.102,0.284 0.128,0.272 0.156,0.258 0.178,0.241 0.201,0.221 0.222,0.201 0.24,0.179 0.258,0.156 0.273,0.127 0.283,0.102 0.292,0.074 0.298,0.043 0.297,0.014 0.301,-0.014 0.297,-0.043 0.292,-0.074 0.284,-0.102 0.272,-0.127 0.258,-0.156 0.241,-0.179 0.221,-0.201 0.201,-0.221 0.179,-0.241 0.156,-0.258 0.127,-0.272 0.102,-0.284 0.074,-0.292 0.043,-0.297 0.017,-0.301 -0.017,-0.297 -0.043,-0.298 -0.074,-0.292 -0.102,-0.283 -0.127,-0.273 -0.156,-0.258 -0.179,-0.24 -0.201,-0.222 -0.221,-0.201 -0.241,-0.178 -0.258,-0.156 -0.272,-0.128 -0.284,-0.102 -0.292,-0.074 -0.297,-0.042 z"
         style="fill:none;stroke:#000000;stroke-width:0.283465;stroke-linecap:round;stroke-linejoin:miter;stroke-miterlimit:4;stroke-dasharray:none;stroke-opacity:1"
         id="path1073" /></g><g
       id="g1075"
       style="stroke-width:0.283465;stroke-miterlimit:4;stroke-dasharray:none"
       transform="translate(0.375,431.62501)"><path
         d="m 455.244,-168.463 v 0 l -0.3,0.017 -0.298,0.043 -0.292,0.073 -0.283,0.102 -0.273,0.128 -0.258,0.156 -0.24,0.178 -0.222,0.202 -0.201,0.221 -0.178,0.241 -0.156,0.258 -0.128,0.272 -0.102,0.283 -0.074,0.292 -0.042,0.298 -0.014,0.297 0.014,0.301 0.042,0.298 0.074,0.292 0.102,0.283 0.128,0.272 0.156,0.258 0.178,0.241 0.201,0.221 0.222,0.201 0.24,0.179 0.258,0.156 0.273,0.127 0.283,0.102 0.292,0.074 0.298,0.043 0.297,0.014 0.301,-0.014 0.297,-0.043 0.292,-0.074 0.284,-0.102 0.272,-0.127 0.258,-0.156 0.241,-0.179 0.221,-0.201 0.201,-0.221 0.179,-0.241 0.156,-0.258 0.127,-0.272 0.102,-0.283 0.074,-0.292 0.043,-0.298 0.017,-0.301 -0.017,-0.297 -0.043,-0.298 -0.074,-0.292 -0.102,-0.283 -0.127,-0.272 -0.156,-0.258 -0.179,-0.241 -0.201,-0.221 -0.221,-0.202 -0.241,-0.178 -0.258,-0.156 -0.272,-0.128 -0.284,-0.102 -0.292,-0.073 -0.297,-0.043 z"
         style="fill:none;stroke:#000000;stroke-width:0.283465;stroke-linecap:round;stroke-linejoin:miter;stroke-miterlimit:4;stroke-dasharray:none;stroke-opacity:1"
         id="path1077" /></g><g
       id="g1079"
       style="stroke-width:0.283465;stroke-miterlimit:4;stroke-dasharray:none"
       transform="translate(0.375,431.62501)"><path
         d="m 180.992,-164.835 v 39.118 h 39.118 v -39.118 z"
         style="fill:none;stroke:#000000;stroke-width:0.283465;stroke-linecap:round;stroke-linejoin:miter;stroke-miterlimit:4;stroke-dasharray:none;stroke-opacity:1"
         id="path1081" /></g><g
       id="g1083"
       style="stroke-width:0.283465;stroke-miterlimit:4;stroke-dasharray:none"
       transform="translate(0.375,431.62501)"><path
         d="m 284.882,-147.132 v 0 l -0.301,0.017 -0.297,0.042 -0.292,0.074 -0.284,0.102 -0.272,0.128 -0.258,0.155 -0.241,0.179 -0.221,0.201 -0.201,0.221 -0.179,0.241 -0.156,0.258 -0.127,0.272 -0.102,0.284 -0.074,0.292 -0.042,0.297 -0.015,0.298 0.015,0.301 0.042,0.297 0.074,0.292 0.102,0.284 0.127,0.272 0.156,0.258 0.179,0.241 0.201,0.221 0.221,0.201 0.241,0.179 0.258,0.156 0.272,0.127 0.284,0.102 0.292,0.074 0.297,0.042 0.298,0.015 0.301,-0.015 0.297,-0.042 0.292,-0.074 0.284,-0.102 0.272,-0.127 0.258,-0.156 0.241,-0.179 0.221,-0.201 0.201,-0.221 0.179,-0.241 0.155,-0.258 0.128,-0.272 0.102,-0.284 0.074,-0.292 0.042,-0.297 0.017,-0.301 -0.017,-0.298 -0.042,-0.297 -0.074,-0.292 -0.102,-0.284 -0.128,-0.272 -0.155,-0.258 -0.179,-0.241 -0.201,-0.221 -0.221,-0.201 -0.241,-0.179 -0.258,-0.155 -0.272,-0.128 -0.284,-0.102 -0.292,-0.074 -0.297,-0.042 z"
         style="fill:none;stroke:#000000;stroke-width:0.283465;stroke-linecap:round;stroke-linejoin:miter;stroke-miterlimit:4;stroke-dasharray:none;stroke-opacity:1"
         id="path1085" /></g><g
       id="g1087"
       style="stroke-width:0.283465;stroke-miterlimit:4;stroke-dasharray:none"
       transform="translate(0.375,431.62501)"><path
         d="m 13.89,-50.258 v 0 l -0.301,0.017 -0.297,0.042 -0.292,0.074 -0.284,0.102 -0.272,0.128 -0.258,0.155 -0.241,0.179 -0.221,0.201 -0.201,0.221 -0.179,0.241 -0.156,0.258 -0.127,0.272 -0.102,0.284 -0.074,0.292 -0.042,0.298 -0.015,0.297 0.015,0.301 0.042,0.297 0.074,0.292 0.102,0.284 0.127,0.272 0.156,0.258 0.179,0.241 0.201,0.221 0.221,0.201 0.241,0.179 0.258,0.156 0.272,0.127 0.284,0.102 0.292,0.074 0.297,0.042 0.298,0.015 0.3,-0.015 0.298,-0.042 0.292,-0.074 0.283,-0.102 0.273,-0.127 0.258,-0.156 0.24,-0.179 0.222,-0.201 0.201,-0.221 0.178,-0.241 0.156,-0.258 0.128,-0.272 0.102,-0.284 0.074,-0.292 0.042,-0.297 0.017,-0.301 -0.017,-0.297 -0.042,-0.298 -0.074,-0.292 -0.102,-0.284 -0.128,-0.272 -0.156,-0.258 -0.178,-0.241 -0.201,-0.221 -0.222,-0.201 -0.24,-0.179 -0.258,-0.155 -0.273,-0.128 -0.283,-0.102 -0.292,-0.074 -0.298,-0.042 z"
         style="fill:none;stroke:#000000;stroke-width:0.283465;stroke-linecap:round;stroke-linejoin:miter;stroke-miterlimit:4;stroke-dasharray:none;stroke-opacity:1"
         id="path1089" /></g><g
       id="g1091"
       style="stroke-width:0.283465;stroke-miterlimit:4;stroke-dasharray:none"
       transform="translate(0.375,431.62501)"><path
         d="m 399.472,-187.739 v 0 l -0.3,0.017 -0.298,0.043 -0.292,0.074 -0.283,0.102 -0.272,0.127 -0.258,0.156 -0.241,0.179 -0.221,0.201 -0.201,0.221 -0.179,0.241 -0.156,0.258 -0.128,0.272 -0.102,0.284 -0.073,0.292 -0.043,0.297 -0.014,0.298 0.014,0.3 0.043,0.298 0.073,0.292 0.102,0.283 0.128,0.273 0.156,0.257 0.179,0.241 0.201,0.222 0.221,0.201 0.241,0.178 0.258,0.156 0.272,0.128 0.283,0.102 0.292,0.074 0.298,0.042 0.298,0.014 0.3,-0.014 0.298,-0.042 0.292,-0.074 0.283,-0.102 0.272,-0.128 0.258,-0.156 0.241,-0.178 0.221,-0.201 0.202,-0.222 0.178,-0.241 0.156,-0.257 0.128,-0.273 0.102,-0.283 0.073,-0.292 0.043,-0.298 0.017,-0.3 -0.017,-0.298 -0.043,-0.297 -0.073,-0.292 -0.102,-0.284 -0.128,-0.272 -0.156,-0.258 -0.178,-0.241 -0.202,-0.221 -0.221,-0.201 -0.241,-0.179 -0.258,-0.156 -0.272,-0.127 -0.283,-0.102 -0.292,-0.074 -0.298,-0.043 z"
         style="fill:none;stroke:#000000;stroke-width:0.283465;stroke-linecap:round;stroke-linejoin:miter;stroke-miterlimit:4;stroke-dasharray:none;stroke-opacity:1"
         id="path1093" /></g></g></svg>
