<?xml version="1.0" encoding="UTF-8" standalone="no"?>
<svg
   xmlns:dc="http://purl.org/dc/elements/1.1/"
   xmlns:cc="http://creativecommons.org/ns#"
   xmlns:rdf="http://www.w3.org/1999/02/22-rdf-syntax-ns#"
   xmlns:svg="http://www.w3.org/2000/svg"
   xmlns="http://www.w3.org/2000/svg"
   version="1.1"
   id="svg851"
   xml:space="preserve"
   width="627.67999"
   height="577.60498"
   viewBox="0 0 627.67999 577.60498"><metadata
     id="metadata857"><rdf:RDF><cc:Work
         rdf:about=""><dc:format>image/svg+xml</dc:format><dc:type
           rdf:resource="http://purl.org/dc/dcmitype/StillImage" /><dc:title></dc:title></cc:Work></rdf:RDF></metadata><defs
     id="defs855" /><path
     style="color:#000000;font-style:normal;font-variant:normal;font-weight:normal;font-stretch:normal;font-size:medium;line-height:normal;font-family:sans-serif;font-variant-ligatures:normal;font-variant-position:normal;font-variant-caps:normal;font-variant-numeric:normal;font-variant-alternates:normal;font-variant-east-asian:normal;font-feature-settings:normal;font-variation-settings:normal;text-indent:0;text-align:start;text-decoration:none;text-decoration-line:none;text-decoration-style:solid;text-decoration-color:#000000;letter-spacing:normal;word-spacing:normal;text-transform:none;writing-mode:lr-tb;direction:ltr;text-orientation:mixed;dominant-baseline:auto;baseline-shift:baseline;text-anchor:start;white-space:normal;shape-padding:0;shape-margin:0;inline-size:0;clip-rule:nonzero;display:inline;overflow:visible;visibility:visible;isolation:auto;mix-blend-mode:normal;color-interpolation:sRGB;color-interpolation-filters:linearRGB;solid-color:#000000;solid-opacity:1;vector-effect:none;fill:none;fill-opacity:1;fill-rule:nonzero;stroke:#000000;stroke-width:0.377953;stroke-linecap:round;stroke-linejoin:round;stroke-miterlimit:4;stroke-dasharray:none;stroke-dashoffset:0;stroke-opacity:1;color-rendering:auto;image-rendering:auto;shape-rendering:auto;text-rendering:auto;enable-background:accumulate;stop-color:#000000"
     d="m 239.74803,0.1421744 c -1.13216,0.0222667 -2.42408,0.0908 -3.81642,0.39861332 h -0.0147 L 26.433565,44.647587 c -0.0272,0.004 -0.05413,0.0093 -0.0812,0.0148 -3.438454,0.80356 -6.762853,2.45724 -9.40452,5.130413 L 5.6683124,61.064946 c -0.02,0.02187 -0.0396,0.04413 -0.059067,0.0664 -3.3480399,3.51948 -5.49862645,8.20728 -5.46998645,13.316947 V 338.38037 c -2.4e-4,0.0247 -2.4e-4,0.0492 0,0.0739 0.0948,4.89986 1.94550655,9.70415 5.52903985,13.2874 h 0.008 l 10.0393732,10.04675 c 0.02187,0.02 0.044,0.0396 0.0664,0.0591 3.524013,3.35644 8.206519,5.47693 13.294786,5.47 H 174.27861 c 3.10993,0.0569 5.96436,1.19028 8.08317,3.31445 v 0.008 L 383.2741,571.92924 c 0.0227,0.0227 0.0488,0.0447 0.0737,0.0665 3.52267,3.34281 8.19217,5.47741 13.28741,5.47 h 2.59844 c 0.0301,3.5e-4 0.0589,3.5e-4 0.0884,0 4.86539,-0.12213 9.68043,-1.9336 13.27264,-5.5438 L 622.00418,362.5121 c 0.0227,-0.0219 0.0447,-0.044 0.0665,-0.0664 3.35441,-3.52461 5.47952,-8.20881 5.47,-13.30216 V 100.88283 c 4.2e-4,-0.0321 4.2e-4,-0.064 0,-0.096 -0.12214,-4.867605 -1.93882,-9.672191 -5.5438,-13.265271 L 599.20907,64.726333 c -0.0227,-0.02227 -0.0488,-0.04467 -0.0737,-0.0664 -2.40989,-2.291467 -5.38748,-4.12776 -8.87304,-4.945867 h 0.0227 C 508.74689,40.03136 427.20331,20.321054 345.67076,0.64417438 344.381,0.36805439 342.90654,0.10680106 341.249,0.1422144 H 239.82183 c -0.0245,-2.5334e-4 -0.0492,-2.5334e-4 -0.0737,0 z"
     id="path2178" /><path
     id="path1290-3"
     style="display:inline;fill:none;fill-opacity:0.500799;fill-rule:evenodd;stroke:#000000;stroke-width:0.377953;stroke-miterlimit:4;stroke-dasharray:none;stroke-opacity:1"
     d="m 218.97391,22.157892 a 4.5354333,4.5354333 0 0 1 -4.53543,4.535434 4.5354333,4.5354333 0 0 1 -4.53544,-4.535434 4.5354333,4.5354333 0 0 1 4.53544,-4.535433 4.5354333,4.5354333 0 0 1 4.53543,4.535433 z" /><path
     id="path1290-6"
     style="display:inline;fill:none;fill-opacity:0.500799;fill-rule:evenodd;stroke:#000000;stroke-width:0.377953;stroke-miterlimit:4;stroke-dasharray:none;stroke-opacity:1"
     d="m 371.28928,22.157892 a 4.5354333,4.5354333 0 0 1 -4.53543,4.535434 4.5354333,4.5354333 0 0 1 -4.53544,-4.535434 4.5354333,4.5354333 0 0 1 4.53544,-4.535433 4.5354333,4.5354333 0 0 1 4.53543,4.535433 z" /><path
     id="path1290-7"
     style="display:inline;fill:none;fill-opacity:0.500799;fill-rule:evenodd;stroke:#000000;stroke-width:0.377953;stroke-miterlimit:4;stroke-dasharray:none;stroke-opacity:1"
     d="m 515.28928,57.590588 a 4.5354333,4.5354333 0 0 1 -4.53543,4.535433 4.5354333,4.5354333 0 0 1 -4.53544,-4.535433 4.5354333,4.5354333 0 0 1 4.53544,-4.535434 4.5354333,4.5354333 0 0 1 4.53543,4.535434 z" /><path
     id="path1290-5"
     style="display:inline;fill:none;fill-opacity:0.500799;fill-rule:evenodd;stroke:#000000;stroke-width:0.377953;stroke-miterlimit:4;stroke-dasharray:none;stroke-opacity:1"
     d="m 615.44718,250.15791 a 4.5354333,4.5354333 0 0 1 -4.53544,4.53544 4.5354333,4.5354333 0 0 1 -4.53543,-4.53544 4.5354333,4.5354333 0 0 1 4.53543,-4.53543 4.5354333,4.5354333 0 0 1 4.53544,4.53543 z" /><path
     id="path1290-35"
     style="display:inline;fill:none;fill-opacity:0.500799;fill-rule:evenodd;stroke:#000000;stroke-width:0.377953;stroke-miterlimit:4;stroke-dasharray:none;stroke-opacity:1"
     d="m 615.44718,350.69263 a 4.5354333,4.5354333 0 0 1 -4.53544,4.53543 4.5354333,4.5354333 0 0 1 -4.53543,-4.53543 4.5354333,4.5354333 0 0 1 4.53543,-4.53544 4.5354333,4.5354333 0 0 1 4.53544,4.53544 z" /><path
     id="path1290-62"
     style="display:inline;fill:none;fill-opacity:0.500799;fill-rule:evenodd;stroke:#000000;stroke-width:0.377953;stroke-miterlimit:4;stroke-dasharray:none;stroke-opacity:1"
     d="m 541.08457,250.15791 a 4.5354333,4.5354333 0 0 1 -4.53544,4.53544 4.5354333,4.5354333 0 0 1 -4.53543,-4.53544 4.5354333,4.5354333 0 0 1 4.53543,-4.53543 4.5354333,4.5354333 0 0 1 4.53544,4.53543 z" /><path
     id="path1290-9"
     style="display:inline;fill:none;fill-opacity:0.500799;fill-rule:evenodd;stroke:#000000;stroke-width:0.377953;stroke-miterlimit:4;stroke-dasharray:none;stroke-opacity:1"
     d="m 388.2966,196.01527 a 4.5354333,4.5354333 0 0 1 -4.53543,4.53544 4.5354333,4.5354333 0 0 1 -4.53543,-4.53544 4.5354333,4.5354333 0 0 1 4.53543,-4.53543 4.5354333,4.5354333 0 0 1 4.53543,4.53543 z" /><path
     id="path1290-1"
     style="display:inline;fill:none;fill-opacity:0.500799;fill-rule:evenodd;stroke:#000000;stroke-width:0.377953;stroke-miterlimit:4;stroke-dasharray:none;stroke-opacity:1"
     d="m 378.28131,350.69263 a 4.5354333,4.5354333 0 0 1 -4.53543,4.53543 4.5354333,4.5354333 0 0 1 -4.53543,-4.53543 4.5354333,4.5354333 0 0 1 4.53543,-4.53544 4.5354333,4.5354333 0 0 1 4.53543,4.53544 z" /><path
     id="path1290-2"
     style="display:inline;fill:none;fill-opacity:0.500799;fill-rule:evenodd;stroke:#000000;stroke-width:0.377953;stroke-miterlimit:4;stroke-dasharray:none;stroke-opacity:1"
     d="m 402.46991,560.83459 a 4.5354333,4.5354333 0 0 1 -4.53543,4.53544 4.5354333,4.5354333 0 0 1 -4.53543,-4.53544 4.5354333,4.5354333 0 0 1 4.53543,-4.53543 4.5354333,4.5354333 0 0 1 4.53543,4.53543 z" /><path
     id="path1290-70"
     style="display:inline;fill:none;fill-opacity:0.500799;fill-rule:evenodd;stroke:#000000;stroke-width:0.377953;stroke-miterlimit:4;stroke-dasharray:none;stroke-opacity:1"
     d="m 189.58859,350.69263 a 4.5354333,4.5354333 0 0 1 -4.53543,4.53543 4.5354333,4.5354333 0 0 1 -4.53543,-4.53543 4.5354333,4.5354333 0 0 1 4.53543,-4.53544 4.5354333,4.5354333 0 0 1 4.53543,4.53544 z" /><path
     id="path1290-93"
     style="display:inline;fill:none;fill-opacity:0.500799;fill-rule:evenodd;stroke:#000000;stroke-width:0.377953;stroke-miterlimit:4;stroke-dasharray:none;stroke-opacity:1"
     d="m 176.64328,177.11794 a 4.5354333,4.5354333 0 0 1 -4.53543,4.53543 4.5354333,4.5354333 0 0 1 -4.53543,-4.53543 4.5354333,4.5354333 0 0 1 4.53543,-4.53544 4.5354333,4.5354333 0 0 1 4.53543,4.53544 z" /><path
     id="path1290-60"
     style="display:inline;fill:none;fill-opacity:0.500799;fill-rule:evenodd;stroke:#000000;stroke-width:0.377953;stroke-miterlimit:4;stroke-dasharray:none;stroke-opacity:1"
     d="m 26.973925,344.92859 a 4.5354333,4.5354333 0 0 1 -4.535433,4.53543 4.5354333,4.5354333 0 0 1 -4.535433,-4.53543 4.5354333,4.5354333 0 0 1 4.535433,-4.53543 4.5354333,4.5354333 0 0 1 4.535433,4.53543 z" /><path
     id="path1290-60-3"
     style="display:inline;fill:none;fill-opacity:0.500799;fill-rule:evenodd;stroke:#000000;stroke-width:0.377953;stroke-miterlimit:4;stroke-dasharray:none;stroke-opacity:1"
     d="m 26.973925,66.849945 a 4.5354333,4.5354333 0 0 1 -4.535433,4.535433 4.5354333,4.5354333 0 0 1 -4.535433,-4.535433 4.5354333,4.5354333 0 0 1 4.535433,-4.535433 4.5354333,4.5354333 0 0 1 4.535433,4.535433 z" /><path
     id="path1290-7-3"
     style="display:inline;fill:none;fill-opacity:0.500799;fill-rule:evenodd;stroke:#000000;stroke-width:0.377953;stroke-miterlimit:4;stroke-dasharray:none;stroke-opacity:1"
     d="m 540.94052,63.775242 a 4.5354333,4.5354333 0 0 1 -4.53543,4.535433 4.5354333,4.5354333 0 0 1 -4.53543,-4.535433 4.5354333,4.5354333 0 0 1 4.53543,-4.535433 4.5354333,4.5354333 0 0 1 4.53543,4.535433 z" /><path
     id="path1290-7-6"
     style="display:inline;fill:none;fill-opacity:0.500799;fill-rule:evenodd;stroke:#000000;stroke-width:0.377953;stroke-miterlimit:4;stroke-dasharray:none;stroke-opacity:1"
     d="m 615.3964,99.680634 a 4.5354333,4.5354333 0 0 1 -4.53544,4.535436 4.5354333,4.5354333 0 0 1 -4.53543,-4.535436 4.5354333,4.5354333 0 0 1 4.53543,-4.535434 4.5354333,4.5354333 0 0 1 4.53544,4.535434 z" /><path
     id="path1290-7-7"
     style="display:inline;fill:none;fill-opacity:0.500799;fill-rule:evenodd;stroke:#000000;stroke-width:0.377953;stroke-miterlimit:4;stroke-dasharray:none;stroke-opacity:1"
     d="m 615.39627,224.40459 a 4.5354333,4.5354333 0 0 1 -4.53543,4.53543 4.5354333,4.5354333 0 0 1 -4.53543,-4.53543 4.5354333,4.5354333 0 0 1 4.53543,-4.53544 4.5354333,4.5354333 0 0 1 4.53543,4.53544 z" /><path
     id="path1290-7-5"
     style="display:inline;fill:none;fill-opacity:0.500799;fill-rule:evenodd;stroke:#000000;stroke-width:0.377953;stroke-miterlimit:4;stroke-dasharray:none;stroke-opacity:1"
     d="m 541.03519,224.40459 a 4.5354333,4.5354333 0 0 1 -4.53543,4.53543 4.5354333,4.5354333 0 0 1 -4.53544,-4.53543 4.5354333,4.5354333 0 0 1 4.53544,-4.53544 4.5354333,4.5354333 0 0 1 4.53543,4.53544 z" /></svg>
