  0
SECTION
  2
HEADER
  9
$ACADVER
  1
AC1014
  9
$HANDSEED
  5
FFFF
  9
$INSUNITS
 70
     0
  9
$MEASUREMENT
 70
     1
  0
ENDSEC
  0
SECTION
  2
TABLES
  0
TABLE
  2
VPORT
  5
8
330
0
100
AcDbSymbolTable
 70
     4
  0
VPORT
  5
2E
330
8
100
AcDbSymbolTableRecord
100
AcDbViewportTableRecord
  2
*ACTIVE
 70
     0
 10
0.0
 20
0.0
 11
1.0
 21
1.0
 12
210.0
 22
148.5
 13
0.0
 23
0.0
 14
10.0
 24
10.0
 15
10.0
 25
10.0
 16
0.0
 26
0.0
 36
1.0
 17
0.0
 27
0.0
 37
0.0
 40
341.0
 41
1.24
 42
50.0
 43
0.0
 44
0.0
 50
0.0
 51
0.0
 71
     0
 72
   100
 73
     1
 74
     3
 75
     0
 76
     0
 77
     0
 78
     0
  0
ENDTAB
  0
TABLE
  2
LTYPE
  5
5
330
0
100
AcDbSymbolTable
 70
     1
  0
LTYPE
  5
14
330
5
100
AcDbSymbolTableRecord
100
AcDbLinetypeTableRecord
  2
BYBLOCK
 70
     0
  3

 72
    65
 73
     0
 40
0.0
  0
LTYPE
  5
15
330
5
100
AcDbSymbolTableRecord
100
AcDbLinetypeTableRecord
  2
BYLAYER
 70
     0
  3

 72
    65
 73
     0
 40
0.0
  0
LTYPE
  5
16
330
5
100
AcDbSymbolTableRecord
100
AcDbLinetypeTableRecord
  2
CONTINUOUS
 70
     0
  3
Solid line
 72
    65
 73
     0
 40
0.0
  0
ENDTAB
  0
TABLE
  2
LAYER
  5
2
100
AcDbSymbolTable
 70
1
  0
LAYER
  5
50
100
AcDbSymbolTableRecord
100
AcDbLayerTableRecord
  2
0
 70
0
  6
CONTINUOUS
  0
ENDTAB
  0
TABLE
  2
STYLE
  5
3
330
0
100
AcDbSymbolTable
 70
     1
  0
STYLE
  5
11
330
3
100
AcDbSymbolTableRecord
100
AcDbTextStyleTableRecord
  2
STANDARD
 70
     0
 40
0.0
 41
1.0
 50
0.0
 71
     0
 42
2.5
  3
txt
  4

  0
ENDTAB
  0
TABLE
  2
VIEW
  5
6
330
0
100
AcDbSymbolTable
 70
     0
  0
ENDTAB
  0
TABLE
  2
UCS
  5
7
330
0
100
AcDbSymbolTable
 70
     0
  0
ENDTAB
  0
TABLE
  2
APPID
  5
9
330
0
100
AcDbSymbolTable
 70
     2
  0
APPID
  5
12
330
9
100
AcDbSymbolTableRecord
100
AcDbRegAppTableRecord
  2
ACAD
 70
     0
  0
ENDTAB
  0
TABLE
  2
DIMSTYLE
  5
A
330
0
100
AcDbSymbolTable
 70
     1
  0
DIMSTYLE
105
27
330
A
100
AcDbSymbolTableRecord
100
AcDbDimStyleTableRecord
  2
ISO-25
 70
     0
  3

  4

  5

  6

  7

 40
1.0
 41
2.5
 42
0.625
 43
3.75
 44
1.25
 45
0.0
 46
0.0
 47
0.0
 48
0.0
140
2.5
141
2.5
142
0.0
143
0.03937007874016
144
1.0
145
0.0
146
1.0
147
0.625
 71
     0
 72
     0
 73
     0
 74
     0
 75
     0
 76
     0
 77
     1
 78
     8
170
     0
171
     3
172
     1
173
     0
174
     0
175
     0
176
     0
177
     0
178
     0
270
     2
271
     2
272
     2
273
     2
274
     3
340
11
275
     0
280
     0
281
     0
282
     0
283
     0
284
     8
285
     0
286
     0
287
     3
288
     0
  0
ENDTAB
  0
TABLE
  2
BLOCK_RECORD
  5
1
330
0
100
AcDbSymbolTable
 70
     1
  0
BLOCK_RECORD
  5
1F
330
1
100
AcDbSymbolTableRecord
100
AcDbBlockTableRecord
  2
*MODEL_SPACE
  0
BLOCK_RECORD
  5
1B
330
1
100
AcDbSymbolTableRecord
100
AcDbBlockTableRecord
  2
*PAPER_SPACE
  0
ENDTAB
  0
ENDSEC
  0
SECTION
  2
BLOCKS
  0
BLOCK
  5
20
330
1F
100
AcDbEntity
  8
0
100
AcDbBlockBegin
  2
*MODEL_SPACE
 70
     0
 10
0.0
 20
0.0
 30
0.0
  3
*MODEL_SPACE
  1

  0
ENDBLK
  5
21
330
1F
100
AcDbEntity
  8
0
100
AcDbBlockEnd
  0
BLOCK
  5
1C
330
1B
100
AcDbEntity
 67
     1
  8
0
100
AcDbBlockBegin
  2
*PAPER_SPACE
  1

  0
ENDBLK
  5
1D
330
1B
100
AcDbEntity
 67
     1
  8
0
100
AcDbBlockEnd
  0
ENDSEC
  0
SECTION
  2
ENTITIES
  0
SPLINE
  5
100
100
AcDbEntity
  8
0
 62
7
100
AcDbSpline
 70
8
 71
3
 72
8
 73
4
 74
0
 40
0
 40
0
 40
0
 40
0
 40
1
 40
1
 40
1
 40
1
 10
239.748030
 20
577.462806
 30
0.0
 10
238.615870
 20
577.440539
 30
0.0
 10
237.323950
 20
577.372006
 30
0.0
 10
235.931610
 20
577.064192
 30
0.0
  0
SPLINE
  5
101
100
AcDbEntity
  8
0
 62
7
100
AcDbSpline
 70
8
 71
3
 72
8
 73
4
 74
0
 40
0
 40
0
 40
0
 40
0
 40
1
 40
1
 40
1
 40
1
 10
26.433565
 20
532.957393
 30
0.0
 10
26.406365
 20
532.953393
 30
0.0
 10
26.379435
 20
532.948093
 30
0.0
 10
26.352365
 20
532.942593
 30
0.0
  0
SPLINE
  5
102
100
AcDbEntity
  8
0
 62
7
100
AcDbSpline
 70
8
 71
3
 72
8
 73
4
 74
0
 40
0
 40
0
 40
0
 40
0
 40
1
 40
1
 40
1
 40
1
 10
26.352365
 20
532.942593
 30
0.0
 10
22.913911
 20
532.139033
 30
0.0
 10
19.589512
 20
530.485353
 30
0.0
 10
16.947845
 20
527.812180
 30
0.0
  0
LWPOLYLINE
  5
103
100
AcDbEntity
  8
0
 62
7
100
AcDbPolyline
 90
3
 70
0
 10
235.931610
 20
577.064192
 30
0.0
 10
235.916910
 20
577.064192
 30
0.0
 10
26.433565
 20
532.957393
 30
0.0
  0
SPLINE
  5
104
100
AcDbEntity
  8
0
 62
7
100
AcDbSpline
 70
8
 71
3
 72
8
 73
4
 74
0
 40
0
 40
0
 40
0
 40
0
 40
1
 40
1
 40
1
 40
1
 10
5.668312
 20
516.540034
 30
0.0
 10
5.648312
 20
516.518164
 30
0.0
 10
5.628712
 20
516.495904
 30
0.0
 10
5.609245
 20
516.473634
 30
0.0
  0
SPLINE
  5
105
100
AcDbEntity
  8
0
 62
7
100
AcDbSpline
 70
8
 71
3
 72
8
 73
4
 74
0
 40
0
 40
0
 40
0
 40
0
 40
1
 40
1
 40
1
 40
1
 10
5.609245
 20
516.473634
 30
0.0
 10
2.261205
 20
512.954154
 30
0.0
 10
0.110619
 20
508.266354
 30
0.0
 10
0.139259
 20
503.156687
 30
0.0
  0
LWPOLYLINE
  5
106
100
AcDbEntity
  8
0
 62
7
100
AcDbPolyline
 90
2
 70
0
 10
16.947845
 20
527.812180
 30
0.0
 10
5.668312
 20
516.540034
 30
0.0
  0
SPLINE
  5
107
100
AcDbEntity
  8
0
 62
7
100
AcDbSpline
 70
8
 71
3
 72
8
 73
4
 74
0
 40
0
 40
0
 40
0
 40
0
 40
1
 40
1
 40
1
 40
1
 10
0.139259
 20
239.224610
 30
0.0
 10
0.139019
 20
239.199910
 30
0.0
 10
0.139019
 20
239.175410
 30
0.0
 10
0.139259
 20
239.150710
 30
0.0
  0
SPLINE
  5
108
100
AcDbEntity
  8
0
 62
7
100
AcDbSpline
 70
8
 71
3
 72
8
 73
4
 74
0
 40
0
 40
0
 40
0
 40
0
 40
1
 40
1
 40
1
 40
1
 10
0.139259
 20
239.150710
 30
0.0
 10
0.234059
 20
234.250850
 30
0.0
 10
2.084765
 20
229.446560
 30
0.0
 10
5.668299
 20
225.863310
 30
0.0
  0
LWPOLYLINE
  5
109
100
AcDbEntity
  8
0
 62
7
100
AcDbPolyline
 90
2
 70
0
 10
0.139259
 20
503.156687
 30
0.0
 10
0.139259
 20
239.224610
 30
0.0
  0
SPLINE
  5
10a
100
AcDbEntity
  8
0
 62
7
100
AcDbSpline
 70
8
 71
3
 72
8
 73
4
 74
0
 40
0
 40
0
 40
0
 40
0
 40
1
 40
1
 40
1
 40
1
 10
15.715672
 20
215.816560
 30
0.0
 10
15.737542
 20
215.796560
 30
0.0
 10
15.759672
 20
215.776960
 30
0.0
 10
15.782072
 20
215.757460
 30
0.0
  0
SPLINE
  5
10b
100
AcDbEntity
  8
0
 62
7
100
AcDbSpline
 70
8
 71
3
 72
8
 73
4
 74
0
 40
0
 40
0
 40
0
 40
0
 40
1
 40
1
 40
1
 40
1
 10
15.782072
 20
215.757460
 30
0.0
 10
19.306085
 20
212.401020
 30
0.0
 10
23.988591
 20
210.280530
 30
0.0
 10
29.076858
 20
210.287460
 30
0.0
  0
LWPOLYLINE
  5
10c
100
AcDbEntity
  8
0
 62
7
100
AcDbPolyline
 90
3
 70
0
 10
5.668299
 20
225.863310
 30
0.0
 10
5.676299
 20
225.863310
 30
0.0
 10
15.715672
 20
215.816560
 30
0.0
  0
SPLINE
  5
10d
100
AcDbEntity
  8
0
 62
7
100
AcDbSpline
 70
8
 71
3
 72
8
 73
4
 74
0
 40
0
 40
0
 40
0
 40
0
 40
1
 40
1
 40
1
 40
1
 10
174.278610
 20
210.287460
 30
0.0
 10
177.388540
 20
210.230560
 30
0.0
 10
180.242970
 20
209.097180
 30
0.0
 10
182.361780
 20
206.973010
 30
0.0
  0
LWPOLYLINE
  5
10e
100
AcDbEntity
  8
0
 62
7
100
AcDbPolyline
 90
2
 70
0
 10
29.076858
 20
210.287460
 30
0.0
 10
174.278610
 20
210.287460
 30
0.0
  0
SPLINE
  5
10f
100
AcDbEntity
  8
0
 62
7
100
AcDbSpline
 70
8
 71
3
 72
8
 73
4
 74
0
 40
0
 40
0
 40
0
 40
0
 40
1
 40
1
 40
1
 40
1
 10
383.274100
 20
5.675740
 30
0.0
 10
383.296800
 20
5.653040
 30
0.0
 10
383.322900
 20
5.631040
 30
0.0
 10
383.347800
 20
5.609240
 30
0.0
  0
SPLINE
  5
110
100
AcDbEntity
  8
0
 62
7
100
AcDbSpline
 70
8
 71
3
 72
8
 73
4
 74
0
 40
0
 40
0
 40
0
 40
0
 40
1
 40
1
 40
1
 40
1
 10
383.347800
 20
5.609240
 30
0.0
 10
386.870470
 20
2.266430
 30
0.0
 10
391.539970
 20
0.131830
 30
0.0
 10
396.635210
 20
0.139240
 30
0.0
  0
LWPOLYLINE
  5
111
100
AcDbEntity
  8
0
 62
7
100
AcDbPolyline
 90
3
 70
0
 10
182.361780
 20
206.973010
 30
0.0
 10
182.361780
 20
206.965010
 30
0.0
 10
383.274100
 20
5.675740
 30
0.0
  0
SPLINE
  5
112
100
AcDbEntity
  8
0
 62
7
100
AcDbSpline
 70
8
 71
3
 72
8
 73
4
 74
0
 40
0
 40
0
 40
0
 40
0
 40
1
 40
1
 40
1
 40
1
 10
399.233650
 20
0.139240
 30
0.0
 10
399.263750
 20
0.138890
 30
0.0
 10
399.292550
 20
0.138890
 30
0.0
 10
399.322050
 20
0.139240
 30
0.0
  0
SPLINE
  5
113
100
AcDbEntity
  8
0
 62
7
100
AcDbSpline
 70
8
 71
3
 72
8
 73
4
 74
0
 40
0
 40
0
 40
0
 40
0
 40
1
 40
1
 40
1
 40
1
 10
399.322050
 20
0.139240
 30
0.0
 10
404.187440
 20
0.261370
 30
0.0
 10
409.002480
 20
2.072840
 30
0.0
 10
412.594690
 20
5.683040
 30
0.0
  0
LWPOLYLINE
  5
114
100
AcDbEntity
  8
0
 62
7
100
AcDbPolyline
 90
2
 70
0
 10
396.635210
 20
0.139240
 30
0.0
 10
399.233650
 20
0.139240
 30
0.0
  0
SPLINE
  5
115
100
AcDbEntity
  8
0
 62
7
100
AcDbSpline
 70
8
 71
3
 72
8
 73
4
 74
0
 40
0
 40
0
 40
0
 40
0
 40
1
 40
1
 40
1
 40
1
 10
622.004180
 20
215.092880
 30
0.0
 10
622.026880
 20
215.114780
 30
0.0
 10
622.048880
 20
215.136880
 30
0.0
 10
622.070680
 20
215.159280
 30
0.0
  0
SPLINE
  5
116
100
AcDbEntity
  8
0
 62
7
100
AcDbSpline
 70
8
 71
3
 72
8
 73
4
 74
0
 40
0
 40
0
 40
0
 40
0
 40
1
 40
1
 40
1
 40
1
 10
622.070680
 20
215.159280
 30
0.0
 10
625.425090
 20
218.683890
 30
0.0
 10
627.550200
 20
223.368090
 30
0.0
 10
627.540680
 20
228.461440
 30
0.0
  0
LWPOLYLINE
  5
117
100
AcDbEntity
  8
0
 62
7
100
AcDbPolyline
 90
2
 70
0
 10
412.594690
 20
5.683040
 30
0.0
 10
622.004180
 20
215.092880
 30
0.0
  0
SPLINE
  5
118
100
AcDbEntity
  8
0
 62
7
100
AcDbSpline
 70
8
 71
3
 72
8
 73
4
 74
0
 40
0
 40
0
 40
0
 40
0
 40
1
 40
1
 40
1
 40
1
 10
627.540680
 20
476.722150
 30
0.0
 10
627.541100
 20
476.754250
 30
0.0
 10
627.541100
 20
476.786150
 30
0.0
 10
627.540680
 20
476.818150
 30
0.0
  0
SPLINE
  5
119
100
AcDbEntity
  8
0
 62
7
100
AcDbSpline
 70
8
 71
3
 72
8
 73
4
 74
0
 40
0
 40
0
 40
0
 40
0
 40
1
 40
1
 40
1
 40
1
 10
627.540680
 20
476.818150
 30
0.0
 10
627.418540
 20
481.685755
 30
0.0
 10
625.601860
 20
486.490341
 30
0.0
 10
621.996880
 20
490.083421
 30
0.0
  0
LWPOLYLINE
  5
11a
100
AcDbEntity
  8
0
 62
7
100
AcDbPolyline
 90
2
 70
0
 10
627.540680
 20
228.461440
 30
0.0
 10
627.540680
 20
476.722150
 30
0.0
  0
SPLINE
  5
11b
100
AcDbEntity
  8
0
 62
7
100
AcDbSpline
 70
8
 71
3
 72
8
 73
4
 74
0
 40
0
 40
0
 40
0
 40
0
 40
1
 40
1
 40
1
 40
1
 10
599.209070
 20
512.878647
 30
0.0
 10
599.186370
 20
512.900917
 30
0.0
 10
599.160270
 20
512.923317
 30
0.0
 10
599.135370
 20
512.945047
 30
0.0
  0
SPLINE
  5
11c
100
AcDbEntity
  8
0
 62
7
100
AcDbSpline
 70
8
 71
3
 72
8
 73
4
 74
0
 40
0
 40
0
 40
0
 40
0
 40
1
 40
1
 40
1
 40
1
 10
599.135370
 20
512.945047
 30
0.0
 10
596.725480
 20
515.236514
 30
0.0
 10
593.747890
 20
517.072807
 30
0.0
 10
590.262330
 20
517.890914
 30
0.0
  0
LWPOLYLINE
  5
11d
100
AcDbEntity
  8
0
 62
7
100
AcDbPolyline
 90
2
 70
0
 10
621.996880
 20
490.083421
 30
0.0
 10
599.209070
 20
512.878647
 30
0.0
  0
SPLINE
  5
11e
100
AcDbEntity
  8
0
 62
7
100
AcDbSpline
 70
8
 71
3
 72
8
 73
4
 74
0
 40
0
 40
0
 40
0
 40
0
 40
1
 40
1
 40
1
 40
1
 10
590.285030
 20
517.890914
 30
0.0
 10
508.746890
 20
537.573620
 30
0.0
 10
427.203310
 20
557.283926
 30
0.0
 10
345.670760
 20
576.960806
 30
0.0
  0
SPLINE
  5
11f
100
AcDbEntity
  8
0
 62
7
100
AcDbSpline
 70
8
 71
3
 72
8
 73
4
 74
0
 40
0
 40
0
 40
0
 40
0
 40
1
 40
1
 40
1
 40
1
 10
345.670760
 20
576.960806
 30
0.0
 10
344.381000
 20
577.236926
 30
0.0
 10
342.906540
 20
577.498179
 30
0.0
 10
341.249000
 20
577.462766
 30
0.0
  0
LWPOLYLINE
  5
120
100
AcDbEntity
  8
0
 62
7
100
AcDbPolyline
 90
2
 70
0
 10
590.262330
 20
517.890914
 30
0.0
 10
590.285030
 20
517.890914
 30
0.0
  0
SPLINE
  5
121
100
AcDbEntity
  8
0
 62
7
100
AcDbSpline
 70
8
 71
3
 72
8
 73
4
 74
0
 40
0
 40
0
 40
0
 40
0
 40
1
 40
1
 40
1
 40
1
 10
239.821830
 20
577.462766
 30
0.0
 10
239.797330
 20
577.463019
 30
0.0
 10
239.772630
 20
577.463019
 30
0.0
 10
239.748130
 20
577.462766
 30
0.0
  0
LWPOLYLINE
  5
122
100
AcDbEntity
  8
0
 62
7
100
AcDbPolyline
 90
2
 70
0
 10
341.249000
 20
577.462766
 30
0.0
 10
239.821830
 20
577.462766
 30
0.0
  0
SPLINE
  5
123
100
AcDbEntity
  8
0
 62
7
100
AcDbSpline
 70
8
 71
3
 72
8
 73
4
 74
0
 40
0
 40
0
 40
0
 40
0
 40
1
 40
1
 40
1
 40
1
 10
218.973910
 20
555.447088
 30
0.0
 10
218.973910
 20
552.942238
 30
0.0
 10
216.943330
 20
550.911656
 30
0.0
 10
214.438480
 20
550.911654
 30
0.0
  0
SPLINE
  5
124
100
AcDbEntity
  8
0
 62
7
100
AcDbSpline
 70
8
 71
3
 72
8
 73
4
 74
0
 40
0
 40
0
 40
0
 40
0
 40
1
 40
1
 40
1
 40
1
 10
214.438480
 20
550.911654
 30
0.0
 10
213.235607
 20
550.911652
 30
0.0
 10
212.082000
 20
551.389490
 30
0.0
 10
211.231440
 20
552.240050
 30
0.0
  0
SPLINE
  5
125
100
AcDbEntity
  8
0
 62
7
100
AcDbSpline
 70
8
 71
3
 72
8
 73
4
 74
0
 40
0
 40
0
 40
0
 40
0
 40
1
 40
1
 40
1
 40
1
 10
211.231440
 20
552.240050
 30
0.0
 10
210.380880
 20
553.090609
 30
0.0
 10
209.903040
 20
554.244215
 30
0.0
 10
209.903040
 20
555.447088
 30
0.0
  0
SPLINE
  5
126
100
AcDbEntity
  8
0
 62
7
100
AcDbSpline
 70
8
 71
3
 72
8
 73
4
 74
0
 40
0
 40
0
 40
0
 40
0
 40
1
 40
1
 40
1
 40
1
 10
209.903040
 20
555.447088
 30
0.0
 10
209.903040
 20
556.649961
 30
0.0
 10
210.380880
 20
557.803567
 30
0.0
 10
211.231440
 20
558.654126
 30
0.0
  0
SPLINE
  5
127
100
AcDbEntity
  8
0
 62
7
100
AcDbSpline
 70
8
 71
3
 72
8
 73
4
 74
0
 40
0
 40
0
 40
0
 40
0
 40
1
 40
1
 40
1
 40
1
 10
211.231440
 20
558.654126
 30
0.0
 10
212.082000
 20
559.504685
 30
0.0
 10
213.235607
 20
559.982523
 30
0.0
 10
214.438480
 20
559.982521
 30
0.0
  0
SPLINE
  5
128
100
AcDbEntity
  8
0
 62
7
100
AcDbSpline
 70
8
 71
3
 72
8
 73
4
 74
0
 40
0
 40
0
 40
0
 40
0
 40
1
 40
1
 40
1
 40
1
 10
214.438480
 20
559.982521
 30
0.0
 10
216.943329
 20
559.982519
 30
0.0
 10
218.973910
 20
557.951937
 30
0.0
 10
218.973910
 20
555.447088
 30
0.0
  0
LWPOLYLINE
  5
129
100
AcDbEntity
  8
0
 62
7
100
AcDbPolyline
 90
2
 70
0
 10
239.748130
 20
577.462766
 30
0.0
 10
239.748030
 20
577.462806
 30
0.0
  0
SPLINE
  5
12a
100
AcDbEntity
  8
0
 62
7
100
AcDbSpline
 70
8
 71
3
 72
8
 73
4
 74
0
 40
0
 40
0
 40
0
 40
0
 40
1
 40
1
 40
1
 40
1
 10
371.289280
 20
555.447088
 30
0.0
 10
371.289280
 20
552.942238
 30
0.0
 10
369.258700
 20
550.911656
 30
0.0
 10
366.753850
 20
550.911654
 30
0.0
  0
SPLINE
  5
12b
100
AcDbEntity
  8
0
 62
7
100
AcDbSpline
 70
8
 71
3
 72
8
 73
4
 74
0
 40
0
 40
0
 40
0
 40
0
 40
1
 40
1
 40
1
 40
1
 10
366.753850
 20
550.911654
 30
0.0
 10
365.550977
 20
550.911652
 30
0.0
 10
364.397370
 20
551.389490
 30
0.0
 10
363.546810
 20
552.240050
 30
0.0
  0
SPLINE
  5
12c
100
AcDbEntity
  8
0
 62
7
100
AcDbSpline
 70
8
 71
3
 72
8
 73
4
 74
0
 40
0
 40
0
 40
0
 40
0
 40
1
 40
1
 40
1
 40
1
 10
363.546810
 20
552.240050
 30
0.0
 10
362.696250
 20
553.090609
 30
0.0
 10
362.218410
 20
554.244215
 30
0.0
 10
362.218410
 20
555.447088
 30
0.0
  0
SPLINE
  5
12d
100
AcDbEntity
  8
0
 62
7
100
AcDbSpline
 70
8
 71
3
 72
8
 73
4
 74
0
 40
0
 40
0
 40
0
 40
0
 40
1
 40
1
 40
1
 40
1
 10
362.218410
 20
555.447088
 30
0.0
 10
362.218410
 20
556.649961
 30
0.0
 10
362.696250
 20
557.803567
 30
0.0
 10
363.546810
 20
558.654126
 30
0.0
  0
SPLINE
  5
12e
100
AcDbEntity
  8
0
 62
7
100
AcDbSpline
 70
8
 71
3
 72
8
 73
4
 74
0
 40
0
 40
0
 40
0
 40
0
 40
1
 40
1
 40
1
 40
1
 10
363.546810
 20
558.654126
 30
0.0
 10
364.397370
 20
559.504685
 30
0.0
 10
365.550977
 20
559.982523
 30
0.0
 10
366.753850
 20
559.982521
 30
0.0
  0
SPLINE
  5
12f
100
AcDbEntity
  8
0
 62
7
100
AcDbSpline
 70
8
 71
3
 72
8
 73
4
 74
0
 40
0
 40
0
 40
0
 40
0
 40
1
 40
1
 40
1
 40
1
 10
366.753850
 20
559.982521
 30
0.0
 10
369.258699
 20
559.982519
 30
0.0
 10
371.289280
 20
557.951937
 30
0.0
 10
371.289280
 20
555.447088
 30
0.0
  0
LWPOLYLINE
  5
130
100
AcDbEntity
  8
0
 62
7
100
AcDbPolyline
 90
1
 70
1
 10
218.973910
 20
555.447088
 30
0.0
  0
SPLINE
  5
131
100
AcDbEntity
  8
0
 62
7
100
AcDbSpline
 70
8
 71
3
 72
8
 73
4
 74
0
 40
0
 40
0
 40
0
 40
0
 40
1
 40
1
 40
1
 40
1
 10
515.289280
 20
520.014392
 30
0.0
 10
515.289280
 20
517.509543
 30
0.0
 10
513.258699
 20
515.478961
 30
0.0
 10
510.753850
 20
515.478959
 30
0.0
  0
SPLINE
  5
132
100
AcDbEntity
  8
0
 62
7
100
AcDbSpline
 70
8
 71
3
 72
8
 73
4
 74
0
 40
0
 40
0
 40
0
 40
0
 40
1
 40
1
 40
1
 40
1
 10
510.753850
 20
515.478959
 30
0.0
 10
509.550977
 20
515.478957
 30
0.0
 10
508.397370
 20
515.956795
 30
0.0
 10
507.546810
 20
516.807354
 30
0.0
  0
SPLINE
  5
133
100
AcDbEntity
  8
0
 62
7
100
AcDbSpline
 70
8
 71
3
 72
8
 73
4
 74
0
 40
0
 40
0
 40
0
 40
0
 40
1
 40
1
 40
1
 40
1
 10
507.546810
 20
516.807354
 30
0.0
 10
506.696250
 20
517.657913
 30
0.0
 10
506.218410
 20
518.811519
 30
0.0
 10
506.218410
 20
520.014392
 30
0.0
  0
SPLINE
  5
134
100
AcDbEntity
  8
0
 62
7
100
AcDbSpline
 70
8
 71
3
 72
8
 73
4
 74
0
 40
0
 40
0
 40
0
 40
0
 40
1
 40
1
 40
1
 40
1
 10
506.218410
 20
520.014392
 30
0.0
 10
506.218410
 20
521.217265
 30
0.0
 10
506.696250
 20
522.370871
 30
0.0
 10
507.546810
 20
523.221430
 30
0.0
  0
SPLINE
  5
135
100
AcDbEntity
  8
0
 62
7
100
AcDbSpline
 70
8
 71
3
 72
8
 73
4
 74
0
 40
0
 40
0
 40
0
 40
0
 40
1
 40
1
 40
1
 40
1
 10
507.546810
 20
523.221430
 30
0.0
 10
508.397370
 20
524.071990
 30
0.0
 10
509.550977
 20
524.549828
 30
0.0
 10
510.753850
 20
524.549826
 30
0.0
  0
SPLINE
  5
136
100
AcDbEntity
  8
0
 62
7
100
AcDbSpline
 70
8
 71
3
 72
8
 73
4
 74
0
 40
0
 40
0
 40
0
 40
0
 40
1
 40
1
 40
1
 40
1
 10
510.753850
 20
524.549826
 30
0.0
 10
513.258700
 20
524.549824
 30
0.0
 10
515.289280
 20
522.519242
 30
0.0
 10
515.289280
 20
520.014392
 30
0.0
  0
LWPOLYLINE
  5
137
100
AcDbEntity
  8
0
 62
7
100
AcDbPolyline
 90
1
 70
1
 10
371.289280
 20
555.447088
 30
0.0
  0
SPLINE
  5
138
100
AcDbEntity
  8
0
 62
7
100
AcDbSpline
 70
8
 71
3
 72
8
 73
4
 74
0
 40
0
 40
0
 40
0
 40
0
 40
1
 40
1
 40
1
 40
1
 10
615.447180
 20
327.447070
 30
0.0
 10
615.447182
 20
326.244196
 30
0.0
 10
614.969343
 20
325.090588
 30
0.0
 10
614.118782
 20
324.240028
 30
0.0
  0
SPLINE
  5
139
100
AcDbEntity
  8
0
 62
7
100
AcDbSpline
 70
8
 71
3
 72
8
 73
4
 74
0
 40
0
 40
0
 40
0
 40
0
 40
1
 40
1
 40
1
 40
1
 10
614.118782
 20
324.240028
 30
0.0
 10
613.268222
 20
323.389467
 30
0.0
 10
612.114614
 20
322.911628
 30
0.0
 10
610.911740
 20
322.911630
 30
0.0
  0
SPLINE
  5
13a
100
AcDbEntity
  8
0
 62
7
100
AcDbSpline
 70
8
 71
3
 72
8
 73
4
 74
0
 40
0
 40
0
 40
0
 40
0
 40
1
 40
1
 40
1
 40
1
 10
610.911740
 20
322.911630
 30
0.0
 10
609.708868
 20
322.911631
 30
0.0
 10
608.555262
 20
323.389471
 30
0.0
 10
607.704704
 20
324.240031
 30
0.0
  0
SPLINE
  5
13b
100
AcDbEntity
  8
0
 62
7
100
AcDbSpline
 70
8
 71
3
 72
8
 73
4
 74
0
 40
0
 40
0
 40
0
 40
0
 40
1
 40
1
 40
1
 40
1
 10
607.704704
 20
324.240031
 30
0.0
 10
606.854146
 20
325.090591
 30
0.0
 10
606.376308
 20
326.244198
 30
0.0
 10
606.376310
 20
327.447070
 30
0.0
  0
SPLINE
  5
13c
100
AcDbEntity
  8
0
 62
7
100
AcDbSpline
 70
8
 71
3
 72
8
 73
4
 74
0
 40
0
 40
0
 40
0
 40
0
 40
1
 40
1
 40
1
 40
1
 10
606.376310
 20
327.447070
 30
0.0
 10
606.376312
 20
329.951918
 30
0.0
 10
608.406892
 20
331.982498
 30
0.0
 10
610.911740
 20
331.982500
 30
0.0
  0
SPLINE
  5
13d
100
AcDbEntity
  8
0
 62
7
100
AcDbSpline
 70
8
 71
3
 72
8
 73
4
 74
0
 40
0
 40
0
 40
0
 40
0
 40
1
 40
1
 40
1
 40
1
 10
610.911740
 20
331.982500
 30
0.0
 10
612.114612
 20
331.982502
 30
0.0
 10
613.268219
 20
331.504664
 30
0.0
 10
614.118779
 20
330.654106
 30
0.0
  0
SPLINE
  5
13e
100
AcDbEntity
  8
0
 62
7
100
AcDbSpline
 70
8
 71
3
 72
8
 73
4
 74
0
 40
0
 40
0
 40
0
 40
0
 40
1
 40
1
 40
1
 40
1
 10
614.118779
 20
330.654106
 30
0.0
 10
614.969339
 20
329.803548
 30
0.0
 10
615.447179
 20
328.649942
 30
0.0
 10
615.447180
 20
327.447070
 30
0.0
  0
LWPOLYLINE
  5
13f
100
AcDbEntity
  8
0
 62
7
100
AcDbPolyline
 90
1
 70
1
 10
515.289280
 20
520.014392
 30
0.0
  0
SPLINE
  5
140
100
AcDbEntity
  8
0
 62
7
100
AcDbSpline
 70
8
 71
3
 72
8
 73
4
 74
0
 40
0
 40
0
 40
0
 40
0
 40
1
 40
1
 40
1
 40
1
 10
615.447180
 20
226.912350
 30
0.0
 10
615.447179
 20
225.709478
 30
0.0
 10
614.969339
 20
224.555872
 30
0.0
 10
614.118779
 20
223.705314
 30
0.0
  0
SPLINE
  5
141
100
AcDbEntity
  8
0
 62
7
100
AcDbSpline
 70
8
 71
3
 72
8
 73
4
 74
0
 40
0
 40
0
 40
0
 40
0
 40
1
 40
1
 40
1
 40
1
 10
614.118779
 20
223.705314
 30
0.0
 10
613.268219
 20
222.854756
 30
0.0
 10
612.114612
 20
222.376918
 30
0.0
 10
610.911740
 20
222.376920
 30
0.0
  0
SPLINE
  5
142
100
AcDbEntity
  8
0
 62
7
100
AcDbSpline
 70
8
 71
3
 72
8
 73
4
 74
0
 40
0
 40
0
 40
0
 40
0
 40
1
 40
1
 40
1
 40
1
 10
610.911740
 20
222.376920
 30
0.0
 10
608.406892
 20
222.376922
 30
0.0
 10
606.376312
 20
224.407502
 30
0.0
 10
606.376310
 20
226.912350
 30
0.0
  0
SPLINE
  5
143
100
AcDbEntity
  8
0
 62
7
100
AcDbSpline
 70
8
 71
3
 72
8
 73
4
 74
0
 40
0
 40
0
 40
0
 40
0
 40
1
 40
1
 40
1
 40
1
 10
606.376310
 20
226.912350
 30
0.0
 10
606.376308
 20
228.115222
 30
0.0
 10
606.854146
 20
229.268829
 30
0.0
 10
607.704704
 20
230.119389
 30
0.0
  0
SPLINE
  5
144
100
AcDbEntity
  8
0
 62
7
100
AcDbSpline
 70
8
 71
3
 72
8
 73
4
 74
0
 40
0
 40
0
 40
0
 40
0
 40
1
 40
1
 40
1
 40
1
 10
607.704704
 20
230.119389
 30
0.0
 10
608.555262
 20
230.969949
 30
0.0
 10
609.708868
 20
231.447789
 30
0.0
 10
610.911740
 20
231.447790
 30
0.0
  0
SPLINE
  5
145
100
AcDbEntity
  8
0
 62
7
100
AcDbSpline
 70
8
 71
3
 72
8
 73
4
 74
0
 40
0
 40
0
 40
0
 40
0
 40
1
 40
1
 40
1
 40
1
 10
610.911740
 20
231.447790
 30
0.0
 10
612.114614
 20
231.447792
 30
0.0
 10
613.268222
 20
230.969953
 30
0.0
 10
614.118782
 20
230.119392
 30
0.0
  0
SPLINE
  5
146
100
AcDbEntity
  8
0
 62
7
100
AcDbSpline
 70
8
 71
3
 72
8
 73
4
 74
0
 40
0
 40
0
 40
0
 40
0
 40
1
 40
1
 40
1
 40
1
 10
614.118782
 20
230.119392
 30
0.0
 10
614.969343
 20
229.268832
 30
0.0
 10
615.447182
 20
228.115224
 30
0.0
 10
615.447180
 20
226.912350
 30
0.0
  0
LWPOLYLINE
  5
147
100
AcDbEntity
  8
0
 62
7
100
AcDbPolyline
 90
1
 70
1
 10
615.447180
 20
327.447070
 30
0.0
  0
SPLINE
  5
148
100
AcDbEntity
  8
0
 62
7
100
AcDbSpline
 70
8
 71
3
 72
8
 73
4
 74
0
 40
0
 40
0
 40
0
 40
0
 40
1
 40
1
 40
1
 40
1
 10
541.084570
 20
327.447070
 30
0.0
 10
541.084572
 20
326.244196
 30
0.0
 10
540.606733
 20
325.090588
 30
0.0
 10
539.756172
 20
324.240028
 30
0.0
  0
SPLINE
  5
149
100
AcDbEntity
  8
0
 62
7
100
AcDbSpline
 70
8
 71
3
 72
8
 73
4
 74
0
 40
0
 40
0
 40
0
 40
0
 40
1
 40
1
 40
1
 40
1
 10
539.756172
 20
324.240028
 30
0.0
 10
538.905612
 20
323.389467
 30
0.0
 10
537.752004
 20
322.911628
 30
0.0
 10
536.549130
 20
322.911630
 30
0.0
  0
SPLINE
  5
14a
100
AcDbEntity
  8
0
 62
7
100
AcDbSpline
 70
8
 71
3
 72
8
 73
4
 74
0
 40
0
 40
0
 40
0
 40
0
 40
1
 40
1
 40
1
 40
1
 10
536.549130
 20
322.911630
 30
0.0
 10
535.346258
 20
322.911631
 30
0.0
 10
534.192652
 20
323.389471
 30
0.0
 10
533.342094
 20
324.240031
 30
0.0
  0
SPLINE
  5
14b
100
AcDbEntity
  8
0
 62
7
100
AcDbSpline
 70
8
 71
3
 72
8
 73
4
 74
0
 40
0
 40
0
 40
0
 40
0
 40
1
 40
1
 40
1
 40
1
 10
533.342094
 20
324.240031
 30
0.0
 10
532.491536
 20
325.090591
 30
0.0
 10
532.013698
 20
326.244198
 30
0.0
 10
532.013700
 20
327.447070
 30
0.0
  0
SPLINE
  5
14c
100
AcDbEntity
  8
0
 62
7
100
AcDbSpline
 70
8
 71
3
 72
8
 73
4
 74
0
 40
0
 40
0
 40
0
 40
0
 40
1
 40
1
 40
1
 40
1
 10
532.013700
 20
327.447070
 30
0.0
 10
532.013702
 20
329.951918
 30
0.0
 10
534.044282
 20
331.982498
 30
0.0
 10
536.549130
 20
331.982500
 30
0.0
  0
SPLINE
  5
14d
100
AcDbEntity
  8
0
 62
7
100
AcDbSpline
 70
8
 71
3
 72
8
 73
4
 74
0
 40
0
 40
0
 40
0
 40
0
 40
1
 40
1
 40
1
 40
1
 10
536.549130
 20
331.982500
 30
0.0
 10
537.752002
 20
331.982502
 30
0.0
 10
538.905609
 20
331.504664
 30
0.0
 10
539.756169
 20
330.654106
 30
0.0
  0
SPLINE
  5
14e
100
AcDbEntity
  8
0
 62
7
100
AcDbSpline
 70
8
 71
3
 72
8
 73
4
 74
0
 40
0
 40
0
 40
0
 40
0
 40
1
 40
1
 40
1
 40
1
 10
539.756169
 20
330.654106
 30
0.0
 10
540.606729
 20
329.803548
 30
0.0
 10
541.084569
 20
328.649942
 30
0.0
 10
541.084570
 20
327.447070
 30
0.0
  0
LWPOLYLINE
  5
14f
100
AcDbEntity
  8
0
 62
7
100
AcDbPolyline
 90
1
 70
1
 10
615.447180
 20
226.912350
 30
0.0
  0
SPLINE
  5
150
100
AcDbEntity
  8
0
 62
7
100
AcDbSpline
 70
8
 71
3
 72
8
 73
4
 74
0
 40
0
 40
0
 40
0
 40
0
 40
1
 40
1
 40
1
 40
1
 10
388.296600
 20
381.589710
 30
0.0
 10
388.296602
 20
380.386838
 30
0.0
 10
387.818764
 20
379.233231
 30
0.0
 10
386.968206
 20
378.382671
 30
0.0
  0
SPLINE
  5
151
100
AcDbEntity
  8
0
 62
7
100
AcDbSpline
 70
8
 71
3
 72
8
 73
4
 74
0
 40
0
 40
0
 40
0
 40
0
 40
1
 40
1
 40
1
 40
1
 10
386.968206
 20
378.382671
 30
0.0
 10
386.117648
 20
377.532111
 30
0.0
 10
384.964042
 20
377.054271
 30
0.0
 10
383.761170
 20
377.054270
 30
0.0
  0
SPLINE
  5
152
100
AcDbEntity
  8
0
 62
7
100
AcDbSpline
 70
8
 71
3
 72
8
 73
4
 74
0
 40
0
 40
0
 40
0
 40
0
 40
1
 40
1
 40
1
 40
1
 10
383.761170
 20
377.054270
 30
0.0
 10
382.558298
 20
377.054271
 30
0.0
 10
381.404692
 20
377.532111
 30
0.0
 10
380.554134
 20
378.382671
 30
0.0
  0
SPLINE
  5
153
100
AcDbEntity
  8
0
 62
7
100
AcDbSpline
 70
8
 71
3
 72
8
 73
4
 74
0
 40
0
 40
0
 40
0
 40
0
 40
1
 40
1
 40
1
 40
1
 10
380.554134
 20
378.382671
 30
0.0
 10
379.703576
 20
379.233231
 30
0.0
 10
379.225738
 20
380.386838
 30
0.0
 10
379.225740
 20
381.589710
 30
0.0
  0
SPLINE
  5
154
100
AcDbEntity
  8
0
 62
7
100
AcDbSpline
 70
8
 71
3
 72
8
 73
4
 74
0
 40
0
 40
0
 40
0
 40
0
 40
1
 40
1
 40
1
 40
1
 10
379.225740
 20
381.589710
 30
0.0
 10
379.225742
 20
384.094558
 30
0.0
 10
381.256322
 20
386.125138
 30
0.0
 10
383.761170
 20
386.125140
 30
0.0
  0
SPLINE
  5
155
100
AcDbEntity
  8
0
 62
7
100
AcDbSpline
 70
8
 71
3
 72
8
 73
4
 74
0
 40
0
 40
0
 40
0
 40
0
 40
1
 40
1
 40
1
 40
1
 10
383.761170
 20
386.125140
 30
0.0
 10
386.266018
 20
386.125138
 30
0.0
 10
388.296598
 20
384.094558
 30
0.0
 10
388.296600
 20
381.589710
 30
0.0
  0
LWPOLYLINE
  5
156
100
AcDbEntity
  8
0
 62
7
100
AcDbPolyline
 90
1
 70
1
 10
541.084570
 20
327.447070
 30
0.0
  0
SPLINE
  5
157
100
AcDbEntity
  8
0
 62
7
100
AcDbSpline
 70
8
 71
3
 72
8
 73
4
 74
0
 40
0
 40
0
 40
0
 40
0
 40
1
 40
1
 40
1
 40
1
 10
378.281310
 20
226.912350
 30
0.0
 10
378.281308
 20
224.407502
 30
0.0
 10
376.250728
 20
222.376922
 30
0.0
 10
373.745880
 20
222.376920
 30
0.0
  0
SPLINE
  5
158
100
AcDbEntity
  8
0
 62
7
100
AcDbSpline
 70
8
 71
3
 72
8
 73
4
 74
0
 40
0
 40
0
 40
0
 40
0
 40
1
 40
1
 40
1
 40
1
 10
373.745880
 20
222.376920
 30
0.0
 10
371.241032
 20
222.376922
 30
0.0
 10
369.210452
 20
224.407502
 30
0.0
 10
369.210450
 20
226.912350
 30
0.0
  0
SPLINE
  5
159
100
AcDbEntity
  8
0
 62
7
100
AcDbSpline
 70
8
 71
3
 72
8
 73
4
 74
0
 40
0
 40
0
 40
0
 40
0
 40
1
 40
1
 40
1
 40
1
 10
369.210450
 20
226.912350
 30
0.0
 10
369.210448
 20
228.115222
 30
0.0
 10
369.688286
 20
229.268829
 30
0.0
 10
370.538844
 20
230.119389
 30
0.0
  0
SPLINE
  5
15a
100
AcDbEntity
  8
0
 62
7
100
AcDbSpline
 70
8
 71
3
 72
8
 73
4
 74
0
 40
0
 40
0
 40
0
 40
0
 40
1
 40
1
 40
1
 40
1
 10
370.538844
 20
230.119389
 30
0.0
 10
371.389402
 20
230.969949
 30
0.0
 10
372.543008
 20
231.447789
 30
0.0
 10
373.745880
 20
231.447790
 30
0.0
  0
SPLINE
  5
15b
100
AcDbEntity
  8
0
 62
7
100
AcDbSpline
 70
8
 71
3
 72
8
 73
4
 74
0
 40
0
 40
0
 40
0
 40
0
 40
1
 40
1
 40
1
 40
1
 10
373.745880
 20
231.447790
 30
0.0
 10
374.948752
 20
231.447789
 30
0.0
 10
376.102358
 20
230.969949
 30
0.0
 10
376.952916
 20
230.119389
 30
0.0
  0
SPLINE
  5
15c
100
AcDbEntity
  8
0
 62
7
100
AcDbSpline
 70
8
 71
3
 72
8
 73
4
 74
0
 40
0
 40
0
 40
0
 40
0
 40
1
 40
1
 40
1
 40
1
 10
376.952916
 20
230.119389
 30
0.0
 10
377.803474
 20
229.268829
 30
0.0
 10
378.281312
 20
228.115222
 30
0.0
 10
378.281310
 20
226.912350
 30
0.0
  0
LWPOLYLINE
  5
15d
100
AcDbEntity
  8
0
 62
7
100
AcDbPolyline
 90
1
 70
1
 10
388.296600
 20
381.589710
 30
0.0
  0
SPLINE
  5
15e
100
AcDbEntity
  8
0
 62
7
100
AcDbSpline
 70
8
 71
3
 72
8
 73
4
 74
0
 40
0
 40
0
 40
0
 40
0
 40
1
 40
1
 40
1
 40
1
 10
402.469910
 20
16.770390
 30
0.0
 10
402.469912
 20
15.567518
 30
0.0
 10
401.992074
 20
14.413911
 30
0.0
 10
401.141516
 20
13.563351
 30
0.0
  0
SPLINE
  5
15f
100
AcDbEntity
  8
0
 62
7
100
AcDbSpline
 70
8
 71
3
 72
8
 73
4
 74
0
 40
0
 40
0
 40
0
 40
0
 40
1
 40
1
 40
1
 40
1
 10
401.141516
 20
13.563351
 30
0.0
 10
400.290958
 20
12.712791
 30
0.0
 10
399.137352
 20
12.234951
 30
0.0
 10
397.934480
 20
12.234950
 30
0.0
  0
SPLINE
  5
160
100
AcDbEntity
  8
0
 62
7
100
AcDbSpline
 70
8
 71
3
 72
8
 73
4
 74
0
 40
0
 40
0
 40
0
 40
0
 40
1
 40
1
 40
1
 40
1
 10
397.934480
 20
12.234950
 30
0.0
 10
396.731608
 20
12.234951
 30
0.0
 10
395.578002
 20
12.712791
 30
0.0
 10
394.727444
 20
13.563351
 30
0.0
  0
SPLINE
  5
161
100
AcDbEntity
  8
0
 62
7
100
AcDbSpline
 70
8
 71
3
 72
8
 73
4
 74
0
 40
0
 40
0
 40
0
 40
0
 40
1
 40
1
 40
1
 40
1
 10
394.727444
 20
13.563351
 30
0.0
 10
393.876886
 20
14.413911
 30
0.0
 10
393.399048
 20
15.567518
 30
0.0
 10
393.399050
 20
16.770390
 30
0.0
  0
SPLINE
  5
162
100
AcDbEntity
  8
0
 62
7
100
AcDbSpline
 70
8
 71
3
 72
8
 73
4
 74
0
 40
0
 40
0
 40
0
 40
0
 40
1
 40
1
 40
1
 40
1
 10
393.399050
 20
16.770390
 30
0.0
 10
393.399052
 20
19.275238
 30
0.0
 10
395.429632
 20
21.305818
 30
0.0
 10
397.934480
 20
21.305820
 30
0.0
  0
SPLINE
  5
163
100
AcDbEntity
  8
0
 62
7
100
AcDbSpline
 70
8
 71
3
 72
8
 73
4
 74
0
 40
0
 40
0
 40
0
 40
0
 40
1
 40
1
 40
1
 40
1
 10
397.934480
 20
21.305820
 30
0.0
 10
400.439328
 20
21.305818
 30
0.0
 10
402.469908
 20
19.275238
 30
0.0
 10
402.469910
 20
16.770390
 30
0.0
  0
LWPOLYLINE
  5
164
100
AcDbEntity
  8
0
 62
7
100
AcDbPolyline
 90
1
 70
1
 10
378.281310
 20
226.912350
 30
0.0
  0
SPLINE
  5
165
100
AcDbEntity
  8
0
 62
7
100
AcDbSpline
 70
8
 71
3
 72
8
 73
4
 74
0
 40
0
 40
0
 40
0
 40
0
 40
1
 40
1
 40
1
 40
1
 10
189.588590
 20
226.912350
 30
0.0
 10
189.588588
 20
224.407502
 30
0.0
 10
187.558008
 20
222.376922
 30
0.0
 10
185.053160
 20
222.376920
 30
0.0
  0
SPLINE
  5
166
100
AcDbEntity
  8
0
 62
7
100
AcDbSpline
 70
8
 71
3
 72
8
 73
4
 74
0
 40
0
 40
0
 40
0
 40
0
 40
1
 40
1
 40
1
 40
1
 10
185.053160
 20
222.376920
 30
0.0
 10
182.548312
 20
222.376922
 30
0.0
 10
180.517732
 20
224.407502
 30
0.0
 10
180.517730
 20
226.912350
 30
0.0
  0
SPLINE
  5
167
100
AcDbEntity
  8
0
 62
7
100
AcDbSpline
 70
8
 71
3
 72
8
 73
4
 74
0
 40
0
 40
0
 40
0
 40
0
 40
1
 40
1
 40
1
 40
1
 10
180.517730
 20
226.912350
 30
0.0
 10
180.517728
 20
228.115222
 30
0.0
 10
180.995566
 20
229.268829
 30
0.0
 10
181.846124
 20
230.119389
 30
0.0
  0
SPLINE
  5
168
100
AcDbEntity
  8
0
 62
7
100
AcDbSpline
 70
8
 71
3
 72
8
 73
4
 74
0
 40
0
 40
0
 40
0
 40
0
 40
1
 40
1
 40
1
 40
1
 10
181.846124
 20
230.119389
 30
0.0
 10
182.696682
 20
230.969949
 30
0.0
 10
183.850288
 20
231.447789
 30
0.0
 10
185.053160
 20
231.447790
 30
0.0
  0
SPLINE
  5
169
100
AcDbEntity
  8
0
 62
7
100
AcDbSpline
 70
8
 71
3
 72
8
 73
4
 74
0
 40
0
 40
0
 40
0
 40
0
 40
1
 40
1
 40
1
 40
1
 10
185.053160
 20
231.447790
 30
0.0
 10
186.256032
 20
231.447789
 30
0.0
 10
187.409638
 20
230.969949
 30
0.0
 10
188.260196
 20
230.119389
 30
0.0
  0
SPLINE
  5
16a
100
AcDbEntity
  8
0
 62
7
100
AcDbSpline
 70
8
 71
3
 72
8
 73
4
 74
0
 40
0
 40
0
 40
0
 40
0
 40
1
 40
1
 40
1
 40
1
 10
188.260196
 20
230.119389
 30
0.0
 10
189.110754
 20
229.268829
 30
0.0
 10
189.588592
 20
228.115222
 30
0.0
 10
189.588590
 20
226.912350
 30
0.0
  0
LWPOLYLINE
  5
16b
100
AcDbEntity
  8
0
 62
7
100
AcDbPolyline
 90
1
 70
1
 10
402.469910
 20
16.770390
 30
0.0
  0
SPLINE
  5
16c
100
AcDbEntity
  8
0
 62
7
100
AcDbSpline
 70
8
 71
3
 72
8
 73
4
 74
0
 40
0
 40
0
 40
0
 40
0
 40
1
 40
1
 40
1
 40
1
 10
176.643280
 20
400.487040
 30
0.0
 10
176.643278
 20
397.982192
 30
0.0
 10
174.612698
 20
395.951612
 30
0.0
 10
172.107850
 20
395.951610
 30
0.0
  0
SPLINE
  5
16d
100
AcDbEntity
  8
0
 62
7
100
AcDbSpline
 70
8
 71
3
 72
8
 73
4
 74
0
 40
0
 40
0
 40
0
 40
0
 40
1
 40
1
 40
1
 40
1
 10
172.107850
 20
395.951610
 30
0.0
 10
169.603002
 20
395.951612
 30
0.0
 10
167.572422
 20
397.982192
 30
0.0
 10
167.572420
 20
400.487040
 30
0.0
  0
SPLINE
  5
16e
100
AcDbEntity
  8
0
 62
7
100
AcDbSpline
 70
8
 71
3
 72
8
 73
4
 74
0
 40
0
 40
0
 40
0
 40
0
 40
1
 40
1
 40
1
 40
1
 10
167.572420
 20
400.487040
 30
0.0
 10
167.572418
 20
401.689912
 30
0.0
 10
168.050256
 20
402.843519
 30
0.0
 10
168.900814
 20
403.694079
 30
0.0
  0
SPLINE
  5
16f
100
AcDbEntity
  8
0
 62
7
100
AcDbSpline
 70
8
 71
3
 72
8
 73
4
 74
0
 40
0
 40
0
 40
0
 40
0
 40
1
 40
1
 40
1
 40
1
 10
168.900814
 20
403.694079
 30
0.0
 10
169.751372
 20
404.544639
 30
0.0
 10
170.904978
 20
405.022479
 30
0.0
 10
172.107850
 20
405.022480
 30
0.0
  0
SPLINE
  5
170
100
AcDbEntity
  8
0
 62
7
100
AcDbSpline
 70
8
 71
3
 72
8
 73
4
 74
0
 40
0
 40
0
 40
0
 40
0
 40
1
 40
1
 40
1
 40
1
 10
172.107850
 20
405.022480
 30
0.0
 10
173.310722
 20
405.022479
 30
0.0
 10
174.464328
 20
404.544639
 30
0.0
 10
175.314886
 20
403.694079
 30
0.0
  0
SPLINE
  5
171
100
AcDbEntity
  8
0
 62
7
100
AcDbSpline
 70
8
 71
3
 72
8
 73
4
 74
0
 40
0
 40
0
 40
0
 40
0
 40
1
 40
1
 40
1
 40
1
 10
175.314886
 20
403.694079
 30
0.0
 10
176.165444
 20
402.843519
 30
0.0
 10
176.643282
 20
401.689912
 30
0.0
 10
176.643280
 20
400.487040
 30
0.0
  0
LWPOLYLINE
  5
172
100
AcDbEntity
  8
0
 62
7
100
AcDbPolyline
 90
1
 70
1
 10
189.588590
 20
226.912350
 30
0.0
  0
SPLINE
  5
173
100
AcDbEntity
  8
0
 62
7
100
AcDbSpline
 70
8
 71
3
 72
8
 73
4
 74
0
 40
0
 40
0
 40
0
 40
0
 40
1
 40
1
 40
1
 40
1
 10
26.973925
 20
232.676390
 30
0.0
 10
26.973923
 20
230.171541
 30
0.0
 10
24.943341
 20
228.140960
 30
0.0
 10
22.438492
 20
228.140960
 30
0.0
  0
SPLINE
  5
174
100
AcDbEntity
  8
0
 62
7
100
AcDbSpline
 70
8
 71
3
 72
8
 73
4
 74
0
 40
0
 40
0
 40
0
 40
0
 40
1
 40
1
 40
1
 40
1
 10
22.438492
 20
228.140960
 30
0.0
 10
19.933643
 20
228.140960
 30
0.0
 10
17.903061
 20
230.171541
 30
0.0
 10
17.903059
 20
232.676390
 30
0.0
  0
SPLINE
  5
175
100
AcDbEntity
  8
0
 62
7
100
AcDbSpline
 70
8
 71
3
 72
8
 73
4
 74
0
 40
0
 40
0
 40
0
 40
0
 40
1
 40
1
 40
1
 40
1
 10
17.903059
 20
232.676390
 30
0.0
 10
17.903061
 20
235.181239
 30
0.0
 10
19.933643
 20
237.211820
 30
0.0
 10
22.438492
 20
237.211820
 30
0.0
  0
SPLINE
  5
176
100
AcDbEntity
  8
0
 62
7
100
AcDbSpline
 70
8
 71
3
 72
8
 73
4
 74
0
 40
0
 40
0
 40
0
 40
0
 40
1
 40
1
 40
1
 40
1
 10
22.438492
 20
237.211820
 30
0.0
 10
24.943341
 20
237.211820
 30
0.0
 10
26.973923
 20
235.181239
 30
0.0
 10
26.973925
 20
232.676390
 30
0.0
  0
LWPOLYLINE
  5
177
100
AcDbEntity
  8
0
 62
7
100
AcDbPolyline
 90
1
 70
1
 10
176.643280
 20
400.487040
 30
0.0
  0
SPLINE
  5
178
100
AcDbEntity
  8
0
 62
7
100
AcDbSpline
 70
8
 71
3
 72
8
 73
4
 74
0
 40
0
 40
0
 40
0
 40
0
 40
1
 40
1
 40
1
 40
1
 10
26.973925
 20
510.755035
 30
0.0
 10
26.973925
 20
508.250185
 30
0.0
 10
24.943342
 20
506.219602
 30
0.0
 10
22.438492
 20
506.219602
 30
0.0
  0
SPLINE
  5
179
100
AcDbEntity
  8
0
 62
7
100
AcDbSpline
 70
8
 71
3
 72
8
 73
4
 74
0
 40
0
 40
0
 40
0
 40
0
 40
1
 40
1
 40
1
 40
1
 10
22.438492
 20
506.219602
 30
0.0
 10
19.933642
 20
506.219602
 30
0.0
 10
17.903059
 20
508.250185
 30
0.0
 10
17.903059
 20
510.755035
 30
0.0
  0
SPLINE
  5
17a
100
AcDbEntity
  8
0
 62
7
100
AcDbSpline
 70
8
 71
3
 72
8
 73
4
 74
0
 40
0
 40
0
 40
0
 40
0
 40
1
 40
1
 40
1
 40
1
 10
17.903059
 20
510.755035
 30
0.0
 10
17.903059
 20
513.259885
 30
0.0
 10
19.933642
 20
515.290468
 30
0.0
 10
22.438492
 20
515.290468
 30
0.0
  0
SPLINE
  5
17b
100
AcDbEntity
  8
0
 62
7
100
AcDbSpline
 70
8
 71
3
 72
8
 73
4
 74
0
 40
0
 40
0
 40
0
 40
0
 40
1
 40
1
 40
1
 40
1
 10
22.438492
 20
515.290468
 30
0.0
 10
24.943342
 20
515.290468
 30
0.0
 10
26.973925
 20
513.259885
 30
0.0
 10
26.973925
 20
510.755035
 30
0.0
  0
LWPOLYLINE
  5
17c
100
AcDbEntity
  8
0
 62
7
100
AcDbPolyline
 90
1
 70
1
 10
26.973925
 20
232.676390
 30
0.0
  0
SPLINE
  5
17d
100
AcDbEntity
  8
0
 62
7
100
AcDbSpline
 70
8
 71
3
 72
8
 73
4
 74
0
 40
0
 40
0
 40
0
 40
0
 40
1
 40
1
 40
1
 40
1
 10
540.940520
 20
513.829738
 30
0.0
 10
540.940520
 20
511.324889
 30
0.0
 10
538.909939
 20
509.294307
 30
0.0
 10
536.405090
 20
509.294305
 30
0.0
  0
SPLINE
  5
17e
100
AcDbEntity
  8
0
 62
7
100
AcDbSpline
 70
8
 71
3
 72
8
 73
4
 74
0
 40
0
 40
0
 40
0
 40
0
 40
1
 40
1
 40
1
 40
1
 10
536.405090
 20
509.294305
 30
0.0
 10
533.900241
 20
509.294307
 30
0.0
 10
531.869660
 20
511.324889
 30
0.0
 10
531.869660
 20
513.829738
 30
0.0
  0
SPLINE
  5
17f
100
AcDbEntity
  8
0
 62
7
100
AcDbSpline
 70
8
 71
3
 72
8
 73
4
 74
0
 40
0
 40
0
 40
0
 40
0
 40
1
 40
1
 40
1
 40
1
 10
531.869660
 20
513.829738
 30
0.0
 10
531.869660
 20
516.334587
 30
0.0
 10
533.900241
 20
518.365169
 30
0.0
 10
536.405090
 20
518.365171
 30
0.0
  0
SPLINE
  5
180
100
AcDbEntity
  8
0
 62
7
100
AcDbSpline
 70
8
 71
3
 72
8
 73
4
 74
0
 40
0
 40
0
 40
0
 40
0
 40
1
 40
1
 40
1
 40
1
 10
536.405090
 20
518.365171
 30
0.0
 10
538.909939
 20
518.365169
 30
0.0
 10
540.940520
 20
516.334587
 30
0.0
 10
540.940520
 20
513.829738
 30
0.0
  0
LWPOLYLINE
  5
181
100
AcDbEntity
  8
0
 62
7
100
AcDbPolyline
 90
1
 70
1
 10
26.973925
 20
510.755035
 30
0.0
  0
SPLINE
  5
182
100
AcDbEntity
  8
0
 62
7
100
AcDbSpline
 70
8
 71
3
 72
8
 73
4
 74
0
 40
0
 40
0
 40
0
 40
0
 40
1
 40
1
 40
1
 40
1
 10
615.396400
 20
477.924346
 30
0.0
 10
615.396401
 20
476.721473
 30
0.0
 10
614.918561
 20
475.567866
 30
0.0
 10
614.068001
 20
474.717306
 30
0.0
  0
SPLINE
  5
183
100
AcDbEntity
  8
0
 62
7
100
AcDbSpline
 70
8
 71
3
 72
8
 73
4
 74
0
 40
0
 40
0
 40
0
 40
0
 40
1
 40
1
 40
1
 40
1
 10
614.068001
 20
474.717306
 30
0.0
 10
613.217441
 20
473.866747
 30
0.0
 10
612.063833
 20
473.388908
 30
0.0
 10
610.860960
 20
473.388910
 30
0.0
  0
SPLINE
  5
184
100
AcDbEntity
  8
0
 62
7
100
AcDbSpline
 70
8
 71
3
 72
8
 73
4
 74
0
 40
0
 40
0
 40
0
 40
0
 40
1
 40
1
 40
1
 40
1
 10
610.860960
 20
473.388910
 30
0.0
 10
608.356110
 20
473.388912
 30
0.0
 10
606.325529
 20
475.419496
 30
0.0
 10
606.325530
 20
477.924346
 30
0.0
  0
SPLINE
  5
185
100
AcDbEntity
  8
0
 62
7
100
AcDbSpline
 70
8
 71
3
 72
8
 73
4
 74
0
 40
0
 40
0
 40
0
 40
0
 40
1
 40
1
 40
1
 40
1
 10
606.325530
 20
477.924346
 30
0.0
 10
606.325530
 20
480.429196
 30
0.0
 10
608.356110
 20
482.459778
 30
0.0
 10
610.860960
 20
482.459780
 30
0.0
  0
SPLINE
  5
186
100
AcDbEntity
  8
0
 62
7
100
AcDbSpline
 70
8
 71
3
 72
8
 73
4
 74
0
 40
0
 40
0
 40
0
 40
0
 40
1
 40
1
 40
1
 40
1
 10
610.860960
 20
482.459780
 30
0.0
 10
612.063833
 20
482.459782
 30
0.0
 10
613.217440
 20
481.981944
 30
0.0
 10
614.068000
 20
481.131384
 30
0.0
  0
SPLINE
  5
187
100
AcDbEntity
  8
0
 62
7
100
AcDbSpline
 70
8
 71
3
 72
8
 73
4
 74
0
 40
0
 40
0
 40
0
 40
0
 40
1
 40
1
 40
1
 40
1
 10
614.068000
 20
481.131384
 30
0.0
 10
614.918560
 20
480.280825
 30
0.0
 10
615.396400
 20
479.127219
 30
0.0
 10
615.396400
 20
477.924346
 30
0.0
  0
LWPOLYLINE
  5
188
100
AcDbEntity
  8
0
 62
7
100
AcDbPolyline
 90
1
 70
1
 10
540.940520
 20
513.829738
 30
0.0
  0
SPLINE
  5
189
100
AcDbEntity
  8
0
 62
7
100
AcDbSpline
 70
8
 71
3
 72
8
 73
4
 74
0
 40
0
 40
0
 40
0
 40
0
 40
1
 40
1
 40
1
 40
1
 10
615.396270
 20
353.200390
 30
0.0
 10
615.396268
 20
350.695542
 30
0.0
 10
613.365688
 20
348.664962
 30
0.0
 10
610.860840
 20
348.664960
 30
0.0
  0
SPLINE
  5
18a
100
AcDbEntity
  8
0
 62
7
100
AcDbSpline
 70
8
 71
3
 72
8
 73
4
 74
0
 40
0
 40
0
 40
0
 40
0
 40
1
 40
1
 40
1
 40
1
 10
610.860840
 20
348.664960
 30
0.0
 10
608.355992
 20
348.664962
 30
0.0
 10
606.325412
 20
350.695542
 30
0.0
 10
606.325410
 20
353.200390
 30
0.0
  0
SPLINE
  5
18b
100
AcDbEntity
  8
0
 62
7
100
AcDbSpline
 70
8
 71
3
 72
8
 73
4
 74
0
 40
0
 40
0
 40
0
 40
0
 40
1
 40
1
 40
1
 40
1
 10
606.325410
 20
353.200390
 30
0.0
 10
606.325408
 20
354.403262
 30
0.0
 10
606.803246
 20
355.556869
 30
0.0
 10
607.653804
 20
356.407429
 30
0.0
  0
SPLINE
  5
18c
100
AcDbEntity
  8
0
 62
7
100
AcDbSpline
 70
8
 71
3
 72
8
 73
4
 74
0
 40
0
 40
0
 40
0
 40
0
 40
1
 40
1
 40
1
 40
1
 10
607.653804
 20
356.407429
 30
0.0
 10
608.504362
 20
357.257989
 30
0.0
 10
609.657968
 20
357.735829
 30
0.0
 10
610.860840
 20
357.735830
 30
0.0
  0
SPLINE
  5
18d
100
AcDbEntity
  8
0
 62
7
100
AcDbSpline
 70
8
 71
3
 72
8
 73
4
 74
0
 40
0
 40
0
 40
0
 40
0
 40
1
 40
1
 40
1
 40
1
 10
610.860840
 20
357.735830
 30
0.0
 10
612.063712
 20
357.735829
 30
0.0
 10
613.217318
 20
357.257989
 30
0.0
 10
614.067876
 20
356.407429
 30
0.0
  0
SPLINE
  5
18e
100
AcDbEntity
  8
0
 62
7
100
AcDbSpline
 70
8
 71
3
 72
8
 73
4
 74
0
 40
0
 40
0
 40
0
 40
0
 40
1
 40
1
 40
1
 40
1
 10
614.067876
 20
356.407429
 30
0.0
 10
614.918434
 20
355.556869
 30
0.0
 10
615.396272
 20
354.403262
 30
0.0
 10
615.396270
 20
353.200390
 30
0.0
  0
LWPOLYLINE
  5
18f
100
AcDbEntity
  8
0
 62
7
100
AcDbPolyline
 90
1
 70
1
 10
615.396400
 20
477.924346
 30
0.0
  0
SPLINE
  5
190
100
AcDbEntity
  8
0
 62
7
100
AcDbSpline
 70
8
 71
3
 72
8
 73
4
 74
0
 40
0
 40
0
 40
0
 40
0
 40
1
 40
1
 40
1
 40
1
 10
541.035190
 20
353.200390
 30
0.0
 10
541.035188
 20
350.695542
 30
0.0
 10
539.004608
 20
348.664962
 30
0.0
 10
536.499760
 20
348.664960
 30
0.0
  0
SPLINE
  5
191
100
AcDbEntity
  8
0
 62
7
100
AcDbSpline
 70
8
 71
3
 72
8
 73
4
 74
0
 40
0
 40
0
 40
0
 40
0
 40
1
 40
1
 40
1
 40
1
 10
536.499760
 20
348.664960
 30
0.0
 10
535.296888
 20
348.664958
 30
0.0
 10
534.143281
 20
349.142796
 30
0.0
 10
533.292721
 20
349.993354
 30
0.0
  0
SPLINE
  5
192
100
AcDbEntity
  8
0
 62
7
100
AcDbSpline
 70
8
 71
3
 72
8
 73
4
 74
0
 40
0
 40
0
 40
0
 40
0
 40
1
 40
1
 40
1
 40
1
 10
533.292721
 20
349.993354
 30
0.0
 10
532.442161
 20
350.843912
 30
0.0
 10
531.964321
 20
351.997518
 30
0.0
 10
531.964320
 20
353.200390
 30
0.0
  0
SPLINE
  5
193
100
AcDbEntity
  8
0
 62
7
100
AcDbSpline
 70
8
 71
3
 72
8
 73
4
 74
0
 40
0
 40
0
 40
0
 40
0
 40
1
 40
1
 40
1
 40
1
 10
531.964320
 20
353.200390
 30
0.0
 10
531.964318
 20
354.403264
 30
0.0
 10
532.442157
 20
355.556872
 30
0.0
 10
533.292718
 20
356.407432
 30
0.0
  0
SPLINE
  5
194
100
AcDbEntity
  8
0
 62
7
100
AcDbSpline
 70
8
 71
3
 72
8
 73
4
 74
0
 40
0
 40
0
 40
0
 40
0
 40
1
 40
1
 40
1
 40
1
 10
533.292718
 20
356.407432
 30
0.0
 10
534.143278
 20
357.257993
 30
0.0
 10
535.296886
 20
357.735832
 30
0.0
 10
536.499760
 20
357.735830
 30
0.0
  0
SPLINE
  5
195
100
AcDbEntity
  8
0
 62
7
100
AcDbSpline
 70
8
 71
3
 72
8
 73
4
 74
0
 40
0
 40
0
 40
0
 40
0
 40
1
 40
1
 40
1
 40
1
 10
536.499760
 20
357.735830
 30
0.0
 10
537.702632
 20
357.735829
 30
0.0
 10
538.856238
 20
357.257989
 30
0.0
 10
539.706796
 20
356.407429
 30
0.0
  0
SPLINE
  5
196
100
AcDbEntity
  8
0
 62
7
100
AcDbSpline
 70
8
 71
3
 72
8
 73
4
 74
0
 40
0
 40
0
 40
0
 40
0
 40
1
 40
1
 40
1
 40
1
 10
539.706796
 20
356.407429
 30
0.0
 10
540.557354
 20
355.556869
 30
0.0
 10
541.035192
 20
354.403262
 30
0.0
 10
541.035190
 20
353.200390
 30
0.0
  0
LWPOLYLINE
  5
197
100
AcDbEntity
  8
0
 62
7
100
AcDbPolyline
 90
1
 70
1
 10
615.396270
 20
353.200390
 30
0.0
  0
LWPOLYLINE
  5
198
100
AcDbEntity
  8
0
 62
7
100
AcDbPolyline
 90
1
 70
1
 10
541.035190
 20
353.200390
 30
0.0
  0
ENDSEC
  0
SECTION
  2
OBJECTS
  0
DICTIONARY
  5
C
330
0
100
AcDbDictionary
  3
ACAD_GROUP
350
D
  3
ACAD_MLINESTYLE
350
17
  0
DICTIONARY
  5
D
330
C
100
AcDbDictionary
  0
DICTIONARY
  5
1A
330
C
100
AcDbDictionary
  0
DICTIONARY
  5
17
330
C
100
AcDbDictionary
  3
STANDARD
350
18
  0
DICTIONARY
  5
19
330
C
100
AcDbDictionary
  0
ENDSEC
  0
EOF
