  0
SECTION
  2
HEADER
  9
$ACADVER
  1
AC1014
  9
$HANDSEED
  5
FFFF
  9
$INSUNITS
 70
     4
  9
$MEASUREMENT
 70
     1
  0
ENDSEC
  0
SECTION
  2
TABLES
  0
TABLE
  2
VPORT
  5
8
330
0
100
AcDbSymbolTable
 70
     4
  0
VPORT
  5
2E
330
8
100
AcDbSymbolTableRecord
100
AcDbViewportTableRecord
  2
*ACTIVE
 70
     0
 10
0.0
 20
0.0
 11
1.0
 21
1.0
 12
210.0
 22
148.5
 13
0.0
 23
0.0
 14
10.0
 24
10.0
 15
10.0
 25
10.0
 16
0.0
 26
0.0
 36
1.0
 17
0.0
 27
0.0
 37
0.0
 40
341.0
 41
1.24
 42
50.0
 43
0.0
 44
0.0
 50
0.0
 51
0.0
 71
     0
 72
   100
 73
     1
 74
     3
 75
     0
 76
     0
 77
     0
 78
     0
  0
ENDTAB
  0
TABLE
  2
LTYPE
  5
5
330
0
100
AcDbSymbolTable
 70
     1
  0
LTYPE
  5
14
330
5
100
AcDbSymbolTableRecord
100
AcDbLinetypeTableRecord
  2
BYBLOCK
 70
     0
  3

 72
    65
 73
     0
 40
0.0
  0
LTYPE
  5
15
330
5
100
AcDbSymbolTableRecord
100
AcDbLinetypeTableRecord
  2
BYLAYER
 70
     0
  3

 72
    65
 73
     0
 40
0.0
  0
LTYPE
  5
16
330
5
100
AcDbSymbolTableRecord
100
AcDbLinetypeTableRecord
  2
CONTINUOUS
 70
     0
  3
Solid line
 72
    65
 73
     0
 40
0.0
  0
ENDTAB
  0
TABLE
  2
LAYER
  5
2
100
AcDbSymbolTable
 70
4
  0
LAYER
  5
50
100
AcDbSymbolTableRecord
100
AcDbLayerTableRecord
  2
0
 70
0
  6
CONTINUOUS
  0
LAYER
  5
51
100
AcDbSymbolTableRecord
100
AcDbLayerTableRecord
  2
Bottom
 70
0
  6
CONTINUOUS
  0
LAYER
  5
52
100
AcDbSymbolTableRecord
100
AcDbLayerTableRecord
  2
Plate
 70
0
  6
CONTINUOUS
  0
LAYER
  5
53
100
AcDbSymbolTableRecord
100
AcDbLayerTableRecord
  2
MCU
 70
0
  6
CONTINUOUS
  0
ENDTAB
  0
TABLE
  2
STYLE
  5
3
330
0
100
AcDbSymbolTable
 70
     1
  0
STYLE
  5
11
330
3
100
AcDbSymbolTableRecord
100
AcDbTextStyleTableRecord
  2
STANDARD
 70
     0
 40
0.0
 41
1.0
 50
0.0
 71
     0
 42
2.5
  3
txt
  4

  0
ENDTAB
  0
TABLE
  2
VIEW
  5
6
330
0
100
AcDbSymbolTable
 70
     0
  0
ENDTAB
  0
TABLE
  2
UCS
  5
7
330
0
100
AcDbSymbolTable
 70
     0
  0
ENDTAB
  0
TABLE
  2
APPID
  5
9
330
0
100
AcDbSymbolTable
 70
     2
  0
APPID
  5
12
330
9
100
AcDbSymbolTableRecord
100
AcDbRegAppTableRecord
  2
ACAD
 70
     0
  0
ENDTAB
  0
TABLE
  2
DIMSTYLE
  5
A
330
0
100
AcDbSymbolTable
 70
     1
  0
DIMSTYLE
105
27
330
A
100
AcDbSymbolTableRecord
100
AcDbDimStyleTableRecord
  2
ISO-25
 70
     0
  3

  4

  5

  6

  7

 40
1.0
 41
2.5
 42
0.625
 43
3.75
 44
1.25
 45
0.0
 46
0.0
 47
0.0
 48
0.0
140
2.5
141
2.5
142
0.0
143
0.03937007874016
144
1.0
145
0.0
146
1.0
147
0.625
 71
     0
 72
     0
 73
     0
 74
     0
 75
     0
 76
     0
 77
     1
 78
     8
170
     0
171
     3
172
     1
173
     0
174
     0
175
     0
176
     0
177
     0
178
     0
270
     2
271
     2
272
     2
273
     2
274
     3
340
11
275
     0
280
     0
281
     0
282
     0
283
     0
284
     8
285
     0
286
     0
287
     3
288
     0
  0
ENDTAB
  0
TABLE
  2
BLOCK_RECORD
  5
1
330
0
100
AcDbSymbolTable
 70
     1
  0
BLOCK_RECORD
  5
1F
330
1
100
AcDbSymbolTableRecord
100
AcDbBlockTableRecord
  2
*MODEL_SPACE
  0
BLOCK_RECORD
  5
1B
330
1
100
AcDbSymbolTableRecord
100
AcDbBlockTableRecord
  2
*PAPER_SPACE
  0
ENDTAB
  0
ENDSEC
  0
SECTION
  2
BLOCKS
  0
BLOCK
  5
20
330
1F
100
AcDbEntity
  8
0
100
AcDbBlockBegin
  2
*MODEL_SPACE
 70
     0
 10
0.0
 20
0.0
 30
0.0
  3
*MODEL_SPACE
  1

  0
ENDBLK
  5
21
330
1F
100
AcDbEntity
  8
0
100
AcDbBlockEnd
  0
BLOCK
  5
1C
330
1B
100
AcDbEntity
 67
     1
  8
0
100
AcDbBlockBegin
  2
*PAPER_SPACE
  1

  0
ENDBLK
  5
1D
330
1B
100
AcDbEntity
 67
     1
  8
0
100
AcDbBlockEnd
  0
ENDSEC
  0
SECTION
  2
ENTITIES
  0
SPLINE
  5
100
100
AcDbEntity
  8
Bottom
 62
7
100
AcDbSpline
 70
8
 71
3
 72
8
 73
4
 74
0
 40
0
 40
0
 40
0
 40
0
 40
1
 40
1
 40
1
 40
1
 10
63.396554
 20
152.750150
 30
0.0
 10
63.097002
 20
152.744258
 30
0.0
 10
62.755183
 20
152.726109
 30
0.0
 10
62.386789
 20
152.644681
 30
0.0
  0
SPLINE
  5
101
100
AcDbEntity
  8
Bottom
 62
7
100
AcDbSpline
 70
8
 71
3
 72
8
 73
4
 74
0
 40
0
 40
0
 40
0
 40
0
 40
1
 40
1
 40
1
 40
1
 10
6.957101
 20
140.974759
 30
0.0
 10
6.949921
 20
140.973559
 30
0.0
 10
6.942764
 20
140.972259
 30
0.0
 10
6.935617
 20
140.970859
 30
0.0
  0
SPLINE
  5
102
100
AcDbEntity
  8
Bottom
 62
7
100
AcDbSpline
 70
8
 71
3
 72
8
 73
4
 74
0
 40
0
 40
0
 40
0
 40
0
 40
1
 40
1
 40
1
 40
1
 10
6.935617
 20
140.970859
 30
0.0
 10
6.025857
 20
140.758250
 30
0.0
 10
5.146280
 20
140.320714
 30
0.0
 10
4.447336
 20
139.613437
 30
0.0
  0
LWPOLYLINE
  5
103
100
AcDbEntity
  8
Bottom
 62
7
100
AcDbPolyline
 90
3
 70
0
 10
62.386789
 20
152.644681
 30
0.0
 10
62.382889
 20
152.644681
 30
0.0
 10
6.957101
 20
140.974759
 30
0.0
  0
SPLINE
  5
104
100
AcDbEntity
  8
Bottom
 62
7
100
AcDbSpline
 70
8
 71
3
 72
8
 73
4
 74
0
 40
0
 40
0
 40
0
 40
0
 40
1
 40
1
 40
1
 40
1
 10
1.462961
 20
136.631015
 30
0.0
 10
1.457684
 20
136.625215
 30
0.0
 10
1.452475
 20
136.619355
 30
0.0
 10
1.447336
 20
136.613435
 30
0.0
  0
SPLINE
  5
105
100
AcDbEntity
  8
Bottom
 62
7
100
AcDbSpline
 70
8
 71
3
 72
8
 73
4
 74
0
 40
0
 40
0
 40
0
 40
0
 40
1
 40
1
 40
1
 40
1
 10
1.447336
 20
136.613435
 30
0.0
 10
0.561499
 20
135.682239
 30
0.0
 10
-0.007509
 20
134.441927
 30
0.0
 10
0.000070
 20
133.089994
 30
0.0
  0
LWPOLYLINE
  5
106
100
AcDbEntity
  8
Bottom
 62
7
100
AcDbPolyline
 90
2
 70
0
 10
4.447336
 20
139.613437
 30
0.0
 10
1.462961
 20
136.631015
 30
0.0
  0
SPLINE
  5
107
100
AcDbEntity
  8
Bottom
 62
7
100
AcDbSpline
 70
8
 71
3
 72
8
 73
4
 74
0
 40
0
 40
0
 40
0
 40
0
 40
1
 40
1
 40
1
 40
1
 10
0.000070
 20
63.257962
 30
0.0
 10
0.000006
 20
63.251462
 30
0.0
 10
0.000006
 20
63.244942
 30
0.0
 10
0.000070
 20
63.238432
 30
0.0
  0
SPLINE
  5
108
100
AcDbEntity
  8
Bottom
 62
7
100
AcDbSpline
 70
8
 71
3
 72
8
 73
4
 74
0
 40
0
 40
0
 40
0
 40
0
 40
1
 40
1
 40
1
 40
1
 10
0.000070
 20
63.238432
 30
0.0
 10
0.025161
 20
61.942011
 30
0.0
 10
0.514818
 20
60.670875
 30
0.0
 10
1.462961
 20
59.722807
 30
0.0
  0
LWPOLYLINE
  5
109
100
AcDbEntity
  8
Bottom
 62
7
100
AcDbPolyline
 90
2
 70
0
 10
0.000070
 20
133.089994
 30
0.0
 10
0.000070
 20
63.257962
 30
0.0
  0
SPLINE
  5
10a
100
AcDbEntity
  8
Bottom
 62
7
100
AcDbSpline
 70
8
 71
3
 72
8
 73
4
 74
0
 40
0
 40
0
 40
0
 40
0
 40
1
 40
1
 40
1
 40
1
 10
4.121164
 20
57.064604
 30
0.0
 10
4.126964
 20
57.059304
 30
0.0
 10
4.132822
 20
57.054114
 30
0.0
 10
4.138742
 20
57.048974
 30
0.0
  0
SPLINE
  5
10b
100
AcDbEntity
  8
Bottom
 62
7
100
AcDbSpline
 70
8
 71
3
 72
8
 73
4
 74
0
 40
0
 40
0
 40
0
 40
0
 40
1
 40
1
 40
1
 40
1
 10
4.138742
 20
57.048974
 30
0.0
 10
5.071137
 20
56.160916
 30
0.0
 10
6.310050
 20
55.599871
 30
0.0
 10
7.656320
 20
55.601708
 30
0.0
  0
LWPOLYLINE
  5
10c
100
AcDbEntity
  8
Bottom
 62
7
100
AcDbPolyline
 90
3
 70
0
 10
1.462961
 20
59.722807
 30
0.0
 10
1.464914
 20
59.722807
 30
0.0
 10
4.121164
 20
57.064604
 30
0.0
  0
SPLINE
  5
10d
100
AcDbEntity
  8
Bottom
 62
7
100
AcDbSpline
 70
8
 71
3
 72
8
 73
4
 74
0
 40
0
 40
0
 40
0
 40
0
 40
1
 40
1
 40
1
 40
1
 10
46.074289
 20
55.601708
 30
0.0
 10
46.897123
 20
55.586638
 30
0.0
 10
47.652355
 20
55.286779
 30
0.0
 10
48.212961
 20
54.724755
 30
0.0
  0
LWPOLYLINE
  5
10e
100
AcDbEntity
  8
Bottom
 62
7
100
AcDbPolyline
 90
2
 70
0
 10
7.656320
 20
55.601708
 30
0.0
 10
46.074289
 20
55.601708
 30
0.0
  0
SPLINE
  5
10f
100
AcDbEntity
  8
Bottom
 62
7
100
AcDbSpline
 70
8
 71
3
 72
8
 73
4
 74
0
 40
0
 40
0
 40
0
 40
0
 40
1
 40
1
 40
1
 40
1
 10
101.371160
 20
1.464940
 30
0.0
 10
101.377160
 20
1.458940
 30
0.0
 10
101.384060
 20
1.453140
 30
0.0
 10
101.390660
 20
1.447340
 30
0.0
  0
SPLINE
  5
110
100
AcDbEntity
  8
Bottom
 62
7
100
AcDbSpline
 70
8
 71
3
 72
8
 73
4
 74
0
 40
0
 40
0
 40
0
 40
0
 40
1
 40
1
 40
1
 40
1
 10
101.390660
 20
1.447340
 30
0.0
 10
102.322700
 20
0.562890
 30
0.0
 10
103.558170
 20
-0.001890
 30
0.0
 10
104.906290
 20
0.000070
 30
0.0
  0
LWPOLYLINE
  5
111
100
AcDbEntity
  8
Bottom
 62
7
100
AcDbPolyline
 90
3
 70
0
 10
48.212961
 20
54.724755
 30
0.0
 10
48.212961
 20
54.722755
 30
0.0
 10
101.371160
 20
1.464940
 30
0.0
  0
SPLINE
  5
112
100
AcDbEntity
  8
Bottom
 62
7
100
AcDbSpline
 70
8
 71
3
 72
8
 73
4
 74
0
 40
0
 40
0
 40
0
 40
0
 40
1
 40
1
 40
1
 40
1
 10
105.593790
 20
0.000070
 30
0.0
 10
105.601790
 20
-0.000020
 30
0.0
 10
105.609390
 20
-0.000020
 30
0.0
 10
105.617190
 20
0.000070
 30
0.0
  0
SPLINE
  5
113
100
AcDbEntity
  8
Bottom
 62
7
100
AcDbSpline
 70
8
 71
3
 72
8
 73
4
 74
0
 40
0
 40
0
 40
0
 40
0
 40
1
 40
1
 40
1
 40
1
 10
105.617190
 20
0.000070
 30
0.0
 10
106.904490
 20
0.032370
 30
0.0
 10
108.178470
 20
0.511670
 30
0.0
 10
109.128910
 20
1.466870
 30
0.0
  0
LWPOLYLINE
  5
114
100
AcDbEntity
  8
Bottom
 62
7
100
AcDbPolyline
 90
2
 70
0
 10
104.906290
 20
0.000070
 30
0.0
 10
105.593790
 20
0.000070
 30
0.0
  0
SPLINE
  5
115
100
AcDbEntity
  8
Bottom
 62
7
100
AcDbSpline
 70
8
 71
3
 72
8
 73
4
 74
0
 40
0
 40
0
 40
0
 40
0
 40
1
 40
1
 40
1
 40
1
 10
164.535160
 20
56.873116
 30
0.0
 10
164.541160
 20
56.878916
 30
0.0
 10
164.546960
 20
56.884766
 30
0.0
 10
164.552760
 20
56.890696
 30
0.0
  0
SPLINE
  5
116
100
AcDbEntity
  8
Bottom
 62
7
100
AcDbSpline
 70
8
 71
3
 72
8
 73
4
 74
0
 40
0
 40
0
 40
0
 40
0
 40
1
 40
1
 40
1
 40
1
 10
164.552760
 20
56.890696
 30
0.0
 10
165.440280
 20
57.823248
 30
0.0
 10
166.002550
 20
59.062610
 30
0.0
 10
166.000030
 20
60.410227
 30
0.0
  0
LWPOLYLINE
  5
117
100
AcDbEntity
  8
Bottom
 62
7
100
AcDbPolyline
 90
2
 70
0
 10
109.128910
 20
1.466870
 30
0.0
 10
164.535160
 20
56.873116
 30
0.0
  0
SPLINE
  5
118
100
AcDbEntity
  8
Bottom
 62
7
100
AcDbSpline
 70
8
 71
3
 72
8
 73
4
 74
0
 40
0
 40
0
 40
0
 40
0
 40
1
 40
1
 40
1
 40
1
 10
166.000030
 20
126.095853
 30
0.0
 10
166.000140
 20
126.104353
 30
0.0
 10
166.000140
 20
126.112783
 30
0.0
 10
166.000030
 20
126.121243
 30
0.0
  0
SPLINE
  5
119
100
AcDbEntity
  8
Bottom
 62
7
100
AcDbSpline
 70
8
 71
3
 72
8
 73
4
 74
0
 40
0
 40
0
 40
0
 40
0
 40
1
 40
1
 40
1
 40
1
 10
166.000030
 20
126.121243
 30
0.0
 10
165.967730
 20
127.409127
 30
0.0
 10
165.487050
 20
128.680340
 30
0.0
 10
164.533230
 20
129.631008
 30
0.0
  0
LWPOLYLINE
  5
11a
100
AcDbEntity
  8
Bottom
 62
7
100
AcDbPolyline
 90
2
 70
0
 10
166.000030
 20
60.410227
 30
0.0
 10
166.000030
 20
126.095853
 30
0.0
  0
SPLINE
  5
11b
100
AcDbEntity
  8
Bottom
 62
7
100
AcDbSpline
 70
8
 71
3
 72
8
 73
4
 74
0
 40
0
 40
0
 40
0
 40
0
 40
1
 40
1
 40
1
 40
1
 10
158.503940
 20
135.662258
 30
0.0
 10
158.497940
 20
135.668158
 30
0.0
 10
158.491040
 20
135.674058
 30
0.0
 10
158.484440
 20
135.679838
 30
0.0
  0
SPLINE
  5
11c
100
AcDbEntity
  8
Bottom
 62
7
100
AcDbSpline
 70
8
 71
3
 72
8
 73
4
 74
0
 40
0
 40
0
 40
0
 40
0
 40
1
 40
1
 40
1
 40
1
 10
158.484440
 20
135.679838
 30
0.0
 10
157.846820
 20
136.286122
 30
0.0
 10
157.059000
 20
136.771972
 30
0.0
 10
156.136780
 20
136.988431
 30
0.0
  0
LWPOLYLINE
  5
11d
100
AcDbEntity
  8
Bottom
 62
7
100
AcDbPolyline
 90
2
 70
0
 10
164.533230
 20
129.631008
 30
0.0
 10
158.503940
 20
135.662258
 30
0.0
  0
SPLINE
  5
11e
100
AcDbEntity
  8
Bottom
 62
7
100
AcDbSpline
 70
8
 71
3
 72
8
 73
4
 74
0
 40
0
 40
0
 40
0
 40
0
 40
1
 40
1
 40
1
 40
1
 10
156.142780
 20
136.988431
 30
0.0
 10
134.569170
 20
142.196146
 30
0.0
 10
112.994100
 20
147.411162
 30
0.0
 10
91.421946
 20
152.617337
 30
0.0
  0
SPLINE
  5
11f
100
AcDbEntity
  8
Bottom
 62
7
100
AcDbSpline
 70
8
 71
3
 72
8
 73
4
 74
0
 40
0
 40
0
 40
0
 40
0
 40
1
 40
1
 40
1
 40
1
 10
91.421946
 20
152.617337
 30
0.0
 10
91.080698
 20
152.690396
 30
0.0
 10
90.690579
 20
152.759517
 30
0.0
 10
90.252023
 20
152.750150
 30
0.0
  0
LWPOLYLINE
  5
120
100
AcDbEntity
  8
Bottom
 62
7
100
AcDbPolyline
 90
2
 70
0
 10
156.136780
 20
136.988431
 30
0.0
 10
156.142780
 20
136.988431
 30
0.0
  0
SPLINE
  5
121
100
AcDbEntity
  8
Bottom
 62
7
100
AcDbSpline
 70
8
 71
3
 72
8
 73
4
 74
0
 40
0
 40
0
 40
0
 40
0
 40
1
 40
1
 40
1
 40
1
 10
63.416086
 20
152.750150
 30
0.0
 10
63.409586
 20
152.750214
 30
0.0
 10
63.403066
 20
152.750214
 30
0.0
 10
63.396556
 20
152.750150
 30
0.0
  0
LWPOLYLINE
  5
122
100
AcDbEntity
  8
Bottom
 62
7
100
AcDbPolyline
 90
2
 70
0
 10
90.252023
 20
152.750150
 30
0.0
 10
63.416086
 20
152.750150
 30
0.0
  0
SPLINE
  5
123
100
AcDbEntity
  8
Bottom
 62
7
100
AcDbSpline
 70
8
 71
3
 72
8
 73
4
 74
0
 40
0
 40
0
 40
0
 40
0
 40
1
 40
1
 40
1
 40
1
 10
56.700067
 20
148.125150
 30
0.0
 10
56.214712
 20
148.125150
 30
0.0
 10
55.777149
 20
147.832779
 30
0.0
 10
55.591412
 20
147.384370
 30
0.0
  0
SPLINE
  5
124
100
AcDbEntity
  8
Bottom
 62
7
100
AcDbSpline
 70
8
 71
3
 72
8
 73
4
 74
0
 40
0
 40
0
 40
0
 40
0
 40
1
 40
1
 40
1
 40
1
 10
55.591412
 20
147.384370
 30
0.0
 10
55.405674
 20
146.935961
 30
0.0
 10
55.508341
 20
146.419819
 30
0.0
 10
55.851539
 20
146.076622
 30
0.0
  0
SPLINE
  5
125
100
AcDbEntity
  8
Bottom
 62
7
100
AcDbSpline
 70
8
 71
3
 72
8
 73
4
 74
0
 40
0
 40
0
 40
0
 40
0
 40
1
 40
1
 40
1
 40
1
 10
55.851539
 20
146.076622
 30
0.0
 10
56.194736
 20
145.733424
 30
0.0
 10
56.710878
 20
145.630757
 30
0.0
 10
57.159287
 20
145.816494
 30
0.0
  0
SPLINE
  5
126
100
AcDbEntity
  8
Bottom
 62
7
100
AcDbSpline
 70
8
 71
3
 72
8
 73
4
 74
0
 40
0
 40
0
 40
0
 40
0
 40
1
 40
1
 40
1
 40
1
 10
57.159287
 20
145.816494
 30
0.0
 10
57.607696
 20
146.002231
 30
0.0
 10
57.900067
 20
146.439795
 30
0.0
 10
57.900067
 20
146.925150
 30
0.0
  0
SPLINE
  5
127
100
AcDbEntity
  8
Bottom
 62
7
100
AcDbSpline
 70
8
 71
3
 72
8
 73
4
 74
0
 40
0
 40
0
 40
0
 40
0
 40
1
 40
1
 40
1
 40
1
 10
57.900067
 20
146.925150
 30
0.0
 10
57.900067
 20
147.243409
 30
0.0
 10
57.773639
 20
147.548634
 30
0.0
 10
57.548595
 20
147.773678
 30
0.0
  0
SPLINE
  5
128
100
AcDbEntity
  8
Bottom
 62
7
100
AcDbSpline
 70
8
 71
3
 72
8
 73
4
 74
0
 40
0
 40
0
 40
0
 40
0
 40
1
 40
1
 40
1
 40
1
 10
57.548595
 20
147.773678
 30
0.0
 10
57.323551
 20
147.998721
 30
0.0
 10
57.018327
 20
148.125150
 30
0.0
 10
56.700067
 20
148.125150
 30
0.0
  0
LWPOLYLINE
  5
129
100
AcDbEntity
  8
Bottom
 62
7
100
AcDbPolyline
 90
1
 70
1
 10
63.396556
 20
152.750150
 30
0.0
  0
SPLINE
  5
12a
100
AcDbEntity
  8
Bottom
 62
7
100
AcDbSpline
 70
8
 71
3
 72
8
 73
4
 74
0
 40
0
 40
0
 40
0
 40
0
 40
1
 40
1
 40
1
 40
1
 10
97.000177
 20
148.125150
 30
0.0
 10
96.514822
 20
148.125150
 30
0.0
 10
96.077259
 20
147.832779
 30
0.0
 10
95.891522
 20
147.384370
 30
0.0
  0
SPLINE
  5
12b
100
AcDbEntity
  8
Bottom
 62
7
100
AcDbSpline
 70
8
 71
3
 72
8
 73
4
 74
0
 40
0
 40
0
 40
0
 40
0
 40
1
 40
1
 40
1
 40
1
 10
95.891522
 20
147.384370
 30
0.0
 10
95.705784
 20
146.935961
 30
0.0
 10
95.808451
 20
146.419819
 30
0.0
 10
96.151649
 20
146.076622
 30
0.0
  0
SPLINE
  5
12c
100
AcDbEntity
  8
Bottom
 62
7
100
AcDbSpline
 70
8
 71
3
 72
8
 73
4
 74
0
 40
0
 40
0
 40
0
 40
0
 40
1
 40
1
 40
1
 40
1
 10
96.151649
 20
146.076622
 30
0.0
 10
96.494846
 20
145.733424
 30
0.0
 10
97.010988
 20
145.630757
 30
0.0
 10
97.459397
 20
145.816494
 30
0.0
  0
SPLINE
  5
12d
100
AcDbEntity
  8
Bottom
 62
7
100
AcDbSpline
 70
8
 71
3
 72
8
 73
4
 74
0
 40
0
 40
0
 40
0
 40
0
 40
1
 40
1
 40
1
 40
1
 10
97.459397
 20
145.816494
 30
0.0
 10
97.907806
 20
146.002231
 30
0.0
 10
98.200177
 20
146.439795
 30
0.0
 10
98.200177
 20
146.925150
 30
0.0
  0
SPLINE
  5
12e
100
AcDbEntity
  8
Bottom
 62
7
100
AcDbSpline
 70
8
 71
3
 72
8
 73
4
 74
0
 40
0
 40
0
 40
0
 40
0
 40
1
 40
1
 40
1
 40
1
 10
98.200177
 20
146.925150
 30
0.0
 10
98.200177
 20
147.243409
 30
0.0
 10
98.073749
 20
147.548634
 30
0.0
 10
97.848705
 20
147.773678
 30
0.0
  0
SPLINE
  5
12f
100
AcDbEntity
  8
Bottom
 62
7
100
AcDbSpline
 70
8
 71
3
 72
8
 73
4
 74
0
 40
0
 40
0
 40
0
 40
0
 40
1
 40
1
 40
1
 40
1
 10
97.848705
 20
147.773678
 30
0.0
 10
97.623661
 20
147.998721
 30
0.0
 10
97.318437
 20
148.125150
 30
0.0
 10
97.000177
 20
148.125150
 30
0.0
  0
LWPOLYLINE
  5
130
100
AcDbEntity
  8
Bottom
 62
7
100
AcDbPolyline
 90
1
 70
1
 10
56.700067
 20
148.125150
 30
0.0
  0
SPLINE
  5
131
100
AcDbEntity
  8
Bottom
 62
7
100
AcDbSpline
 70
8
 71
3
 72
8
 73
4
 74
0
 40
0
 40
0
 40
0
 40
0
 40
1
 40
1
 40
1
 40
1
 10
135.100170
 20
138.750258
 30
0.0
 10
134.614815
 20
138.750258
 30
0.0
 10
134.177252
 20
138.457887
 30
0.0
 10
133.991515
 20
138.009478
 30
0.0
  0
SPLINE
  5
132
100
AcDbEntity
  8
Bottom
 62
7
100
AcDbSpline
 70
8
 71
3
 72
8
 73
4
 74
0
 40
0
 40
0
 40
0
 40
0
 40
1
 40
1
 40
1
 40
1
 10
133.991515
 20
138.009478
 30
0.0
 10
133.805777
 20
137.561069
 30
0.0
 10
133.908444
 20
137.044927
 30
0.0
 10
134.251642
 20
136.701730
 30
0.0
  0
SPLINE
  5
133
100
AcDbEntity
  8
Bottom
 62
7
100
AcDbSpline
 70
8
 71
3
 72
8
 73
4
 74
0
 40
0
 40
0
 40
0
 40
0
 40
1
 40
1
 40
1
 40
1
 10
134.251642
 20
136.701730
 30
0.0
 10
134.594839
 20
136.358532
 30
0.0
 10
135.110981
 20
136.255865
 30
0.0
 10
135.559390
 20
136.441603
 30
0.0
  0
SPLINE
  5
134
100
AcDbEntity
  8
Bottom
 62
7
100
AcDbSpline
 70
8
 71
3
 72
8
 73
4
 74
0
 40
0
 40
0
 40
0
 40
0
 40
1
 40
1
 40
1
 40
1
 10
135.559390
 20
136.441603
 30
0.0
 10
136.007799
 20
136.627340
 30
0.0
 10
136.300170
 20
137.064903
 30
0.0
 10
136.300170
 20
137.550258
 30
0.0
  0
SPLINE
  5
135
100
AcDbEntity
  8
Bottom
 62
7
100
AcDbSpline
 70
8
 71
3
 72
8
 73
4
 74
0
 40
0
 40
0
 40
0
 40
0
 40
1
 40
1
 40
1
 40
1
 10
136.300170
 20
137.550258
 30
0.0
 10
136.300170
 20
138.213000
 30
0.0
 10
135.762912
 20
138.750258
 30
0.0
 10
135.100170
 20
138.750258
 30
0.0
  0
LWPOLYLINE
  5
136
100
AcDbEntity
  8
Bottom
 62
7
100
AcDbPolyline
 90
1
 70
1
 10
97.000177
 20
148.125150
 30
0.0
  0
SPLINE
  5
137
100
AcDbEntity
  8
Bottom
 62
7
100
AcDbSpline
 70
8
 71
3
 72
8
 73
4
 74
0
 40
0
 40
0
 40
0
 40
0
 40
1
 40
1
 40
1
 40
1
 10
161.600300
 20
87.800148
 30
0.0
 10
161.114945
 20
87.800148
 30
0.0
 10
160.677382
 20
87.507777
 30
0.0
 10
160.491645
 20
87.059368
 30
0.0
  0
SPLINE
  5
138
100
AcDbEntity
  8
Bottom
 62
7
100
AcDbSpline
 70
8
 71
3
 72
8
 73
4
 74
0
 40
0
 40
0
 40
0
 40
0
 40
1
 40
1
 40
1
 40
1
 10
160.491645
 20
87.059368
 30
0.0
 10
160.305907
 20
86.610959
 30
0.0
 10
160.408574
 20
86.094817
 30
0.0
 10
160.751772
 20
85.751620
 30
0.0
  0
SPLINE
  5
139
100
AcDbEntity
  8
Bottom
 62
7
100
AcDbSpline
 70
8
 71
3
 72
8
 73
4
 74
0
 40
0
 40
0
 40
0
 40
0
 40
1
 40
1
 40
1
 40
1
 10
160.751772
 20
85.751620
 30
0.0
 10
161.094969
 20
85.408422
 30
0.0
 10
161.611111
 20
85.305755
 30
0.0
 10
162.059520
 20
85.491493
 30
0.0
  0
SPLINE
  5
13a
100
AcDbEntity
  8
Bottom
 62
7
100
AcDbSpline
 70
8
 71
3
 72
8
 73
4
 74
0
 40
0
 40
0
 40
0
 40
0
 40
1
 40
1
 40
1
 40
1
 10
162.059520
 20
85.491493
 30
0.0
 10
162.507929
 20
85.677230
 30
0.0
 10
162.800300
 20
86.114793
 30
0.0
 10
162.800300
 20
86.600148
 30
0.0
  0
SPLINE
  5
13b
100
AcDbEntity
  8
Bottom
 62
7
100
AcDbSpline
 70
8
 71
3
 72
8
 73
4
 74
0
 40
0
 40
0
 40
0
 40
0
 40
1
 40
1
 40
1
 40
1
 10
162.800300
 20
86.600148
 30
0.0
 10
162.800300
 20
86.918408
 30
0.0
 10
162.673872
 20
87.223632
 30
0.0
 10
162.448828
 20
87.448676
 30
0.0
  0
SPLINE
  5
13c
100
AcDbEntity
  8
Bottom
 62
7
100
AcDbSpline
 70
8
 71
3
 72
8
 73
4
 74
0
 40
0
 40
0
 40
0
 40
0
 40
1
 40
1
 40
1
 40
1
 10
162.448828
 20
87.448676
 30
0.0
 10
162.223784
 20
87.673720
 30
0.0
 10
161.918560
 20
87.800148
 30
0.0
 10
161.600300
 20
87.800148
 30
0.0
  0
LWPOLYLINE
  5
13d
100
AcDbEntity
  8
Bottom
 62
7
100
AcDbPolyline
 90
1
 70
1
 10
135.100170
 20
138.750258
 30
0.0
  0
SPLINE
  5
13e
100
AcDbEntity
  8
Bottom
 62
7
100
AcDbSpline
 70
8
 71
3
 72
8
 73
4
 74
0
 40
0
 40
0
 40
0
 40
0
 40
1
 40
1
 40
1
 40
1
 10
161.600300
 20
61.200348
 30
0.0
 10
161.114945
 20
61.200348
 30
0.0
 10
160.677382
 20
60.907977
 30
0.0
 10
160.491645
 20
60.459568
 30
0.0
  0
SPLINE
  5
13f
100
AcDbEntity
  8
Bottom
 62
7
100
AcDbSpline
 70
8
 71
3
 72
8
 73
4
 74
0
 40
0
 40
0
 40
0
 40
0
 40
1
 40
1
 40
1
 40
1
 10
160.491645
 20
60.459568
 30
0.0
 10
160.305907
 20
60.011159
 30
0.0
 10
160.408574
 20
59.495017
 30
0.0
 10
160.751772
 20
59.151820
 30
0.0
  0
SPLINE
  5
140
100
AcDbEntity
  8
Bottom
 62
7
100
AcDbSpline
 70
8
 71
3
 72
8
 73
4
 74
0
 40
0
 40
0
 40
0
 40
0
 40
1
 40
1
 40
1
 40
1
 10
160.751772
 20
59.151820
 30
0.0
 10
161.094969
 20
58.808622
 30
0.0
 10
161.611111
 20
58.705955
 30
0.0
 10
162.059520
 20
58.891693
 30
0.0
  0
SPLINE
  5
141
100
AcDbEntity
  8
Bottom
 62
7
100
AcDbSpline
 70
8
 71
3
 72
8
 73
4
 74
0
 40
0
 40
0
 40
0
 40
0
 40
1
 40
1
 40
1
 40
1
 10
162.059520
 20
58.891693
 30
0.0
 10
162.507929
 20
59.077430
 30
0.0
 10
162.800300
 20
59.514993
 30
0.0
 10
162.800300
 20
60.000348
 30
0.0
  0
SPLINE
  5
142
100
AcDbEntity
  8
Bottom
 62
7
100
AcDbSpline
 70
8
 71
3
 72
8
 73
4
 74
0
 40
0
 40
0
 40
0
 40
0
 40
1
 40
1
 40
1
 40
1
 10
162.800300
 20
60.000348
 30
0.0
 10
162.800300
 20
60.318608
 30
0.0
 10
162.673872
 20
60.623832
 30
0.0
 10
162.448828
 20
60.848876
 30
0.0
  0
SPLINE
  5
143
100
AcDbEntity
  8
Bottom
 62
7
100
AcDbSpline
 70
8
 71
3
 72
8
 73
4
 74
0
 40
0
 40
0
 40
0
 40
0
 40
1
 40
1
 40
1
 40
1
 10
162.448828
 20
60.848876
 30
0.0
 10
162.223784
 20
61.073920
 30
0.0
 10
161.918560
 20
61.200348
 30
0.0
 10
161.600300
 20
61.200348
 30
0.0
  0
LWPOLYLINE
  5
144
100
AcDbEntity
  8
Bottom
 62
7
100
AcDbPolyline
 90
1
 70
1
 10
161.600300
 20
87.800148
 30
0.0
  0
SPLINE
  5
145
100
AcDbEntity
  8
Bottom
 62
7
100
AcDbSpline
 70
8
 71
3
 72
8
 73
4
 74
0
 40
0
 40
0
 40
0
 40
0
 40
1
 40
1
 40
1
 40
1
 10
141.925180
 20
87.800148
 30
0.0
 10
141.439825
 20
87.800148
 30
0.0
 10
141.002262
 20
87.507777
 30
0.0
 10
140.816525
 20
87.059368
 30
0.0
  0
SPLINE
  5
146
100
AcDbEntity
  8
Bottom
 62
7
100
AcDbSpline
 70
8
 71
3
 72
8
 73
4
 74
0
 40
0
 40
0
 40
0
 40
0
 40
1
 40
1
 40
1
 40
1
 10
140.816525
 20
87.059368
 30
0.0
 10
140.630787
 20
86.610959
 30
0.0
 10
140.733454
 20
86.094817
 30
0.0
 10
141.076652
 20
85.751620
 30
0.0
  0
SPLINE
  5
147
100
AcDbEntity
  8
Bottom
 62
7
100
AcDbSpline
 70
8
 71
3
 72
8
 73
4
 74
0
 40
0
 40
0
 40
0
 40
0
 40
1
 40
1
 40
1
 40
1
 10
141.076652
 20
85.751620
 30
0.0
 10
141.419849
 20
85.408422
 30
0.0
 10
141.935991
 20
85.305755
 30
0.0
 10
142.384400
 20
85.491493
 30
0.0
  0
SPLINE
  5
148
100
AcDbEntity
  8
Bottom
 62
7
100
AcDbSpline
 70
8
 71
3
 72
8
 73
4
 74
0
 40
0
 40
0
 40
0
 40
0
 40
1
 40
1
 40
1
 40
1
 10
142.384400
 20
85.491493
 30
0.0
 10
142.832809
 20
85.677230
 30
0.0
 10
143.125180
 20
86.114793
 30
0.0
 10
143.125180
 20
86.600148
 30
0.0
  0
SPLINE
  5
149
100
AcDbEntity
  8
Bottom
 62
7
100
AcDbSpline
 70
8
 71
3
 72
8
 73
4
 74
0
 40
0
 40
0
 40
0
 40
0
 40
1
 40
1
 40
1
 40
1
 10
143.125180
 20
86.600148
 30
0.0
 10
143.125180
 20
86.918408
 30
0.0
 10
142.998752
 20
87.223632
 30
0.0
 10
142.773708
 20
87.448676
 30
0.0
  0
SPLINE
  5
14a
100
AcDbEntity
  8
Bottom
 62
7
100
AcDbSpline
 70
8
 71
3
 72
8
 73
4
 74
0
 40
0
 40
0
 40
0
 40
0
 40
1
 40
1
 40
1
 40
1
 10
142.773708
 20
87.448676
 30
0.0
 10
142.548664
 20
87.673720
 30
0.0
 10
142.243440
 20
87.800148
 30
0.0
 10
141.925180
 20
87.800148
 30
0.0
  0
LWPOLYLINE
  5
14b
100
AcDbEntity
  8
Bottom
 62
7
100
AcDbPolyline
 90
1
 70
1
 10
161.600300
 20
61.200348
 30
0.0
  0
SPLINE
  5
14c
100
AcDbEntity
  8
Bottom
 62
7
100
AcDbSpline
 70
8
 71
3
 72
8
 73
4
 74
0
 40
0
 40
0
 40
0
 40
0
 40
1
 40
1
 40
1
 40
1
 10
101.500030
 20
102.125401
 30
0.0
 10
100.837288
 20
102.125401
 30
0.0
 10
100.300030
 20
101.588143
 30
0.0
 10
100.300030
 20
100.925401
 30
0.0
  0
SPLINE
  5
14d
100
AcDbEntity
  8
Bottom
 62
7
100
AcDbSpline
 70
8
 71
3
 72
8
 73
4
 74
0
 40
0
 40
0
 40
0
 40
0
 40
1
 40
1
 40
1
 40
1
 10
100.300030
 20
100.925401
 30
0.0
 10
100.300030
 20
100.262659
 30
0.0
 10
100.837288
 20
99.725401
 30
0.0
 10
101.500030
 20
99.725401
 30
0.0
  0
SPLINE
  5
14e
100
AcDbEntity
  8
Bottom
 62
7
100
AcDbSpline
 70
8
 71
3
 72
8
 73
4
 74
0
 40
0
 40
0
 40
0
 40
0
 40
1
 40
1
 40
1
 40
1
 10
101.500030
 20
99.725401
 30
0.0
 10
102.162772
 20
99.725401
 30
0.0
 10
102.700030
 20
100.262659
 30
0.0
 10
102.700030
 20
100.925401
 30
0.0
  0
SPLINE
  5
14f
100
AcDbEntity
  8
Bottom
 62
7
100
AcDbSpline
 70
8
 71
3
 72
8
 73
4
 74
0
 40
0
 40
0
 40
0
 40
0
 40
1
 40
1
 40
1
 40
1
 10
102.700030
 20
100.925401
 30
0.0
 10
102.700030
 20
101.243661
 30
0.0
 10
102.573602
 20
101.548885
 30
0.0
 10
102.348558
 20
101.773929
 30
0.0
  0
SPLINE
  5
150
100
AcDbEntity
  8
Bottom
 62
7
100
AcDbSpline
 70
8
 71
3
 72
8
 73
4
 74
0
 40
0
 40
0
 40
0
 40
0
 40
1
 40
1
 40
1
 40
1
 10
102.348558
 20
101.773929
 30
0.0
 10
102.123514
 20
101.998973
 30
0.0
 10
101.818290
 20
102.125401
 30
0.0
 10
101.500030
 20
102.125401
 30
0.0
  0
LWPOLYLINE
  5
151
100
AcDbEntity
  8
Bottom
 62
7
100
AcDbPolyline
 90
1
 70
1
 10
141.925180
 20
87.800148
 30
0.0
  0
SPLINE
  5
152
100
AcDbEntity
  8
Bottom
 62
7
100
AcDbSpline
 70
8
 71
3
 72
8
 73
4
 74
0
 40
0
 40
0
 40
0
 40
0
 40
1
 40
1
 40
1
 40
1
 10
98.850145
 20
61.200348
 30
0.0
 10
98.364790
 20
61.200348
 30
0.0
 10
97.927227
 20
60.907977
 30
0.0
 10
97.741490
 20
60.459568
 30
0.0
  0
SPLINE
  5
153
100
AcDbEntity
  8
Bottom
 62
7
100
AcDbSpline
 70
8
 71
3
 72
8
 73
4
 74
0
 40
0
 40
0
 40
0
 40
0
 40
1
 40
1
 40
1
 40
1
 10
97.741490
 20
60.459568
 30
0.0
 10
97.555752
 20
60.011159
 30
0.0
 10
97.658419
 20
59.495017
 30
0.0
 10
98.001617
 20
59.151820
 30
0.0
  0
SPLINE
  5
154
100
AcDbEntity
  8
Bottom
 62
7
100
AcDbSpline
 70
8
 71
3
 72
8
 73
4
 74
0
 40
0
 40
0
 40
0
 40
0
 40
1
 40
1
 40
1
 40
1
 10
98.001617
 20
59.151820
 30
0.0
 10
98.344814
 20
58.808622
 30
0.0
 10
98.860956
 20
58.705955
 30
0.0
 10
99.309365
 20
58.891693
 30
0.0
  0
SPLINE
  5
155
100
AcDbEntity
  8
Bottom
 62
7
100
AcDbSpline
 70
8
 71
3
 72
8
 73
4
 74
0
 40
0
 40
0
 40
0
 40
0
 40
1
 40
1
 40
1
 40
1
 10
99.309365
 20
58.891693
 30
0.0
 10
99.757774
 20
59.077430
 30
0.0
 10
100.050145
 20
59.514993
 30
0.0
 10
100.050145
 20
60.000348
 30
0.0
  0
SPLINE
  5
156
100
AcDbEntity
  8
Bottom
 62
7
100
AcDbSpline
 70
8
 71
3
 72
8
 73
4
 74
0
 40
0
 40
0
 40
0
 40
0
 40
1
 40
1
 40
1
 40
1
 10
100.050145
 20
60.000348
 30
0.0
 10
100.050145
 20
60.318608
 30
0.0
 10
99.923717
 20
60.623832
 30
0.0
 10
99.698673
 20
60.848876
 30
0.0
  0
SPLINE
  5
157
100
AcDbEntity
  8
Bottom
 62
7
100
AcDbSpline
 70
8
 71
3
 72
8
 73
4
 74
0
 40
0
 40
0
 40
0
 40
0
 40
1
 40
1
 40
1
 40
1
 10
99.698673
 20
60.848876
 30
0.0
 10
99.473629
 20
61.073920
 30
0.0
 10
99.168405
 20
61.200348
 30
0.0
 10
98.850145
 20
61.200348
 30
0.0
  0
LWPOLYLINE
  5
158
100
AcDbEntity
  8
Bottom
 62
7
100
AcDbPolyline
 90
1
 70
1
 10
101.500030
 20
102.125401
 30
0.0
  0
SPLINE
  5
159
100
AcDbEntity
  8
Bottom
 62
7
100
AcDbSpline
 70
8
 71
3
 72
8
 73
4
 74
0
 40
0
 40
0
 40
0
 40
0
 40
1
 40
1
 40
1
 40
1
 10
105.250050
 20
5.600280
 30
0.0
 10
104.764695
 20
5.600280
 30
0.0
 10
104.327132
 20
5.307909
 30
0.0
 10
104.141395
 20
4.859500
 30
0.0
  0
SPLINE
  5
15a
100
AcDbEntity
  8
Bottom
 62
7
100
AcDbSpline
 70
8
 71
3
 72
8
 73
4
 74
0
 40
0
 40
0
 40
0
 40
0
 40
1
 40
1
 40
1
 40
1
 10
104.141395
 20
4.859500
 30
0.0
 10
103.955657
 20
4.411091
 30
0.0
 10
104.058324
 20
3.894949
 30
0.0
 10
104.401522
 20
3.551752
 30
0.0
  0
SPLINE
  5
15b
100
AcDbEntity
  8
Bottom
 62
7
100
AcDbSpline
 70
8
 71
3
 72
8
 73
4
 74
0
 40
0
 40
0
 40
0
 40
0
 40
1
 40
1
 40
1
 40
1
 10
104.401522
 20
3.551752
 30
0.0
 10
104.744719
 20
3.208554
 30
0.0
 10
105.260861
 20
3.105887
 30
0.0
 10
105.709270
 20
3.291625
 30
0.0
  0
SPLINE
  5
15c
100
AcDbEntity
  8
Bottom
 62
7
100
AcDbSpline
 70
8
 71
3
 72
8
 73
4
 74
0
 40
0
 40
0
 40
0
 40
0
 40
1
 40
1
 40
1
 40
1
 10
105.709270
 20
3.291625
 30
0.0
 10
106.157679
 20
3.477362
 30
0.0
 10
106.450050
 20
3.914925
 30
0.0
 10
106.450050
 20
4.400280
 30
0.0
  0
SPLINE
  5
15d
100
AcDbEntity
  8
Bottom
 62
7
100
AcDbSpline
 70
8
 71
3
 72
8
 73
4
 74
0
 40
0
 40
0
 40
0
 40
0
 40
1
 40
1
 40
1
 40
1
 10
106.450050
 20
4.400280
 30
0.0
 10
106.450050
 20
4.718540
 30
0.0
 10
106.323622
 20
5.023764
 30
0.0
 10
106.098578
 20
5.248808
 30
0.0
  0
SPLINE
  5
15e
100
AcDbEntity
  8
Bottom
 62
7
100
AcDbSpline
 70
8
 71
3
 72
8
 73
4
 74
0
 40
0
 40
0
 40
0
 40
0
 40
1
 40
1
 40
1
 40
1
 10
106.098578
 20
5.248808
 30
0.0
 10
105.873534
 20
5.473852
 30
0.0
 10
105.568310
 20
5.600280
 30
0.0
 10
105.250050
 20
5.600280
 30
0.0
  0
LWPOLYLINE
  5
15f
100
AcDbEntity
  8
Bottom
 62
7
100
AcDbPolyline
 90
1
 70
1
 10
98.850145
 20
61.200348
 30
0.0
  0
SPLINE
  5
160
100
AcDbEntity
  8
Bottom
 62
7
100
AcDbSpline
 70
8
 71
3
 72
8
 73
4
 74
0
 40
0
 40
0
 40
0
 40
0
 40
1
 40
1
 40
1
 40
1
 10
48.925203
 20
61.200348
 30
0.0
 10
48.439848
 20
61.200348
 30
0.0
 10
48.002285
 20
60.907977
 30
0.0
 10
47.816548
 20
60.459568
 30
0.0
  0
SPLINE
  5
161
100
AcDbEntity
  8
Bottom
 62
7
100
AcDbSpline
 70
8
 71
3
 72
8
 73
4
 74
0
 40
0
 40
0
 40
0
 40
0
 40
1
 40
1
 40
1
 40
1
 10
47.816548
 20
60.459568
 30
0.0
 10
47.630810
 20
60.011159
 30
0.0
 10
47.733477
 20
59.495017
 30
0.0
 10
48.076675
 20
59.151820
 30
0.0
  0
SPLINE
  5
162
100
AcDbEntity
  8
Bottom
 62
7
100
AcDbSpline
 70
8
 71
3
 72
8
 73
4
 74
0
 40
0
 40
0
 40
0
 40
0
 40
1
 40
1
 40
1
 40
1
 10
48.076675
 20
59.151820
 30
0.0
 10
48.419872
 20
58.808622
 30
0.0
 10
48.936014
 20
58.705955
 30
0.0
 10
49.384423
 20
58.891693
 30
0.0
  0
SPLINE
  5
163
100
AcDbEntity
  8
Bottom
 62
7
100
AcDbSpline
 70
8
 71
3
 72
8
 73
4
 74
0
 40
0
 40
0
 40
0
 40
0
 40
1
 40
1
 40
1
 40
1
 10
49.384423
 20
58.891693
 30
0.0
 10
49.832832
 20
59.077430
 30
0.0
 10
50.125203
 20
59.514993
 30
0.0
 10
50.125203
 20
60.000348
 30
0.0
  0
SPLINE
  5
164
100
AcDbEntity
  8
Bottom
 62
7
100
AcDbSpline
 70
8
 71
3
 72
8
 73
4
 74
0
 40
0
 40
0
 40
0
 40
0
 40
1
 40
1
 40
1
 40
1
 10
50.125203
 20
60.000348
 30
0.0
 10
50.125203
 20
60.318608
 30
0.0
 10
49.998775
 20
60.623832
 30
0.0
 10
49.773731
 20
60.848876
 30
0.0
  0
SPLINE
  5
165
100
AcDbEntity
  8
Bottom
 62
7
100
AcDbSpline
 70
8
 71
3
 72
8
 73
4
 74
0
 40
0
 40
0
 40
0
 40
0
 40
1
 40
1
 40
1
 40
1
 10
49.773731
 20
60.848876
 30
0.0
 10
49.548687
 20
61.073920
 30
0.0
 10
49.243463
 20
61.200348
 30
0.0
 10
48.925203
 20
61.200348
 30
0.0
  0
LWPOLYLINE
  5
166
100
AcDbEntity
  8
Bottom
 62
7
100
AcDbPolyline
 90
1
 70
1
 10
105.250050
 20
5.600280
 30
0.0
  0
SPLINE
  5
167
100
AcDbEntity
  8
Bottom
 62
7
100
AcDbSpline
 70
8
 71
3
 72
8
 73
4
 74
0
 40
0
 40
0
 40
0
 40
0
 40
1
 40
1
 40
1
 40
1
 10
45.500089
 20
107.125317
 30
0.0
 10
45.014734
 20
107.125317
 30
0.0
 10
44.577171
 20
106.832946
 30
0.0
 10
44.391434
 20
106.384537
 30
0.0
  0
SPLINE
  5
168
100
AcDbEntity
  8
Bottom
 62
7
100
AcDbSpline
 70
8
 71
3
 72
8
 73
4
 74
0
 40
0
 40
0
 40
0
 40
0
 40
1
 40
1
 40
1
 40
1
 10
44.391434
 20
106.384537
 30
0.0
 10
44.205696
 20
105.936128
 30
0.0
 10
44.308363
 20
105.419986
 30
0.0
 10
44.651561
 20
105.076789
 30
0.0
  0
SPLINE
  5
169
100
AcDbEntity
  8
Bottom
 62
7
100
AcDbSpline
 70
8
 71
3
 72
8
 73
4
 74
0
 40
0
 40
0
 40
0
 40
0
 40
1
 40
1
 40
1
 40
1
 10
44.651561
 20
105.076789
 30
0.0
 10
44.994758
 20
104.733591
 30
0.0
 10
45.510900
 20
104.630924
 30
0.0
 10
45.959309
 20
104.816662
 30
0.0
  0
SPLINE
  5
16a
100
AcDbEntity
  8
Bottom
 62
7
100
AcDbSpline
 70
8
 71
3
 72
8
 73
4
 74
0
 40
0
 40
0
 40
0
 40
0
 40
1
 40
1
 40
1
 40
1
 10
45.959309
 20
104.816662
 30
0.0
 10
46.407718
 20
105.002399
 30
0.0
 10
46.700089
 20
105.439962
 30
0.0
 10
46.700089
 20
105.925317
 30
0.0
  0
SPLINE
  5
16b
100
AcDbEntity
  8
Bottom
 62
7
100
AcDbSpline
 70
8
 71
3
 72
8
 73
4
 74
0
 40
0
 40
0
 40
0
 40
0
 40
1
 40
1
 40
1
 40
1
 10
46.700089
 20
105.925317
 30
0.0
 10
46.700089
 20
106.243577
 30
0.0
 10
46.573661
 20
106.548801
 30
0.0
 10
46.348617
 20
106.773845
 30
0.0
  0
SPLINE
  5
16c
100
AcDbEntity
  8
Bottom
 62
7
100
AcDbSpline
 70
8
 71
3
 72
8
 73
4
 74
0
 40
0
 40
0
 40
0
 40
0
 40
1
 40
1
 40
1
 40
1
 10
46.348617
 20
106.773845
 30
0.0
 10
46.123573
 20
106.998889
 30
0.0
 10
45.818349
 20
107.125317
 30
0.0
 10
45.500089
 20
107.125317
 30
0.0
  0
LWPOLYLINE
  5
16d
100
AcDbEntity
  8
Bottom
 62
7
100
AcDbPolyline
 90
1
 70
1
 10
48.925203
 20
61.200348
 30
0.0
  0
SPLINE
  5
16e
100
AcDbEntity
  8
Bottom
 62
7
100
AcDbSpline
 70
8
 71
3
 72
8
 73
4
 74
0
 40
0
 40
0
 40
0
 40
0
 40
1
 40
1
 40
1
 40
1
 10
5.900070
 20
62.725419
 30
0.0
 10
5.414715
 20
62.725419
 30
0.0
 10
4.977152
 20
62.433048
 30
0.0
 10
4.791415
 20
61.984639
 30
0.0
  0
SPLINE
  5
16f
100
AcDbEntity
  8
Bottom
 62
7
100
AcDbSpline
 70
8
 71
3
 72
8
 73
4
 74
0
 40
0
 40
0
 40
0
 40
0
 40
1
 40
1
 40
1
 40
1
 10
4.791415
 20
61.984639
 30
0.0
 10
4.605677
 20
61.536230
 30
0.0
 10
4.708344
 20
61.020088
 30
0.0
 10
5.051542
 20
60.676891
 30
0.0
  0
SPLINE
  5
170
100
AcDbEntity
  8
Bottom
 62
7
100
AcDbSpline
 70
8
 71
3
 72
8
 73
4
 74
0
 40
0
 40
0
 40
0
 40
0
 40
1
 40
1
 40
1
 40
1
 10
5.051542
 20
60.676891
 30
0.0
 10
5.394740
 20
60.333693
 30
0.0
 10
5.910881
 20
60.231026
 30
0.0
 10
6.359290
 20
60.416764
 30
0.0
  0
SPLINE
  5
171
100
AcDbEntity
  8
Bottom
 62
7
100
AcDbSpline
 70
8
 71
3
 72
8
 73
4
 74
0
 40
0
 40
0
 40
0
 40
0
 40
1
 40
1
 40
1
 40
1
 10
6.359290
 20
60.416764
 30
0.0
 10
6.807699
 20
60.602501
 30
0.0
 10
7.100070
 20
61.040064
 30
0.0
 10
7.100070
 20
61.525419
 30
0.0
  0
SPLINE
  5
172
100
AcDbEntity
  8
Bottom
 62
7
100
AcDbSpline
 70
8
 71
3
 72
8
 73
4
 74
0
 40
0
 40
0
 40
0
 40
0
 40
1
 40
1
 40
1
 40
1
 10
7.100070
 20
61.525419
 30
0.0
 10
7.100070
 20
61.843679
 30
0.0
 10
6.973642
 20
62.148903
 30
0.0
 10
6.748598
 20
62.373947
 30
0.0
  0
SPLINE
  5
173
100
AcDbEntity
  8
Bottom
 62
7
100
AcDbSpline
 70
8
 71
3
 72
8
 73
4
 74
0
 40
0
 40
0
 40
0
 40
0
 40
1
 40
1
 40
1
 40
1
 10
6.748598
 20
62.373947
 30
0.0
 10
6.523555
 20
62.598991
 30
0.0
 10
6.218330
 20
62.725419
 30
0.0
 10
5.900070
 20
62.725419
 30
0.0
  0
LWPOLYLINE
  5
174
100
AcDbEntity
  8
Bottom
 62
7
100
AcDbPolyline
 90
1
 70
1
 10
45.500089
 20
107.125317
 30
0.0
  0
SPLINE
  5
175
100
AcDbEntity
  8
Bottom
 62
7
100
AcDbSpline
 70
8
 71
3
 72
8
 73
4
 74
0
 40
0
 40
0
 40
0
 40
0
 40
1
 40
1
 40
1
 40
1
 10
5.900070
 20
136.300396
 30
0.0
 10
5.414715
 20
136.300396
 30
0.0
 10
4.977152
 20
136.008025
 30
0.0
 10
4.791415
 20
135.559616
 30
0.0
  0
SPLINE
  5
176
100
AcDbEntity
  8
Bottom
 62
7
100
AcDbSpline
 70
8
 71
3
 72
8
 73
4
 74
0
 40
0
 40
0
 40
0
 40
0
 40
1
 40
1
 40
1
 40
1
 10
4.791415
 20
135.559616
 30
0.0
 10
4.605677
 20
135.111207
 30
0.0
 10
4.708344
 20
134.595065
 30
0.0
 10
5.051542
 20
134.251868
 30
0.0
  0
SPLINE
  5
177
100
AcDbEntity
  8
Bottom
 62
7
100
AcDbSpline
 70
8
 71
3
 72
8
 73
4
 74
0
 40
0
 40
0
 40
0
 40
0
 40
1
 40
1
 40
1
 40
1
 10
5.051542
 20
134.251868
 30
0.0
 10
5.394740
 20
133.908670
 30
0.0
 10
5.910881
 20
133.806003
 30
0.0
 10
6.359290
 20
133.991741
 30
0.0
  0
SPLINE
  5
178
100
AcDbEntity
  8
Bottom
 62
7
100
AcDbSpline
 70
8
 71
3
 72
8
 73
4
 74
0
 40
0
 40
0
 40
0
 40
0
 40
1
 40
1
 40
1
 40
1
 10
6.359290
 20
133.991741
 30
0.0
 10
6.807699
 20
134.177478
 30
0.0
 10
7.100070
 20
134.615041
 30
0.0
 10
7.100070
 20
135.100396
 30
0.0
  0
SPLINE
  5
179
100
AcDbEntity
  8
Bottom
 62
7
100
AcDbSpline
 70
8
 71
3
 72
8
 73
4
 74
0
 40
0
 40
0
 40
0
 40
0
 40
1
 40
1
 40
1
 40
1
 10
7.100070
 20
135.100396
 30
0.0
 10
7.100070
 20
135.418656
 30
0.0
 10
6.973642
 20
135.723880
 30
0.0
 10
6.748598
 20
135.948924
 30
0.0
  0
SPLINE
  5
17a
100
AcDbEntity
  8
Bottom
 62
7
100
AcDbSpline
 70
8
 71
3
 72
8
 73
4
 74
0
 40
0
 40
0
 40
0
 40
0
 40
1
 40
1
 40
1
 40
1
 10
6.748598
 20
135.948924
 30
0.0
 10
6.523555
 20
136.173968
 30
0.0
 10
6.218330
 20
136.300396
 30
0.0
 10
5.900070
 20
136.300396
 30
0.0
  0
LWPOLYLINE
  5
17b
100
AcDbEntity
  8
Bottom
 62
7
100
AcDbPolyline
 90
1
 70
1
 10
5.900070
 20
62.725419
 30
0.0
  0
SPLINE
  5
17c
100
AcDbEntity
  8
Bottom
 62
7
100
AcDbSpline
 70
8
 71
3
 72
8
 73
4
 74
0
 40
0
 40
0
 40
0
 40
0
 40
1
 40
1
 40
1
 40
1
 10
141.887060
 20
137.113908
 30
0.0
 10
141.401705
 20
137.113908
 30
0.0
 10
140.964142
 20
136.821537
 30
0.0
 10
140.778405
 20
136.373128
 30
0.0
  0
SPLINE
  5
17d
100
AcDbEntity
  8
Bottom
 62
7
100
AcDbSpline
 70
8
 71
3
 72
8
 73
4
 74
0
 40
0
 40
0
 40
0
 40
0
 40
1
 40
1
 40
1
 40
1
 10
140.778405
 20
136.373128
 30
0.0
 10
140.592667
 20
135.924719
 30
0.0
 10
140.695334
 20
135.408577
 30
0.0
 10
141.038532
 20
135.065380
 30
0.0
  0
SPLINE
  5
17e
100
AcDbEntity
  8
Bottom
 62
7
100
AcDbSpline
 70
8
 71
3
 72
8
 73
4
 74
0
 40
0
 40
0
 40
0
 40
0
 40
1
 40
1
 40
1
 40
1
 10
141.038532
 20
135.065380
 30
0.0
 10
141.381729
 20
134.722182
 30
0.0
 10
141.897871
 20
134.619515
 30
0.0
 10
142.346280
 20
134.805253
 30
0.0
  0
SPLINE
  5
17f
100
AcDbEntity
  8
Bottom
 62
7
100
AcDbSpline
 70
8
 71
3
 72
8
 73
4
 74
0
 40
0
 40
0
 40
0
 40
0
 40
1
 40
1
 40
1
 40
1
 10
142.346280
 20
134.805253
 30
0.0
 10
142.794689
 20
134.990990
 30
0.0
 10
143.087060
 20
135.428553
 30
0.0
 10
143.087060
 20
135.913908
 30
0.0
  0
SPLINE
  5
180
100
AcDbEntity
  8
Bottom
 62
7
100
AcDbSpline
 70
8
 71
3
 72
8
 73
4
 74
0
 40
0
 40
0
 40
0
 40
0
 40
1
 40
1
 40
1
 40
1
 10
143.087060
 20
135.913908
 30
0.0
 10
143.087060
 20
136.576650
 30
0.0
 10
142.549802
 20
137.113908
 30
0.0
 10
141.887060
 20
137.113908
 30
0.0
  0
LWPOLYLINE
  5
181
100
AcDbEntity
  8
Bottom
 62
7
100
AcDbPolyline
 90
1
 70
1
 10
5.900070
 20
136.300396
 30
0.0
  0
SPLINE
  5
182
100
AcDbEntity
  8
Bottom
 62
7
100
AcDbSpline
 70
8
 71
3
 72
8
 73
4
 74
0
 40
0
 40
0
 40
0
 40
0
 40
1
 40
1
 40
1
 40
1
 10
161.586850
 20
127.613940
 30
0.0
 10
161.101495
 20
127.613940
 30
0.0
 10
160.663932
 20
127.321569
 30
0.0
 10
160.478195
 20
126.873160
 30
0.0
  0
SPLINE
  5
183
100
AcDbEntity
  8
Bottom
 62
7
100
AcDbSpline
 70
8
 71
3
 72
8
 73
4
 74
0
 40
0
 40
0
 40
0
 40
0
 40
1
 40
1
 40
1
 40
1
 10
160.478195
 20
126.873160
 30
0.0
 10
160.292457
 20
126.424751
 30
0.0
 10
160.395124
 20
125.908609
 30
0.0
 10
160.738322
 20
125.565412
 30
0.0
  0
SPLINE
  5
184
100
AcDbEntity
  8
Bottom
 62
7
100
AcDbSpline
 70
8
 71
3
 72
8
 73
4
 74
0
 40
0
 40
0
 40
0
 40
0
 40
1
 40
1
 40
1
 40
1
 10
160.738322
 20
125.565412
 30
0.0
 10
161.081519
 20
125.222214
 30
0.0
 10
161.597661
 20
125.119547
 30
0.0
 10
162.046070
 20
125.305285
 30
0.0
  0
SPLINE
  5
185
100
AcDbEntity
  8
Bottom
 62
7
100
AcDbSpline
 70
8
 71
3
 72
8
 73
4
 74
0
 40
0
 40
0
 40
0
 40
0
 40
1
 40
1
 40
1
 40
1
 10
162.046070
 20
125.305285
 30
0.0
 10
162.494479
 20
125.491022
 30
0.0
 10
162.786850
 20
125.928585
 30
0.0
 10
162.786850
 20
126.413940
 30
0.0
  0
SPLINE
  5
186
100
AcDbEntity
  8
Bottom
 62
7
100
AcDbSpline
 70
8
 71
3
 72
8
 73
4
 74
0
 40
0
 40
0
 40
0
 40
0
 40
1
 40
1
 40
1
 40
1
 10
162.786850
 20
126.413940
 30
0.0
 10
162.786850
 20
126.732200
 30
0.0
 10
162.660422
 20
127.037424
 30
0.0
 10
162.435378
 20
127.262468
 30
0.0
  0
SPLINE
  5
187
100
AcDbEntity
  8
Bottom
 62
7
100
AcDbSpline
 70
8
 71
3
 72
8
 73
4
 74
0
 40
0
 40
0
 40
0
 40
0
 40
1
 40
1
 40
1
 40
1
 10
162.435378
 20
127.262468
 30
0.0
 10
162.210334
 20
127.487512
 30
0.0
 10
161.905110
 20
127.613940
 30
0.0
 10
161.586850
 20
127.613940
 30
0.0
  0
LWPOLYLINE
  5
188
100
AcDbEntity
  8
Bottom
 62
7
100
AcDbPolyline
 90
1
 70
1
 10
141.887060
 20
137.113908
 30
0.0
  0
SPLINE
  5
189
100
AcDbEntity
  8
Bottom
 62
7
100
AcDbSpline
 70
8
 71
3
 72
8
 73
4
 74
0
 40
0
 40
0
 40
0
 40
0
 40
1
 40
1
 40
1
 40
1
 10
161.586820
 20
94.614064
 30
0.0
 10
161.101465
 20
94.614064
 30
0.0
 10
160.663902
 20
94.321693
 30
0.0
 10
160.478165
 20
93.873284
 30
0.0
  0
SPLINE
  5
18a
100
AcDbEntity
  8
Bottom
 62
7
100
AcDbSpline
 70
8
 71
3
 72
8
 73
4
 74
0
 40
0
 40
0
 40
0
 40
0
 40
1
 40
1
 40
1
 40
1
 10
160.478165
 20
93.873284
 30
0.0
 10
160.292427
 20
93.424875
 30
0.0
 10
160.395094
 20
92.908733
 30
0.0
 10
160.738292
 20
92.565536
 30
0.0
  0
SPLINE
  5
18b
100
AcDbEntity
  8
Bottom
 62
7
100
AcDbSpline
 70
8
 71
3
 72
8
 73
4
 74
0
 40
0
 40
0
 40
0
 40
0
 40
1
 40
1
 40
1
 40
1
 10
160.738292
 20
92.565536
 30
0.0
 10
161.081489
 20
92.222338
 30
0.0
 10
161.597631
 20
92.119671
 30
0.0
 10
162.046040
 20
92.305409
 30
0.0
  0
SPLINE
  5
18c
100
AcDbEntity
  8
Bottom
 62
7
100
AcDbSpline
 70
8
 71
3
 72
8
 73
4
 74
0
 40
0
 40
0
 40
0
 40
0
 40
1
 40
1
 40
1
 40
1
 10
162.046040
 20
92.305409
 30
0.0
 10
162.494449
 20
92.491146
 30
0.0
 10
162.786820
 20
92.928709
 30
0.0
 10
162.786820
 20
93.414064
 30
0.0
  0
SPLINE
  5
18d
100
AcDbEntity
  8
Bottom
 62
7
100
AcDbSpline
 70
8
 71
3
 72
8
 73
4
 74
0
 40
0
 40
0
 40
0
 40
0
 40
1
 40
1
 40
1
 40
1
 10
162.786820
 20
93.414064
 30
0.0
 10
162.786820
 20
93.732324
 30
0.0
 10
162.660392
 20
94.037548
 30
0.0
 10
162.435348
 20
94.262592
 30
0.0
  0
SPLINE
  5
18e
100
AcDbEntity
  8
Bottom
 62
7
100
AcDbSpline
 70
8
 71
3
 72
8
 73
4
 74
0
 40
0
 40
0
 40
0
 40
0
 40
1
 40
1
 40
1
 40
1
 10
162.435348
 20
94.262592
 30
0.0
 10
162.210304
 20
94.487636
 30
0.0
 10
161.905080
 20
94.614064
 30
0.0
 10
161.586820
 20
94.614064
 30
0.0
  0
LWPOLYLINE
  5
18f
100
AcDbEntity
  8
Bottom
 62
7
100
AcDbPolyline
 90
1
 70
1
 10
161.586850
 20
127.613940
 30
0.0
  0
SPLINE
  5
190
100
AcDbEntity
  8
Bottom
 62
7
100
AcDbSpline
 70
8
 71
3
 72
8
 73
4
 74
0
 40
0
 40
0
 40
0
 40
0
 40
1
 40
1
 40
1
 40
1
 10
141.912120
 20
94.614064
 30
0.0
 10
141.426765
 20
94.614064
 30
0.0
 10
140.989202
 20
94.321693
 30
0.0
 10
140.803465
 20
93.873284
 30
0.0
  0
SPLINE
  5
191
100
AcDbEntity
  8
Bottom
 62
7
100
AcDbSpline
 70
8
 71
3
 72
8
 73
4
 74
0
 40
0
 40
0
 40
0
 40
0
 40
1
 40
1
 40
1
 40
1
 10
140.803465
 20
93.873284
 30
0.0
 10
140.617727
 20
93.424875
 30
0.0
 10
140.720394
 20
92.908733
 30
0.0
 10
141.063592
 20
92.565536
 30
0.0
  0
SPLINE
  5
192
100
AcDbEntity
  8
Bottom
 62
7
100
AcDbSpline
 70
8
 71
3
 72
8
 73
4
 74
0
 40
0
 40
0
 40
0
 40
0
 40
1
 40
1
 40
1
 40
1
 10
141.063592
 20
92.565536
 30
0.0
 10
141.406789
 20
92.222338
 30
0.0
 10
141.922931
 20
92.119671
 30
0.0
 10
142.371340
 20
92.305409
 30
0.0
  0
SPLINE
  5
193
100
AcDbEntity
  8
Bottom
 62
7
100
AcDbSpline
 70
8
 71
3
 72
8
 73
4
 74
0
 40
0
 40
0
 40
0
 40
0
 40
1
 40
1
 40
1
 40
1
 10
142.371340
 20
92.305409
 30
0.0
 10
142.819749
 20
92.491146
 30
0.0
 10
143.112120
 20
92.928709
 30
0.0
 10
143.112120
 20
93.414064
 30
0.0
  0
SPLINE
  5
194
100
AcDbEntity
  8
Bottom
 62
7
100
AcDbSpline
 70
8
 71
3
 72
8
 73
4
 74
0
 40
0
 40
0
 40
0
 40
0
 40
1
 40
1
 40
1
 40
1
 10
143.112120
 20
93.414064
 30
0.0
 10
143.112120
 20
94.076806
 30
0.0
 10
142.574862
 20
94.614064
 30
0.0
 10
141.912120
 20
94.614064
 30
0.0
  0
LWPOLYLINE
  5
195
100
AcDbEntity
  8
Bottom
 62
7
100
AcDbPolyline
 90
1
 70
1
 10
161.586820
 20
94.614064
 30
0.0
  0
LWPOLYLINE
  5
196
100
AcDbEntity
  8
Bottom
 62
7
100
AcDbPolyline
 90
1
 70
1
 10
141.912120
 20
94.614064
 30
0.0
  0
LWPOLYLINE
  5
197
100
AcDbEntity
  8
Plate
 62
7
100
AcDbPolyline
 90
4
 70
1
 10
102.837160
 20
104.613850
 30
0.0
 10
102.837160
 20
118.414163
 30
0.0
 10
116.637110
 20
118.414163
 30
0.0
 10
116.637110
 20
104.613850
 30
0.0
  0
LWPOLYLINE
  5
198
100
AcDbEntity
  8
Plate
 62
7
100
AcDbPolyline
 90
4
 70
1
 10
83.836915
 20
70.614187
 30
0.0
 10
83.836915
 20
84.414147
 30
0.0
 10
97.637218
 20
84.414147
 30
0.0
 10
97.637218
 20
70.614187
 30
0.0
  0
LWPOLYLINE
  5
199
100
AcDbEntity
  8
Plate
 62
7
100
AcDbPolyline
 90
4
 70
1
 10
91.625184
 20
48.135190
 30
0.0
 10
81.865947
 20
38.375940
 30
0.0
 10
72.108122
 20
48.135190
 30
0.0
 10
81.865947
 20
57.893020
 30
0.0
  0
LWPOLYLINE
  5
19a
100
AcDbEntity
  8
Plate
 62
7
100
AcDbPolyline
 90
4
 70
1
 10
121.837050
 20
62.613892
 30
0.0
 10
121.837050
 20
76.413853
 30
0.0
 10
135.637000
 20
76.413853
 30
0.0
 10
135.637000
 20
62.613892
 30
0.0
  0
LWPOLYLINE
  5
19b
100
AcDbEntity
  8
Plate
 62
7
100
AcDbPolyline
 90
4
 70
1
 10
121.837050
 20
119.613960
 30
0.0
 10
121.837050
 20
133.413921
 30
0.0
 10
135.637000
 20
133.413921
 30
0.0
 10
135.637000
 20
119.613960
 30
0.0
  0
LWPOLYLINE
  5
19c
100
AcDbEntity
  8
Plate
 62
7
100
AcDbPolyline
 90
4
 70
1
 10
26.837243
 20
104.613850
 30
0.0
 10
26.837243
 20
118.414163
 30
0.0
 10
40.637194
 20
118.414163
 30
0.0
 10
40.637194
 20
104.613850
 30
0.0
  0
LWPOLYLINE
  5
19d
100
AcDbEntity
  8
Plate
 62
7
100
AcDbPolyline
 90
4
 70
1
 10
102.837160
 20
66.614039
 30
0.0
 10
102.837160
 20
80.414000
 30
0.0
 10
116.637110
 20
80.414000
 30
0.0
 10
116.637110
 20
66.614039
 30
0.0
  0
LWPOLYLINE
  5
19e
100
AcDbEntity
  8
Plate
 62
7
100
AcDbPolyline
 90
4
 70
1
 10
83.836915
 20
108.613997
 30
0.0
 10
83.836915
 20
122.413958
 30
0.0
 10
97.637218
 20
122.413958
 30
0.0
 10
97.637218
 20
108.613997
 30
0.0
  0
LWPOLYLINE
  5
19f
100
AcDbEntity
  8
Plate
 62
7
100
AcDbPolyline
 90
4
 70
1
 10
7.837000
 20
62.613892
 30
0.0
 10
7.837000
 20
76.413853
 30
0.0
 10
21.636950
 20
76.413853
 30
0.0
 10
21.636950
 20
62.613892
 30
0.0
  0
LWPOLYLINE
  5
1a0
100
AcDbEntity
  8
Plate
 62
7
100
AcDbPolyline
 90
4
 70
1
 10
64.837025
 20
74.613981
 30
0.0
 10
64.837025
 20
88.413942
 30
0.0
 10
78.636975
 20
88.413942
 30
0.0
 10
78.636975
 20
74.613981
 30
0.0
  0
LWPOLYLINE
  5
1a1
100
AcDbEntity
  8
Plate
 62
7
100
AcDbPolyline
 90
4
 70
1
 10
7.837000
 20
81.614150
 30
0.0
 10
7.837000
 20
95.414111
 30
0.0
 10
21.636950
 20
95.414111
 30
0.0
 10
21.636950
 20
81.614150
 30
0.0
  0
LWPOLYLINE
  5
1a2
100
AcDbEntity
  8
Plate
 62
7
100
AcDbPolyline
 90
8
 70
1
 10
110.576040
 20
49.053110
 30
0.0
 10
106.121160
 20
53.507993
 30
0.0
 10
110.965150
 20
58.350926
 30
0.0
 10
111.919060
 20
57.397015
 30
0.0
 10
115.206950
 20
60.684903
 30
0.0
 10
117.752940
 20
58.138906
 30
0.0
 10
114.464000
 20
54.852076
 30
0.0
 10
115.420030
 20
53.897106
 30
0.0
  0
LWPOLYLINE
  5
1a3
100
AcDbEntity
  8
Plate
 62
7
100
AcDbPolyline
 90
4
 70
1
 10
26.837243
 20
66.614039
 30
0.0
 10
26.837243
 20
80.414000
 30
0.0
 10
40.637194
 20
80.414000
 30
0.0
 10
40.637194
 20
66.614039
 30
0.0
  0
LWPOLYLINE
  5
1a4
100
AcDbEntity
  8
Plate
 62
7
100
AcDbPolyline
 90
4
 70
1
 10
83.836915
 20
89.614092
 30
0.0
 10
83.836915
 20
103.414053
 30
0.0
 10
97.637218
 20
103.414053
 30
0.0
 10
97.637218
 20
89.614092
 30
0.0
  0
LWPOLYLINE
  5
1a5
100
AcDbEntity
  8
Plate
 62
7
100
AcDbPolyline
 90
4
 70
1
 10
7.837000
 20
119.613960
 30
0.0
 10
7.837000
 20
133.413921
 30
0.0
 10
21.636950
 20
133.413921
 30
0.0
 10
21.636950
 20
119.613960
 30
0.0
  0
LWPOLYLINE
  5
1a6
100
AcDbEntity
  8
Plate
 62
7
100
AcDbPolyline
 90
4
 70
1
 10
121.837050
 20
81.614150
 30
0.0
 10
121.837050
 20
95.414111
 30
0.0
 10
135.637000
 20
95.414111
 30
0.0
 10
135.637000
 20
81.614150
 30
0.0
  0
LWPOLYLINE
  5
1a7
100
AcDbEntity
  8
Plate
 62
7
100
AcDbPolyline
 90
4
 70
1
 10
45.837134
 20
127.613902
 30
0.0
 10
45.837134
 20
141.413863
 30
0.0
 10
59.637084
 20
141.413863
 30
0.0
 10
59.637084
 20
127.613902
 30
0.0
  0
LWPOLYLINE
  5
1a8
100
AcDbEntity
  8
Plate
 62
7
100
AcDbPolyline
 90
4
 70
1
 10
64.837025
 20
112.614144
 30
0.0
 10
64.837025
 20
126.414105
 30
0.0
 10
78.636975
 20
126.414105
 30
0.0
 10
78.636975
 20
112.614144
 30
0.0
  0
LWPOLYLINE
  5
1a9
100
AcDbEntity
  8
Plate
 62
7
100
AcDbPolyline
 90
4
 70
1
 10
118.495190
 20
21.264100
 30
0.0
 10
108.737010
 20
11.505920
 30
0.0
 10
98.978125
 20
21.264100
 30
0.0
 10
108.737010
 20
31.023000
 30
0.0
  0
LWPOLYLINE
  5
1aa
100
AcDbEntity
  8
Plate
 62
7
100
AcDbPolyline
 90
4
 70
1
 10
102.837160
 20
123.614108
 30
0.0
 10
102.837160
 20
137.414068
 30
0.0
 10
116.637110
 20
137.414068
 30
0.0
 10
116.637110
 20
123.614108
 30
0.0
  0
LWPOLYLINE
  5
1ab
100
AcDbEntity
  8
Plate
 62
7
100
AcDbPolyline
 90
4
 70
1
 10
83.836915
 20
127.613902
 30
0.0
 10
83.836915
 20
141.413863
 30
0.0
 10
97.637218
 20
141.413863
 30
0.0
 10
97.637218
 20
127.613902
 30
0.0
  0
LWPOLYLINE
  5
1ac
100
AcDbEntity
  8
Plate
 62
7
100
AcDbPolyline
 90
4
 70
1
 10
7.837000
 20
100.614055
 30
0.0
 10
7.837000
 20
114.414016
 30
0.0
 10
21.636950
 20
114.414016
 30
0.0
 10
21.636950
 20
100.614055
 30
0.0
  0
LWPOLYLINE
  5
1ad
100
AcDbEntity
  8
Plate
 62
7
100
AcDbPolyline
 90
4
 70
1
 10
26.837244
 20
123.614108
 30
0.0
 10
26.837244
 20
137.414068
 30
0.0
 10
40.637195
 20
137.414068
 30
0.0
 10
40.637195
 20
123.614108
 30
0.0
  0
LWPOLYLINE
  5
1ae
100
AcDbEntity
  8
Plate
 62
7
100
AcDbPolyline
 90
4
 70
1
 10
121.837050
 20
100.614055
 30
0.0
 10
121.837050
 20
114.414016
 30
0.0
 10
135.637000
 20
114.414016
 30
0.0
 10
135.637000
 20
100.614055
 30
0.0
  0
LWPOLYLINE
  5
1af
100
AcDbEntity
  8
Plate
 62
7
100
AcDbPolyline
 90
4
 70
1
 10
26.837243
 20
85.613945
 30
0.0
 10
26.837243
 20
99.413905
 30
0.0
 10
40.637194
 20
99.413905
 30
0.0
 10
40.637194
 20
85.613945
 30
0.0
  0
LWPOLYLINE
  5
1b0
100
AcDbEntity
  8
Plate
 62
7
100
AcDbPolyline
 90
4
 70
1
 10
105.060010
 20
34.700000
 30
0.0
 10
95.302184
 20
24.941110
 30
0.0
 10
85.542947
 20
34.700000
 30
0.0
 10
95.302184
 20
44.458180
 30
0.0
  0
LWPOLYLINE
  5
1b1
100
AcDbEntity
  8
Plate
 62
7
100
AcDbPolyline
 90
4
 70
1
 10
64.837025
 20
131.614049
 30
0.0
 10
64.837025
 20
145.414010
 30
0.0
 10
78.636975
 20
145.414010
 30
0.0
 10
78.636975
 20
131.614049
 30
0.0
  0
LWPOLYLINE
  5
1b2
100
AcDbEntity
  8
Plate
 62
7
100
AcDbPolyline
 90
4
 70
1
 10
45.837134
 20
108.613997
 30
0.0
 10
45.837134
 20
122.413958
 30
0.0
 10
59.637084
 20
122.413958
 30
0.0
 10
59.637084
 20
108.613997
 30
0.0
  0
LWPOLYLINE
  5
1b3
100
AcDbEntity
  8
Plate
 62
7
100
AcDbPolyline
 90
8
 70
1
 10
127.546050
 20
32.083090
 30
0.0
 10
123.091170
 20
36.537970
 30
0.0
 10
127.935160
 20
41.380900
 30
0.0
 10
128.889070
 20
40.426990
 30
0.0
 10
132.176960
 20
43.714880
 30
0.0
 10
134.722950
 20
41.168880
 30
0.0
 10
131.434010
 20
37.882050
 30
0.0
 10
132.390040
 20
36.927080
 30
0.0
  0
LWPOLYLINE
  5
1b4
100
AcDbEntity
  8
Plate
 62
7
100
AcDbPolyline
 90
4
 70
1
 10
45.837134
 20
89.614092
 30
0.0
 10
45.837134
 20
103.414053
 30
0.0
 10
59.637084
 20
103.414053
 30
0.0
 10
59.637084
 20
89.614092
 30
0.0
  0
LWPOLYLINE
  5
1b5
100
AcDbEntity
  8
Plate
 62
7
100
AcDbPolyline
 90
4
 70
1
 10
45.837134
 20
70.614187
 30
0.0
 10
45.837134
 20
84.414147
 30
0.0
 10
59.637084
 20
84.414147
 30
0.0
 10
59.637084
 20
70.614187
 30
0.0
  0
LWPOLYLINE
  5
1b6
100
AcDbEntity
  8
Plate
 62
7
100
AcDbPolyline
 90
4
 70
1
 10
102.837160
 20
85.613945
 30
0.0
 10
102.837160
 20
99.413905
 30
0.0
 10
116.637110
 20
99.413905
 30
0.0
 10
116.637110
 20
85.613945
 30
0.0
  0
LWPOLYLINE
  5
1b7
100
AcDbEntity
  8
Plate
 62
7
100
AcDbPolyline
 90
4
 70
1
 10
128.747960
 20
44.953130
 30
0.0
 10
118.990130
 20
35.194950
 30
0.0
 10
109.231960
 20
44.953130
 30
0.0
 10
118.990130
 20
54.710965
 30
0.0
  0
LWPOLYLINE
  5
1b8
100
AcDbEntity
  8
Plate
 62
7
100
AcDbPolyline
 90
4
 70
1
 10
64.837025
 20
93.613886
 30
0.0
 10
64.837025
 20
107.413847
 30
0.0
 10
78.636975
 20
107.413847
 30
0.0
 10
78.636975
 20
93.613886
 30
0.0
  0
SPLINE
  5
1b9
100
AcDbEntity
  8
Plate
 62
7
100
AcDbSpline
 70
8
 71
3
 72
8
 73
4
 74
0
 40
0
 40
0
 40
0
 40
0
 40
1
 40
1
 40
1
 40
1
 10
163.050040
 20
89.951104
 30
0.0
 10
164.179410
 20
89.935514
 30
0.0
 10
164.995720
 20
89.050194
 30
0.0
 10
165.049940
 20
87.950854
 30
0.0
  0
LWPOLYLINE
  5
1ba
100
AcDbEntity
  8
Plate
 62
7
100
AcDbPolyline
 90
66
 70
0
 10
138.550070
 20
91.951039
 30
0.0
 10
138.550070
 20
91.901999
 30
0.0
 10
138.552070
 20
91.852959
 30
0.0
 10
138.555070
 20
91.803919
 30
0.0
 10
138.559070
 20
91.754879
 30
0.0
 10
138.565070
 20
91.706899
 30
0.0
 10
138.571070
 20
91.657859
 30
0.0
 10
138.579070
 20
91.609879
 30
0.0
 10
138.588070
 20
91.560839
 30
0.0
 10
138.598270
 20
91.512859
 30
0.0
 10
138.609170
 20
91.465939
 30
0.0
 10
138.622170
 20
91.417959
 30
0.0
 10
138.636270
 20
91.371039
 30
0.0
 10
138.650070
 20
91.324119
 30
0.0
 10
138.666270
 20
91.277909
 30
0.0
 10
138.684270
 20
91.232049
 30
0.0
 10
138.702270
 20
91.185839
 30
0.0
 10
138.721270
 20
91.141039
 30
0.0
 10
138.742070
 20
91.095879
 30
0.0
 10
138.763270
 20
91.052129
 30
0.0
 10
138.786170
 20
91.009089
 30
0.0
 10
138.809070
 20
90.966049
 30
0.0
 10
138.834070
 20
90.923009
 30
0.0
 10
138.860170
 20
90.882089
 30
0.0
 10
138.886970
 20
90.840109
 30
0.0
 10
138.914170
 20
90.799889
 30
0.0
 10
138.943070
 20
90.760029
 30
0.0
 10
138.973070
 20
90.720869
 30
0.0
 10
139.003070
 20
90.683119
 30
0.0
 10
139.035170
 20
90.645019
 30
0.0
 10
139.067970
 20
90.607979
 30
0.0
 10
139.101170
 20
90.571999
 30
0.0
 10
139.135070
 20
90.537069
 30
0.0
 10
139.169970
 20
90.502849
 30
0.0
 10
139.205970
 20
90.470039
 30
0.0
 10
139.242970
 20
90.436879
 30
0.0
 10
139.281070
 20
90.405129
 30
0.0
 10
139.319170
 20
90.375139
 30
0.0
 10
139.357970
 20
90.344799
 30
0.0
 10
139.398170
 20
90.315869
 30
0.0
 10
139.438070
 20
90.289059
 30
0.0
 10
139.480070
 20
90.261899
 30
0.0
 10
139.520970
 20
90.236149
 30
0.0
 10
139.563970
 20
90.211099
 30
0.0
 10
139.606970
 20
90.187819
 30
0.0
 10
139.649970
 20
90.164889
 30
0.0
 10
139.694070
 20
90.144079
 30
0.0
 10
139.738870
 20
90.122909
 30
0.0
 10
139.783970
 20
90.103859
 30
0.0
 10
139.829870
 20
90.085869
 30
0.0
 10
139.876070
 20
90.067879
 30
0.0
 10
139.921970
 20
90.051999
 30
0.0
 10
139.968870
 20
90.037889
 30
0.0
 10
140.015770
 20
90.024129
 30
0.0
 10
140.063770
 20
90.011079
 30
0.0
 10
140.111070
 20
90.000139
 30
0.0
 10
140.159070
 20
89.989909
 30
0.0
 10
140.208070
 20
89.981109
 30
0.0
 10
140.256070
 20
89.973009
 30
0.0
 10
140.305070
 20
89.967009
 30
0.0
 10
140.353070
 20
89.961009
 30
0.0
 10
140.402070
 20
89.957109
 30
0.0
 10
140.450770
 20
89.953909
 30
0.0
 10
140.499770
 20
89.951809
 30
0.0
 10
140.549870
 20
89.951104
 30
0.0
 10
163.050040
 20
89.951104
 30
0.0
  0
SPLINE
  5
1bb
100
AcDbEntity
  8
Plate
 62
7
100
AcDbSpline
 70
8
 71
3
 72
8
 73
4
 74
0
 40
0
 40
0
 40
0
 40
0
 40
1
 40
1
 40
1
 40
1
 10
165.049940
 20
60.357988
 30
0.0
 10
165.051940
 20
59.286930
 30
0.0
 10
164.609250
 20
58.298806
 30
0.0
 10
163.878010
 20
57.530121
 30
0.0
  0
LWPOLYLINE
  5
1bc
100
AcDbEntity
  8
Plate
 62
7
100
AcDbPolyline
 90
2
 70
0
 10
165.049940
 20
87.950854
 30
0.0
 10
165.049940
 20
60.357988
 30
0.0
  0
SPLINE
  5
1bd
100
AcDbEntity
  8
Plate
 62
7
100
AcDbSpline
 70
8
 71
3
 72
8
 73
4
 74
0
 40
0
 40
0
 40
0
 40
0
 40
1
 40
1
 40
1
 40
1
 10
108.470730
 20
2.122840
 30
0.0
 10
107.715300
 20
1.364080
 30
0.0
 10
106.703490
 20
0.977320
 30
0.0
 10
105.642860
 20
0.950910
 30
0.0
  0
SPLINE
  5
1be
100
AcDbEntity
  8
Plate
 62
7
100
AcDbSpline
 70
8
 71
3
 72
8
 73
4
 74
0
 40
0
 40
0
 40
0
 40
0
 40
1
 40
1
 40
1
 40
1
 10
105.642860
 20
0.950910
 30
0.0
 10
105.413930
 20
0.948910
 30
0.0
 10
104.956010
 20
0.950910
 30
0.0
 10
104.956010
 20
0.950910
 30
0.0
  0
SPLINE
  5
1bf
100
AcDbEntity
  8
Plate
 62
7
100
AcDbSpline
 70
8
 71
3
 72
8
 73
4
 74
0
 40
0
 40
0
 40
0
 40
0
 40
1
 40
1
 40
1
 40
1
 10
104.956010
 20
0.950910
 30
0.0
 10
103.884200
 20
0.948910
 30
0.0
 10
102.897570
 20
1.392420
 30
0.0
 10
102.127790
 20
2.122840
 30
0.0
  0
LWPOLYLINE
  5
1c0
100
AcDbEntity
  8
Plate
 62
7
100
AcDbPolyline
 90
2
 70
0
 10
163.878010
 20
57.530121
 30
0.0
 10
108.470730
 20
2.122840
 30
0.0
  0
SPLINE
  5
1c1
100
AcDbEntity
  8
Plate
 62
7
100
AcDbSpline
 70
8
 71
3
 72
8
 73
4
 74
0
 40
0
 40
0
 40
0
 40
0
 40
1
 40
1
 40
1
 40
1
 10
48.970980
 20
55.379979
 30
0.0
 10
48.216663
 20
56.136158
 30
0.0
 10
47.203136
 20
56.530500
 30
0.0
 10
46.143113
 20
56.550848
 30
0.0
  0
LWPOLYLINE
  5
1c2
100
AcDbEntity
  8
Plate
 62
7
100
AcDbPolyline
 90
2
 70
0
 10
102.127790
 20
2.122840
 30
0.0
 10
48.970980
 20
55.379979
 30
0.0
  0
SPLINE
  5
1c3
100
AcDbEntity
  8
Plate
 62
7
100
AcDbSpline
 70
8
 71
3
 72
8
 73
4
 74
0
 40
0
 40
0
 40
0
 40
0
 40
1
 40
1
 40
1
 40
1
 10
7.705858
 20
56.550848
 30
0.0
 10
6.634389
 20
56.549448
 30
0.0
 10
5.647014
 20
56.991478
 30
0.0
 10
4.877992
 20
57.723129
 30
0.0
  0
LWPOLYLINE
  5
1c4
100
AcDbEntity
  8
Plate
 62
7
100
AcDbPolyline
 90
2
 70
0
 10
46.143113
 20
56.550848
 30
0.0
 10
7.705858
 20
56.550848
 30
0.0
  0
SPLINE
  5
1c5
100
AcDbEntity
  8
Plate
 62
7
100
AcDbSpline
 70
8
 71
3
 72
8
 73
4
 74
0
 40
0
 40
0
 40
0
 40
0
 40
1
 40
1
 40
1
 40
1
 10
2.220870
 20
60.379898
 30
0.0
 10
1.465313
 20
61.135393
 30
0.0
 10
1.070528
 20
62.147375
 30
0.0
 10
1.050000
 20
63.208117
 30
0.0
  0
LWPOLYLINE
  5
1c6
100
AcDbEntity
  8
Plate
 62
7
100
AcDbPolyline
 90
2
 70
0
 10
4.877992
 20
57.723129
 30
0.0
 10
2.220870
 20
60.379898
 30
0.0
  0
SPLINE
  5
1c7
100
AcDbEntity
  8
Plate
 62
7
100
AcDbSpline
 70
8
 71
3
 72
8
 73
4
 74
0
 40
0
 40
0
 40
0
 40
0
 40
1
 40
1
 40
1
 40
1
 10
1.050000
 20
133.045063
 30
0.0
 10
1.044409
 20
134.115344
 30
0.0
 10
1.490625
 20
135.105295
 30
0.0
 10
2.220870
 20
135.872930
 30
0.0
  0
LWPOLYLINE
  5
1c8
100
AcDbEntity
  8
Plate
 62
7
100
AcDbPolyline
 90
2
 70
0
 10
1.050000
 20
63.208117
 30
0.0
 10
1.050000
 20
133.045063
 30
0.0
  0
SPLINE
  5
1c9
100
AcDbEntity
  8
Plate
 62
7
100
AcDbSpline
 70
8
 71
3
 72
8
 73
4
 74
0
 40
0
 40
0
 40
0
 40
0
 40
1
 40
1
 40
1
 40
1
 10
5.208897
 20
138.860957
 30
0.0
 10
5.880273
 20
139.416149
 30
0.0
 10
6.445769
 20
139.766790
 30
0.0
 10
7.213028
 20
139.946102
 30
0.0
  0
LWPOLYLINE
  5
1ca
100
AcDbEntity
  8
Plate
 62
7
100
AcDbPolyline
 90
2
 70
0
 10
2.220870
 20
135.872930
 30
0.0
 10
5.208897
 20
138.860957
 30
0.0
  0
SPLINE
  5
1cb
100
AcDbEntity
  8
Plate
 62
7
100
AcDbSpline
 70
8
 71
3
 72
8
 73
4
 74
0
 40
0
 40
0
 40
0
 40
0
 40
1
 40
1
 40
1
 40
1
 10
62.641824
 20
151.615991
 30
0.0
 10
62.912687
 20
151.676769
 30
0.0
 10
63.189180
 20
151.695299
 30
0.0
 10
63.465913
 20
151.701009
 30
0.0
  0
LWPOLYLINE
  5
1cc
100
AcDbEntity
  8
Plate
 62
7
100
AcDbPolyline
 90
2
 70
0
 10
7.213028
 20
139.946102
 30
0.0
 10
62.641824
 20
151.615991
 30
0.0
  0
SPLINE
  5
1cd
100
AcDbEntity
  8
Plate
 62
7
100
AcDbSpline
 70
8
 71
3
 72
8
 73
4
 74
0
 40
0
 40
0
 40
0
 40
0
 40
1
 40
1
 40
1
 40
1
 10
90.322884
 20
151.701009
 30
0.0
 10
90.640275
 20
151.707009
 30
0.0
 10
90.952963
 20
151.656385
 30
0.0
 10
91.261979
 20
151.589885
 30
0.0
  0
LWPOLYLINE
  5
1ce
100
AcDbEntity
  8
Plate
 62
7
100
AcDbPolyline
 90
2
 70
0
 10
63.465913
 20
151.701009
 30
0.0
 10
90.322884
 20
151.701009
 30
0.0
  0
SPLINE
  5
1cf
100
AcDbEntity
  8
Plate
 62
7
100
AcDbSpline
 70
8
 71
3
 72
8
 73
4
 74
0
 40
0
 40
0
 40
0
 40
0
 40
1
 40
1
 40
1
 40
1
 10
137.019020
 20
140.539121
 30
0.0
 10
137.936300
 20
140.305327
 30
0.0
 10
138.505700
 20
139.520866
 30
0.0
 10
138.550070
 20
138.594963
 30
0.0
  0
LWPOLYLINE
  5
1d0
100
AcDbEntity
  8
Plate
 62
7
100
AcDbPolyline
 90
2
 70
0
 10
91.261979
 20
151.589885
 30
0.0
 10
137.019020
 20
140.539121
 30
0.0
  0
SPLINE
  5
1d1
100
AcDbEntity
  8
Plate
 62
7
100
AcDbSpline
 70
8
 71
3
 72
8
 73
4
 74
0
 40
0
 40
0
 40
0
 40
0
 40
1
 40
1
 40
1
 40
1
 10
56.700072
 20
148.125155
 30
0.0
 10
56.214717
 20
148.125155
 30
0.0
 10
55.777154
 20
147.832784
 30
0.0
 10
55.591416
 20
147.384375
 30
0.0
  0
SPLINE
  5
1d2
100
AcDbEntity
  8
Plate
 62
7
100
AcDbSpline
 70
8
 71
3
 72
8
 73
4
 74
0
 40
0
 40
0
 40
0
 40
0
 40
1
 40
1
 40
1
 40
1
 10
55.591416
 20
147.384375
 30
0.0
 10
55.405679
 20
146.935966
 30
0.0
 10
55.508346
 20
146.419824
 30
0.0
 10
55.851544
 20
146.076627
 30
0.0
  0
SPLINE
  5
1d3
100
AcDbEntity
  8
Plate
 62
7
100
AcDbSpline
 70
8
 71
3
 72
8
 73
4
 74
0
 40
0
 40
0
 40
0
 40
0
 40
1
 40
1
 40
1
 40
1
 10
55.851544
 20
146.076627
 30
0.0
 10
56.194741
 20
145.733429
 30
0.0
 10
56.710883
 20
145.630762
 30
0.0
 10
57.159292
 20
145.816499
 30
0.0
  0
SPLINE
  5
1d4
100
AcDbEntity
  8
Plate
 62
7
100
AcDbSpline
 70
8
 71
3
 72
8
 73
4
 74
0
 40
0
 40
0
 40
0
 40
0
 40
1
 40
1
 40
1
 40
1
 10
57.159292
 20
145.816499
 30
0.0
 10
57.607701
 20
146.002236
 30
0.0
 10
57.900072
 20
146.439800
 30
0.0
 10
57.900072
 20
146.925155
 30
0.0
  0
SPLINE
  5
1d5
100
AcDbEntity
  8
Plate
 62
7
100
AcDbSpline
 70
8
 71
3
 72
8
 73
4
 74
0
 40
0
 40
0
 40
0
 40
0
 40
1
 40
1
 40
1
 40
1
 10
57.900072
 20
146.925155
 30
0.0
 10
57.900072
 20
147.243414
 30
0.0
 10
57.773644
 20
147.548639
 30
0.0
 10
57.548600
 20
147.773683
 30
0.0
  0
SPLINE
  5
1d6
100
AcDbEntity
  8
Plate
 62
7
100
AcDbSpline
 70
8
 71
3
 72
8
 73
4
 74
0
 40
0
 40
0
 40
0
 40
0
 40
1
 40
1
 40
1
 40
1
 10
57.548600
 20
147.773683
 30
0.0
 10
57.323556
 20
147.998726
 30
0.0
 10
57.018332
 20
148.125155
 30
0.0
 10
56.700072
 20
148.125155
 30
0.0
  0
LWPOLYLINE
  5
1d7
100
AcDbEntity
  8
Plate
 62
7
100
AcDbPolyline
 90
2
 70
0
 10
138.550070
 20
138.594963
 30
0.0
 10
138.550070
 20
91.951039
 30
0.0
  0
SPLINE
  5
1d8
100
AcDbEntity
  8
Plate
 62
7
100
AcDbSpline
 70
8
 71
3
 72
8
 73
4
 74
0
 40
0
 40
0
 40
0
 40
0
 40
1
 40
1
 40
1
 40
1
 10
97.000182
 20
148.125155
 30
0.0
 10
96.514827
 20
148.125155
 30
0.0
 10
96.077264
 20
147.832784
 30
0.0
 10
95.891526
 20
147.384375
 30
0.0
  0
SPLINE
  5
1d9
100
AcDbEntity
  8
Plate
 62
7
100
AcDbSpline
 70
8
 71
3
 72
8
 73
4
 74
0
 40
0
 40
0
 40
0
 40
0
 40
1
 40
1
 40
1
 40
1
 10
95.891526
 20
147.384375
 30
0.0
 10
95.705789
 20
146.935966
 30
0.0
 10
95.808456
 20
146.419824
 30
0.0
 10
96.151654
 20
146.076627
 30
0.0
  0
SPLINE
  5
1da
100
AcDbEntity
  8
Plate
 62
7
100
AcDbSpline
 70
8
 71
3
 72
8
 73
4
 74
0
 40
0
 40
0
 40
0
 40
0
 40
1
 40
1
 40
1
 40
1
 10
96.151654
 20
146.076627
 30
0.0
 10
96.494851
 20
145.733429
 30
0.0
 10
97.010993
 20
145.630762
 30
0.0
 10
97.459402
 20
145.816499
 30
0.0
  0
SPLINE
  5
1db
100
AcDbEntity
  8
Plate
 62
7
100
AcDbSpline
 70
8
 71
3
 72
8
 73
4
 74
0
 40
0
 40
0
 40
0
 40
0
 40
1
 40
1
 40
1
 40
1
 10
97.459402
 20
145.816499
 30
0.0
 10
97.907811
 20
146.002236
 30
0.0
 10
98.200182
 20
146.439800
 30
0.0
 10
98.200182
 20
146.925155
 30
0.0
  0
SPLINE
  5
1dc
100
AcDbEntity
  8
Plate
 62
7
100
AcDbSpline
 70
8
 71
3
 72
8
 73
4
 74
0
 40
0
 40
0
 40
0
 40
0
 40
1
 40
1
 40
1
 40
1
 10
98.200182
 20
146.925155
 30
0.0
 10
98.200182
 20
147.243414
 30
0.0
 10
98.073754
 20
147.548639
 30
0.0
 10
97.848710
 20
147.773683
 30
0.0
  0
SPLINE
  5
1dd
100
AcDbEntity
  8
Plate
 62
7
100
AcDbSpline
 70
8
 71
3
 72
8
 73
4
 74
0
 40
0
 40
0
 40
0
 40
0
 40
1
 40
1
 40
1
 40
1
 10
97.848710
 20
147.773683
 30
0.0
 10
97.623666
 20
147.998726
 30
0.0
 10
97.318442
 20
148.125155
 30
0.0
 10
97.000182
 20
148.125155
 30
0.0
  0
LWPOLYLINE
  5
1de
100
AcDbEntity
  8
Plate
 62
7
100
AcDbPolyline
 90
1
 70
1
 10
56.700072
 20
148.125155
 30
0.0
  0
SPLINE
  5
1df
100
AcDbEntity
  8
Plate
 62
7
100
AcDbSpline
 70
8
 71
3
 72
8
 73
4
 74
0
 40
0
 40
0
 40
0
 40
0
 40
1
 40
1
 40
1
 40
1
 10
135.100175
 20
138.750263
 30
0.0
 10
134.614820
 20
138.750263
 30
0.0
 10
134.177257
 20
138.457892
 30
0.0
 10
133.991519
 20
138.009483
 30
0.0
  0
SPLINE
  5
1e0
100
AcDbEntity
  8
Plate
 62
7
100
AcDbSpline
 70
8
 71
3
 72
8
 73
4
 74
0
 40
0
 40
0
 40
0
 40
0
 40
1
 40
1
 40
1
 40
1
 10
133.991519
 20
138.009483
 30
0.0
 10
133.805782
 20
137.561074
 30
0.0
 10
133.908449
 20
137.044932
 30
0.0
 10
134.251647
 20
136.701735
 30
0.0
  0
SPLINE
  5
1e1
100
AcDbEntity
  8
Plate
 62
7
100
AcDbSpline
 70
8
 71
3
 72
8
 73
4
 74
0
 40
0
 40
0
 40
0
 40
0
 40
1
 40
1
 40
1
 40
1
 10
134.251647
 20
136.701735
 30
0.0
 10
134.594844
 20
136.358537
 30
0.0
 10
135.110986
 20
136.255870
 30
0.0
 10
135.559395
 20
136.441608
 30
0.0
  0
SPLINE
  5
1e2
100
AcDbEntity
  8
Plate
 62
7
100
AcDbSpline
 70
8
 71
3
 72
8
 73
4
 74
0
 40
0
 40
0
 40
0
 40
0
 40
1
 40
1
 40
1
 40
1
 10
135.559395
 20
136.441608
 30
0.0
 10
136.007804
 20
136.627345
 30
0.0
 10
136.300175
 20
137.064908
 30
0.0
 10
136.300175
 20
137.550263
 30
0.0
  0
SPLINE
  5
1e3
100
AcDbEntity
  8
Plate
 62
7
100
AcDbSpline
 70
8
 71
3
 72
8
 73
4
 74
0
 40
0
 40
0
 40
0
 40
0
 40
1
 40
1
 40
1
 40
1
 10
136.300175
 20
137.550263
 30
0.0
 10
136.300175
 20
138.213005
 30
0.0
 10
135.762916
 20
138.750263
 30
0.0
 10
135.100175
 20
138.750263
 30
0.0
  0
LWPOLYLINE
  5
1e4
100
AcDbEntity
  8
Plate
 62
7
100
AcDbPolyline
 90
1
 70
1
 10
97.000182
 20
148.125155
 30
0.0
  0
SPLINE
  5
1e5
100
AcDbEntity
  8
Plate
 62
7
100
AcDbSpline
 70
8
 71
3
 72
8
 73
4
 74
0
 40
0
 40
0
 40
0
 40
0
 40
1
 40
1
 40
1
 40
1
 10
161.600305
 20
87.800153
 30
0.0
 10
161.114950
 20
87.800153
 30
0.0
 10
160.677387
 20
87.507782
 30
0.0
 10
160.491649
 20
87.059373
 30
0.0
  0
SPLINE
  5
1e6
100
AcDbEntity
  8
Plate
 62
7
100
AcDbSpline
 70
8
 71
3
 72
8
 73
4
 74
0
 40
0
 40
0
 40
0
 40
0
 40
1
 40
1
 40
1
 40
1
 10
160.491649
 20
87.059373
 30
0.0
 10
160.305912
 20
86.610964
 30
0.0
 10
160.408579
 20
86.094822
 30
0.0
 10
160.751777
 20
85.751625
 30
0.0
  0
SPLINE
  5
1e7
100
AcDbEntity
  8
Plate
 62
7
100
AcDbSpline
 70
8
 71
3
 72
8
 73
4
 74
0
 40
0
 40
0
 40
0
 40
0
 40
1
 40
1
 40
1
 40
1
 10
160.751777
 20
85.751625
 30
0.0
 10
161.094974
 20
85.408427
 30
0.0
 10
161.611116
 20
85.305760
 30
0.0
 10
162.059525
 20
85.491498
 30
0.0
  0
SPLINE
  5
1e8
100
AcDbEntity
  8
Plate
 62
7
100
AcDbSpline
 70
8
 71
3
 72
8
 73
4
 74
0
 40
0
 40
0
 40
0
 40
0
 40
1
 40
1
 40
1
 40
1
 10
162.059525
 20
85.491498
 30
0.0
 10
162.507934
 20
85.677235
 30
0.0
 10
162.800305
 20
86.114798
 30
0.0
 10
162.800305
 20
86.600153
 30
0.0
  0
SPLINE
  5
1e9
100
AcDbEntity
  8
Plate
 62
7
100
AcDbSpline
 70
8
 71
3
 72
8
 73
4
 74
0
 40
0
 40
0
 40
0
 40
0
 40
1
 40
1
 40
1
 40
1
 10
162.800305
 20
86.600153
 30
0.0
 10
162.800305
 20
86.918413
 30
0.0
 10
162.673877
 20
87.223637
 30
0.0
 10
162.448833
 20
87.448681
 30
0.0
  0
SPLINE
  5
1ea
100
AcDbEntity
  8
Plate
 62
7
100
AcDbSpline
 70
8
 71
3
 72
8
 73
4
 74
0
 40
0
 40
0
 40
0
 40
0
 40
1
 40
1
 40
1
 40
1
 10
162.448833
 20
87.448681
 30
0.0
 10
162.223789
 20
87.673725
 30
0.0
 10
161.918565
 20
87.800153
 30
0.0
 10
161.600305
 20
87.800153
 30
0.0
  0
LWPOLYLINE
  5
1eb
100
AcDbEntity
  8
Plate
 62
7
100
AcDbPolyline
 90
1
 70
1
 10
135.100175
 20
138.750263
 30
0.0
  0
SPLINE
  5
1ec
100
AcDbEntity
  8
Plate
 62
7
100
AcDbSpline
 70
8
 71
3
 72
8
 73
4
 74
0
 40
0
 40
0
 40
0
 40
0
 40
1
 40
1
 40
1
 40
1
 10
161.600305
 20
61.200353
 30
0.0
 10
161.114950
 20
61.200353
 30
0.0
 10
160.677387
 20
60.907982
 30
0.0
 10
160.491649
 20
60.459573
 30
0.0
  0
SPLINE
  5
1ed
100
AcDbEntity
  8
Plate
 62
7
100
AcDbSpline
 70
8
 71
3
 72
8
 73
4
 74
0
 40
0
 40
0
 40
0
 40
0
 40
1
 40
1
 40
1
 40
1
 10
160.491649
 20
60.459573
 30
0.0
 10
160.305912
 20
60.011164
 30
0.0
 10
160.408579
 20
59.495022
 30
0.0
 10
160.751777
 20
59.151825
 30
0.0
  0
SPLINE
  5
1ee
100
AcDbEntity
  8
Plate
 62
7
100
AcDbSpline
 70
8
 71
3
 72
8
 73
4
 74
0
 40
0
 40
0
 40
0
 40
0
 40
1
 40
1
 40
1
 40
1
 10
160.751777
 20
59.151825
 30
0.0
 10
161.094974
 20
58.808627
 30
0.0
 10
161.611116
 20
58.705960
 30
0.0
 10
162.059525
 20
58.891698
 30
0.0
  0
SPLINE
  5
1ef
100
AcDbEntity
  8
Plate
 62
7
100
AcDbSpline
 70
8
 71
3
 72
8
 73
4
 74
0
 40
0
 40
0
 40
0
 40
0
 40
1
 40
1
 40
1
 40
1
 10
162.059525
 20
58.891698
 30
0.0
 10
162.507934
 20
59.077435
 30
0.0
 10
162.800305
 20
59.514998
 30
0.0
 10
162.800305
 20
60.000353
 30
0.0
  0
SPLINE
  5
1f0
100
AcDbEntity
  8
Plate
 62
7
100
AcDbSpline
 70
8
 71
3
 72
8
 73
4
 74
0
 40
0
 40
0
 40
0
 40
0
 40
1
 40
1
 40
1
 40
1
 10
162.800305
 20
60.000353
 30
0.0
 10
162.800305
 20
60.318613
 30
0.0
 10
162.673877
 20
60.623837
 30
0.0
 10
162.448833
 20
60.848881
 30
0.0
  0
SPLINE
  5
1f1
100
AcDbEntity
  8
Plate
 62
7
100
AcDbSpline
 70
8
 71
3
 72
8
 73
4
 74
0
 40
0
 40
0
 40
0
 40
0
 40
1
 40
1
 40
1
 40
1
 10
162.448833
 20
60.848881
 30
0.0
 10
162.223789
 20
61.073925
 30
0.0
 10
161.918565
 20
61.200353
 30
0.0
 10
161.600305
 20
61.200353
 30
0.0
  0
LWPOLYLINE
  5
1f2
100
AcDbEntity
  8
Plate
 62
7
100
AcDbPolyline
 90
1
 70
1
 10
161.600305
 20
87.800153
 30
0.0
  0
SPLINE
  5
1f3
100
AcDbEntity
  8
Plate
 62
7
100
AcDbSpline
 70
8
 71
3
 72
8
 73
4
 74
0
 40
0
 40
0
 40
0
 40
0
 40
1
 40
1
 40
1
 40
1
 10
141.925185
 20
87.800153
 30
0.0
 10
141.439830
 20
87.800153
 30
0.0
 10
141.002267
 20
87.507782
 30
0.0
 10
140.816529
 20
87.059373
 30
0.0
  0
SPLINE
  5
1f4
100
AcDbEntity
  8
Plate
 62
7
100
AcDbSpline
 70
8
 71
3
 72
8
 73
4
 74
0
 40
0
 40
0
 40
0
 40
0
 40
1
 40
1
 40
1
 40
1
 10
140.816529
 20
87.059373
 30
0.0
 10
140.630792
 20
86.610964
 30
0.0
 10
140.733459
 20
86.094822
 30
0.0
 10
141.076657
 20
85.751625
 30
0.0
  0
SPLINE
  5
1f5
100
AcDbEntity
  8
Plate
 62
7
100
AcDbSpline
 70
8
 71
3
 72
8
 73
4
 74
0
 40
0
 40
0
 40
0
 40
0
 40
1
 40
1
 40
1
 40
1
 10
141.076657
 20
85.751625
 30
0.0
 10
141.419854
 20
85.408427
 30
0.0
 10
141.935996
 20
85.305760
 30
0.0
 10
142.384405
 20
85.491498
 30
0.0
  0
SPLINE
  5
1f6
100
AcDbEntity
  8
Plate
 62
7
100
AcDbSpline
 70
8
 71
3
 72
8
 73
4
 74
0
 40
0
 40
0
 40
0
 40
0
 40
1
 40
1
 40
1
 40
1
 10
142.384405
 20
85.491498
 30
0.0
 10
142.832814
 20
85.677235
 30
0.0
 10
143.125185
 20
86.114798
 30
0.0
 10
143.125185
 20
86.600153
 30
0.0
  0
SPLINE
  5
1f7
100
AcDbEntity
  8
Plate
 62
7
100
AcDbSpline
 70
8
 71
3
 72
8
 73
4
 74
0
 40
0
 40
0
 40
0
 40
0
 40
1
 40
1
 40
1
 40
1
 10
143.125185
 20
86.600153
 30
0.0
 10
143.125185
 20
86.918413
 30
0.0
 10
142.998757
 20
87.223637
 30
0.0
 10
142.773713
 20
87.448681
 30
0.0
  0
SPLINE
  5
1f8
100
AcDbEntity
  8
Plate
 62
7
100
AcDbSpline
 70
8
 71
3
 72
8
 73
4
 74
0
 40
0
 40
0
 40
0
 40
0
 40
1
 40
1
 40
1
 40
1
 10
142.773713
 20
87.448681
 30
0.0
 10
142.548669
 20
87.673725
 30
0.0
 10
142.243445
 20
87.800153
 30
0.0
 10
141.925185
 20
87.800153
 30
0.0
  0
LWPOLYLINE
  5
1f9
100
AcDbEntity
  8
Plate
 62
7
100
AcDbPolyline
 90
1
 70
1
 10
161.600305
 20
61.200353
 30
0.0
  0
SPLINE
  5
1fa
100
AcDbEntity
  8
Plate
 62
7
100
AcDbSpline
 70
8
 71
3
 72
8
 73
4
 74
0
 40
0
 40
0
 40
0
 40
0
 40
1
 40
1
 40
1
 40
1
 10
101.500035
 20
102.125406
 30
0.0
 10
100.837293
 20
102.125406
 30
0.0
 10
100.300035
 20
101.588148
 30
0.0
 10
100.300035
 20
100.925406
 30
0.0
  0
SPLINE
  5
1fb
100
AcDbEntity
  8
Plate
 62
7
100
AcDbSpline
 70
8
 71
3
 72
8
 73
4
 74
0
 40
0
 40
0
 40
0
 40
0
 40
1
 40
1
 40
1
 40
1
 10
100.300035
 20
100.925406
 30
0.0
 10
100.300035
 20
100.262664
 30
0.0
 10
100.837293
 20
99.725406
 30
0.0
 10
101.500035
 20
99.725406
 30
0.0
  0
SPLINE
  5
1fc
100
AcDbEntity
  8
Plate
 62
7
100
AcDbSpline
 70
8
 71
3
 72
8
 73
4
 74
0
 40
0
 40
0
 40
0
 40
0
 40
1
 40
1
 40
1
 40
1
 10
101.500035
 20
99.725406
 30
0.0
 10
102.162776
 20
99.725406
 30
0.0
 10
102.700035
 20
100.262664
 30
0.0
 10
102.700035
 20
100.925406
 30
0.0
  0
SPLINE
  5
1fd
100
AcDbEntity
  8
Plate
 62
7
100
AcDbSpline
 70
8
 71
3
 72
8
 73
4
 74
0
 40
0
 40
0
 40
0
 40
0
 40
1
 40
1
 40
1
 40
1
 10
102.700035
 20
100.925406
 30
0.0
 10
102.700035
 20
101.243666
 30
0.0
 10
102.573607
 20
101.548890
 30
0.0
 10
102.348563
 20
101.773934
 30
0.0
  0
SPLINE
  5
1fe
100
AcDbEntity
  8
Plate
 62
7
100
AcDbSpline
 70
8
 71
3
 72
8
 73
4
 74
0
 40
0
 40
0
 40
0
 40
0
 40
1
 40
1
 40
1
 40
1
 10
102.348563
 20
101.773934
 30
0.0
 10
102.123519
 20
101.998978
 30
0.0
 10
101.818295
 20
102.125406
 30
0.0
 10
101.500035
 20
102.125406
 30
0.0
  0
LWPOLYLINE
  5
1ff
100
AcDbEntity
  8
Plate
 62
7
100
AcDbPolyline
 90
1
 70
1
 10
141.925185
 20
87.800153
 30
0.0
  0
SPLINE
  5
200
100
AcDbEntity
  8
Plate
 62
7
100
AcDbSpline
 70
8
 71
3
 72
8
 73
4
 74
0
 40
0
 40
0
 40
0
 40
0
 40
1
 40
1
 40
1
 40
1
 10
98.850150
 20
61.200353
 30
0.0
 10
98.364795
 20
61.200353
 30
0.0
 10
97.927232
 20
60.907982
 30
0.0
 10
97.741494
 20
60.459573
 30
0.0
  0
SPLINE
  5
201
100
AcDbEntity
  8
Plate
 62
7
100
AcDbSpline
 70
8
 71
3
 72
8
 73
4
 74
0
 40
0
 40
0
 40
0
 40
0
 40
1
 40
1
 40
1
 40
1
 10
97.741494
 20
60.459573
 30
0.0
 10
97.555757
 20
60.011164
 30
0.0
 10
97.658424
 20
59.495022
 30
0.0
 10
98.001622
 20
59.151825
 30
0.0
  0
SPLINE
  5
202
100
AcDbEntity
  8
Plate
 62
7
100
AcDbSpline
 70
8
 71
3
 72
8
 73
4
 74
0
 40
0
 40
0
 40
0
 40
0
 40
1
 40
1
 40
1
 40
1
 10
98.001622
 20
59.151825
 30
0.0
 10
98.344819
 20
58.808627
 30
0.0
 10
98.860961
 20
58.705960
 30
0.0
 10
99.309370
 20
58.891698
 30
0.0
  0
SPLINE
  5
203
100
AcDbEntity
  8
Plate
 62
7
100
AcDbSpline
 70
8
 71
3
 72
8
 73
4
 74
0
 40
0
 40
0
 40
0
 40
0
 40
1
 40
1
 40
1
 40
1
 10
99.309370
 20
58.891698
 30
0.0
 10
99.757779
 20
59.077435
 30
0.0
 10
100.050150
 20
59.514998
 30
0.0
 10
100.050150
 20
60.000353
 30
0.0
  0
SPLINE
  5
204
100
AcDbEntity
  8
Plate
 62
7
100
AcDbSpline
 70
8
 71
3
 72
8
 73
4
 74
0
 40
0
 40
0
 40
0
 40
0
 40
1
 40
1
 40
1
 40
1
 10
100.050150
 20
60.000353
 30
0.0
 10
100.050150
 20
60.318613
 30
0.0
 10
99.923722
 20
60.623837
 30
0.0
 10
99.698678
 20
60.848881
 30
0.0
  0
SPLINE
  5
205
100
AcDbEntity
  8
Plate
 62
7
100
AcDbSpline
 70
8
 71
3
 72
8
 73
4
 74
0
 40
0
 40
0
 40
0
 40
0
 40
1
 40
1
 40
1
 40
1
 10
99.698678
 20
60.848881
 30
0.0
 10
99.473634
 20
61.073925
 30
0.0
 10
99.168410
 20
61.200353
 30
0.0
 10
98.850150
 20
61.200353
 30
0.0
  0
LWPOLYLINE
  5
206
100
AcDbEntity
  8
Plate
 62
7
100
AcDbPolyline
 90
1
 70
1
 10
101.500035
 20
102.125406
 30
0.0
  0
SPLINE
  5
207
100
AcDbEntity
  8
Plate
 62
7
100
AcDbSpline
 70
8
 71
3
 72
8
 73
4
 74
0
 40
0
 40
0
 40
0
 40
0
 40
1
 40
1
 40
1
 40
1
 10
105.250055
 20
5.600285
 30
0.0
 10
104.764700
 20
5.600285
 30
0.0
 10
104.327137
 20
5.307914
 30
0.0
 10
104.141399
 20
4.859505
 30
0.0
  0
SPLINE
  5
208
100
AcDbEntity
  8
Plate
 62
7
100
AcDbSpline
 70
8
 71
3
 72
8
 73
4
 74
0
 40
0
 40
0
 40
0
 40
0
 40
1
 40
1
 40
1
 40
1
 10
104.141399
 20
4.859505
 30
0.0
 10
103.955662
 20
4.411096
 30
0.0
 10
104.058329
 20
3.894954
 30
0.0
 10
104.401527
 20
3.551757
 30
0.0
  0
SPLINE
  5
209
100
AcDbEntity
  8
Plate
 62
7
100
AcDbSpline
 70
8
 71
3
 72
8
 73
4
 74
0
 40
0
 40
0
 40
0
 40
0
 40
1
 40
1
 40
1
 40
1
 10
104.401527
 20
3.551757
 30
0.0
 10
104.744724
 20
3.208559
 30
0.0
 10
105.260866
 20
3.105892
 30
0.0
 10
105.709275
 20
3.291630
 30
0.0
  0
SPLINE
  5
20a
100
AcDbEntity
  8
Plate
 62
7
100
AcDbSpline
 70
8
 71
3
 72
8
 73
4
 74
0
 40
0
 40
0
 40
0
 40
0
 40
1
 40
1
 40
1
 40
1
 10
105.709275
 20
3.291630
 30
0.0
 10
106.157684
 20
3.477367
 30
0.0
 10
106.450055
 20
3.914930
 30
0.0
 10
106.450055
 20
4.400285
 30
0.0
  0
SPLINE
  5
20b
100
AcDbEntity
  8
Plate
 62
7
100
AcDbSpline
 70
8
 71
3
 72
8
 73
4
 74
0
 40
0
 40
0
 40
0
 40
0
 40
1
 40
1
 40
1
 40
1
 10
106.450055
 20
4.400285
 30
0.0
 10
106.450055
 20
4.718545
 30
0.0
 10
106.323627
 20
5.023769
 30
0.0
 10
106.098583
 20
5.248813
 30
0.0
  0
SPLINE
  5
20c
100
AcDbEntity
  8
Plate
 62
7
100
AcDbSpline
 70
8
 71
3
 72
8
 73
4
 74
0
 40
0
 40
0
 40
0
 40
0
 40
1
 40
1
 40
1
 40
1
 10
106.098583
 20
5.248813
 30
0.0
 10
105.873539
 20
5.473857
 30
0.0
 10
105.568315
 20
5.600285
 30
0.0
 10
105.250055
 20
5.600285
 30
0.0
  0
LWPOLYLINE
  5
20d
100
AcDbEntity
  8
Plate
 62
7
100
AcDbPolyline
 90
1
 70
1
 10
98.850150
 20
61.200353
 30
0.0
  0
SPLINE
  5
20e
100
AcDbEntity
  8
Plate
 62
7
100
AcDbSpline
 70
8
 71
3
 72
8
 73
4
 74
0
 40
0
 40
0
 40
0
 40
0
 40
1
 40
1
 40
1
 40
1
 10
48.925208
 20
61.200353
 30
0.0
 10
48.439853
 20
61.200353
 30
0.0
 10
48.002290
 20
60.907982
 30
0.0
 10
47.816552
 20
60.459573
 30
0.0
  0
SPLINE
  5
20f
100
AcDbEntity
  8
Plate
 62
7
100
AcDbSpline
 70
8
 71
3
 72
8
 73
4
 74
0
 40
0
 40
0
 40
0
 40
0
 40
1
 40
1
 40
1
 40
1
 10
47.816552
 20
60.459573
 30
0.0
 10
47.630815
 20
60.011164
 30
0.0
 10
47.733482
 20
59.495022
 30
0.0
 10
48.076680
 20
59.151825
 30
0.0
  0
SPLINE
  5
210
100
AcDbEntity
  8
Plate
 62
7
100
AcDbSpline
 70
8
 71
3
 72
8
 73
4
 74
0
 40
0
 40
0
 40
0
 40
0
 40
1
 40
1
 40
1
 40
1
 10
48.076680
 20
59.151825
 30
0.0
 10
48.419877
 20
58.808627
 30
0.0
 10
48.936019
 20
58.705960
 30
0.0
 10
49.384428
 20
58.891698
 30
0.0
  0
SPLINE
  5
211
100
AcDbEntity
  8
Plate
 62
7
100
AcDbSpline
 70
8
 71
3
 72
8
 73
4
 74
0
 40
0
 40
0
 40
0
 40
0
 40
1
 40
1
 40
1
 40
1
 10
49.384428
 20
58.891698
 30
0.0
 10
49.832837
 20
59.077435
 30
0.0
 10
50.125208
 20
59.514998
 30
0.0
 10
50.125208
 20
60.000353
 30
0.0
  0
SPLINE
  5
212
100
AcDbEntity
  8
Plate
 62
7
100
AcDbSpline
 70
8
 71
3
 72
8
 73
4
 74
0
 40
0
 40
0
 40
0
 40
0
 40
1
 40
1
 40
1
 40
1
 10
50.125208
 20
60.000353
 30
0.0
 10
50.125208
 20
60.318613
 30
0.0
 10
49.998780
 20
60.623837
 30
0.0
 10
49.773736
 20
60.848881
 30
0.0
  0
SPLINE
  5
213
100
AcDbEntity
  8
Plate
 62
7
100
AcDbSpline
 70
8
 71
3
 72
8
 73
4
 74
0
 40
0
 40
0
 40
0
 40
0
 40
1
 40
1
 40
1
 40
1
 10
49.773736
 20
60.848881
 30
0.0
 10
49.548692
 20
61.073925
 30
0.0
 10
49.243468
 20
61.200353
 30
0.0
 10
48.925208
 20
61.200353
 30
0.0
  0
LWPOLYLINE
  5
214
100
AcDbEntity
  8
Plate
 62
7
100
AcDbPolyline
 90
1
 70
1
 10
105.250055
 20
5.600285
 30
0.0
  0
SPLINE
  5
215
100
AcDbEntity
  8
Plate
 62
7
100
AcDbSpline
 70
8
 71
3
 72
8
 73
4
 74
0
 40
0
 40
0
 40
0
 40
0
 40
1
 40
1
 40
1
 40
1
 10
45.500094
 20
107.125322
 30
0.0
 10
45.014739
 20
107.125322
 30
0.0
 10
44.577176
 20
106.832951
 30
0.0
 10
44.391438
 20
106.384542
 30
0.0
  0
SPLINE
  5
216
100
AcDbEntity
  8
Plate
 62
7
100
AcDbSpline
 70
8
 71
3
 72
8
 73
4
 74
0
 40
0
 40
0
 40
0
 40
0
 40
1
 40
1
 40
1
 40
1
 10
44.391438
 20
106.384542
 30
0.0
 10
44.205701
 20
105.936133
 30
0.0
 10
44.308368
 20
105.419991
 30
0.0
 10
44.651566
 20
105.076794
 30
0.0
  0
SPLINE
  5
217
100
AcDbEntity
  8
Plate
 62
7
100
AcDbSpline
 70
8
 71
3
 72
8
 73
4
 74
0
 40
0
 40
0
 40
0
 40
0
 40
1
 40
1
 40
1
 40
1
 10
44.651566
 20
105.076794
 30
0.0
 10
44.994763
 20
104.733596
 30
0.0
 10
45.510905
 20
104.630929
 30
0.0
 10
45.959314
 20
104.816667
 30
0.0
  0
SPLINE
  5
218
100
AcDbEntity
  8
Plate
 62
7
100
AcDbSpline
 70
8
 71
3
 72
8
 73
4
 74
0
 40
0
 40
0
 40
0
 40
0
 40
1
 40
1
 40
1
 40
1
 10
45.959314
 20
104.816667
 30
0.0
 10
46.407723
 20
105.002404
 30
0.0
 10
46.700094
 20
105.439967
 30
0.0
 10
46.700094
 20
105.925322
 30
0.0
  0
SPLINE
  5
219
100
AcDbEntity
  8
Plate
 62
7
100
AcDbSpline
 70
8
 71
3
 72
8
 73
4
 74
0
 40
0
 40
0
 40
0
 40
0
 40
1
 40
1
 40
1
 40
1
 10
46.700094
 20
105.925322
 30
0.0
 10
46.700094
 20
106.243582
 30
0.0
 10
46.573666
 20
106.548806
 30
0.0
 10
46.348622
 20
106.773850
 30
0.0
  0
SPLINE
  5
21a
100
AcDbEntity
  8
Plate
 62
7
100
AcDbSpline
 70
8
 71
3
 72
8
 73
4
 74
0
 40
0
 40
0
 40
0
 40
0
 40
1
 40
1
 40
1
 40
1
 10
46.348622
 20
106.773850
 30
0.0
 10
46.123578
 20
106.998894
 30
0.0
 10
45.818354
 20
107.125322
 30
0.0
 10
45.500094
 20
107.125322
 30
0.0
  0
LWPOLYLINE
  5
21b
100
AcDbEntity
  8
Plate
 62
7
100
AcDbPolyline
 90
1
 70
1
 10
48.925208
 20
61.200353
 30
0.0
  0
SPLINE
  5
21c
100
AcDbEntity
  8
Plate
 62
7
100
AcDbSpline
 70
8
 71
3
 72
8
 73
4
 74
0
 40
0
 40
0
 40
0
 40
0
 40
1
 40
1
 40
1
 40
1
 10
5.900075
 20
62.725424
 30
0.0
 10
5.414720
 20
62.725424
 30
0.0
 10
4.977157
 20
62.433053
 30
0.0
 10
4.791419
 20
61.984644
 30
0.0
  0
SPLINE
  5
21d
100
AcDbEntity
  8
Plate
 62
7
100
AcDbSpline
 70
8
 71
3
 72
8
 73
4
 74
0
 40
0
 40
0
 40
0
 40
0
 40
1
 40
1
 40
1
 40
1
 10
4.791419
 20
61.984644
 30
0.0
 10
4.605682
 20
61.536235
 30
0.0
 10
4.708349
 20
61.020093
 30
0.0
 10
5.051547
 20
60.676896
 30
0.0
  0
SPLINE
  5
21e
100
AcDbEntity
  8
Plate
 62
7
100
AcDbSpline
 70
8
 71
3
 72
8
 73
4
 74
0
 40
0
 40
0
 40
0
 40
0
 40
1
 40
1
 40
1
 40
1
 10
5.051547
 20
60.676896
 30
0.0
 10
5.394744
 20
60.333698
 30
0.0
 10
5.910886
 20
60.231031
 30
0.0
 10
6.359295
 20
60.416769
 30
0.0
  0
SPLINE
  5
21f
100
AcDbEntity
  8
Plate
 62
7
100
AcDbSpline
 70
8
 71
3
 72
8
 73
4
 74
0
 40
0
 40
0
 40
0
 40
0
 40
1
 40
1
 40
1
 40
1
 10
6.359295
 20
60.416769
 30
0.0
 10
6.807704
 20
60.602506
 30
0.0
 10
7.100075
 20
61.040069
 30
0.0
 10
7.100075
 20
61.525424
 30
0.0
  0
SPLINE
  5
220
100
AcDbEntity
  8
Plate
 62
7
100
AcDbSpline
 70
8
 71
3
 72
8
 73
4
 74
0
 40
0
 40
0
 40
0
 40
0
 40
1
 40
1
 40
1
 40
1
 10
7.100075
 20
61.525424
 30
0.0
 10
7.100075
 20
61.843684
 30
0.0
 10
6.973647
 20
62.148908
 30
0.0
 10
6.748603
 20
62.373952
 30
0.0
  0
SPLINE
  5
221
100
AcDbEntity
  8
Plate
 62
7
100
AcDbSpline
 70
8
 71
3
 72
8
 73
4
 74
0
 40
0
 40
0
 40
0
 40
0
 40
1
 40
1
 40
1
 40
1
 10
6.748603
 20
62.373952
 30
0.0
 10
6.523559
 20
62.598996
 30
0.0
 10
6.218335
 20
62.725424
 30
0.0
 10
5.900075
 20
62.725424
 30
0.0
  0
LWPOLYLINE
  5
222
100
AcDbEntity
  8
Plate
 62
7
100
AcDbPolyline
 90
1
 70
1
 10
45.500094
 20
107.125322
 30
0.0
  0
SPLINE
  5
223
100
AcDbEntity
  8
Plate
 62
7
100
AcDbSpline
 70
8
 71
3
 72
8
 73
4
 74
0
 40
0
 40
0
 40
0
 40
0
 40
1
 40
1
 40
1
 40
1
 10
5.900075
 20
136.300401
 30
0.0
 10
5.414720
 20
136.300401
 30
0.0
 10
4.977157
 20
136.008030
 30
0.0
 10
4.791419
 20
135.559621
 30
0.0
  0
SPLINE
  5
224
100
AcDbEntity
  8
Plate
 62
7
100
AcDbSpline
 70
8
 71
3
 72
8
 73
4
 74
0
 40
0
 40
0
 40
0
 40
0
 40
1
 40
1
 40
1
 40
1
 10
4.791419
 20
135.559621
 30
0.0
 10
4.605682
 20
135.111212
 30
0.0
 10
4.708349
 20
134.595070
 30
0.0
 10
5.051547
 20
134.251873
 30
0.0
  0
SPLINE
  5
225
100
AcDbEntity
  8
Plate
 62
7
100
AcDbSpline
 70
8
 71
3
 72
8
 73
4
 74
0
 40
0
 40
0
 40
0
 40
0
 40
1
 40
1
 40
1
 40
1
 10
5.051547
 20
134.251873
 30
0.0
 10
5.394744
 20
133.908675
 30
0.0
 10
5.910886
 20
133.806008
 30
0.0
 10
6.359295
 20
133.991746
 30
0.0
  0
SPLINE
  5
226
100
AcDbEntity
  8
Plate
 62
7
100
AcDbSpline
 70
8
 71
3
 72
8
 73
4
 74
0
 40
0
 40
0
 40
0
 40
0
 40
1
 40
1
 40
1
 40
1
 10
6.359295
 20
133.991746
 30
0.0
 10
6.807704
 20
134.177483
 30
0.0
 10
7.100075
 20
134.615046
 30
0.0
 10
7.100075
 20
135.100401
 30
0.0
  0
SPLINE
  5
227
100
AcDbEntity
  8
Plate
 62
7
100
AcDbSpline
 70
8
 71
3
 72
8
 73
4
 74
0
 40
0
 40
0
 40
0
 40
0
 40
1
 40
1
 40
1
 40
1
 10
7.100075
 20
135.100401
 30
0.0
 10
7.100075
 20
135.418661
 30
0.0
 10
6.973647
 20
135.723885
 30
0.0
 10
6.748603
 20
135.948929
 30
0.0
  0
SPLINE
  5
228
100
AcDbEntity
  8
Plate
 62
7
100
AcDbSpline
 70
8
 71
3
 72
8
 73
4
 74
0
 40
0
 40
0
 40
0
 40
0
 40
1
 40
1
 40
1
 40
1
 10
6.748603
 20
135.948929
 30
0.0
 10
6.523559
 20
136.173973
 30
0.0
 10
6.218335
 20
136.300401
 30
0.0
 10
5.900075
 20
136.300401
 30
0.0
  0
LWPOLYLINE
  5
229
100
AcDbEntity
  8
Plate
 62
7
100
AcDbPolyline
 90
1
 70
1
 10
5.900075
 20
62.725424
 30
0.0
  0
SPLINE
  5
22a
100
AcDbEntity
  8
MCU
 62
7
100
AcDbSpline
 70
8
 71
3
 72
8
 73
4
 74
0
 40
0
 40
0
 40
0
 40
0
 40
1
 40
1
 40
1
 40
1
 10
163.865030
 20
128.886168
 30
0.0
 10
164.623540
 20
128.130033
 30
0.0
 10
165.010550
 20
127.119045
 30
0.0
 10
165.036960
 20
126.057949
 30
0.0
  0
LWPOLYLINE
  5
22b
100
AcDbEntity
  8
Plate
 62
7
100
AcDbPolyline
 90
1
 70
1
 10
5.900075
 20
136.300401
 30
0.0
  0
SPLINE
  5
22c
100
AcDbEntity
  8
MCU
 62
7
100
AcDbSpline
 70
8
 71
3
 72
8
 73
4
 74
0
 40
0
 40
0
 40
0
 40
0
 40
1
 40
1
 40
1
 40
1
 10
165.036960
 20
91.964094
 30
0.0
 10
165.018160
 20
90.835280
 30
0.0
 10
164.137470
 20
90.018867
 30
0.0
 10
163.037060
 20
89.964197
 30
0.0
  0
LWPOLYLINE
  5
22d
100
AcDbEntity
  8
MCU
 62
7
100
AcDbPolyline
 90
2
 70
0
 10
165.036960
 20
126.057949
 30
0.0
 10
165.036960
 20
91.964094
 30
0.0
  0
SPLINE
  5
22e
100
AcDbEntity
  8
MCU
 62
7
100
AcDbSpline
 70
8
 71
3
 72
8
 73
4
 74
0
 40
0
 40
0
 40
0
 40
0
 40
1
 40
1
 40
1
 40
1
 10
140.536900
 20
89.964197
 30
0.0
 10
139.411220
 20
89.982577
 30
0.0
 10
138.585510
 20
90.862810
 30
0.0
 10
138.537000
 20
91.964094
 30
0.0
  0
LWPOLYLINE
  5
22f
100
AcDbEntity
  8
MCU
 62
7
100
AcDbPolyline
 90
2
 70
0
 10
163.037060
 20
89.964197
 30
0.0
 10
140.536900
 20
89.964197
 30
0.0
  0
SPLINE
  5
230
100
AcDbEntity
  8
MCU
 62
7
100
AcDbSpline
 70
8
 71
3
 72
8
 73
4
 74
0
 40
0
 40
0
 40
0
 40
0
 40
1
 40
1
 40
1
 40
1
 10
138.537000
 20
137.642113
 30
0.0
 10
138.557400
 20
138.957820
 30
0.0
 10
139.747680
 20
139.829726
 30
0.0
 10
141.006090
 20
139.585918
 30
0.0
  0
LWPOLYLINE
  5
231
100
AcDbEntity
  8
MCU
 62
7
100
AcDbPolyline
 90
2
 70
0
 10
138.537000
 20
91.964094
 30
0.0
 10
138.537000
 20
137.642113
 30
0.0
  0
SPLINE
  5
232
100
AcDbEntity
  8
MCU
 62
7
100
AcDbSpline
 70
8
 71
3
 72
8
 73
4
 74
0
 40
0
 40
0
 40
0
 40
0
 40
1
 40
1
 40
1
 40
1
 10
155.943060
 20
135.979118
 30
0.0
 10
156.665570
 20
135.809578
 30
0.0
 10
157.298180
 20
135.426436
 30
0.0
 10
157.831830
 20
134.919021
 30
0.0
  0
LWPOLYLINE
  5
233
100
AcDbEntity
  8
MCU
 62
7
100
AcDbPolyline
 90
2
 70
0
 10
141.006090
 20
139.585918
 30
0.0
 10
155.943060
 20
135.979118
 30
0.0
  0
SPLINE
  5
234
100
AcDbEntity
  8
MCU
 62
7
100
AcDbSpline
 70
8
 71
3
 72
8
 73
4
 74
0
 40
0
 40
0
 40
0
 40
0
 40
1
 40
1
 40
1
 40
1
 10
141.887065
 20
137.113913
 30
0.0
 10
141.401710
 20
137.113913
 30
0.0
 10
140.964147
 20
136.821542
 30
0.0
 10
140.778409
 20
136.373133
 30
0.0
  0
SPLINE
  5
235
100
AcDbEntity
  8
MCU
 62
7
100
AcDbSpline
 70
8
 71
3
 72
8
 73
4
 74
0
 40
0
 40
0
 40
0
 40
0
 40
1
 40
1
 40
1
 40
1
 10
140.778409
 20
136.373133
 30
0.0
 10
140.592672
 20
135.924724
 30
0.0
 10
140.695339
 20
135.408582
 30
0.0
 10
141.038537
 20
135.065385
 30
0.0
  0
SPLINE
  5
236
100
AcDbEntity
  8
MCU
 62
7
100
AcDbSpline
 70
8
 71
3
 72
8
 73
4
 74
0
 40
0
 40
0
 40
0
 40
0
 40
1
 40
1
 40
1
 40
1
 10
141.038537
 20
135.065385
 30
0.0
 10
141.381734
 20
134.722187
 30
0.0
 10
141.897876
 20
134.619520
 30
0.0
 10
142.346285
 20
134.805258
 30
0.0
  0
SPLINE
  5
237
100
AcDbEntity
  8
MCU
 62
7
100
AcDbSpline
 70
8
 71
3
 72
8
 73
4
 74
0
 40
0
 40
0
 40
0
 40
0
 40
1
 40
1
 40
1
 40
1
 10
142.346285
 20
134.805258
 30
0.0
 10
142.794694
 20
134.990995
 30
0.0
 10
143.087065
 20
135.428558
 30
0.0
 10
143.087065
 20
135.913913
 30
0.0
  0
SPLINE
  5
238
100
AcDbEntity
  8
MCU
 62
7
100
AcDbSpline
 70
8
 71
3
 72
8
 73
4
 74
0
 40
0
 40
0
 40
0
 40
0
 40
1
 40
1
 40
1
 40
1
 10
143.087065
 20
135.913913
 30
0.0
 10
143.087065
 20
136.576655
 30
0.0
 10
142.549806
 20
137.113913
 30
0.0
 10
141.887065
 20
137.113913
 30
0.0
  0
LWPOLYLINE
  5
239
100
AcDbEntity
  8
MCU
 62
7
100
AcDbPolyline
 90
2
 70
0
 10
157.831830
 20
134.919021
 30
0.0
 10
163.865030
 20
128.886168
 30
0.0
  0
SPLINE
  5
23a
100
AcDbEntity
  8
MCU
 62
7
100
AcDbSpline
 70
8
 71
3
 72
8
 73
4
 74
0
 40
0
 40
0
 40
0
 40
0
 40
1
 40
1
 40
1
 40
1
 10
161.586855
 20
127.613945
 30
0.0
 10
161.101500
 20
127.613945
 30
0.0
 10
160.663937
 20
127.321574
 30
0.0
 10
160.478199
 20
126.873165
 30
0.0
  0
SPLINE
  5
23b
100
AcDbEntity
  8
MCU
 62
7
100
AcDbSpline
 70
8
 71
3
 72
8
 73
4
 74
0
 40
0
 40
0
 40
0
 40
0
 40
1
 40
1
 40
1
 40
1
 10
160.478199
 20
126.873165
 30
0.0
 10
160.292462
 20
126.424756
 30
0.0
 10
160.395129
 20
125.908614
 30
0.0
 10
160.738327
 20
125.565417
 30
0.0
  0
SPLINE
  5
23c
100
AcDbEntity
  8
MCU
 62
7
100
AcDbSpline
 70
8
 71
3
 72
8
 73
4
 74
0
 40
0
 40
0
 40
0
 40
0
 40
1
 40
1
 40
1
 40
1
 10
160.738327
 20
125.565417
 30
0.0
 10
161.081524
 20
125.222219
 30
0.0
 10
161.597666
 20
125.119552
 30
0.0
 10
162.046075
 20
125.305290
 30
0.0
  0
SPLINE
  5
23d
100
AcDbEntity
  8
MCU
 62
7
100
AcDbSpline
 70
8
 71
3
 72
8
 73
4
 74
0
 40
0
 40
0
 40
0
 40
0
 40
1
 40
1
 40
1
 40
1
 10
162.046075
 20
125.305290
 30
0.0
 10
162.494484
 20
125.491027
 30
0.0
 10
162.786855
 20
125.928590
 30
0.0
 10
162.786855
 20
126.413945
 30
0.0
  0
SPLINE
  5
23e
100
AcDbEntity
  8
MCU
 62
7
100
AcDbSpline
 70
8
 71
3
 72
8
 73
4
 74
0
 40
0
 40
0
 40
0
 40
0
 40
1
 40
1
 40
1
 40
1
 10
162.786855
 20
126.413945
 30
0.0
 10
162.786855
 20
126.732205
 30
0.0
 10
162.660427
 20
127.037429
 30
0.0
 10
162.435383
 20
127.262473
 30
0.0
  0
SPLINE
  5
23f
100
AcDbEntity
  8
MCU
 62
7
100
AcDbSpline
 70
8
 71
3
 72
8
 73
4
 74
0
 40
0
 40
0
 40
0
 40
0
 40
1
 40
1
 40
1
 40
1
 10
162.435383
 20
127.262473
 30
0.0
 10
162.210339
 20
127.487517
 30
0.0
 10
161.905115
 20
127.613945
 30
0.0
 10
161.586855
 20
127.613945
 30
0.0
  0
LWPOLYLINE
  5
240
100
AcDbEntity
  8
MCU
 62
7
100
AcDbPolyline
 90
1
 70
1
 10
141.887065
 20
137.113913
 30
0.0
  0
SPLINE
  5
241
100
AcDbEntity
  8
MCU
 62
7
100
AcDbSpline
 70
8
 71
3
 72
8
 73
4
 74
0
 40
0
 40
0
 40
0
 40
0
 40
1
 40
1
 40
1
 40
1
 10
161.586825
 20
94.614069
 30
0.0
 10
161.101470
 20
94.614069
 30
0.0
 10
160.663907
 20
94.321698
 30
0.0
 10
160.478169
 20
93.873289
 30
0.0
  0
SPLINE
  5
242
100
AcDbEntity
  8
MCU
 62
7
100
AcDbSpline
 70
8
 71
3
 72
8
 73
4
 74
0
 40
0
 40
0
 40
0
 40
0
 40
1
 40
1
 40
1
 40
1
 10
160.478169
 20
93.873289
 30
0.0
 10
160.292432
 20
93.424880
 30
0.0
 10
160.395099
 20
92.908738
 30
0.0
 10
160.738297
 20
92.565541
 30
0.0
  0
SPLINE
  5
243
100
AcDbEntity
  8
MCU
 62
7
100
AcDbSpline
 70
8
 71
3
 72
8
 73
4
 74
0
 40
0
 40
0
 40
0
 40
0
 40
1
 40
1
 40
1
 40
1
 10
160.738297
 20
92.565541
 30
0.0
 10
161.081494
 20
92.222343
 30
0.0
 10
161.597636
 20
92.119676
 30
0.0
 10
162.046045
 20
92.305414
 30
0.0
  0
SPLINE
  5
244
100
AcDbEntity
  8
MCU
 62
7
100
AcDbSpline
 70
8
 71
3
 72
8
 73
4
 74
0
 40
0
 40
0
 40
0
 40
0
 40
1
 40
1
 40
1
 40
1
 10
162.046045
 20
92.305414
 30
0.0
 10
162.494454
 20
92.491151
 30
0.0
 10
162.786825
 20
92.928714
 30
0.0
 10
162.786825
 20
93.414069
 30
0.0
  0
SPLINE
  5
245
100
AcDbEntity
  8
MCU
 62
7
100
AcDbSpline
 70
8
 71
3
 72
8
 73
4
 74
0
 40
0
 40
0
 40
0
 40
0
 40
1
 40
1
 40
1
 40
1
 10
162.786825
 20
93.414069
 30
0.0
 10
162.786825
 20
93.732329
 30
0.0
 10
162.660397
 20
94.037553
 30
0.0
 10
162.435353
 20
94.262597
 30
0.0
  0
SPLINE
  5
246
100
AcDbEntity
  8
MCU
 62
7
100
AcDbSpline
 70
8
 71
3
 72
8
 73
4
 74
0
 40
0
 40
0
 40
0
 40
0
 40
1
 40
1
 40
1
 40
1
 10
162.435353
 20
94.262597
 30
0.0
 10
162.210309
 20
94.487641
 30
0.0
 10
161.905085
 20
94.614069
 30
0.0
 10
161.586825
 20
94.614069
 30
0.0
  0
LWPOLYLINE
  5
247
100
AcDbEntity
  8
MCU
 62
7
100
AcDbPolyline
 90
1
 70
1
 10
161.586855
 20
127.613945
 30
0.0
  0
SPLINE
  5
248
100
AcDbEntity
  8
MCU
 62
7
100
AcDbSpline
 70
8
 71
3
 72
8
 73
4
 74
0
 40
0
 40
0
 40
0
 40
0
 40
1
 40
1
 40
1
 40
1
 10
141.912125
 20
94.614069
 30
0.0
 10
141.426770
 20
94.614069
 30
0.0
 10
140.989207
 20
94.321698
 30
0.0
 10
140.803469
 20
93.873289
 30
0.0
  0
SPLINE
  5
249
100
AcDbEntity
  8
MCU
 62
7
100
AcDbSpline
 70
8
 71
3
 72
8
 73
4
 74
0
 40
0
 40
0
 40
0
 40
0
 40
1
 40
1
 40
1
 40
1
 10
140.803469
 20
93.873289
 30
0.0
 10
140.617732
 20
93.424880
 30
0.0
 10
140.720399
 20
92.908738
 30
0.0
 10
141.063597
 20
92.565541
 30
0.0
  0
SPLINE
  5
24a
100
AcDbEntity
  8
MCU
 62
7
100
AcDbSpline
 70
8
 71
3
 72
8
 73
4
 74
0
 40
0
 40
0
 40
0
 40
0
 40
1
 40
1
 40
1
 40
1
 10
141.063597
 20
92.565541
 30
0.0
 10
141.406794
 20
92.222343
 30
0.0
 10
141.922936
 20
92.119676
 30
0.0
 10
142.371345
 20
92.305414
 30
0.0
  0
SPLINE
  5
24b
100
AcDbEntity
  8
MCU
 62
7
100
AcDbSpline
 70
8
 71
3
 72
8
 73
4
 74
0
 40
0
 40
0
 40
0
 40
0
 40
1
 40
1
 40
1
 40
1
 10
142.371345
 20
92.305414
 30
0.0
 10
142.819754
 20
92.491151
 30
0.0
 10
143.112125
 20
92.928714
 30
0.0
 10
143.112125
 20
93.414069
 30
0.0
  0
SPLINE
  5
24c
100
AcDbEntity
  8
MCU
 62
7
100
AcDbSpline
 70
8
 71
3
 72
8
 73
4
 74
0
 40
0
 40
0
 40
0
 40
0
 40
1
 40
1
 40
1
 40
1
 10
143.112125
 20
93.414069
 30
0.0
 10
143.112125
 20
94.076811
 30
0.0
 10
142.574866
 20
94.614069
 30
0.0
 10
141.912125
 20
94.614069
 30
0.0
  0
LWPOLYLINE
  5
24d
100
AcDbEntity
  8
MCU
 62
7
100
AcDbPolyline
 90
1
 70
1
 10
161.586825
 20
94.614069
 30
0.0
  0
LWPOLYLINE
  5
24e
100
AcDbEntity
  8
MCU
 62
7
100
AcDbPolyline
 90
1
 70
1
 10
141.912125
 20
94.614069
 30
0.0
  0
ENDSEC
  0
SECTION
  2
OBJECTS
  0
DICTIONARY
  5
C
330
0
100
AcDbDictionary
  3
ACAD_GROUP
350
D
  3
ACAD_MLINESTYLE
350
17
  0
DICTIONARY
  5
D
330
C
100
AcDbDictionary
  0
DICTIONARY
  5
1A
330
C
100
AcDbDictionary
  0
DICTIONARY
  5
17
330
C
100
AcDbDictionary
  3
STANDARD
350
18
  0
DICTIONARY
  5
19
330
C
100
AcDbDictionary
  0
ENDSEC
  0
EOF
