<?xml version="1.0" encoding="UTF-8" standalone="no"?>
<svg
   xmlns:dc="http://purl.org/dc/elements/1.1/"
   xmlns:cc="http://creativecommons.org/ns#"
   xmlns:rdf="http://www.w3.org/1999/02/22-rdf-syntax-ns#"
   xmlns:svg="http://www.w3.org/2000/svg"
   xmlns="http://www.w3.org/2000/svg"
   version="1.1"
   id="svg851"
   xml:space="preserve"
   width="100.43529"
   height="187.97844"
   viewBox="0 0 100.43528 187.97844"><metadata
     id="metadata857"><rdf:RDF><cc:Work
         rdf:about=""><dc:format>image/svg+xml</dc:format><dc:type
           rdf:resource="http://purl.org/dc/dcmitype/StillImage" /><dc:title></dc:title></cc:Work></rdf:RDF></metadata><defs
     id="defs855" /><path
     d="m 95.866978,40.732798 c 2.866787,2.857835 4.329502,6.678893 4.429332,10.689333 V 180.28079 c -0.0709,4.26639 -3.399652,7.35204 -7.558665,7.55867 H 7.6976468 c -4.2545465,-0.0695 -7.37530646,-3.39633 -7.55866646,-7.55867 V 7.639465 C 0.21591367,2.6667145 4.7147669,-0.62868146 9.4709801,0.29279852 L 65.925645,13.924798 c 2.730747,0.640781 5.121734,2.08888 7.138667,4.006667 z"
     style="fill:none;stroke:#000000;stroke-width:0.377953;stroke-linecap:round;stroke-linejoin:miter;stroke-miterlimit:4;stroke-dasharray:none;stroke-opacity:1"
     id="path1065-2" /><path
     id="circle1943"
     style="display:inline;fill:none;fill-opacity:0.500799;fill-rule:evenodd;stroke:#000000;stroke-width:0.377953;stroke-miterlimit:4;stroke-dasharray:none;stroke-opacity:1"
     d="M 17.33609,14.171237 A 4.5354333,4.5354333 0 0 1 12.800656,18.70667 4.5354333,4.5354333 0 0 1 8.265223,14.171237 4.5354333,4.5354333 0 0 1 12.800656,9.6358037 4.5354333,4.5354333 0 0 1 17.33609,14.171237 Z" /><path
     id="circle1945"
     style="display:inline;fill:none;fill-opacity:0.500799;fill-rule:evenodd;stroke:#000000;stroke-width:0.377953;stroke-miterlimit:4;stroke-dasharray:none;stroke-opacity:1"
     d="m 91.791964,50.076633 a 4.5354333,4.5354333 0 0 1 -4.535433,4.535434 4.5354333,4.5354333 0 0 1 -4.535434,-4.535434 4.5354333,4.5354333 0 0 1 4.535434,-4.535433 4.5354333,4.5354333 0 0 1 4.535433,4.535433 z" /><path
     id="circle1947"
     style="display:inline;fill:none;fill-opacity:0.500799;fill-rule:evenodd;stroke:#000000;stroke-width:0.377953;stroke-miterlimit:4;stroke-dasharray:none;stroke-opacity:1"
     d="m 91.791842,174.80055 a 4.5354333,4.5354333 0 0 1 -4.535433,4.53544 4.5354333,4.5354333 0 0 1 -4.535434,-4.53544 4.5354333,4.5354333 0 0 1 4.535434,-4.53543 4.5354333,4.5354333 0 0 1 4.535433,4.53543 z" /><path
     id="circle1949"
     style="display:inline;fill:none;fill-opacity:0.500799;fill-rule:evenodd;stroke:#000000;stroke-width:0.377953;stroke-miterlimit:4;stroke-dasharray:none;stroke-opacity:1"
     d="m 17.430786,174.80055 a 4.5354333,4.5354333 0 0 1 -4.535434,4.53544 4.5354333,4.5354333 0 0 1 -4.5354329,-4.53544 4.5354333,4.5354333 0 0 1 4.5354329,-4.53543 4.5354333,4.5354333 0 0 1 4.535434,4.53543 z" /></svg>
