  0
SECTION
  2
HEADER
  9
$ACADVER
  1
AC1014
  9
$HANDSEED
  5
FFFF
  9
$INSUNITS
 70
     4
  9
$MEASUREMENT
 70
     1
  0
ENDSEC
  0
SECTION
  2
TABLES
  0
TABLE
  2
VPORT
  5
8
330
0
100
AcDbSymbolTable
 70
     4
  0
VPORT
  5
2E
330
8
100
AcDbSymbolTableRecord
100
AcDbViewportTableRecord
  2
*ACTIVE
 70
     0
 10
0.0
 20
0.0
 11
1.0
 21
1.0
 12
210.0
 22
148.5
 13
0.0
 23
0.0
 14
10.0
 24
10.0
 15
10.0
 25
10.0
 16
0.0
 26
0.0
 36
1.0
 17
0.0
 27
0.0
 37
0.0
 40
341.0
 41
1.24
 42
50.0
 43
0.0
 44
0.0
 50
0.0
 51
0.0
 71
     0
 72
   100
 73
     1
 74
     3
 75
     0
 76
     0
 77
     0
 78
     0
  0
ENDTAB
  0
TABLE
  2
LTYPE
  5
5
330
0
100
AcDbSymbolTable
 70
     1
  0
LTYPE
  5
14
330
5
100
AcDbSymbolTableRecord
100
AcDbLinetypeTableRecord
  2
BYBLOCK
 70
     0
  3

 72
    65
 73
     0
 40
0.0
  0
LTYPE
  5
15
330
5
100
AcDbSymbolTableRecord
100
AcDbLinetypeTableRecord
  2
BYLAYER
 70
     0
  3

 72
    65
 73
     0
 40
0.0
  0
LTYPE
  5
16
330
5
100
AcDbSymbolTableRecord
100
AcDbLinetypeTableRecord
  2
CONTINUOUS
 70
     0
  3
Solid line
 72
    65
 73
     0
 40
0.0
  0
ENDTAB
  0
TABLE
  2
LAYER
  5
2
100
AcDbSymbolTable
 70
2
  0
LAYER
  5
50
100
AcDbSymbolTableRecord
100
AcDbLayerTableRecord
  2
0
 70
0
  6
CONTINUOUS
  0
LAYER
  5
51
100
AcDbSymbolTableRecord
100
AcDbLayerTableRecord
  2
Layer_1
 70
0
  6
CONTINUOUS
  0
ENDTAB
  0
TABLE
  2
STYLE
  5
3
330
0
100
AcDbSymbolTable
 70
     1
  0
STYLE
  5
11
330
3
100
AcDbSymbolTableRecord
100
AcDbTextStyleTableRecord
  2
STANDARD
 70
     0
 40
0.0
 41
1.0
 50
0.0
 71
     0
 42
2.5
  3
txt
  4

  0
ENDTAB
  0
TABLE
  2
VIEW
  5
6
330
0
100
AcDbSymbolTable
 70
     0
  0
ENDTAB
  0
TABLE
  2
UCS
  5
7
330
0
100
AcDbSymbolTable
 70
     0
  0
ENDTAB
  0
TABLE
  2
APPID
  5
9
330
0
100
AcDbSymbolTable
 70
     2
  0
APPID
  5
12
330
9
100
AcDbSymbolTableRecord
100
AcDbRegAppTableRecord
  2
ACAD
 70
     0
  0
ENDTAB
  0
TABLE
  2
DIMSTYLE
  5
A
330
0
100
AcDbSymbolTable
 70
     1
  0
DIMSTYLE
105
27
330
A
100
AcDbSymbolTableRecord
100
AcDbDimStyleTableRecord
  2
ISO-25
 70
     0
  3

  4

  5

  6

  7

 40
1.0
 41
2.5
 42
0.625
 43
3.75
 44
1.25
 45
0.0
 46
0.0
 47
0.0
 48
0.0
140
2.5
141
2.5
142
0.0
143
0.03937007874016
144
1.0
145
0.0
146
1.0
147
0.625
 71
     0
 72
     0
 73
     0
 74
     0
 75
     0
 76
     0
 77
     1
 78
     8
170
     0
171
     3
172
     1
173
     0
174
     0
175
     0
176
     0
177
     0
178
     0
270
     2
271
     2
272
     2
273
     2
274
     3
340
11
275
     0
280
     0
281
     0
282
     0
283
     0
284
     8
285
     0
286
     0
287
     3
288
     0
  0
ENDTAB
  0
TABLE
  2
BLOCK_RECORD
  5
1
330
0
100
AcDbSymbolTable
 70
     1
  0
BLOCK_RECORD
  5
1F
330
1
100
AcDbSymbolTableRecord
100
AcDbBlockTableRecord
  2
*MODEL_SPACE
  0
BLOCK_RECORD
  5
1B
330
1
100
AcDbSymbolTableRecord
100
AcDbBlockTableRecord
  2
*PAPER_SPACE
  0
ENDTAB
  0
ENDSEC
  0
SECTION
  2
BLOCKS
  0
BLOCK
  5
20
330
1F
100
AcDbEntity
  8
0
100
AcDbBlockBegin
  2
*MODEL_SPACE
 70
     0
 10
0.0
 20
0.0
 30
0.0
  3
*MODEL_SPACE
  1

  0
ENDBLK
  5
21
330
1F
100
AcDbEntity
  8
0
100
AcDbBlockEnd
  0
BLOCK
  5
1C
330
1B
100
AcDbEntity
 67
     1
  8
0
100
AcDbBlockBegin
  2
*PAPER_SPACE
  1

  0
ENDBLK
  5
1D
330
1B
100
AcDbEntity
 67
     1
  8
0
100
AcDbBlockEnd
  0
ENDSEC
  0
SECTION
  2
ENTITIES
  0
SPLINE
  5
100
100
AcDbEntity
  8
Layer_1
 62
7
100
AcDbSpline
 70
8
 71
3
 72
8
 73
4
 74
0
 40
0
 40
0
 40
0
 40
0
 40
1
 40
1
 40
1
 40
1
 10
55.699913
 20
147.124869
 30
0.0
 10
55.214558
 20
147.124869
 30
0.0
 10
54.776995
 20
146.832498
 30
0.0
 10
54.591258
 20
146.384089
 30
0.0
  0
SPLINE
  5
101
100
AcDbEntity
  8
Layer_1
 62
7
100
AcDbSpline
 70
8
 71
3
 72
8
 73
4
 74
0
 40
0
 40
0
 40
0
 40
0
 40
1
 40
1
 40
1
 40
1
 10
54.591258
 20
146.384089
 30
0.0
 10
54.405520
 20
145.935680
 30
0.0
 10
54.508187
 20
145.419539
 30
0.0
 10
54.851385
 20
145.076341
 30
0.0
  0
SPLINE
  5
102
100
AcDbEntity
  8
Layer_1
 62
7
100
AcDbSpline
 70
8
 71
3
 72
8
 73
4
 74
0
 40
0
 40
0
 40
0
 40
0
 40
1
 40
1
 40
1
 40
1
 10
54.851385
 20
145.076341
 30
0.0
 10
55.194582
 20
144.733143
 30
0.0
 10
55.710724
 20
144.630476
 30
0.0
 10
56.159133
 20
144.816214
 30
0.0
  0
SPLINE
  5
103
100
AcDbEntity
  8
Layer_1
 62
7
100
AcDbSpline
 70
8
 71
3
 72
8
 73
4
 74
0
 40
0
 40
0
 40
0
 40
0
 40
1
 40
1
 40
1
 40
1
 10
56.159133
 20
144.816214
 30
0.0
 10
56.607542
 20
145.001951
 30
0.0
 10
56.899913
 20
145.439514
 30
0.0
 10
56.899913
 20
145.924869
 30
0.0
  0
SPLINE
  5
104
100
AcDbEntity
  8
Layer_1
 62
7
100
AcDbSpline
 70
8
 71
3
 72
8
 73
4
 74
0
 40
0
 40
0
 40
0
 40
0
 40
1
 40
1
 40
1
 40
1
 10
56.899913
 20
145.924869
 30
0.0
 10
56.899913
 20
146.243129
 30
0.0
 10
56.773485
 20
146.548354
 30
0.0
 10
56.548441
 20
146.773397
 30
0.0
  0
SPLINE
  5
105
100
AcDbEntity
  8
Layer_1
 62
7
100
AcDbSpline
 70
8
 71
3
 72
8
 73
4
 74
0
 40
0
 40
0
 40
0
 40
0
 40
1
 40
1
 40
1
 40
1
 10
56.548441
 20
146.773397
 30
0.0
 10
56.323397
 20
146.998441
 30
0.0
 10
56.018173
 20
147.124869
 30
0.0
 10
55.699913
 20
147.124869
 30
0.0
  0
SPLINE
  5
106
100
AcDbEntity
  8
Layer_1
 62
7
100
AcDbSpline
 70
8
 71
3
 72
8
 73
4
 74
0
 40
0
 40
0
 40
0
 40
0
 40
1
 40
1
 40
1
 40
1
 10
96.000015
 20
147.124869
 30
0.0
 10
95.514660
 20
147.124869
 30
0.0
 10
95.077097
 20
146.832498
 30
0.0
 10
94.891360
 20
146.384089
 30
0.0
  0
SPLINE
  5
107
100
AcDbEntity
  8
Layer_1
 62
7
100
AcDbSpline
 70
8
 71
3
 72
8
 73
4
 74
0
 40
0
 40
0
 40
0
 40
0
 40
1
 40
1
 40
1
 40
1
 10
94.891360
 20
146.384089
 30
0.0
 10
94.705622
 20
145.935680
 30
0.0
 10
94.808289
 20
145.419539
 30
0.0
 10
95.151487
 20
145.076341
 30
0.0
  0
SPLINE
  5
108
100
AcDbEntity
  8
Layer_1
 62
7
100
AcDbSpline
 70
8
 71
3
 72
8
 73
4
 74
0
 40
0
 40
0
 40
0
 40
0
 40
1
 40
1
 40
1
 40
1
 10
95.151487
 20
145.076341
 30
0.0
 10
95.494684
 20
144.733143
 30
0.0
 10
96.010826
 20
144.630476
 30
0.0
 10
96.459235
 20
144.816214
 30
0.0
  0
SPLINE
  5
109
100
AcDbEntity
  8
Layer_1
 62
7
100
AcDbSpline
 70
8
 71
3
 72
8
 73
4
 74
0
 40
0
 40
0
 40
0
 40
0
 40
1
 40
1
 40
1
 40
1
 10
96.459235
 20
144.816214
 30
0.0
 10
96.907644
 20
145.001951
 30
0.0
 10
97.200015
 20
145.439514
 30
0.0
 10
97.200015
 20
145.924869
 30
0.0
  0
SPLINE
  5
10a
100
AcDbEntity
  8
Layer_1
 62
7
100
AcDbSpline
 70
8
 71
3
 72
8
 73
4
 74
0
 40
0
 40
0
 40
0
 40
0
 40
1
 40
1
 40
1
 40
1
 10
97.200015
 20
145.924869
 30
0.0
 10
97.200015
 20
146.243129
 30
0.0
 10
97.073587
 20
146.548354
 30
0.0
 10
96.848543
 20
146.773397
 30
0.0
  0
SPLINE
  5
10b
100
AcDbEntity
  8
Layer_1
 62
7
100
AcDbSpline
 70
8
 71
3
 72
8
 73
4
 74
0
 40
0
 40
0
 40
0
 40
0
 40
1
 40
1
 40
1
 40
1
 10
96.848543
 20
146.773397
 30
0.0
 10
96.623499
 20
146.998441
 30
0.0
 10
96.318275
 20
147.124869
 30
0.0
 10
96.000015
 20
147.124869
 30
0.0
  0
LWPOLYLINE
  5
10c
100
AcDbEntity
  8
Layer_1
 62
7
100
AcDbPolyline
 90
1
 70
1
 10
55.699913
 20
147.124869
 30
0.0
  0
SPLINE
  5
10d
100
AcDbEntity
  8
Layer_1
 62
7
100
AcDbSpline
 70
8
 71
3
 72
8
 73
4
 74
0
 40
0
 40
0
 40
0
 40
0
 40
1
 40
1
 40
1
 40
1
 10
134.100020
 20
137.749976
 30
0.0
 10
133.614665
 20
137.749976
 30
0.0
 10
133.177102
 20
137.457605
 30
0.0
 10
132.991365
 20
137.009196
 30
0.0
  0
SPLINE
  5
10e
100
AcDbEntity
  8
Layer_1
 62
7
100
AcDbSpline
 70
8
 71
3
 72
8
 73
4
 74
0
 40
0
 40
0
 40
0
 40
0
 40
1
 40
1
 40
1
 40
1
 10
132.991365
 20
137.009196
 30
0.0
 10
132.805627
 20
136.560787
 30
0.0
 10
132.908294
 20
136.044645
 30
0.0
 10
133.251492
 20
135.701448
 30
0.0
  0
SPLINE
  5
10f
100
AcDbEntity
  8
Layer_1
 62
7
100
AcDbSpline
 70
8
 71
3
 72
8
 73
4
 74
0
 40
0
 40
0
 40
0
 40
0
 40
1
 40
1
 40
1
 40
1
 10
133.251492
 20
135.701448
 30
0.0
 10
133.594689
 20
135.358250
 30
0.0
 10
134.110831
 20
135.255583
 30
0.0
 10
134.559240
 20
135.441321
 30
0.0
  0
SPLINE
  5
110
100
AcDbEntity
  8
Layer_1
 62
7
100
AcDbSpline
 70
8
 71
3
 72
8
 73
4
 74
0
 40
0
 40
0
 40
0
 40
0
 40
1
 40
1
 40
1
 40
1
 10
134.559240
 20
135.441321
 30
0.0
 10
135.007649
 20
135.627058
 30
0.0
 10
135.300020
 20
136.064621
 30
0.0
 10
135.300020
 20
136.549976
 30
0.0
  0
SPLINE
  5
111
100
AcDbEntity
  8
Layer_1
 62
7
100
AcDbSpline
 70
8
 71
3
 72
8
 73
4
 74
0
 40
0
 40
0
 40
0
 40
0
 40
1
 40
1
 40
1
 40
1
 10
135.300020
 20
136.549976
 30
0.0
 10
135.300020
 20
136.868236
 30
0.0
 10
135.173592
 20
137.173460
 30
0.0
 10
134.948548
 20
137.398504
 30
0.0
  0
SPLINE
  5
112
100
AcDbEntity
  8
Layer_1
 62
7
100
AcDbSpline
 70
8
 71
3
 72
8
 73
4
 74
0
 40
0
 40
0
 40
0
 40
0
 40
1
 40
1
 40
1
 40
1
 10
134.948548
 20
137.398504
 30
0.0
 10
134.723504
 20
137.623548
 30
0.0
 10
134.418280
 20
137.749976
 30
0.0
 10
134.100020
 20
137.749976
 30
0.0
  0
LWPOLYLINE
  5
113
100
AcDbEntity
  8
Layer_1
 62
7
100
AcDbPolyline
 90
1
 70
1
 10
96.000015
 20
147.124869
 30
0.0
  0
SPLINE
  5
114
100
AcDbEntity
  8
Layer_1
 62
7
100
AcDbSpline
 70
8
 71
3
 72
8
 73
4
 74
0
 40
0
 40
0
 40
0
 40
0
 40
1
 40
1
 40
1
 40
1
 10
160.600160
 20
86.799869
 30
0.0
 10
160.114805
 20
86.799869
 30
0.0
 10
159.677242
 20
86.507498
 30
0.0
 10
159.491505
 20
86.059089
 30
0.0
  0
SPLINE
  5
115
100
AcDbEntity
  8
Layer_1
 62
7
100
AcDbSpline
 70
8
 71
3
 72
8
 73
4
 74
0
 40
0
 40
0
 40
0
 40
0
 40
1
 40
1
 40
1
 40
1
 10
159.491505
 20
86.059089
 30
0.0
 10
159.305767
 20
85.610680
 30
0.0
 10
159.408434
 20
85.094538
 30
0.0
 10
159.751632
 20
84.751341
 30
0.0
  0
SPLINE
  5
116
100
AcDbEntity
  8
Layer_1
 62
7
100
AcDbSpline
 70
8
 71
3
 72
8
 73
4
 74
0
 40
0
 40
0
 40
0
 40
0
 40
1
 40
1
 40
1
 40
1
 10
159.751632
 20
84.751341
 30
0.0
 10
160.094829
 20
84.408143
 30
0.0
 10
160.610971
 20
84.305476
 30
0.0
 10
161.059380
 20
84.491214
 30
0.0
  0
SPLINE
  5
117
100
AcDbEntity
  8
Layer_1
 62
7
100
AcDbSpline
 70
8
 71
3
 72
8
 73
4
 74
0
 40
0
 40
0
 40
0
 40
0
 40
1
 40
1
 40
1
 40
1
 10
161.059380
 20
84.491214
 30
0.0
 10
161.507789
 20
84.676951
 30
0.0
 10
161.800160
 20
85.114514
 30
0.0
 10
161.800160
 20
85.599869
 30
0.0
  0
SPLINE
  5
118
100
AcDbEntity
  8
Layer_1
 62
7
100
AcDbSpline
 70
8
 71
3
 72
8
 73
4
 74
0
 40
0
 40
0
 40
0
 40
0
 40
1
 40
1
 40
1
 40
1
 10
161.800160
 20
85.599869
 30
0.0
 10
161.800160
 20
85.918129
 30
0.0
 10
161.673732
 20
86.223353
 30
0.0
 10
161.448688
 20
86.448397
 30
0.0
  0
SPLINE
  5
119
100
AcDbEntity
  8
Layer_1
 62
7
100
AcDbSpline
 70
8
 71
3
 72
8
 73
4
 74
0
 40
0
 40
0
 40
0
 40
0
 40
1
 40
1
 40
1
 40
1
 10
161.448688
 20
86.448397
 30
0.0
 10
161.223644
 20
86.673441
 30
0.0
 10
160.918420
 20
86.799869
 30
0.0
 10
160.600160
 20
86.799869
 30
0.0
  0
LWPOLYLINE
  5
11a
100
AcDbEntity
  8
Layer_1
 62
7
100
AcDbPolyline
 90
1
 70
1
 10
134.100020
 20
137.749976
 30
0.0
  0
SPLINE
  5
11b
100
AcDbEntity
  8
Layer_1
 62
7
100
AcDbSpline
 70
8
 71
3
 72
8
 73
4
 74
0
 40
0
 40
0
 40
0
 40
0
 40
1
 40
1
 40
1
 40
1
 10
160.600160
 20
60.200076
 30
0.0
 10
160.114805
 20
60.200076
 30
0.0
 10
159.677242
 20
59.907705
 30
0.0
 10
159.491505
 20
59.459296
 30
0.0
  0
SPLINE
  5
11c
100
AcDbEntity
  8
Layer_1
 62
7
100
AcDbSpline
 70
8
 71
3
 72
8
 73
4
 74
0
 40
0
 40
0
 40
0
 40
0
 40
1
 40
1
 40
1
 40
1
 10
159.491505
 20
59.459296
 30
0.0
 10
159.305767
 20
59.010887
 30
0.0
 10
159.408434
 20
58.494745
 30
0.0
 10
159.751632
 20
58.151548
 30
0.0
  0
SPLINE
  5
11d
100
AcDbEntity
  8
Layer_1
 62
7
100
AcDbSpline
 70
8
 71
3
 72
8
 73
4
 74
0
 40
0
 40
0
 40
0
 40
0
 40
1
 40
1
 40
1
 40
1
 10
159.751632
 20
58.151548
 30
0.0
 10
160.094829
 20
57.808350
 30
0.0
 10
160.610971
 20
57.705683
 30
0.0
 10
161.059380
 20
57.891421
 30
0.0
  0
SPLINE
  5
11e
100
AcDbEntity
  8
Layer_1
 62
7
100
AcDbSpline
 70
8
 71
3
 72
8
 73
4
 74
0
 40
0
 40
0
 40
0
 40
0
 40
1
 40
1
 40
1
 40
1
 10
161.059380
 20
57.891421
 30
0.0
 10
161.507789
 20
58.077158
 30
0.0
 10
161.800160
 20
58.514721
 30
0.0
 10
161.800160
 20
59.000076
 30
0.0
  0
SPLINE
  5
11f
100
AcDbEntity
  8
Layer_1
 62
7
100
AcDbSpline
 70
8
 71
3
 72
8
 73
4
 74
0
 40
0
 40
0
 40
0
 40
0
 40
1
 40
1
 40
1
 40
1
 10
161.800160
 20
59.000076
 30
0.0
 10
161.800160
 20
59.318336
 30
0.0
 10
161.673732
 20
59.623560
 30
0.0
 10
161.448688
 20
59.848604
 30
0.0
  0
SPLINE
  5
120
100
AcDbEntity
  8
Layer_1
 62
7
100
AcDbSpline
 70
8
 71
3
 72
8
 73
4
 74
0
 40
0
 40
0
 40
0
 40
0
 40
1
 40
1
 40
1
 40
1
 10
161.448688
 20
59.848604
 30
0.0
 10
161.223644
 20
60.073648
 30
0.0
 10
160.918420
 20
60.200076
 30
0.0
 10
160.600160
 20
60.200076
 30
0.0
  0
LWPOLYLINE
  5
121
100
AcDbEntity
  8
Layer_1
 62
7
100
AcDbPolyline
 90
1
 70
1
 10
160.600160
 20
86.799869
 30
0.0
  0
SPLINE
  5
122
100
AcDbEntity
  8
Layer_1
 62
7
100
AcDbSpline
 70
8
 71
3
 72
8
 73
4
 74
0
 40
0
 40
0
 40
0
 40
0
 40
1
 40
1
 40
1
 40
1
 10
140.925030
 20
86.799869
 30
0.0
 10
140.439675
 20
86.799869
 30
0.0
 10
140.002112
 20
86.507498
 30
0.0
 10
139.816375
 20
86.059089
 30
0.0
  0
SPLINE
  5
123
100
AcDbEntity
  8
Layer_1
 62
7
100
AcDbSpline
 70
8
 71
3
 72
8
 73
4
 74
0
 40
0
 40
0
 40
0
 40
0
 40
1
 40
1
 40
1
 40
1
 10
139.816375
 20
86.059089
 30
0.0
 10
139.630637
 20
85.610680
 30
0.0
 10
139.733304
 20
85.094538
 30
0.0
 10
140.076502
 20
84.751341
 30
0.0
  0
SPLINE
  5
124
100
AcDbEntity
  8
Layer_1
 62
7
100
AcDbSpline
 70
8
 71
3
 72
8
 73
4
 74
0
 40
0
 40
0
 40
0
 40
0
 40
1
 40
1
 40
1
 40
1
 10
140.076502
 20
84.751341
 30
0.0
 10
140.419699
 20
84.408143
 30
0.0
 10
140.935841
 20
84.305476
 30
0.0
 10
141.384250
 20
84.491214
 30
0.0
  0
SPLINE
  5
125
100
AcDbEntity
  8
Layer_1
 62
7
100
AcDbSpline
 70
8
 71
3
 72
8
 73
4
 74
0
 40
0
 40
0
 40
0
 40
0
 40
1
 40
1
 40
1
 40
1
 10
141.384250
 20
84.491214
 30
0.0
 10
141.832659
 20
84.676951
 30
0.0
 10
142.125030
 20
85.114514
 30
0.0
 10
142.125030
 20
85.599869
 30
0.0
  0
SPLINE
  5
126
100
AcDbEntity
  8
Layer_1
 62
7
100
AcDbSpline
 70
8
 71
3
 72
8
 73
4
 74
0
 40
0
 40
0
 40
0
 40
0
 40
1
 40
1
 40
1
 40
1
 10
142.125030
 20
85.599869
 30
0.0
 10
142.125030
 20
85.918129
 30
0.0
 10
141.998602
 20
86.223353
 30
0.0
 10
141.773558
 20
86.448397
 30
0.0
  0
SPLINE
  5
127
100
AcDbEntity
  8
Layer_1
 62
7
100
AcDbSpline
 70
8
 71
3
 72
8
 73
4
 74
0
 40
0
 40
0
 40
0
 40
0
 40
1
 40
1
 40
1
 40
1
 10
141.773558
 20
86.448397
 30
0.0
 10
141.548514
 20
86.673441
 30
0.0
 10
141.243290
 20
86.799869
 30
0.0
 10
140.925030
 20
86.799869
 30
0.0
  0
LWPOLYLINE
  5
128
100
AcDbEntity
  8
Layer_1
 62
7
100
AcDbPolyline
 90
1
 70
1
 10
160.600160
 20
60.200076
 30
0.0
  0
SPLINE
  5
129
100
AcDbEntity
  8
Layer_1
 62
7
100
AcDbSpline
 70
8
 71
3
 72
8
 73
4
 74
0
 40
0
 40
0
 40
0
 40
0
 40
1
 40
1
 40
1
 40
1
 10
100.499870
 20
101.125121
 30
0.0
 10
100.014515
 20
101.125121
 30
0.0
 10
99.576952
 20
100.832750
 30
0.0
 10
99.391215
 20
100.384341
 30
0.0
  0
SPLINE
  5
12a
100
AcDbEntity
  8
Layer_1
 62
7
100
AcDbSpline
 70
8
 71
3
 72
8
 73
4
 74
0
 40
0
 40
0
 40
0
 40
0
 40
1
 40
1
 40
1
 40
1
 10
99.391215
 20
100.384341
 30
0.0
 10
99.205477
 20
99.935932
 30
0.0
 10
99.308144
 20
99.419790
 30
0.0
 10
99.651342
 20
99.076593
 30
0.0
  0
SPLINE
  5
12b
100
AcDbEntity
  8
Layer_1
 62
7
100
AcDbSpline
 70
8
 71
3
 72
8
 73
4
 74
0
 40
0
 40
0
 40
0
 40
0
 40
1
 40
1
 40
1
 40
1
 10
99.651342
 20
99.076593
 30
0.0
 10
99.994539
 20
98.733395
 30
0.0
 10
100.510681
 20
98.630728
 30
0.0
 10
100.959090
 20
98.816466
 30
0.0
  0
SPLINE
  5
12c
100
AcDbEntity
  8
Layer_1
 62
7
100
AcDbSpline
 70
8
 71
3
 72
8
 73
4
 74
0
 40
0
 40
0
 40
0
 40
0
 40
1
 40
1
 40
1
 40
1
 10
100.959090
 20
98.816466
 30
0.0
 10
101.407499
 20
99.002203
 30
0.0
 10
101.699870
 20
99.439766
 30
0.0
 10
101.699870
 20
99.925121
 30
0.0
  0
SPLINE
  5
12d
100
AcDbEntity
  8
Layer_1
 62
7
100
AcDbSpline
 70
8
 71
3
 72
8
 73
4
 74
0
 40
0
 40
0
 40
0
 40
0
 40
1
 40
1
 40
1
 40
1
 10
101.699870
 20
99.925121
 30
0.0
 10
101.699870
 20
100.243381
 30
0.0
 10
101.573442
 20
100.548605
 30
0.0
 10
101.348398
 20
100.773649
 30
0.0
  0
SPLINE
  5
12e
100
AcDbEntity
  8
Layer_1
 62
7
100
AcDbSpline
 70
8
 71
3
 72
8
 73
4
 74
0
 40
0
 40
0
 40
0
 40
0
 40
1
 40
1
 40
1
 40
1
 10
101.348398
 20
100.773649
 30
0.0
 10
101.123354
 20
100.998693
 30
0.0
 10
100.818130
 20
101.125121
 30
0.0
 10
100.499870
 20
101.125121
 30
0.0
  0
LWPOLYLINE
  5
12f
100
AcDbEntity
  8
Layer_1
 62
7
100
AcDbPolyline
 90
1
 70
1
 10
140.925030
 20
86.799869
 30
0.0
  0
SPLINE
  5
130
100
AcDbEntity
  8
Layer_1
 62
7
100
AcDbSpline
 70
8
 71
3
 72
8
 73
4
 74
0
 40
0
 40
0
 40
0
 40
0
 40
1
 40
1
 40
1
 40
1
 10
97.849983
 20
60.200076
 30
0.0
 10
97.364628
 20
60.200076
 30
0.0
 10
96.927065
 20
59.907705
 30
0.0
 10
96.741328
 20
59.459296
 30
0.0
  0
SPLINE
  5
131
100
AcDbEntity
  8
Layer_1
 62
7
100
AcDbSpline
 70
8
 71
3
 72
8
 73
4
 74
0
 40
0
 40
0
 40
0
 40
0
 40
1
 40
1
 40
1
 40
1
 10
96.741328
 20
59.459296
 30
0.0
 10
96.555590
 20
59.010887
 30
0.0
 10
96.658257
 20
58.494745
 30
0.0
 10
97.001455
 20
58.151548
 30
0.0
  0
SPLINE
  5
132
100
AcDbEntity
  8
Layer_1
 62
7
100
AcDbSpline
 70
8
 71
3
 72
8
 73
4
 74
0
 40
0
 40
0
 40
0
 40
0
 40
1
 40
1
 40
1
 40
1
 10
97.001455
 20
58.151548
 30
0.0
 10
97.344652
 20
57.808350
 30
0.0
 10
97.860794
 20
57.705683
 30
0.0
 10
98.309203
 20
57.891421
 30
0.0
  0
SPLINE
  5
133
100
AcDbEntity
  8
Layer_1
 62
7
100
AcDbSpline
 70
8
 71
3
 72
8
 73
4
 74
0
 40
0
 40
0
 40
0
 40
0
 40
1
 40
1
 40
1
 40
1
 10
98.309203
 20
57.891421
 30
0.0
 10
98.757612
 20
58.077158
 30
0.0
 10
99.049983
 20
58.514721
 30
0.0
 10
99.049983
 20
59.000076
 30
0.0
  0
SPLINE
  5
134
100
AcDbEntity
  8
Layer_1
 62
7
100
AcDbSpline
 70
8
 71
3
 72
8
 73
4
 74
0
 40
0
 40
0
 40
0
 40
0
 40
1
 40
1
 40
1
 40
1
 10
99.049983
 20
59.000076
 30
0.0
 10
99.049983
 20
59.318336
 30
0.0
 10
98.923555
 20
59.623560
 30
0.0
 10
98.698511
 20
59.848604
 30
0.0
  0
SPLINE
  5
135
100
AcDbEntity
  8
Layer_1
 62
7
100
AcDbSpline
 70
8
 71
3
 72
8
 73
4
 74
0
 40
0
 40
0
 40
0
 40
0
 40
1
 40
1
 40
1
 40
1
 10
98.698511
 20
59.848604
 30
0.0
 10
98.473467
 20
60.073648
 30
0.0
 10
98.168243
 20
60.200076
 30
0.0
 10
97.849983
 20
60.200076
 30
0.0
  0
LWPOLYLINE
  5
136
100
AcDbEntity
  8
Layer_1
 62
7
100
AcDbPolyline
 90
1
 70
1
 10
100.499870
 20
101.125121
 30
0.0
  0
SPLINE
  5
137
100
AcDbEntity
  8
Layer_1
 62
7
100
AcDbSpline
 70
8
 71
3
 72
8
 73
4
 74
0
 40
0
 40
0
 40
0
 40
0
 40
1
 40
1
 40
1
 40
1
 10
104.249890
 20
4.600010
 30
0.0
 10
103.764535
 20
4.600010
 30
0.0
 10
103.326972
 20
4.307639
 30
0.0
 10
103.141235
 20
3.859230
 30
0.0
  0
SPLINE
  5
138
100
AcDbEntity
  8
Layer_1
 62
7
100
AcDbSpline
 70
8
 71
3
 72
8
 73
4
 74
0
 40
0
 40
0
 40
0
 40
0
 40
1
 40
1
 40
1
 40
1
 10
103.141235
 20
3.859230
 30
0.0
 10
102.955497
 20
3.410821
 30
0.0
 10
103.058164
 20
2.894679
 30
0.0
 10
103.401362
 20
2.551482
 30
0.0
  0
SPLINE
  5
139
100
AcDbEntity
  8
Layer_1
 62
7
100
AcDbSpline
 70
8
 71
3
 72
8
 73
4
 74
0
 40
0
 40
0
 40
0
 40
0
 40
1
 40
1
 40
1
 40
1
 10
103.401362
 20
2.551482
 30
0.0
 10
103.744559
 20
2.208284
 30
0.0
 10
104.260701
 20
2.105617
 30
0.0
 10
104.709110
 20
2.291355
 30
0.0
  0
SPLINE
  5
13a
100
AcDbEntity
  8
Layer_1
 62
7
100
AcDbSpline
 70
8
 71
3
 72
8
 73
4
 74
0
 40
0
 40
0
 40
0
 40
0
 40
1
 40
1
 40
1
 40
1
 10
104.709110
 20
2.291355
 30
0.0
 10
105.157519
 20
2.477092
 30
0.0
 10
105.449890
 20
2.914655
 30
0.0
 10
105.449890
 20
3.400010
 30
0.0
  0
SPLINE
  5
13b
100
AcDbEntity
  8
Layer_1
 62
7
100
AcDbSpline
 70
8
 71
3
 72
8
 73
4
 74
0
 40
0
 40
0
 40
0
 40
0
 40
1
 40
1
 40
1
 40
1
 10
105.449890
 20
3.400010
 30
0.0
 10
105.449890
 20
3.718270
 30
0.0
 10
105.323462
 20
4.023494
 30
0.0
 10
105.098418
 20
4.248538
 30
0.0
  0
SPLINE
  5
13c
100
AcDbEntity
  8
Layer_1
 62
7
100
AcDbSpline
 70
8
 71
3
 72
8
 73
4
 74
0
 40
0
 40
0
 40
0
 40
0
 40
1
 40
1
 40
1
 40
1
 10
105.098418
 20
4.248538
 30
0.0
 10
104.873374
 20
4.473582
 30
0.0
 10
104.568150
 20
4.600010
 30
0.0
 10
104.249890
 20
4.600010
 30
0.0
  0
LWPOLYLINE
  5
13d
100
AcDbEntity
  8
Layer_1
 62
7
100
AcDbPolyline
 90
1
 70
1
 10
97.849983
 20
60.200076
 30
0.0
  0
SPLINE
  5
13e
100
AcDbEntity
  8
Layer_1
 62
7
100
AcDbSpline
 70
8
 71
3
 72
8
 73
4
 74
0
 40
0
 40
0
 40
0
 40
0
 40
1
 40
1
 40
1
 40
1
 10
47.925049
 20
60.200076
 30
0.0
 10
47.439694
 20
60.200076
 30
0.0
 10
47.002131
 20
59.907705
 30
0.0
 10
46.816394
 20
59.459296
 30
0.0
  0
SPLINE
  5
13f
100
AcDbEntity
  8
Layer_1
 62
7
100
AcDbSpline
 70
8
 71
3
 72
8
 73
4
 74
0
 40
0
 40
0
 40
0
 40
0
 40
1
 40
1
 40
1
 40
1
 10
46.816394
 20
59.459296
 30
0.0
 10
46.630656
 20
59.010887
 30
0.0
 10
46.733323
 20
58.494745
 30
0.0
 10
47.076521
 20
58.151548
 30
0.0
  0
SPLINE
  5
140
100
AcDbEntity
  8
Layer_1
 62
7
100
AcDbSpline
 70
8
 71
3
 72
8
 73
4
 74
0
 40
0
 40
0
 40
0
 40
0
 40
1
 40
1
 40
1
 40
1
 10
47.076521
 20
58.151548
 30
0.0
 10
47.419718
 20
57.808350
 30
0.0
 10
47.935860
 20
57.705683
 30
0.0
 10
48.384269
 20
57.891421
 30
0.0
  0
SPLINE
  5
141
100
AcDbEntity
  8
Layer_1
 62
7
100
AcDbSpline
 70
8
 71
3
 72
8
 73
4
 74
0
 40
0
 40
0
 40
0
 40
0
 40
1
 40
1
 40
1
 40
1
 10
48.384269
 20
57.891421
 30
0.0
 10
48.832678
 20
58.077158
 30
0.0
 10
49.125049
 20
58.514721
 30
0.0
 10
49.125049
 20
59.000076
 30
0.0
  0
SPLINE
  5
142
100
AcDbEntity
  8
Layer_1
 62
7
100
AcDbSpline
 70
8
 71
3
 72
8
 73
4
 74
0
 40
0
 40
0
 40
0
 40
0
 40
1
 40
1
 40
1
 40
1
 10
49.125049
 20
59.000076
 30
0.0
 10
49.125049
 20
59.318336
 30
0.0
 10
48.998621
 20
59.623560
 30
0.0
 10
48.773577
 20
59.848604
 30
0.0
  0
SPLINE
  5
143
100
AcDbEntity
  8
Layer_1
 62
7
100
AcDbSpline
 70
8
 71
3
 72
8
 73
4
 74
0
 40
0
 40
0
 40
0
 40
0
 40
1
 40
1
 40
1
 40
1
 10
48.773577
 20
59.848604
 30
0.0
 10
48.548533
 20
60.073648
 30
0.0
 10
48.243309
 20
60.200076
 30
0.0
 10
47.925049
 20
60.200076
 30
0.0
  0
LWPOLYLINE
  5
144
100
AcDbEntity
  8
Layer_1
 62
7
100
AcDbPolyline
 90
1
 70
1
 10
104.249890
 20
4.600010
 30
0.0
  0
SPLINE
  5
145
100
AcDbEntity
  8
Layer_1
 62
7
100
AcDbSpline
 70
8
 71
3
 72
8
 73
4
 74
0
 40
0
 40
0
 40
0
 40
0
 40
1
 40
1
 40
1
 40
1
 10
44.499931
 20
106.125037
 30
0.0
 10
44.014576
 20
106.125037
 30
0.0
 10
43.577013
 20
105.832666
 30
0.0
 10
43.391276
 20
105.384257
 30
0.0
  0
SPLINE
  5
146
100
AcDbEntity
  8
Layer_1
 62
7
100
AcDbSpline
 70
8
 71
3
 72
8
 73
4
 74
0
 40
0
 40
0
 40
0
 40
0
 40
1
 40
1
 40
1
 40
1
 10
43.391276
 20
105.384257
 30
0.0
 10
43.205538
 20
104.935848
 30
0.0
 10
43.308205
 20
104.419706
 30
0.0
 10
43.651403
 20
104.076509
 30
0.0
  0
SPLINE
  5
147
100
AcDbEntity
  8
Layer_1
 62
7
100
AcDbSpline
 70
8
 71
3
 72
8
 73
4
 74
0
 40
0
 40
0
 40
0
 40
0
 40
1
 40
1
 40
1
 40
1
 10
43.651403
 20
104.076509
 30
0.0
 10
43.994600
 20
103.733311
 30
0.0
 10
44.510742
 20
103.630644
 30
0.0
 10
44.959151
 20
103.816382
 30
0.0
  0
SPLINE
  5
148
100
AcDbEntity
  8
Layer_1
 62
7
100
AcDbSpline
 70
8
 71
3
 72
8
 73
4
 74
0
 40
0
 40
0
 40
0
 40
0
 40
1
 40
1
 40
1
 40
1
 10
44.959151
 20
103.816382
 30
0.0
 10
45.407560
 20
104.002119
 30
0.0
 10
45.699931
 20
104.439682
 30
0.0
 10
45.699931
 20
104.925037
 30
0.0
  0
SPLINE
  5
149
100
AcDbEntity
  8
Layer_1
 62
7
100
AcDbSpline
 70
8
 71
3
 72
8
 73
4
 74
0
 40
0
 40
0
 40
0
 40
0
 40
1
 40
1
 40
1
 40
1
 10
45.699931
 20
104.925037
 30
0.0
 10
45.699931
 20
105.243297
 30
0.0
 10
45.573503
 20
105.548521
 30
0.0
 10
45.348459
 20
105.773565
 30
0.0
  0
SPLINE
  5
14a
100
AcDbEntity
  8
Layer_1
 62
7
100
AcDbSpline
 70
8
 71
3
 72
8
 73
4
 74
0
 40
0
 40
0
 40
0
 40
0
 40
1
 40
1
 40
1
 40
1
 10
45.348459
 20
105.773565
 30
0.0
 10
45.123415
 20
105.998609
 30
0.0
 10
44.818191
 20
106.125037
 30
0.0
 10
44.499931
 20
106.125037
 30
0.0
  0
LWPOLYLINE
  5
14b
100
AcDbEntity
  8
Layer_1
 62
7
100
AcDbPolyline
 90
1
 70
1
 10
47.925049
 20
60.200076
 30
0.0
  0
SPLINE
  5
14c
100
AcDbEntity
  8
Layer_1
 62
7
100
AcDbSpline
 70
8
 71
3
 72
8
 73
4
 74
0
 40
0
 40
0
 40
0
 40
0
 40
1
 40
1
 40
1
 40
1
 10
4.899916
 20
61.725139
 30
0.0
 10
4.414561
 20
61.725139
 30
0.0
 10
3.976997
 20
61.432768
 30
0.0
 10
3.791260
 20
60.984359
 30
0.0
  0
SPLINE
  5
14d
100
AcDbEntity
  8
Layer_1
 62
7
100
AcDbSpline
 70
8
 71
3
 72
8
 73
4
 74
0
 40
0
 40
0
 40
0
 40
0
 40
1
 40
1
 40
1
 40
1
 10
3.791260
 20
60.984359
 30
0.0
 10
3.605523
 20
60.535950
 30
0.0
 10
3.708190
 20
60.019808
 30
0.0
 10
4.051388
 20
59.676611
 30
0.0
  0
SPLINE
  5
14e
100
AcDbEntity
  8
Layer_1
 62
7
100
AcDbSpline
 70
8
 71
3
 72
8
 73
4
 74
0
 40
0
 40
0
 40
0
 40
0
 40
1
 40
1
 40
1
 40
1
 10
4.051388
 20
59.676611
 30
0.0
 10
4.394585
 20
59.333413
 30
0.0
 10
4.910727
 20
59.230746
 30
0.0
 10
5.359136
 20
59.416484
 30
0.0
  0
SPLINE
  5
14f
100
AcDbEntity
  8
Layer_1
 62
7
100
AcDbSpline
 70
8
 71
3
 72
8
 73
4
 74
0
 40
0
 40
0
 40
0
 40
0
 40
1
 40
1
 40
1
 40
1
 10
5.359136
 20
59.416484
 30
0.0
 10
5.807545
 20
59.602221
 30
0.0
 10
6.099916
 20
60.039784
 30
0.0
 10
6.099916
 20
60.525139
 30
0.0
  0
SPLINE
  5
150
100
AcDbEntity
  8
Layer_1
 62
7
100
AcDbSpline
 70
8
 71
3
 72
8
 73
4
 74
0
 40
0
 40
0
 40
0
 40
0
 40
1
 40
1
 40
1
 40
1
 10
6.099916
 20
60.525139
 30
0.0
 10
6.099916
 20
60.843399
 30
0.0
 10
5.973487
 20
61.148623
 30
0.0
 10
5.748444
 20
61.373667
 30
0.0
  0
SPLINE
  5
151
100
AcDbEntity
  8
Layer_1
 62
7
100
AcDbSpline
 70
8
 71
3
 72
8
 73
4
 74
0
 40
0
 40
0
 40
0
 40
0
 40
1
 40
1
 40
1
 40
1
 10
5.748444
 20
61.373667
 30
0.0
 10
5.523400
 20
61.598711
 30
0.0
 10
5.218175
 20
61.725139
 30
0.0
 10
4.899916
 20
61.725139
 30
0.0
  0
LWPOLYLINE
  5
152
100
AcDbEntity
  8
Layer_1
 62
7
100
AcDbPolyline
 90
1
 70
1
 10
44.499931
 20
106.125037
 30
0.0
  0
SPLINE
  5
153
100
AcDbEntity
  8
Layer_1
 62
7
100
AcDbSpline
 70
8
 71
3
 72
8
 73
4
 74
0
 40
0
 40
0
 40
0
 40
0
 40
1
 40
1
 40
1
 40
1
 10
4.899916
 20
135.300115
 30
0.0
 10
4.414561
 20
135.300115
 30
0.0
 10
3.976997
 20
135.007744
 30
0.0
 10
3.791260
 20
134.559335
 30
0.0
  0
SPLINE
  5
154
100
AcDbEntity
  8
Layer_1
 62
7
100
AcDbSpline
 70
8
 71
3
 72
8
 73
4
 74
0
 40
0
 40
0
 40
0
 40
0
 40
1
 40
1
 40
1
 40
1
 10
3.791260
 20
134.559335
 30
0.0
 10
3.605523
 20
134.110926
 30
0.0
 10
3.708190
 20
133.594784
 30
0.0
 10
4.051388
 20
133.251587
 30
0.0
  0
SPLINE
  5
155
100
AcDbEntity
  8
Layer_1
 62
7
100
AcDbSpline
 70
8
 71
3
 72
8
 73
4
 74
0
 40
0
 40
0
 40
0
 40
0
 40
1
 40
1
 40
1
 40
1
 10
4.051388
 20
133.251587
 30
0.0
 10
4.394585
 20
132.908389
 30
0.0
 10
4.910727
 20
132.805722
 30
0.0
 10
5.359136
 20
132.991460
 30
0.0
  0
SPLINE
  5
156
100
AcDbEntity
  8
Layer_1
 62
7
100
AcDbSpline
 70
8
 71
3
 72
8
 73
4
 74
0
 40
0
 40
0
 40
0
 40
0
 40
1
 40
1
 40
1
 40
1
 10
5.359136
 20
132.991460
 30
0.0
 10
5.807545
 20
133.177197
 30
0.0
 10
6.099916
 20
133.614760
 30
0.0
 10
6.099916
 20
134.100115
 30
0.0
  0
SPLINE
  5
157
100
AcDbEntity
  8
Layer_1
 62
7
100
AcDbSpline
 70
8
 71
3
 72
8
 73
4
 74
0
 40
0
 40
0
 40
0
 40
0
 40
1
 40
1
 40
1
 40
1
 10
6.099916
 20
134.100115
 30
0.0
 10
6.099916
 20
134.418375
 30
0.0
 10
5.973487
 20
134.723599
 30
0.0
 10
5.748444
 20
134.948643
 30
0.0
  0
SPLINE
  5
158
100
AcDbEntity
  8
Layer_1
 62
7
100
AcDbSpline
 70
8
 71
3
 72
8
 73
4
 74
0
 40
0
 40
0
 40
0
 40
0
 40
1
 40
1
 40
1
 40
1
 10
5.748444
 20
134.948643
 30
0.0
 10
5.523400
 20
135.173687
 30
0.0
 10
5.218175
 20
135.300115
 30
0.0
 10
4.899916
 20
135.300115
 30
0.0
  0
LWPOLYLINE
  5
159
100
AcDbEntity
  8
Layer_1
 62
7
100
AcDbPolyline
 90
1
 70
1
 10
4.899916
 20
61.725139
 30
0.0
  0
LWPOLYLINE
  5
15a
100
AcDbEntity
  8
Layer_1
 62
7
100
AcDbPolyline
 90
1
 70
1
 10
4.899916
 20
135.300115
 30
0.0
  0
LWPOLYLINE
  5
15b
100
AcDbEntity
  8
Layer_1
 62
7
100
AcDbPolyline
 90
4
 70
1
 10
101.850184
 20
103.599809
 30
0.0
 10
101.850184
 20
117.400132
 30
0.0
 10
115.650153
 20
117.400132
 30
0.0
 10
115.650153
 20
103.599809
 30
0.0
  0
LWPOLYLINE
  5
15c
100
AcDbEntity
  8
Layer_1
 62
7
100
AcDbPolyline
 90
4
 70
1
 10
82.849913
 20
69.600124
 30
0.0
 10
82.849913
 20
83.400094
 30
0.0
 10
96.650236
 20
83.400094
 30
0.0
 10
96.650236
 20
69.600124
 30
0.0
  0
LWPOLYLINE
  5
15d
100
AcDbEntity
  8
Layer_1
 62
7
100
AcDbPolyline
 90
4
 70
1
 10
90.638193
 20
47.121110
 30
0.0
 10
80.878943
 20
37.361859
 30
0.0
 10
71.121103
 20
47.121110
 30
0.0
 10
80.878943
 20
56.878949
 30
0.0
  0
LWPOLYLINE
  5
15e
100
AcDbEntity
  8
Layer_1
 62
7
100
AcDbPolyline
 90
4
 70
1
 10
120.850101
 20
61.599824
 30
0.0
 10
120.850101
 20
75.399794
 30
0.0
 10
134.650071
 20
75.399794
 30
0.0
 10
134.650071
 20
61.599824
 30
0.0
  0
LWPOLYLINE
  5
15f
100
AcDbEntity
  8
Layer_1
 62
7
100
AcDbPolyline
 90
4
 70
1
 10
120.850101
 20
118.599930
 30
0.0
 10
120.850101
 20
132.399900
 30
0.0
 10
134.650071
 20
132.399900
 30
0.0
 10
134.650071
 20
118.599930
 30
0.0
  0
LWPOLYLINE
  5
160
100
AcDbEntity
  8
Layer_1
 62
7
100
AcDbPolyline
 90
4
 70
1
 10
25.850161
 20
103.599809
 30
0.0
 10
25.850161
 20
117.400132
 30
0.0
 10
39.650131
 20
117.400132
 30
0.0
 10
39.650131
 20
103.599809
 30
0.0
  0
LWPOLYLINE
  5
161
100
AcDbEntity
  8
Layer_1
 62
7
100
AcDbPolyline
 90
4
 70
1
 10
101.850184
 20
65.599974
 30
0.0
 10
101.850184
 20
79.399944
 30
0.0
 10
115.650153
 20
79.399944
 30
0.0
 10
115.650153
 20
65.599974
 30
0.0
  0
LWPOLYLINE
  5
162
100
AcDbEntity
  8
Layer_1
 62
7
100
AcDbPolyline
 90
4
 70
1
 10
82.849913
 20
107.599959
 30
0.0
 10
82.849913
 20
121.399929
 30
0.0
 10
96.650236
 20
121.399929
 30
0.0
 10
96.650236
 20
107.599959
 30
0.0
  0
LWPOLYLINE
  5
163
100
AcDbEntity
  8
Layer_1
 62
7
100
AcDbPolyline
 90
4
 70
1
 10
6.849890
 20
61.599824
 30
0.0
 10
6.849890
 20
75.399794
 30
0.0
 10
20.649860
 20
75.399794
 30
0.0
 10
20.649860
 20
61.599824
 30
0.0
  0
LWPOLYLINE
  5
164
100
AcDbEntity
  8
Layer_1
 62
7
100
AcDbPolyline
 90
4
 70
1
 10
63.849996
 20
73.599921
 30
0.0
 10
63.849996
 20
87.399891
 30
0.0
 10
77.649966
 20
87.399891
 30
0.0
 10
77.649966
 20
73.599921
 30
0.0
  0
LWPOLYLINE
  5
165
100
AcDbEntity
  8
Layer_1
 62
7
100
AcDbPolyline
 90
4
 70
1
 10
6.849890
 20
80.600095
 30
0.0
 10
6.849890
 20
94.400065
 30
0.0
 10
20.649860
 20
94.400065
 30
0.0
 10
20.649860
 20
80.600095
 30
0.0
  0
LWPOLYLINE
  5
166
100
AcDbEntity
  8
Layer_1
 62
7
100
AcDbPolyline
 90
8
 70
1
 10
109.589075
 20
48.039038
 30
0.0
 10
105.134194
 20
52.493919
 30
0.0
 10
109.978189
 20
57.336855
 30
0.0
 10
110.932100
 20
56.382943
 30
0.0
 10
114.219991
 20
59.670834
 30
0.0
 10
116.765990
 20
57.124835
 30
0.0
 10
113.477041
 20
53.838003
 30
0.0
 10
114.433069
 20
52.883033
 30
0.0
  0
LWPOLYLINE
  5
167
100
AcDbEntity
  8
Layer_1
 62
7
100
AcDbPolyline
 90
4
 70
1
 10
25.850161
 20
65.599974
 30
0.0
 10
25.850161
 20
79.399944
 30
0.0
 10
39.650131
 20
79.399944
 30
0.0
 10
39.650131
 20
65.599974
 30
0.0
  0
LWPOLYLINE
  5
168
100
AcDbEntity
  8
Layer_1
 62
7
100
AcDbPolyline
 90
4
 70
1
 10
82.849913
 20
88.600041
 30
0.0
 10
82.849913
 20
102.400011
 30
0.0
 10
96.650236
 20
102.400011
 30
0.0
 10
96.650236
 20
88.600041
 30
0.0
  0
LWPOLYLINE
  5
169
100
AcDbEntity
  8
Layer_1
 62
7
100
AcDbPolyline
 90
4
 70
1
 10
6.849890
 20
118.599930
 30
0.0
 10
6.849890
 20
132.399900
 30
0.0
 10
20.649860
 20
132.399900
 30
0.0
 10
20.649860
 20
118.599930
 30
0.0
  0
LWPOLYLINE
  5
16a
100
AcDbEntity
  8
Layer_1
 62
7
100
AcDbPolyline
 90
4
 70
1
 10
120.850101
 20
80.600095
 30
0.0
 10
120.850101
 20
94.400065
 30
0.0
 10
134.650071
 20
94.400065
 30
0.0
 10
134.650071
 20
80.600095
 30
0.0
  0
LWPOLYLINE
  5
16b
100
AcDbEntity
  8
Layer_1
 62
7
100
AcDbPolyline
 90
4
 70
1
 10
44.850078
 20
126.599876
 30
0.0
 10
44.850078
 20
140.399846
 30
0.0
 10
58.650048
 20
140.399846
 30
0.0
 10
58.650048
 20
126.599876
 30
0.0
  0
LWPOLYLINE
  5
16c
100
AcDbEntity
  8
Layer_1
 62
7
100
AcDbPolyline
 90
4
 70
1
 10
63.849996
 20
111.600109
 30
0.0
 10
63.849996
 20
125.400078
 30
0.0
 10
77.649966
 20
125.400078
 30
0.0
 10
77.649966
 20
111.600109
 30
0.0
  0
LWPOLYLINE
  5
16d
100
AcDbEntity
  8
Layer_1
 62
7
100
AcDbPolyline
 90
4
 70
1
 10
117.508235
 20
20.250009
 30
0.0
 10
107.750043
 20
10.491817
 30
0.0
 10
97.991145
 20
20.250009
 30
0.0
 10
107.750043
 20
30.008907
 30
0.0
  0
LWPOLYLINE
  5
16e
100
AcDbEntity
  8
Layer_1
 62
7
100
AcDbPolyline
 90
4
 70
1
 10
101.850184
 20
122.600079
 30
0.0
 10
101.850184
 20
136.400049
 30
0.0
 10
115.650153
 20
136.400049
 30
0.0
 10
115.650153
 20
122.600079
 30
0.0
  0
LWPOLYLINE
  5
16f
100
AcDbEntity
  8
Layer_1
 62
7
100
AcDbPolyline
 90
4
 70
1
 10
82.849913
 20
126.599876
 30
0.0
 10
82.849913
 20
140.399846
 30
0.0
 10
96.650236
 20
140.399846
 30
0.0
 10
96.650236
 20
126.599876
 30
0.0
  0
LWPOLYLINE
  5
170
100
AcDbEntity
  8
Layer_1
 62
7
100
AcDbPolyline
 90
4
 70
1
 10
6.849890
 20
99.600012
 30
0.0
 10
6.849890
 20
113.399982
 30
0.0
 10
20.649860
 20
113.399982
 30
0.0
 10
20.649860
 20
99.600012
 30
0.0
  0
LWPOLYLINE
  5
171
100
AcDbEntity
  8
Layer_1
 62
7
100
AcDbPolyline
 90
4
 70
1
 10
25.850161
 20
122.600079
 30
0.0
 10
25.850161
 20
136.400049
 30
0.0
 10
39.650131
 20
136.400049
 30
0.0
 10
39.650131
 20
122.600079
 30
0.0
  0
LWPOLYLINE
  5
172
100
AcDbEntity
  8
Layer_1
 62
7
100
AcDbPolyline
 90
4
 70
1
 10
120.850101
 20
99.600012
 30
0.0
 10
120.850101
 20
113.399982
 30
0.0
 10
134.650071
 20
113.399982
 30
0.0
 10
134.650071
 20
99.600012
 30
0.0
  0
LWPOLYLINE
  5
173
100
AcDbEntity
  8
Layer_1
 62
7
100
AcDbPolyline
 90
4
 70
1
 10
25.850161
 20
84.599892
 30
0.0
 10
25.850161
 20
98.399861
 30
0.0
 10
39.650131
 20
98.399861
 30
0.0
 10
39.650131
 20
84.599892
 30
0.0
  0
LWPOLYLINE
  5
174
100
AcDbEntity
  8
Layer_1
 62
7
100
AcDbPolyline
 90
4
 70
1
 10
104.073038
 20
33.685912
 30
0.0
 10
94.315198
 20
23.927015
 30
0.0
 10
84.555948
 20
33.685912
 30
0.0
 10
94.315198
 20
43.444105
 30
0.0
  0
LWPOLYLINE
  5
175
100
AcDbEntity
  8
Layer_1
 62
7
100
AcDbPolyline
 90
4
 70
1
 10
63.849996
 20
130.600026
 30
0.0
 10
63.849996
 20
144.399996
 30
0.0
 10
77.649966
 20
144.399996
 30
0.0
 10
77.649966
 20
130.600026
 30
0.0
  0
LWPOLYLINE
  5
176
100
AcDbEntity
  8
Layer_1
 62
7
100
AcDbPolyline
 90
4
 70
1
 10
44.850078
 20
107.599959
 30
0.0
 10
44.850078
 20
121.399929
 30
0.0
 10
58.650048
 20
121.399929
 30
0.0
 10
58.650048
 20
107.599959
 30
0.0
  0
LWPOLYLINE
  5
177
100
AcDbEntity
  8
Layer_1
 62
7
100
AcDbPolyline
 90
8
 70
1
 10
126.559107
 20
31.069005
 30
0.0
 10
122.104227
 20
35.523886
 30
0.0
 10
126.948222
 20
40.366822
 30
0.0
 10
127.902133
 20
39.412910
 30
0.0
 10
131.190024
 20
42.700801
 30
0.0
 10
133.736023
 20
40.154803
 30
0.0
 10
130.447074
 20
36.867970
 30
0.0
 10
131.403102
 20
35.913000
 30
0.0
  0
LWPOLYLINE
  5
178
100
AcDbEntity
  8
Layer_1
 62
7
100
AcDbPolyline
 90
4
 70
1
 10
44.850078
 20
88.600041
 30
0.0
 10
44.850078
 20
102.400011
 30
0.0
 10
58.650048
 20
102.400011
 30
0.0
 10
58.650048
 20
88.600041
 30
0.0
  0
LWPOLYLINE
  5
179
100
AcDbEntity
  8
Layer_1
 62
7
100
AcDbPolyline
 90
4
 70
1
 10
44.850078
 20
69.600124
 30
0.0
 10
44.850078
 20
83.400094
 30
0.0
 10
58.650048
 20
83.400094
 30
0.0
 10
58.650048
 20
69.600124
 30
0.0
  0
LWPOLYLINE
  5
17a
100
AcDbEntity
  8
Layer_1
 62
7
100
AcDbPolyline
 90
4
 70
1
 10
101.850184
 20
84.599892
 30
0.0
 10
101.850184
 20
98.399861
 30
0.0
 10
115.650153
 20
98.399861
 30
0.0
 10
115.650153
 20
84.599892
 30
0.0
  0
LWPOLYLINE
  5
17b
100
AcDbEntity
  8
Layer_1
 62
7
100
AcDbPolyline
 90
4
 70
1
 10
127.761022
 20
43.939052
 30
0.0
 10
118.003183
 20
34.180860
 30
0.0
 10
108.244990
 20
43.939052
 30
0.0
 10
118.003183
 20
53.696892
 30
0.0
  0
LWPOLYLINE
  5
17c
100
AcDbEntity
  8
Layer_1
 62
7
100
AcDbPolyline
 90
4
 70
1
 10
63.849996
 20
92.599838
 30
0.0
 10
63.849996
 20
106.399808
 30
0.0
 10
77.649966
 20
106.399808
 30
0.0
 10
77.649966
 20
92.599838
 30
0.0
  0
SPLINE
  5
17d
100
AcDbEntity
  8
Layer_1
 62
7
100
AcDbSpline
 70
8
 71
3
 72
8
 73
4
 74
0
 40
0
 40
0
 40
0
 40
0
 40
1
 40
1
 40
1
 40
1
 10
137.500070
 20
91.000029
 30
0.0
 10
137.500070
 20
89.872809
 30
0.0
 10
138.402550
 20
89.000132
 30
0.0
 10
139.499970
 20
89.000132
 30
0.0
  0
LWPOLYLINE
  5
17e
100
AcDbEntity
  8
Layer_1
 62
7
100
AcDbPolyline
 90
2
 70
0
 10
137.500070
 20
137.643953
 30
0.0
 10
137.500070
 20
91.000029
 30
0.0
  0
SPLINE
  5
17f
100
AcDbEntity
  8
Layer_1
 62
7
100
AcDbSpline
 70
8
 71
3
 72
8
 73
4
 74
0
 40
0
 40
0
 40
0
 40
0
 40
1
 40
1
 40
1
 40
1
 10
162.000140
 20
89.000132
 30
0.0
 10
163.132010
 20
89.000132
 30
0.0
 10
164.000040
 20
88.096742
 30
0.0
 10
164.000040
 20
86.999882
 30
0.0
  0
SPLINE
  5
180
100
AcDbEntity
  8
Layer_1
 62
7
100
AcDbSpline
 70
8
 71
3
 72
8
 73
4
 74
0
 40
0
 40
0
 40
0
 40
0
 40
1
 40
1
 40
1
 40
1
 10
164.000040
 20
86.999882
 30
0.0
 10
164.097140
 20
77.802771
 30
0.0
 10
164.000040
 20
59.407016
 30
0.0
 10
164.000040
 20
59.407016
 30
0.0
  0
SPLINE
  5
181
100
AcDbEntity
  8
Layer_1
 62
7
100
AcDbSpline
 70
8
 71
3
 72
8
 73
4
 74
0
 40
0
 40
0
 40
0
 40
0
 40
1
 40
1
 40
1
 40
1
 10
164.000040
 20
59.407016
 30
0.0
 10
164.002040
 20
58.335958
 30
0.0
 10
163.559350
 20
57.347834
 30
0.0
 10
162.828110
 20
56.579149
 30
0.0
  0
LWPOLYLINE
  5
182
100
AcDbEntity
  8
Layer_1
 62
7
100
AcDbPolyline
 90
2
 70
0
 10
139.499970
 20
89.000132
 30
0.0
 10
162.000140
 20
89.000132
 30
0.0
  0
SPLINE
  5
183
100
AcDbEntity
  8
Layer_1
 62
7
100
AcDbSpline
 70
8
 71
3
 72
8
 73
4
 74
0
 40
0
 40
0
 40
0
 40
0
 40
1
 40
1
 40
1
 40
1
 10
107.420830
 20
1.171870
 30
0.0
 10
106.665400
 20
0.413110
 30
0.0
 10
105.653600
 20
0.026350
 30
0.0
 10
104.592960
 20
-0.000060
 30
0.0
  0
LWPOLYLINE
  5
184
100
AcDbEntity
  8
Layer_1
 62
7
100
AcDbPolyline
 90
2
 70
0
 10
162.828110
 20
56.579149
 30
0.0
 10
107.420830
 20
1.171870
 30
0.0
  0
SPLINE
  5
185
100
AcDbEntity
  8
Layer_1
 62
7
100
AcDbSpline
 70
8
 71
3
 72
8
 73
4
 74
0
 40
0
 40
0
 40
0
 40
0
 40
1
 40
1
 40
1
 40
1
 10
103.906110
 20
-0.000060
 30
0.0
 10
102.834300
 20
-0.002060
 30
0.0
 10
101.847670
 20
0.441450
 30
0.0
 10
101.077890
 20
1.171870
 30
0.0
  0
LWPOLYLINE
  5
186
100
AcDbEntity
  8
Layer_1
 62
7
100
AcDbPolyline
 90
2
 70
0
 10
104.592960
 20
-0.000060
 30
0.0
 10
103.906110
 20
-0.000060
 30
0.0
  0
SPLINE
  5
187
100
AcDbEntity
  8
Layer_1
 62
7
100
AcDbSpline
 70
8
 71
3
 72
8
 73
4
 74
0
 40
0
 40
0
 40
0
 40
0
 40
1
 40
1
 40
1
 40
1
 10
47.920979
 20
54.428969
 30
0.0
 10
47.166663
 20
55.185148
 30
0.0
 10
46.153136
 20
55.579490
 30
0.0
 10
45.093113
 20
55.599838
 30
0.0
  0
LWPOLYLINE
  5
188
100
AcDbEntity
  8
Layer_1
 62
7
100
AcDbPolyline
 90
2
 70
0
 10
101.077890
 20
1.171870
 30
0.0
 10
47.920979
 20
54.428969
 30
0.0
  0
SPLINE
  5
189
100
AcDbEntity
  8
Layer_1
 62
7
100
AcDbSpline
 70
8
 71
3
 72
8
 73
4
 74
0
 40
0
 40
0
 40
0
 40
0
 40
1
 40
1
 40
1
 40
1
 10
6.655858
 20
55.599838
 30
0.0
 10
5.584389
 20
55.598438
 30
0.0
 10
4.597014
 20
56.040468
 30
0.0
 10
3.827992
 20
56.772119
 30
0.0
  0
LWPOLYLINE
  5
18a
100
AcDbEntity
  8
Layer_1
 62
7
100
AcDbPolyline
 90
2
 70
0
 10
45.093113
 20
55.599838
 30
0.0
 10
6.655858
 20
55.599838
 30
0.0
  0
SPLINE
  5
18b
100
AcDbEntity
  8
Layer_1
 62
7
100
AcDbSpline
 70
8
 71
3
 72
8
 73
4
 74
0
 40
0
 40
0
 40
0
 40
0
 40
1
 40
1
 40
1
 40
1
 10
1.170869
 20
59.428888
 30
0.0
 10
0.415312
 20
60.184383
 30
0.0
 10
0.020528
 20
61.196365
 30
0.0
 10
0.000000
 20
62.257108
 30
0.0
  0
LWPOLYLINE
  5
18c
100
AcDbEntity
  8
Layer_1
 62
7
100
AcDbPolyline
 90
2
 70
0
 10
3.827992
 20
56.772119
 30
0.0
 10
1.170869
 20
59.428888
 30
0.0
  0
SPLINE
  5
18d
100
AcDbEntity
  8
Layer_1
 62
7
100
AcDbSpline
 70
8
 71
3
 72
8
 73
4
 74
0
 40
0
 40
0
 40
0
 40
0
 40
1
 40
1
 40
1
 40
1
 10
0.000000
 20
132.094053
 30
0.0
 10
0.000000
 20
133.142104
 30
0.0
 10
0.414274
 20
134.145539
 30
0.0
 10
1.137003
 20
134.886995
 30
0.0
  0
LWPOLYLINE
  5
18e
100
AcDbEntity
  8
Layer_1
 62
7
100
AcDbPolyline
 90
2
 70
0
 10
0.000000
 20
62.257108
 30
0.0
 10
0.000000
 20
132.094053
 30
0.0
  0
SPLINE
  5
18f
100
AcDbEntity
  8
Layer_1
 62
7
100
AcDbSpline
 70
8
 71
3
 72
8
 73
4
 74
0
 40
0
 40
0
 40
0
 40
0
 40
1
 40
1
 40
1
 40
1
 10
4.158898
 20
137.909943
 30
0.0
 10
4.707475
 20
138.466354
 30
0.0
 10
5.412584
 20
138.819710
 30
0.0
 10
6.163028
 20
138.995092
 30
0.0
  0
LWPOLYLINE
  5
190
100
AcDbEntity
  8
Layer_1
 62
7
100
AcDbPolyline
 90
3
 70
0
 10
1.137003
 20
134.886995
 30
0.0
 10
1.170870
 20
134.921915
 30
0.0
 10
4.158898
 20
137.909943
 30
0.0
  0
SPLINE
  5
191
100
AcDbEntity
  8
Layer_1
 62
7
100
AcDbSpline
 70
8
 71
3
 72
8
 73
4
 74
0
 40
0
 40
0
 40
0
 40
0
 40
1
 40
1
 40
1
 40
1
 10
61.591824
 20
150.664981
 30
0.0
 10
61.862686
 20
150.725758
 30
0.0
 10
62.139180
 20
150.744289
 30
0.0
 10
62.415913
 20
150.750000
 30
0.0
  0
LWPOLYLINE
  5
192
100
AcDbEntity
  8
Layer_1
 62
7
100
AcDbPolyline
 90
2
 70
0
 10
6.163028
 20
138.995092
 30
0.0
 10
61.591824
 20
150.664981
 30
0.0
  0
SPLINE
  5
193
100
AcDbEntity
  8
Layer_1
 62
7
100
AcDbSpline
 70
8
 71
3
 72
8
 73
4
 74
0
 40
0
 40
0
 40
0
 40
0
 40
1
 40
1
 40
1
 40
1
 10
89.272884
 20
150.750000
 30
0.0
 10
89.590275
 20
150.756000
 30
0.0
 10
89.902963
 20
150.705376
 30
0.0
 10
90.211979
 20
150.638875
 30
0.0
  0
LWPOLYLINE
  5
194
100
AcDbEntity
  8
Layer_1
 62
7
100
AcDbPolyline
 90
2
 70
0
 10
62.415913
 20
150.750000
 30
0.0
 10
89.272884
 20
150.750000
 30
0.0
  0
SPLINE
  5
195
100
AcDbEntity
  8
Layer_1
 62
7
100
AcDbSpline
 70
8
 71
3
 72
8
 73
4
 74
0
 40
0
 40
0
 40
0
 40
0
 40
1
 40
1
 40
1
 40
1
 10
135.940750
 20
139.594541
 30
0.0
 10
136.837790
 20
139.405982
 30
0.0
 10
137.500080
 20
138.589581
 30
0.0
 10
137.500080
 20
137.643953
 30
0.0
  0
LWPOLYLINE
  5
196
100
AcDbEntity
  8
Layer_1
 62
7
100
AcDbPolyline
 90
2
 70
0
 10
90.211979
 20
150.638875
 30
0.0
 10
135.940750
 20
139.594541
 30
0.0
  0
LWPOLYLINE
  5
197
100
AcDbEntity
  8
Layer_1
 62
7
100
AcDbPolyline
 90
2
 70
0
 10
139.499970
 20
89.000132
 30
0.0
 10
162.000140
 20
89.000132
 30
0.0
  0
ENDSEC
  0
SECTION
  2
OBJECTS
  0
DICTIONARY
  5
C
330
0
100
AcDbDictionary
  3
ACAD_GROUP
350
D
  3
ACAD_MLINESTYLE
350
17
  0
DICTIONARY
  5
D
330
C
100
AcDbDictionary
  0
DICTIONARY
  5
1A
330
C
100
AcDbDictionary
  0
DICTIONARY
  5
17
330
C
100
AcDbDictionary
  3
STANDARD
350
18
  0
DICTIONARY
  5
19
330
C
100
AcDbDictionary
  0
ENDSEC
  0
EOF
