<?xml version="1.0" encoding="UTF-8" standalone="no"?>
<svg
   xmlns:dc="http://purl.org/dc/elements/1.1/"
   xmlns:cc="http://creativecommons.org/ns#"
   xmlns:rdf="http://www.w3.org/1999/02/22-rdf-syntax-ns#"
   xmlns:svg="http://www.w3.org/2000/svg"
   xmlns="http://www.w3.org/2000/svg"
   width="400"
   height="200"
   viewBox="0 0 105.83333 52.916668"
   version="1.1"
   id="svg8">
  <defs
     id="defs2">
    <rect
       x="47.625"
       y="79.375"
       width="68.791664"
       height="23.8125"
       id="rect857" />
  </defs>
  <metadata
     id="metadata5">
    <rdf:RDF>
      <cc:Work
         rdf:about="">
        <dc:format>image/svg+xml</dc:format>
        <dc:type
           rdf:resource="http://purl.org/dc/dcmitype/StillImage" />
        <dc:title></dc:title>
      </cc:Work>
    </rdf:RDF>
  </metadata>
  <g
     id="layer1"
     transform="translate(-30.031097,-14.502087)">
    <g
       id="g854"
       transform="translate(0.96763517)">
      <circle
         style="fill:#4d4288;fill-opacity:1;fill-rule:evenodd;stroke:none;stroke-width:0.1"
         id="path835"
         cx="82.020836"
         cy="40.960419"
         r="26.458332" />
      <path
         id="circle839"
         style="fill:#4d4288;fill-opacity:1;fill-rule:evenodd;stroke:none;stroke-width:0.1"
         d="m 30.031097,14.502087 c 14.612533,0 26.458332,11.845799 26.458332,26.458332 0,14.612533 -11.845799,26.458332 -26.458332,26.458332 16.783027,-18.370671 15.300378,-35.910835 0,-52.916664 z" />
      <path
         id="path847"
         style="fill:#4d4288;fill-opacity:1;fill-rule:evenodd;stroke:none;stroke-width:0.1"
         d="m 133.92916,14.502087 c -14.61253,0 -26.45833,11.845799 -26.45833,26.458332 0,14.612533 11.8458,26.458332 26.45833,26.458332 -16.78302,-18.370671 -15.30038,-35.910835 0,-52.916664 z" />
    </g>
    <g
       aria-label="nyx"
       transform="matrix(1.9671725,0,0,1.9671725,-78.598508,-129.27848)"
       id="text855"
       style="font-size:10.5833px;line-height:1.25;font-family:'JetBrains Mono';-inkscape-font-specification:'JetBrains Mono';text-align:center;letter-spacing:0px;word-spacing:0px;white-space:pre;shape-inside:url(#rect857);fill:#ffffff;fill-opacity:1">
      <path
         d="m 71.310212,90.222882 v -7.365976 h 0.412749 l 5.143484,4.995317 v -4.995317 h 0.391582 v 7.365976 h -0.391582 v -1.820327 l -5.164651,-5.037651 v 6.857978 z"
         style="font-style:normal;font-variant:normal;font-weight:normal;font-stretch:normal;font-family:'Major Mono Display';-inkscape-font-specification:'Major Mono Display';text-align:center;text-anchor:middle;fill:#ffffff;fill-opacity:1"
         id="path874" />
      <path
         d="m 79.417017,82.856906 2.614075,3.936987 2.592909,-3.936987 h 0.465665 l -2.868074,4.349736 v 3.01624 H 81.83001 v -3.01624 l -2.878658,-4.349736 z"
         style="font-style:normal;font-variant:normal;font-weight:normal;font-stretch:normal;font-family:'Major Mono Display';-inkscape-font-specification:'Major Mono Display';text-align:center;text-anchor:middle;fill:#ffffff;fill-opacity:1"
         id="path876" />
      <path
         d="m 89.598149,86.539894 -2.825741,-3.682988 h 0.507998 l 2.571742,3.354906 2.582325,-3.354906 h 0.497415 l -2.825741,3.682988 2.825741,3.682988 h -0.497415 l -2.582325,-3.354906 -2.571742,3.354906 h -0.507998 z"
         style="font-style:normal;font-variant:normal;font-weight:normal;font-stretch:normal;font-family:'Major Mono Display';-inkscape-font-specification:'Major Mono Display';text-align:center;text-anchor:middle;fill:#ffffff;fill-opacity:1"
         id="path878" />
    </g>
  </g>
</svg>
