%FSLAX46Y46*%
%MOMM*%
%AMPS20*
1,1,1.801600,0.000000,0.000000*
%
%ADD20PS20*%
%AMPS38*
1,1,1.801600,0.000000,0.000000*
%
%ADD38PS38*%
%AMPS28*
1,1,1.301600,0.000000,0.000000*
%
%ADD28PS28*%
%AMPS18*
1,1,1.201600,0.000000,0.000000*
%
%ADD18PS18*%
%AMPS30*
4,1,6,
1.910319,0.000000,
0.784888,1.125431,
0.183750,0.524293,
-0.603258,1.307060,
-1.910319,0.000000,
0.000000,-1.910319,
1.910319,0.000000,
0
*
%
%ADD30PS30*%
%AMPS35*
21,1,1.351600,1.101600,0.000000,0.000000,90.000000*
%
%ADD35PS35*%
%AMPS36*
21,1,0.701600,0.951600,0.000000,0.000000,0.000000*
%
%ADD36PS36*%
%AMPS37*
21,1,0.801600,1.201600,0.000000,0.000000,0.000000*
%
%ADD37PS37*%
%AMPS39*
1,1,0.431800,0.000000,0.000000*
%
%ADD39PS39*%
%AMPS14*
21,1,2.651600,2.601600,0.000000,0.000000,0.000000*
%
%ADD14PS14*%
%AMPS24*
21,1,2.651600,2.601600,0.000000,0.000000,45.000000*
%
%ADD24PS24*%
%AMPS32*
21,1,2.651600,2.601600,0.000000,0.000000,315.000000*
%
%ADD32PS32*%
%AMPS15*
21,1,2.701600,2.701600,0.000000,0.000000,0.000000*
%
%ADD15PS15*%
%AMPS25*
21,1,2.701600,2.701600,0.000000,0.000000,45.000000*
%
%ADD25PS25*%
%AMPS33*
4,1,6,
1.486055,-0.424264,
0.955725,0.106066,
1.379989,0.530330,
0.000000,1.910319,
-1.910319,0.000000,
0.000000,-1.910319,
1.486055,-0.424264,
0
*
%
%ADD33PS33*%
%AMPS16*
1,1,1.803600,0.000000,0.000000*
%
%ADD16PS16*%
%AMPS26*
1,1,1.803600,0.000000,0.000000*
%
%ADD26PS26*%
%AMPS34*
1,1,1.803600,0.000000,0.000000*
%
%ADD34PS34*%
%AMPS13*
1,1,3.101600,0.000000,0.000000*
%
%ADD13PS13*%
%AMPS23*
1,1,3.101600,0.000000,0.000000*
%
%ADD23PS23*%
%AMPS31*
1,1,3.101600,0.000000,0.000000*
%
%ADD31PS31*%
%AMPS11*
1,1,4.089600,0.000000,0.000000*
%
%ADD11PS11*%
%AMPS21*
1,1,4.089600,0.000000,0.000000*
%
%ADD21PS21*%
%AMPS29*
1,1,4.089600,0.000000,0.000000*
%
%ADD29PS29*%
%AMPS22*
4,1,6,
0.000000,1.910319,
-1.125431,0.784888,
-0.524293,0.183750,
-1.307060,-0.603258,
0.000000,-1.910319,
1.910319,0.000000,
0.000000,1.910319,
0
*
%
%ADD22PS22*%
%AMPS27*
21,1,1.901600,1.601600,0.000000,0.000000,135.000000*
%
%ADD27PS27*%
%AMPS17*
21,1,1.901600,1.601600,0.000000,0.000000,180.000000*
%
%ADD17PS17*%
%AMPS19*
21,1,1.901600,1.601600,0.000000,0.000000,225.000000*
%
%ADD19PS19*%
%AMPS10*
1,1,2.501600,0.000000,0.000000*
%
%ADD10PS10*%
%AMPS12*
4,1,6,
1.350800,1.350800,
-0.240800,1.350800,
-0.240800,0.500663,
-1.350800,0.497663,
-1.350800,-1.350800,
1.350800,-1.350800,
1.350800,1.350800,
0
*
%
%ADD12PS12*%
G01*
G01*
%LPD*%
G75*
D10*
X160600000Y-58350000D03*
D10*
X4900000Y-16650000D03*
D10*
X100500000Y-50825000D03*
D10*
X97850000Y-91750000D03*
D10*
X160600000Y-25350000D03*
D10*
X55700000Y-4825000D03*
D10*
X44500000Y-45825000D03*
D10*
X4900000Y-90225000D03*
D10*
X160600000Y-65150000D03*
D10*
X140900000Y-15850000D03*
D10*
X47925000Y-91750000D03*
D10*
X140925000Y-58350000D03*
D10*
X140925000Y-65150000D03*
D10*
X134100000Y-14200000D03*
D10*
X104250000Y-147350000D03*
D10*
X160600000Y-91750000D03*
D10*
X96000000Y-4825000D03*
D11*
X51750000Y-17250000D03*
D12*
X48475000Y-23150000D03*
D13*
X46750000Y-21000000D03*
D14*
X59310000Y-14710000D03*
D15*
X60025000Y-21000000D03*
D13*
X55560000Y-14710000D03*
D14*
X45460000Y-12170000D03*
D13*
X47940000Y-14710000D03*
D16*
X57250000Y-17250000D03*
D13*
X54290000Y-12170000D03*
D16*
X46250000Y-17250000D03*
D13*
X49210000Y-12170000D03*
D13*
X56750000Y-21000000D03*
D13*
X51750000Y-23200000D03*
D17*
X36800000Y-48750000D03*
D17*
X40200000Y-48750000D03*
D17*
X94050000Y-82750000D03*
D17*
X97450000Y-82750000D03*
D17*
X94050000Y-25750000D03*
D17*
X97450000Y-25750000D03*
D17*
X56050000Y-82750000D03*
D17*
X59450000Y-82750000D03*
D17*
X56050000Y-25750000D03*
D17*
X59450000Y-25750000D03*
D18*
X155745000Y-34335000D03*
D18*
X140505000Y-39415000D03*
D18*
X156995000Y-45745000D03*
D18*
X140505000Y-41955000D03*
D18*
X140505000Y-36875000D03*
D18*
X156995000Y-27965000D03*
D18*
X155745000Y-36875000D03*
D18*
X156995000Y-50825000D03*
D18*
X141755000Y-50825000D03*
D18*
X156995000Y-38125000D03*
D18*
X153205000Y-45765000D03*
D18*
X144295000Y-47015000D03*
D18*
X155745000Y-49575000D03*
D18*
X144549000Y-39395000D03*
D18*
X146835000Y-47015000D03*
D18*
X141755000Y-30505000D03*
D18*
X140505000Y-24175000D03*
D18*
X148125000Y-47035000D03*
D18*
X156995000Y-48285000D03*
D18*
X146835000Y-48285000D03*
D18*
X140505000Y-44495000D03*
D18*
X155745000Y-26715000D03*
D18*
X153205000Y-47035000D03*
D18*
X140505000Y-31795000D03*
D18*
X141755000Y-33045000D03*
D18*
X156995000Y-30505000D03*
D18*
X141755000Y-38125000D03*
D18*
X156995000Y-40665000D03*
D18*
X155745000Y-39415000D03*
D18*
X150665000Y-47035000D03*
D18*
X141755000Y-45745000D03*
D18*
X156995000Y-35585000D03*
D18*
X150665000Y-45765000D03*
D18*
X155745000Y-31795000D03*
D18*
X140505000Y-26715000D03*
D18*
X155745000Y-44495000D03*
D18*
X140505000Y-52115000D03*
D18*
X146835000Y-35585000D03*
D18*
X141755000Y-27965000D03*
D18*
X141755000Y-35585000D03*
D18*
X155745000Y-47035000D03*
D18*
X150665000Y-34335000D03*
D18*
X156995000Y-53365000D03*
D18*
X152951000Y-38145000D03*
D18*
X144295000Y-48285000D03*
D18*
X155745000Y-52115000D03*
D18*
X141755000Y-53365000D03*
D18*
X140505000Y-47035000D03*
D18*
X156995000Y-33045000D03*
D18*
X155745000Y-24175000D03*
D18*
X140505000Y-49575000D03*
D18*
X141755000Y-40665000D03*
D18*
X155745000Y-29255000D03*
D18*
X141755000Y-25425000D03*
D18*
X155745000Y-41955000D03*
D18*
X149375000Y-48285000D03*
D18*
X156995000Y-43205000D03*
D18*
X141755000Y-48285000D03*
D18*
X156995000Y-25425000D03*
D18*
X140505000Y-34335000D03*
D18*
X141755000Y-43205000D03*
D18*
X140505000Y-29255000D03*
D17*
X94050000Y-63750000D03*
D17*
X97450000Y-63750000D03*
D11*
X127750000Y-82250000D03*
D12*
X124475000Y-88150000D03*
D13*
X122750000Y-86000000D03*
D14*
X135310000Y-79710000D03*
D15*
X136025000Y-86000000D03*
D13*
X131560000Y-79710000D03*
D14*
X121460000Y-77170000D03*
D13*
X123940000Y-79710000D03*
D16*
X133250000Y-82250000D03*
D13*
X130290000Y-77170000D03*
D16*
X122250000Y-82250000D03*
D13*
X125210000Y-77170000D03*
D13*
X132750000Y-86000000D03*
D13*
X127750000Y-88200000D03*
D11*
X70750000Y-70250000D03*
D12*
X67475000Y-76150000D03*
D13*
X65750000Y-74000000D03*
D14*
X78310000Y-67710000D03*
D15*
X79025000Y-74000000D03*
D13*
X74560000Y-67710000D03*
D14*
X64460000Y-65170000D03*
D13*
X66940000Y-67710000D03*
D16*
X76250000Y-70250000D03*
D13*
X73290000Y-65170000D03*
D16*
X65250000Y-70250000D03*
D13*
X68210000Y-65170000D03*
D13*
X75750000Y-74000000D03*
D13*
X70750000Y-76200000D03*
D11*
X13750000Y-63250000D03*
D12*
X10475000Y-69150000D03*
D13*
X8750000Y-67000000D03*
D14*
X21310000Y-60710000D03*
D15*
X22025000Y-67000000D03*
D13*
X17560000Y-60710000D03*
D14*
X7460000Y-58170000D03*
D13*
X9940000Y-60710000D03*
D16*
X19250000Y-63250000D03*
D13*
X16290000Y-58170000D03*
D16*
X8250000Y-63250000D03*
D13*
X11210000Y-58170000D03*
D13*
X18750000Y-67000000D03*
D13*
X13750000Y-69200000D03*
D19*
X116297919Y-134452081D03*
D19*
X118702081Y-132047919D03*
D17*
X18050000Y-90750000D03*
D17*
X21450000Y-90750000D03*
D17*
X18050000Y-33750000D03*
D17*
X21450000Y-33750000D03*
D11*
X108750000Y-59250000D03*
D12*
X105475000Y-65150000D03*
D13*
X103750000Y-63000000D03*
D14*
X116310000Y-56710000D03*
D15*
X117025000Y-63000000D03*
D13*
X112560000Y-56710000D03*
D14*
X102460000Y-54170000D03*
D13*
X104940000Y-56710000D03*
D16*
X114250000Y-59250000D03*
D13*
X111290000Y-54170000D03*
D16*
X103250000Y-59250000D03*
D13*
X106210000Y-54170000D03*
D13*
X113750000Y-63000000D03*
D13*
X108750000Y-65200000D03*
D11*
X13750000Y-44250000D03*
D12*
X10475000Y-50150000D03*
D13*
X8750000Y-48000000D03*
D14*
X21310000Y-41710000D03*
D15*
X22025000Y-48000000D03*
D13*
X17560000Y-41710000D03*
D14*
X7460000Y-39170000D03*
D13*
X9940000Y-41710000D03*
D16*
X19250000Y-44250000D03*
D13*
X16290000Y-39170000D03*
D16*
X8250000Y-44250000D03*
D13*
X11210000Y-39170000D03*
D13*
X18750000Y-48000000D03*
D13*
X13750000Y-50200000D03*
D17*
X132050000Y-71750000D03*
D17*
X135450000Y-71750000D03*
D11*
X32750000Y-21250000D03*
D12*
X29475000Y-27150000D03*
D13*
X27750000Y-25000000D03*
D14*
X40310000Y-18710000D03*
D15*
X41025000Y-25000000D03*
D13*
X36560000Y-18710000D03*
D14*
X26460000Y-16170000D03*
D13*
X28940000Y-18710000D03*
D16*
X38250000Y-21250000D03*
D13*
X35290000Y-16170000D03*
D16*
X27250000Y-21250000D03*
D13*
X30210000Y-16170000D03*
D13*
X37750000Y-25000000D03*
D13*
X32750000Y-27200000D03*
D20*
X147480000Y-56980000D03*
D20*
X152560000Y-59520000D03*
D20*
X144940000Y-59520000D03*
D20*
X144940000Y-56980000D03*
D20*
X150020000Y-59520000D03*
D20*
X152560000Y-56980000D03*
D20*
X147480000Y-59520000D03*
D20*
X150020000Y-56980000D03*
D11*
X127750000Y-63250000D03*
D12*
X124475000Y-69150000D03*
D13*
X122750000Y-67000000D03*
D14*
X135310000Y-60710000D03*
D15*
X136025000Y-67000000D03*
D13*
X131560000Y-60710000D03*
D14*
X121460000Y-58170000D03*
D13*
X123940000Y-60710000D03*
D16*
X133250000Y-63250000D03*
D13*
X130290000Y-58170000D03*
D16*
X122250000Y-63250000D03*
D13*
X125210000Y-58170000D03*
D13*
X132750000Y-67000000D03*
D13*
X127750000Y-69200000D03*
D17*
X113050000Y-86750000D03*
D17*
X116450000Y-86750000D03*
D11*
X108750000Y-21250000D03*
D12*
X105475000Y-27150000D03*
D13*
X103750000Y-25000000D03*
D14*
X116310000Y-18710000D03*
D15*
X117025000Y-25000000D03*
D13*
X112560000Y-18710000D03*
D14*
X102460000Y-16170000D03*
D13*
X104940000Y-18710000D03*
D16*
X114250000Y-21250000D03*
D13*
X111290000Y-16170000D03*
D16*
X103250000Y-21250000D03*
D13*
X106210000Y-16170000D03*
D13*
X113750000Y-25000000D03*
D13*
X108750000Y-27200000D03*
D19*
X102872919Y-121002081D03*
D19*
X105277081Y-118597919D03*
D17*
X18050000Y-71750000D03*
D17*
X21450000Y-71750000D03*
D11*
X89750000Y-55250000D03*
D12*
X86475000Y-61150000D03*
D13*
X84750000Y-59000000D03*
D14*
X97310000Y-52710000D03*
D15*
X98025000Y-59000000D03*
D13*
X93560000Y-52710000D03*
D14*
X83460000Y-50170000D03*
D13*
X85940000Y-52710000D03*
D16*
X95250000Y-55250000D03*
D13*
X92290000Y-50170000D03*
D16*
X84250000Y-55250000D03*
D13*
X87210000Y-50170000D03*
D13*
X94750000Y-59000000D03*
D13*
X89750000Y-61200000D03*
D17*
X93800000Y-44750000D03*
D17*
X97200000Y-44750000D03*
D11*
X51750000Y-36250000D03*
D12*
X48475000Y-42150000D03*
D13*
X46750000Y-40000000D03*
D14*
X59310000Y-33710000D03*
D15*
X60025000Y-40000000D03*
D13*
X55560000Y-33710000D03*
D14*
X45460000Y-31170000D03*
D13*
X47940000Y-33710000D03*
D16*
X57250000Y-36250000D03*
D13*
X54290000Y-31170000D03*
D16*
X46250000Y-36250000D03*
D13*
X49210000Y-31170000D03*
D13*
X56750000Y-40000000D03*
D13*
X51750000Y-42200000D03*
D11*
X127750000Y-44250000D03*
D12*
X124475000Y-50150000D03*
D13*
X122750000Y-48000000D03*
D14*
X135310000Y-41710000D03*
D15*
X136025000Y-48000000D03*
D13*
X131560000Y-41710000D03*
D14*
X121460000Y-39170000D03*
D13*
X123940000Y-41710000D03*
D16*
X133250000Y-44250000D03*
D13*
X130290000Y-39170000D03*
D16*
X122250000Y-44250000D03*
D13*
X125210000Y-39170000D03*
D13*
X132750000Y-48000000D03*
D13*
X127750000Y-50200000D03*
D11*
X51750000Y-55250000D03*
D12*
X48475000Y-61150000D03*
D13*
X46750000Y-59000000D03*
D14*
X59310000Y-52710000D03*
D15*
X60025000Y-59000000D03*
D13*
X55560000Y-52710000D03*
D14*
X45460000Y-50170000D03*
D13*
X47940000Y-52710000D03*
D16*
X57250000Y-55250000D03*
D13*
X54290000Y-50170000D03*
D16*
X46250000Y-55250000D03*
D13*
X49210000Y-50170000D03*
D13*
X56750000Y-59000000D03*
D13*
X51750000Y-61200000D03*
D17*
X75050000Y-78750000D03*
D17*
X78450000Y-78750000D03*
D17*
X37300000Y-86750000D03*
D17*
X40700000Y-86750000D03*
D17*
X37300000Y-67750000D03*
D17*
X40700000Y-67750000D03*
D11*
X89750000Y-17250000D03*
D12*
X86475000Y-23150000D03*
D13*
X84750000Y-21000000D03*
D14*
X97310000Y-14710000D03*
D15*
X98025000Y-21000000D03*
D13*
X93560000Y-14710000D03*
D14*
X83460000Y-12170000D03*
D13*
X85940000Y-14710000D03*
D16*
X95250000Y-17250000D03*
D13*
X92290000Y-12170000D03*
D16*
X84250000Y-17250000D03*
D13*
X87210000Y-12170000D03*
D13*
X94750000Y-21000000D03*
D13*
X89750000Y-23200000D03*
D21*
X107750000Y-130500000D03*
D22*
X109606155Y-136987704D03*
D23*
X106866117Y-136687184D03*
D24*
X111299676Y-123358222D03*
D25*
X116252959Y-127300342D03*
D23*
X108648025Y-126009872D03*
D24*
X99710196Y-131355599D03*
D23*
X103259872Y-131398025D03*
D26*
X111639087Y-126610913D03*
D23*
X105953949Y-125111847D03*
D26*
X103860913Y-134389087D03*
D23*
X102361847Y-128703949D03*
D23*
X113937184Y-129616117D03*
D23*
X111957285Y-134707285D03*
D17*
X113050000Y-29750000D03*
D17*
X116450000Y-29750000D03*
D11*
X70750000Y-13250000D03*
D12*
X67475000Y-19150000D03*
D13*
X65750000Y-17000000D03*
D14*
X78310000Y-10710000D03*
D15*
X79025000Y-17000000D03*
D13*
X74560000Y-10710000D03*
D14*
X64460000Y-8170000D03*
D13*
X66940000Y-10710000D03*
D16*
X76250000Y-13250000D03*
D13*
X73290000Y-8170000D03*
D16*
X65250000Y-13250000D03*
D13*
X68210000Y-8170000D03*
D13*
X75750000Y-17000000D03*
D13*
X70750000Y-19200000D03*
D11*
X89750000Y-36250000D03*
D12*
X86475000Y-42150000D03*
D13*
X84750000Y-40000000D03*
D14*
X97310000Y-33710000D03*
D15*
X98025000Y-40000000D03*
D13*
X93560000Y-33710000D03*
D14*
X83460000Y-31170000D03*
D13*
X85940000Y-33710000D03*
D16*
X95250000Y-36250000D03*
D13*
X92290000Y-31170000D03*
D16*
X84250000Y-36250000D03*
D13*
X87210000Y-31170000D03*
D13*
X94750000Y-40000000D03*
D13*
X89750000Y-42200000D03*
D17*
X75050000Y-59750000D03*
D17*
X78450000Y-59750000D03*
D11*
X70750000Y-51250000D03*
D12*
X67475000Y-57150000D03*
D13*
X65750000Y-55000000D03*
D14*
X78310000Y-48710000D03*
D15*
X79025000Y-55000000D03*
D13*
X74560000Y-48710000D03*
D14*
X64460000Y-46170000D03*
D13*
X66940000Y-48710000D03*
D16*
X76250000Y-51250000D03*
D13*
X73290000Y-46170000D03*
D16*
X65250000Y-51250000D03*
D13*
X68210000Y-46170000D03*
D13*
X75750000Y-55000000D03*
D13*
X70750000Y-57200000D03*
D21*
X80879983Y-103629943D03*
D22*
X82736138Y-110117647D03*
D23*
X79996100Y-109817127D03*
D24*
X84429659Y-96488165D03*
D25*
X89382942Y-100430285D03*
D23*
X81778008Y-99139815D03*
D24*
X72840179Y-104485542D03*
D23*
X76389855Y-104527968D03*
D26*
X84769070Y-99740856D03*
D23*
X79083932Y-98241790D03*
D26*
X76990896Y-107519030D03*
D23*
X75491830Y-101833892D03*
D23*
X87067167Y-102746060D03*
D23*
X85087268Y-107837228D03*
D21*
X94315012Y-117064972D03*
D22*
X96171167Y-123552676D03*
D23*
X93431129Y-123252156D03*
D24*
X97864688Y-109923194D03*
D25*
X102817971Y-113865314D03*
D23*
X95213037Y-112574844D03*
D24*
X86275208Y-117920571D03*
D23*
X89824884Y-117962997D03*
D26*
X98204099Y-113175885D03*
D23*
X92518961Y-111676819D03*
D26*
X90425925Y-120954059D03*
D23*
X88926859Y-115268921D03*
D23*
X100502196Y-116181089D03*
D23*
X98522297Y-121272257D03*
D27*
X114047919Y-115297919D03*
D27*
X116452081Y-117702081D03*
D17*
X74800000Y-40750000D03*
D17*
X78200000Y-40750000D03*
D11*
X32750000Y-40250000D03*
D12*
X29475000Y-46150000D03*
D13*
X27750000Y-44000000D03*
D14*
X40310000Y-37710000D03*
D15*
X41025000Y-44000000D03*
D13*
X36560000Y-37710000D03*
D14*
X26460000Y-35170000D03*
D13*
X28940000Y-37710000D03*
D16*
X38250000Y-40250000D03*
D13*
X35290000Y-35170000D03*
D16*
X27250000Y-40250000D03*
D13*
X30210000Y-35170000D03*
D13*
X37750000Y-44000000D03*
D13*
X32750000Y-46200000D03*
D28*
X160500000Y-45750000D03*
D28*
X160500000Y-50750000D03*
D28*
X160500000Y-48250000D03*
D11*
X51750000Y-74250000D03*
D12*
X48475000Y-80150000D03*
D13*
X46750000Y-78000000D03*
D14*
X59310000Y-71710000D03*
D15*
X60025000Y-78000000D03*
D13*
X55560000Y-71710000D03*
D14*
X45460000Y-69170000D03*
D13*
X47940000Y-71710000D03*
D16*
X57250000Y-74250000D03*
D13*
X54290000Y-69170000D03*
D16*
X46250000Y-74250000D03*
D13*
X49210000Y-69170000D03*
D13*
X56750000Y-78000000D03*
D13*
X51750000Y-80200000D03*
D11*
X32750000Y-78250000D03*
D12*
X29475000Y-84150000D03*
D13*
X27750000Y-82000000D03*
D14*
X40310000Y-75710000D03*
D15*
X41025000Y-82000000D03*
D13*
X36560000Y-75710000D03*
D14*
X26460000Y-73170000D03*
D13*
X28940000Y-75710000D03*
D16*
X38250000Y-78250000D03*
D13*
X35290000Y-73170000D03*
D16*
X27250000Y-78250000D03*
D13*
X30210000Y-73170000D03*
D13*
X37750000Y-82000000D03*
D13*
X32750000Y-84200000D03*
D11*
X108750000Y-40250000D03*
D12*
X105475000Y-46150000D03*
D13*
X103750000Y-44000000D03*
D14*
X116310000Y-37710000D03*
D15*
X117025000Y-44000000D03*
D13*
X112560000Y-37710000D03*
D14*
X102460000Y-35170000D03*
D13*
X104940000Y-37710000D03*
D16*
X114250000Y-40250000D03*
D13*
X111290000Y-35170000D03*
D16*
X103250000Y-40250000D03*
D13*
X106210000Y-35170000D03*
D13*
X113750000Y-44000000D03*
D13*
X108750000Y-46200000D03*
D29*
X118003088Y-106811923D03*
D30*
X111515384Y-108668078D03*
D31*
X111815904Y-105928040D03*
D32*
X125144866Y-110361599D03*
D33*
X121202746Y-115314882D03*
D31*
X122493216Y-107709948D03*
D32*
X117147489Y-98772119D03*
D31*
X117105063Y-102321795D03*
D34*
X121892175Y-110701010D03*
D31*
X123391241Y-105015872D03*
D34*
X114114001Y-102922836D03*
D31*
X119799139Y-101423770D03*
D31*
X118886971Y-112999107D03*
D31*
X113795803Y-111019208D03*
D17*
X56050000Y-63750000D03*
D17*
X59450000Y-63750000D03*
D17*
X17800000Y-52750000D03*
D17*
X21200000Y-52750000D03*
D11*
X13750000Y-25250000D03*
D12*
X10475000Y-31150000D03*
D13*
X8750000Y-29000000D03*
D14*
X21310000Y-22710000D03*
D15*
X22025000Y-29000000D03*
D13*
X17560000Y-22710000D03*
D14*
X7460000Y-20170000D03*
D13*
X9940000Y-22710000D03*
D16*
X19250000Y-25250000D03*
D13*
X16290000Y-20170000D03*
D16*
X8250000Y-25250000D03*
D13*
X11210000Y-20170000D03*
D13*
X18750000Y-29000000D03*
D13*
X13750000Y-31200000D03*
D17*
X132050000Y-33750000D03*
D17*
X135450000Y-33750000D03*
D35*
X161500000Y-28375000D03*
D35*
X161500000Y-36125000D03*
D17*
X75050000Y-21750000D03*
D17*
X78450000Y-21750000D03*
D17*
X55800000Y-44750000D03*
D17*
X59200000Y-44750000D03*
D17*
X37050000Y-29750000D03*
D17*
X40450000Y-29750000D03*
D11*
X70750000Y-32250000D03*
D12*
X67475000Y-38150000D03*
D13*
X65750000Y-36000000D03*
D14*
X78310000Y-29710000D03*
D15*
X79025000Y-36000000D03*
D13*
X74560000Y-29710000D03*
D14*
X64460000Y-27170000D03*
D13*
X66940000Y-29710000D03*
D16*
X76250000Y-32250000D03*
D13*
X73290000Y-27170000D03*
D16*
X65250000Y-32250000D03*
D13*
X68210000Y-27170000D03*
D13*
X75750000Y-36000000D03*
D13*
X70750000Y-38200000D03*
D17*
X113050000Y-67750000D03*
D17*
X116450000Y-67750000D03*
D17*
X132050000Y-90750000D03*
D17*
X135450000Y-90750000D03*
D11*
X108750000Y-78250000D03*
D12*
X105475000Y-84150000D03*
D13*
X103750000Y-82000000D03*
D14*
X116310000Y-75710000D03*
D15*
X117025000Y-82000000D03*
D13*
X112560000Y-75710000D03*
D14*
X102460000Y-73170000D03*
D13*
X104940000Y-75710000D03*
D16*
X114250000Y-78250000D03*
D13*
X111290000Y-73170000D03*
D16*
X103250000Y-78250000D03*
D13*
X106210000Y-73170000D03*
D13*
X113750000Y-82000000D03*
D13*
X108750000Y-84200000D03*
D17*
X132050000Y-52750000D03*
D17*
X135450000Y-52750000D03*
D36*
X158150000Y-71425001D03*
D37*
X157000000Y-75150001D03*
D36*
X159350000Y-71425001D03*
D37*
X160500000Y-75150001D03*
D17*
X113050000Y-48750000D03*
D17*
X116450000Y-48750000D03*
D19*
X89422919Y-107577081D03*
D19*
X91827081Y-105172919D03*
D11*
X89750000Y-74250000D03*
D12*
X86475000Y-80150000D03*
D13*
X84750000Y-78000000D03*
D14*
X97310000Y-71710000D03*
D15*
X98025000Y-78000000D03*
D13*
X93560000Y-71710000D03*
D14*
X83460000Y-69170000D03*
D13*
X85940000Y-71710000D03*
D16*
X95250000Y-74250000D03*
D13*
X92290000Y-69170000D03*
D16*
X84250000Y-74250000D03*
D13*
X87210000Y-69170000D03*
D13*
X94750000Y-78000000D03*
D13*
X89750000Y-80200000D03*
D11*
X13750000Y-82250000D03*
D12*
X10475000Y-88150000D03*
D13*
X8750000Y-86000000D03*
D14*
X21310000Y-79710000D03*
D15*
X22025000Y-86000000D03*
D13*
X17560000Y-79710000D03*
D14*
X7460000Y-77170000D03*
D13*
X9940000Y-79710000D03*
D16*
X19250000Y-82250000D03*
D13*
X16290000Y-77170000D03*
D16*
X8250000Y-82250000D03*
D13*
X11210000Y-77170000D03*
D13*
X18750000Y-86000000D03*
D13*
X13750000Y-88200000D03*
D38*
X150500000Y-68270000D03*
D38*
X153040000Y-65730000D03*
D38*
X153040000Y-68270000D03*
D38*
X147960000Y-65730000D03*
D38*
X150500000Y-65730000D03*
D38*
X147960000Y-68270000D03*
D11*
X32750000Y-59250000D03*
D12*
X29475000Y-65150000D03*
D13*
X27750000Y-63000000D03*
D14*
X40310000Y-56710000D03*
D15*
X41025000Y-63000000D03*
D13*
X36560000Y-56710000D03*
D14*
X26460000Y-54170000D03*
D13*
X28940000Y-56710000D03*
D16*
X38250000Y-59250000D03*
D13*
X35290000Y-54170000D03*
D16*
X27250000Y-59250000D03*
D13*
X30210000Y-54170000D03*
D13*
X37750000Y-63000000D03*
D13*
X32750000Y-65200000D03*
D11*
X127750000Y-25250000D03*
D12*
X124475000Y-31150000D03*
D13*
X122750000Y-29000000D03*
D14*
X135310000Y-22710000D03*
D15*
X136025000Y-29000000D03*
D13*
X131560000Y-22710000D03*
D14*
X121460000Y-20170000D03*
D13*
X123940000Y-22710000D03*
D16*
X133250000Y-25250000D03*
D13*
X130290000Y-20170000D03*
D16*
X122250000Y-25250000D03*
D13*
X125210000Y-20170000D03*
D13*
X132750000Y-29000000D03*
D13*
X127750000Y-31200000D03*
D39*
X159795300Y-28250000D03*
D39*
X125250000Y-85500000D03*
D39*
X90425925Y-123428933D03*
D39*
X106250000Y-24500000D03*
D39*
X98000000Y-50500000D03*
D39*
X154000000Y-27000000D03*
D39*
X22000000Y-20500000D03*
D39*
X136000000Y-39500000D03*
D39*
X60000000Y-69500000D03*
D39*
X155750000Y-55000000D03*
D39*
X125250000Y-66500000D03*
D39*
X149250000Y-45557890D03*
D39*
X120500000Y-46000000D03*
D39*
X81410313Y-107695806D03*
D39*
X63500000Y-15000000D03*
D39*
X100500000Y-16500000D03*
D39*
X87250000Y-20500000D03*
D39*
X117000000Y-35500000D03*
D39*
X158750000Y-66500000D03*
D39*
X68250000Y-54500000D03*
D39*
X117000000Y-73500000D03*
D39*
X143750000Y-52115000D03*
D39*
X82500000Y-19000000D03*
D39*
X49250000Y-58500000D03*
D39*
X81500000Y-69500000D03*
D39*
X100500000Y-73500000D03*
D39*
X143000000Y-27965000D03*
D39*
X71687595Y-106104816D03*
D39*
X79000000Y-46500000D03*
D39*
X158750000Y-67750000D03*
D39*
X6500000Y-46000000D03*
D39*
X43500000Y-69500000D03*
D39*
X5500000Y-77500000D03*
D39*
X100500000Y-54500000D03*
D39*
X11250000Y-47500000D03*
D39*
X148250000Y-29255000D03*
D39*
X68250000Y-73500000D03*
D39*
X60000000Y-31500000D03*
D39*
X113937225Y-107342253D03*
D39*
X63500000Y-72000000D03*
D39*
X6500000Y-27000000D03*
D39*
X24500000Y-35500000D03*
D39*
X81500000Y-31500000D03*
D39*
X79000000Y-27500000D03*
D39*
X144500000Y-38125000D03*
D39*
X117000000Y-16500000D03*
D39*
X43500000Y-50500000D03*
D39*
X98000000Y-31500000D03*
D39*
X119500000Y-77500000D03*
D39*
X143750000Y-34732590D03*
D39*
X100500000Y-35500000D03*
D39*
X5500000Y-39500000D03*
D39*
X120500000Y-88000000D03*
D39*
X11250000Y-66500000D03*
D39*
X6500000Y-65000000D03*
D39*
X154453703Y-49953703D03*
D39*
X85122624Y-119539845D03*
D39*
X44500000Y-57000000D03*
D39*
X98000000Y-69500000D03*
D39*
X30250000Y-81500000D03*
D39*
X22000000Y-39500000D03*
D39*
X120500000Y-84000000D03*
D39*
X106250000Y-43500000D03*
D39*
X119500000Y-58500000D03*
D39*
X76990896Y-109993904D03*
D39*
X96789885Y-107872584D03*
D39*
X49250000Y-77500000D03*
D39*
X6500000Y-84000000D03*
D39*
X154500000Y-47000000D03*
D39*
X49250000Y-39500000D03*
D39*
X154000000Y-43850300D03*
D39*
X119500000Y-39500000D03*
D39*
X127195476Y-109286796D03*
D39*
X119500000Y-20500000D03*
D39*
X87250000Y-58500000D03*
D39*
X136000000Y-58500000D03*
D39*
X24500000Y-16500000D03*
D39*
X49250000Y-20500000D03*
D39*
X110224873Y-121307612D03*
D39*
X22000000Y-77500000D03*
D39*
X30250000Y-24500000D03*
D39*
X154000000Y-39750000D03*
D39*
X41000000Y-16500000D03*
D39*
X154000000Y-29500000D03*
D39*
X148750000Y-50825000D03*
D39*
X81500000Y-50500000D03*
D39*
X30250000Y-62500000D03*
D39*
X25500000Y-61000000D03*
D39*
X5500000Y-58500000D03*
D39*
X101500000Y-80000000D03*
D39*
X24500000Y-73500000D03*
D39*
X103860913Y-136863961D03*
D39*
X108280330Y-134565863D03*
D39*
X24500000Y-54500000D03*
D39*
X145000000Y-49950000D03*
D39*
X101500000Y-23000000D03*
D39*
X106250000Y-62500000D03*
D39*
X125250000Y-28500000D03*
D39*
X125250000Y-47500000D03*
D39*
X63500000Y-34000000D03*
D39*
X87250000Y-39500000D03*
D39*
X98557612Y-132974873D03*
D39*
X94845342Y-121130835D03*
D39*
X62500000Y-8500000D03*
D39*
X25500000Y-80000000D03*
D39*
X82500000Y-38000000D03*
D39*
X154000000Y-32000000D03*
D39*
X44500000Y-76000000D03*
D39*
X146137410Y-49137410D03*
D39*
X120500000Y-27000000D03*
D39*
X41000000Y-54500000D03*
D39*
X30250000Y-43500000D03*
D39*
X68250000Y-16500000D03*
D39*
X120500000Y-65000000D03*
D39*
X117000000Y-54500000D03*
D39*
X79000000Y-8500000D03*
D39*
X25500000Y-42000000D03*
D39*
X63500000Y-53000000D03*
D39*
X154000000Y-35000000D03*
D39*
X115528215Y-97619535D03*
D39*
X22000000Y-58500000D03*
D39*
X11250000Y-28500000D03*
D39*
X83354856Y-94437555D03*
D39*
X62500000Y-27500000D03*
D39*
X111639127Y-102922836D03*
D39*
X11250000Y-85500000D03*
D39*
X145250000Y-41250000D03*
D39*
X154000000Y-24500000D03*
D39*
X43500000Y-12500000D03*
D39*
X146000000Y-43205000D03*
D39*
X62500000Y-46500000D03*
D39*
X41000000Y-73500000D03*
D39*
X151750000Y-36750000D03*
D39*
X98000000Y-12500000D03*
D39*
X136000000Y-77500000D03*
D39*
X101500000Y-42000000D03*
D39*
X155000000Y-55750000D03*
D39*
X154000000Y-42250000D03*
D39*
X106250000Y-81500000D03*
D39*
X68250000Y-35500000D03*
D39*
X5500000Y-20500000D03*
D39*
X82500000Y-76000000D03*
D39*
X82500000Y-57000000D03*
D39*
X43500000Y-31500000D03*
D39*
X60000000Y-12500000D03*
D39*
X41000000Y-35500000D03*
D39*
X101500000Y-61000000D03*
D39*
X154473703Y-52473703D03*
D39*
X144000000Y-45250000D03*
D39*
X79000000Y-65500000D03*
D39*
X60000000Y-50500000D03*
D39*
X62500000Y-65500000D03*
D39*
X44500000Y-38000000D03*
D39*
X25500000Y-23000000D03*
D39*
X136000000Y-20500000D03*
D39*
X81500000Y-12500000D03*
D39*
X44500000Y-19000000D03*
D39*
X87250000Y-77500000D03*
D39*
X150000000Y-53365000D03*
M02*
