%FSLAX46Y46*%
%MOMM*%
%ADD10C,0.010000*%
G01*
G01*
%LPD*%
D10*
X164000000Y-25656854D02*
X164000000Y-91343145D01*
D10*
X162828427Y-94171572D02*
X107421572Y-149578427D01*
D10*
X104593145Y-150750000D02*
X103906854Y-150750000D01*
D10*
X101078427Y-149578427D02*
X47921572Y-96321572D01*
D10*
X45093145Y-95150000D02*
X6656854Y-95150000D01*
D10*
X3828427Y-93978427D02*
X1171572Y-91321572D01*
D10*
X0Y-88493145D02*
X0Y-18656853D01*
D10*
X1171572Y-15828427D02*
X4159191Y-12840808D01*
D10*
X6163576Y-11755036D02*
X61592445Y-85800D01*
D10*
X62416487Y0D02*
X89273826Y0D01*
D10*
X90212866Y-111786D02*
X154906247Y-15735848D01*
D10*
X156795634Y-16795634D02*
X162828427Y-22828427D01*
D10*
X122988190Y-115049717D02*
X126877278Y-111160629D01*
D10*
X126877278Y-111160629D02*
X130624944Y-114908295D01*
D10*
X130624944Y-114908295D02*
X126735856Y-118797382D01*
D10*
X126735856Y-118797382D02*
X122988190Y-115049717D01*
D10*
X111992681Y-93023341D02*
X114467555Y-90548468D01*
D10*
X114467555Y-90548468D02*
X117295982Y-93376895D01*
D10*
X117295982Y-93376895D02*
X114821108Y-95851768D01*
D10*
X114821108Y-95851768D02*
X111992681Y-93023341D01*
D10*
X106017629Y-98079155D02*
X109906716Y-94190067D01*
D10*
X109906716Y-94190067D02*
X113654382Y-97937733D01*
D10*
X113654382Y-97937733D02*
X109765294Y-101826821D01*
D10*
X109765294Y-101826821D02*
X106017629Y-98079155D01*
D10*
X128963243Y-109993903D02*
X131438116Y-107519029D01*
D10*
X131438116Y-107519029D02*
X134266543Y-110347456D01*
D10*
X134266543Y-110347456D02*
X131791670Y-112822330D01*
D10*
X131791670Y-112822330D02*
X128963243Y-109993903D01*
G75*
G02*
D10*
X162828427Y-22828427D02*
X164000000Y-25656854I-2828427J-2828427D01*
G02*
D10*
X164000000Y-91343145D02*
X162828427Y-94171572I-4000000J1D01*
G02*
D10*
X107421572Y-149578427D02*
X104593145Y-150750000I-2828428J2828427D01*
G02*
D10*
X103906854Y-150750000D02*
X101078427Y-149578427I0J4000000D01*
G03*
D10*
X47921572Y-96321572D02*
X45093145Y-95150000I-2828427J-2828428D01*
G02*
D10*
X6656854Y-95150000D02*
X3828427Y-93978427I0J4000000D01*
G02*
D10*
X1171572Y-91321572D02*
X0Y-88493145I2828427J2828427D01*
G02*
D10*
X0Y-18656853D02*
X1171572Y-15828427I3999999J0D01*
G02*
D10*
X4159191Y-12840808D02*
X6163576Y-11755036I2828427J-2828426D01*
G02*
D10*
X61592445Y-85800D02*
X62416487Y0I824037J-3914200D01*
G02*
D10*
X89273826Y0D02*
X90212866Y-111786I2J-4000000D01*
G02*
D10*
X154906247Y-15735848D02*
X156795634Y-16795634I-939040J-3888213D01*
M02*
