M48
FMAT,2
METRIC,TZ
T9C0.330
T5C0.400
T8C0.790
T6C0.850
T7C1.000
T4C1.702
T1C2.400
T3C3.000
T2C3.988
%
G90
G05
M71
T9
X159.795Y-28.250
X125.250Y-85.500
X90.426Y-123.429
X106.250Y-24.500
X98.000Y-50.500
X154.000Y-27.000
X22.000Y-20.500
X136.000Y-39.500
X60.000Y-69.500
X155.750Y-55.000
X125.250Y-66.500
X149.250Y-45.558
X120.500Y-46.000
X81.410Y-107.696
X63.500Y-15.000
X100.500Y-16.500
X87.250Y-20.500
X117.000Y-35.500
X68.250Y-54.500
X117.000Y-73.500
X143.750Y-52.115
X82.500Y-19.000
X49.250Y-58.500
X81.500Y-69.500
X100.500Y-73.500
X143.000Y-27.965
X71.688Y-106.105
X79.000Y-46.500
X158.750Y-67.750
X6.500Y-46.000
X43.500Y-69.500
X5.500Y-77.500
X100.500Y-54.500
X11.250Y-47.500
X148.250Y-29.255
X68.250Y-73.500
X60.000Y-31.500
X113.937Y-107.342
X63.500Y-72.000
X6.500Y-27.000
X24.500Y-35.500
X81.500Y-31.500
X79.000Y-27.500
X144.500Y-38.125
X117.000Y-16.500
X43.500Y-50.500
X98.000Y-31.500
X119.500Y-77.500
X143.750Y-34.733
X100.500Y-35.500
X5.500Y-39.500
X120.500Y-88.000
X11.250Y-66.500
X6.500Y-65.000
X154.454Y-49.954
X85.123Y-119.540
X44.500Y-57.000
X98.000Y-69.500
X30.250Y-81.500
X22.000Y-39.500
X120.500Y-84.000
X106.250Y-43.500
X119.500Y-58.500
X76.991Y-109.994
X96.790Y-107.873
X49.250Y-77.500
X6.500Y-84.000
X154.500Y-47.000
X49.250Y-39.500
X154.000Y-43.850
X119.500Y-39.500
X127.195Y-109.287
X119.500Y-20.500
X87.250Y-58.500
X136.000Y-58.500
X24.500Y-16.500
X49.250Y-20.500
X110.225Y-121.308
X22.000Y-77.500
X30.250Y-24.500
X154.000Y-39.750
X41.000Y-16.500
X154.000Y-29.500
X148.750Y-50.825
X81.500Y-50.500
X30.250Y-62.500
X25.500Y-61.000
X5.500Y-58.500
X101.500Y-80.000
X24.500Y-73.500
X103.861Y-136.864
X108.280Y-134.566
X24.500Y-54.500
X145.000Y-49.950
X101.500Y-23.000
X106.250Y-62.500
X125.250Y-28.500
X125.250Y-47.500
X63.500Y-34.000
X87.250Y-39.500
X98.558Y-132.975
X94.845Y-121.131
X62.500Y-8.500
X25.500Y-80.000
X82.500Y-38.000
X154.000Y-32.000
X44.500Y-76.000
X146.137Y-49.137
X120.500Y-27.000
X41.000Y-54.500
X30.250Y-43.500
X68.250Y-16.500
X120.500Y-65.000
X117.000Y-54.500
X79.000Y-8.500
X25.500Y-42.000
X63.500Y-53.000
X154.000Y-35.000
X115.528Y-97.620
X22.000Y-58.500
X11.250Y-28.500
X83.355Y-94.438
X62.500Y-27.500
X158.750Y-69.500
X111.639Y-102.923
X11.250Y-85.500
X145.250Y-41.250
X154.000Y-24.500
X43.500Y-12.500
X146.000Y-43.205
X62.500Y-46.500
X41.000Y-73.500
X151.750Y-36.750
X98.000Y-12.500
X136.000Y-77.500
X101.500Y-42.000
X155.000Y-55.750
X154.000Y-42.250
X106.250Y-81.500
X68.250Y-35.500
X5.500Y-20.500
X82.500Y-76.000
X82.500Y-57.000
X43.500Y-31.500
X60.000Y-12.500
X41.000Y-35.500
X101.500Y-61.000
X154.474Y-52.474
X144.000Y-45.250
X79.000Y-65.500
X60.000Y-50.500
X62.500Y-65.500
X44.500Y-38.000
X25.500Y-23.000
X136.000Y-20.500
X81.500Y-12.500
X44.500Y-19.000
X87.250Y-77.500
X150.000Y-53.365
T5
X36.800Y-48.750
X40.200Y-48.750
X94.050Y-82.750
X97.450Y-82.750
X94.050Y-25.750
X97.450Y-25.750
X56.050Y-82.750
X59.450Y-82.750
X56.050Y-25.750
X59.450Y-25.750
X94.050Y-63.750
X97.450Y-63.750
X116.298Y-134.452
X118.702Y-132.048
X18.050Y-90.750
X21.450Y-90.750
X18.050Y-33.750
X21.450Y-33.750
X132.050Y-71.750
X135.450Y-71.750
X113.050Y-86.750
X116.450Y-86.750
X102.873Y-121.002
X105.277Y-118.598
X18.050Y-71.750
X21.450Y-71.750
X93.800Y-44.750
X97.200Y-44.750
X75.050Y-78.750
X78.450Y-78.750
X37.300Y-86.750
X40.700Y-86.750
X37.300Y-67.750
X40.700Y-67.750
X113.050Y-29.750
X116.450Y-29.750
X75.050Y-59.750
X78.450Y-59.750
X114.048Y-115.298
X116.452Y-117.702
X74.800Y-40.750
X78.200Y-40.750
X56.050Y-63.750
X59.450Y-63.750
X17.800Y-52.750
X21.200Y-52.750
X132.050Y-33.750
X135.450Y-33.750
X75.050Y-21.750
X78.450Y-21.750
X55.800Y-44.750
X59.200Y-44.750
X37.050Y-29.750
X40.450Y-29.750
X113.050Y-67.750
X116.450Y-67.750
X132.050Y-90.750
X135.450Y-90.750
X132.050Y-52.750
X135.450Y-52.750
X113.050Y-48.750
X116.450Y-48.750
X89.423Y-107.577
X91.827Y-105.173
T8
X160.500Y-45.750
X160.500Y-50.750
X160.500Y-48.250
T6
X155.745Y-34.335
X140.505Y-39.415
X156.995Y-45.745
X140.505Y-41.955
X140.505Y-36.875
X156.995Y-27.965
X155.745Y-36.875
X156.995Y-50.825
X141.755Y-50.825
X156.995Y-38.125
X153.205Y-45.765
X144.295Y-47.015
X155.745Y-49.575
X144.549Y-39.395
X146.835Y-47.015
X141.755Y-30.505
X140.505Y-24.175
X148.125Y-47.035
X156.995Y-48.285
X146.835Y-48.285
X140.505Y-44.495
X155.745Y-26.715
X153.205Y-47.035
X140.505Y-31.795
X141.755Y-33.045
X156.995Y-30.505
X141.755Y-38.125
X156.995Y-40.665
X155.745Y-39.415
X150.665Y-47.035
X141.755Y-45.745
X156.995Y-35.585
X150.665Y-45.765
X155.745Y-31.795
X140.505Y-26.715
X155.745Y-44.495
X140.505Y-52.115
X146.835Y-35.585
X141.755Y-27.965
X141.755Y-35.585
X155.745Y-47.035
X150.665Y-34.335
X156.995Y-53.365
X152.951Y-38.145
X144.295Y-48.285
X155.745Y-52.115
X141.755Y-53.365
X140.505Y-47.035
X156.995Y-33.045
X155.745Y-24.175
X140.505Y-49.575
X141.755Y-40.665
X155.745Y-29.255
X141.755Y-25.425
X155.745Y-41.955
X149.375Y-48.285
X156.995Y-43.205
X141.755Y-48.285
X156.995Y-25.425
X140.505Y-34.335
X141.755Y-43.205
X140.505Y-29.255
T7
X147.480Y-56.980
X152.560Y-59.520
X144.940Y-59.520
X144.940Y-56.980
X150.020Y-59.520
X152.560Y-56.980
X147.480Y-59.520
X150.020Y-56.980
X150.500Y-68.270
X153.040Y-65.730
X153.040Y-68.270
X147.960Y-65.730
X150.500Y-65.730
X147.960Y-68.270
T4
X57.250Y-17.250
X46.250Y-17.250
X133.250Y-82.250
X122.250Y-82.250
X76.250Y-70.250
X65.250Y-70.250
X19.250Y-63.250
X8.250Y-63.250
X114.250Y-59.250
X103.250Y-59.250
X19.250Y-44.250
X8.250Y-44.250
X38.250Y-21.250
X27.250Y-21.250
X133.250Y-63.250
X122.250Y-63.250
X114.250Y-21.250
X103.250Y-21.250
X95.250Y-55.250
X84.250Y-55.250
X57.250Y-36.250
X46.250Y-36.250
X133.250Y-44.250
X122.250Y-44.250
X57.250Y-55.250
X46.250Y-55.250
X95.250Y-17.250
X84.250Y-17.250
X111.639Y-126.611
X103.861Y-134.389
X76.250Y-13.250
X65.250Y-13.250
X95.250Y-36.250
X84.250Y-36.250
X76.250Y-51.250
X65.250Y-51.250
X84.769Y-99.741
X76.991Y-107.519
X98.204Y-113.176
X90.426Y-120.954
X38.250Y-40.250
X27.250Y-40.250
X57.250Y-74.250
X46.250Y-74.250
X38.250Y-78.250
X27.250Y-78.250
X114.250Y-40.250
X103.250Y-40.250
X121.892Y-110.701
X114.114Y-102.923
X19.250Y-25.250
X8.250Y-25.250
X76.250Y-32.250
X65.250Y-32.250
X114.250Y-78.250
X103.250Y-78.250
X95.250Y-74.250
X84.250Y-74.250
X19.250Y-82.250
X8.250Y-82.250
X38.250Y-59.250
X27.250Y-59.250
X133.250Y-25.250
X122.250Y-25.250
T1
X160.600Y-58.350
X4.900Y-16.650
X100.500Y-50.825
X97.850Y-91.750
X160.600Y-25.350
X55.700Y-4.825
X44.500Y-45.825
X4.900Y-90.225
X160.600Y-65.150
X140.900Y-15.850
X47.925Y-91.750
X140.925Y-58.350
X140.925Y-65.150
X134.100Y-14.200
X104.250Y-147.350
X160.600Y-91.750
X96.000Y-4.825
T3
X46.750Y-21.000
X55.560Y-14.710
X47.940Y-14.710
X54.290Y-12.170
X49.210Y-12.170
X56.750Y-21.000
X51.750Y-23.200
X122.750Y-86.000
X131.560Y-79.710
X123.940Y-79.710
X130.290Y-77.170
X125.210Y-77.170
X132.750Y-86.000
X127.750Y-88.200
X65.750Y-74.000
X74.560Y-67.710
X66.940Y-67.710
X73.290Y-65.170
X68.210Y-65.170
X75.750Y-74.000
X70.750Y-76.200
X8.750Y-67.000
X17.560Y-60.710
X9.940Y-60.710
X16.290Y-58.170
X11.210Y-58.170
X18.750Y-67.000
X13.750Y-69.200
X103.750Y-63.000
X112.560Y-56.710
X104.940Y-56.710
X111.290Y-54.170
X106.210Y-54.170
X113.750Y-63.000
X108.750Y-65.200
X8.750Y-48.000
X17.560Y-41.710
X9.940Y-41.710
X16.290Y-39.170
X11.210Y-39.170
X18.750Y-48.000
X13.750Y-50.200
X27.750Y-25.000
X36.560Y-18.710
X28.940Y-18.710
X35.290Y-16.170
X30.210Y-16.170
X37.750Y-25.000
X32.750Y-27.200
X122.750Y-67.000
X131.560Y-60.710
X123.940Y-60.710
X130.290Y-58.170
X125.210Y-58.170
X132.750Y-67.000
X127.750Y-69.200
X103.750Y-25.000
X112.560Y-18.710
X104.940Y-18.710
X111.290Y-16.170
X106.210Y-16.170
X113.750Y-25.000
X108.750Y-27.200
X84.750Y-59.000
X93.560Y-52.710
X85.940Y-52.710
X92.290Y-50.170
X87.210Y-50.170
X94.750Y-59.000
X89.750Y-61.200
X46.750Y-40.000
X55.560Y-33.710
X47.940Y-33.710
X54.290Y-31.170
X49.210Y-31.170
X56.750Y-40.000
X51.750Y-42.200
X122.750Y-48.000
X131.560Y-41.710
X123.940Y-41.710
X130.290Y-39.170
X125.210Y-39.170
X132.750Y-48.000
X127.750Y-50.200
X46.750Y-59.000
X55.560Y-52.710
X47.940Y-52.710
X54.290Y-50.170
X49.210Y-50.170
X56.750Y-59.000
X51.750Y-61.200
X84.750Y-21.000
X93.560Y-14.710
X85.940Y-14.710
X92.290Y-12.170
X87.210Y-12.170
X94.750Y-21.000
X89.750Y-23.200
X106.866Y-136.687
X108.648Y-126.010
X103.260Y-131.398
X105.954Y-125.112
X102.362Y-128.704
X113.937Y-129.616
X111.957Y-134.707
X65.750Y-17.000
X74.560Y-10.710
X66.940Y-10.710
X73.290Y-8.170
X68.210Y-8.170
X75.750Y-17.000
X70.750Y-19.200
X84.750Y-40.000
X93.560Y-33.710
X85.940Y-33.710
X92.290Y-31.170
X87.210Y-31.170
X94.750Y-40.000
X89.750Y-42.200
X65.750Y-55.000
X74.560Y-48.710
X66.940Y-48.710
X73.290Y-46.170
X68.210Y-46.170
X75.750Y-55.000
X70.750Y-57.200
X79.996Y-109.817
X81.778Y-99.140
X76.390Y-104.528
X79.084Y-98.242
X75.492Y-101.834
X87.067Y-102.746
X85.087Y-107.837
X93.431Y-123.252
X95.213Y-112.575
X89.825Y-117.963
X92.519Y-111.677
X88.927Y-115.269
X100.502Y-116.181
X98.522Y-121.272
X27.750Y-44.000
X36.560Y-37.710
X28.940Y-37.710
X35.290Y-35.170
X30.210Y-35.170
X37.750Y-44.000
X32.750Y-46.200
X46.750Y-78.000
X55.560Y-71.710
X47.940Y-71.710
X54.290Y-69.170
X49.210Y-69.170
X56.750Y-78.000
X51.750Y-80.200
X27.750Y-82.000
X36.560Y-75.710
X28.940Y-75.710
X35.290Y-73.170
X30.210Y-73.170
X37.750Y-82.000
X32.750Y-84.200
X103.750Y-44.000
X112.560Y-37.710
X104.940Y-37.710
X111.290Y-35.170
X106.210Y-35.170
X113.750Y-44.000
X108.750Y-46.200
X111.816Y-105.928
X122.493Y-107.710
X117.105Y-102.322
X123.391Y-105.016
X119.799Y-101.424
X118.887Y-112.999
X113.796Y-111.019
X8.750Y-29.000
X17.560Y-22.710
X9.940Y-22.710
X16.290Y-20.170
X11.210Y-20.170
X18.750Y-29.000
X13.750Y-31.200
X65.750Y-36.000
X74.560Y-29.710
X66.940Y-29.710
X73.290Y-27.170
X68.210Y-27.170
X75.750Y-36.000
X70.750Y-38.200
X103.750Y-82.000
X112.560Y-75.710
X104.940Y-75.710
X111.290Y-73.170
X106.210Y-73.170
X113.750Y-82.000
X108.750Y-84.200
X84.750Y-78.000
X93.560Y-71.710
X85.940Y-71.710
X92.290Y-69.170
X87.210Y-69.170
X94.750Y-78.000
X89.750Y-80.200
X8.750Y-86.000
X17.560Y-79.710
X9.940Y-79.710
X16.290Y-77.170
X11.210Y-77.170
X18.750Y-86.000
X13.750Y-88.200
X27.750Y-63.000
X36.560Y-56.710
X28.940Y-56.710
X35.290Y-54.170
X30.210Y-54.170
X37.750Y-63.000
X32.750Y-65.200
X122.750Y-29.000
X131.560Y-22.710
X123.940Y-22.710
X130.290Y-20.170
X125.210Y-20.170
X132.750Y-29.000
X127.750Y-31.200
T2
X51.750Y-17.250
X127.750Y-82.250
X70.750Y-70.250
X13.750Y-63.250
X108.750Y-59.250
X13.750Y-44.250
X32.750Y-21.250
X127.750Y-63.250
X108.750Y-21.250
X89.750Y-55.250
X51.750Y-36.250
X127.750Y-44.250
X51.750Y-55.250
X89.750Y-17.250
X107.750Y-130.500
X70.750Y-13.250
X89.750Y-36.250
X70.750Y-51.250
X80.880Y-103.630
X94.315Y-117.065
X32.750Y-40.250
X51.750Y-74.250
X32.750Y-78.250
X108.750Y-40.250
X118.003Y-106.812
X13.750Y-25.250
X70.750Y-32.250
X108.750Y-78.250
X89.750Y-74.250
X13.750Y-82.250
X32.750Y-59.250
X127.750Y-25.250
M30
